<svg xmlns="http://www.w3.org/2000/svg" viewBox="0 0 45 45.14"><defs><style>.cls-1{fill:#121926;}.cls-2{fill:none;}</style></defs><title>7</title><g id="レイヤー_2" data-name="レイヤー 2"><g id="UI"><path class="cls-1" d="M16.91,32.14a7,7,0,1,1-7.19,0,7,7,0,1,1,7.19,0ZM40.37,14.77a7,7,0,0,0-11-7.35A7,7,0,0,0,18.08,5a7,7,0,1,0-1.91,7.14,7,7,0,0,0,11,3.5,7,7,0,0,0,3.6,3.72,7,7,0,0,0-2,12.81,7,7,0,1,0,7.19,0,7,7,0,0,0-.7-12.37A7,7,0,0,0,40.37,14.77Z"/><rect class="cls-2" y="0.07" width="45" height="45"/></g></g></svg>