<svg xmlns="http://www.w3.org/2000/svg" viewBox="0 0 45 45"><defs><style>.cls-1{fill:#121926;}.cls-2{fill:none;}</style></defs><title>8</title><g id="レイヤー_2" data-name="レイヤー 2"><g id="UI"><path class="cls-1" d="M36.21,22.5a7,7,0,0,1,0,10.33,7,7,0,1,1-9.42,0,7,7,0,0,1,0-10.33,7,7,0,0,1,0-10.33,7,7,0,1,1,9.42,0,7,7,0,0,1,0,10.33ZM20.5,17.33a7,7,0,0,0-2.29-5.16,7,7,0,1,0-9.42,0,7,7,0,0,0,0,10.33,7,7,0,0,0,0,10.33,7,7,0,1,0,9.42,0,7,7,0,0,0,0-10.33A7,7,0,0,0,20.5,17.33Z"/><rect class="cls-2" width="45" height="45"/></g></g></svg>