<svg xmlns="http://www.w3.org/2000/svg" viewBox="0 0 45 45"><defs><style>.cls-1{fill:#121926;}.cls-2{fill:none;}</style></defs><title>8</title><g id="レイヤー_2" data-name="レイヤー 2"><g id="UI"><path class="cls-1" d="M41.5,7a7,7,0,0,1-13,3.59,7,7,0,0,1-12,0,7,7,0,1,1,0-7.18,7,7,0,0,1,12,0A7,7,0,0,1,41.5,7Zm-7,9a7,7,0,0,0-6,3.41,7,7,0,0,0-12,0,7,7,0,1,0,0,7.18,7,7,0,0,0,12,0A7,7,0,1,0,34.5,16Zm0,15a7,7,0,0,0-6,3.41,7,7,0,0,0-12,0,7,7,0,1,0,0,7.18,7,7,0,0,0,12,0A7,7,0,1,0,34.5,31Z"/><rect class="cls-2" width="45" height="45"/></g></g></svg>