<?xml version="1.0" encoding="iso-8859-1"?>
<!-- Generator: Adobe Illustrator 16.0.0, SVG Export Plug-In . SVG Version: 6.00 Build 0)  -->
<!DOCTYPE svg PUBLIC "-//W3C//DTD SVG 1.1//EN" "http://www.w3.org/Graphics/SVG/1.1/DTD/svg11.dtd">
<svg version="1.1" id="&#x30EC;&#x30A4;&#x30E4;&#x30FC;_1"
	 xmlns="http://www.w3.org/2000/svg" xmlns:xlink="http://www.w3.org/1999/xlink" x="0px" y="0px" width="426.854px"
	 height="580.188px" viewBox="0 0 426.854 580.188" style="enable-background:new 0 0 426.854 580.188;" xml:space="preserve">
<path d="M332.506,154.643c-7.355-0.134-14.41-1.983-20.742-5.489c-12.946-7.171-27.059-10.697-41.277-13.712
	c-12.637-2.68-25.484-4.365-38.234-6.516c-5.445-0.919-10.551-0.064-15.621,2.162c-24.036,10.555-48.033,21.206-72.244,31.342
	c-12.027,5.035-24.399,9.309-36.805,13.339c-3.692,1.2-8.24,1.272-12.033,0.357c-9.64-2.325-18.402-6.868-26.149-13.129
	c-3.77-3.045-4.027-6.437-0.967-9.168c0.775-0.692,1.897-1.256,2.918-1.374c31.976-3.674,62.808-11.773,92.519-24.078
	c20.914-8.661,41.628-17.808,62.603-26.321c9.647-3.916,19.652-6.995,29.613-10.073c2.303-0.711,5.18-0.252,7.633,0.332
	c21.65,5.154,43.254,10.507,64.902,15.665c3.245,0.773,6.667,0.775,9.988,1.266c2.199,0.324,4.467,0.607,6.527,1.379
	c16.75,6.28,20.215,20.461,8.447,33.839C347.955,150.862,341.331,154.954,332.506,154.643"/>
<path style="fill:#79000C;" d="M349.975,478.25c-2.404-27.327-52.337-25.575-70.102-24.821c-4.842-0.209-9.686-0.195-14.53,0.025
	c0-0.005,0.001-0.009,0.001-0.014c0.004-0.103-0.037-0.167-0.039-0.266c-0.15-10.52-1.148-20.511-0.072-30.25
	c1.852-16.771,4.406-33.559,10.707-49.319c1.672-4.183,0.877-7.604-2.49-9.757c-5.543-3.543-11.141-7.185-17.113-9.709
	c-11.166-4.721-11.286-4.399-19.068,5.228c-0.574,0.712-1.033,1.642-1.748,2.094c-3.849,2.442-7.762,4.765-11.652,7.13
	c-0.321-0.481-0.641-0.964-0.961-1.447c2.078-3.896,4.303-7.715,6.188-11.717c1.592-3.375,3.913-5.119,7.313-5.891
	c10.928-2.479,21.752-5.583,32.731-7.689c12.979-2.488,34.892-5.553,47.908-7.82c8.788-1.531,6.896-5.211,11.354-13.506
	c1.267-2.356,1.66-6.342,0.656-8.647c-0.711-1.632-4.477-2.467-6.828-2.329c-14.524,0.848-28.797,3.521-42.539,9.002
	c-12.267,4.893-24.466,9.982-36.699,14.971c-1.238,0.504-2.512,0.908-4.504,1.621c0.975-2.041,1.506-3.14,2.025-4.244
	c6.003-12.727,12.188-25.36,17.934-38.219c3.016-6.747,5.418-14.259,0.658-20.941c-6.849-9.614-16.223-15.757-26.996-19.119
	c-4.203-1.311-6.197,0.442-7.182,5.071c-0.322,1.521-0.803,3.198-0.521,4.637c2.244,11.461-3.459,18.513-11.428,24.46
	c-1.787,1.334-3.237,3.207-5.04,4.51c-1.079,0.779-2.53,0.975-3.833,1.359c-2.852,0.844-6.525,0.709-8.424,2.635
	c-5.455,5.534-10.638,11.543-15.072,18.044c-3.457,5.071-3.355,11.078-0.59,16.937c2.383,5.045,4.257,10.375,6.571,16.115
	c-2.7,0.467-4.669,0.864-6.651,1.142c-22.909,3.204-45.855,4.683-68.903,2.997c-2.005-0.146-4.116,1.168-6.177,1.804
	c1.058,2.413,2.034,4.876,3.224,7.211c0.381,0.748,1.35,1.128,2.014,1.722c9.662,8.648,21.479,9.442,32.955,8.102
	c15.362-1.795,30.557-5.531,45.796-8.598c7.621-1.531,15.185-3.423,24.168-5.471c-2.983,6.438-5.32,11.758-7.945,16.906
	c-0.513,1.007-2.083,1.668-3.272,1.961c-9.756,2.398-19.512,4.825-29.334,6.859c-1.999,0.414-4.52-0.283-6.365-1.344
	c-5.828-3.348-11.907-3.938-18.896-3.227c0.377,5.631,0.718,10.745,1.062,15.859c0.93,13.873,1.783,27.754,2.815,41.617
	c0.852,11.44,2.75,22.594,8.974,32.729c-3.834,0.521-7.668,1.053-11.489,1.526c-0.985-6.125-1.743-12.308-2.194-18.58
	c-1.272-17.705-0.298-24.485-19.042-28.707c-1.204-0.271-2.211,0.033-2.981,0.621c-0.025,0.012-0.045,0.029-0.069,0.041
	c-1.517,0.289-2.816,1.385-2.733,3.397c0.635,15.219,2.672,30.147,6.927,44.802c-8.758,0.182-17.493-0.566-26.213-2.935
	c-0.13-0.035-0.251-0.104-0.382-0.138c-3.005-0.76-11.073-1.907-13.948-0.508c-5.483,2.668,8.116,17.375,12.183,22.465
	c8.071,10.104,12.456,10.07,24.262,6.438c4.074-1.253,8.204-2.185,12.356-2.997c1.361,3.074,2.736,6.141,4.279,9.13
	c1.45,4.876,2.499,9.823,3.147,14.839c0.738,1.252,1.416,2.324,2.113,3.254c1.833,3.75,5.032,6.692,10.984,8.213
	c2.533,0.648,4.887-1.535,4.495-4.08c1.757-0.868,2.813-2.301,4.083-3.877c1.074,0.55,2.249,0.973,3.62,1.191
	c9.385,1.501,25.927-4.572,35.346-6.547c2.037-0.428,4.206-0.766,6.36-1.114c59.639,22.304,76.533,24.981,106.922,6.111
	C343.359,503.502,352.197,503.502,349.975,478.25 M212.873,341.505c-2.302,1.205-4.902,1.731-6.68,2.313
	c-0.47-12.644-0.923-24.868-1.381-37.093c-0.041-1.092-0.091-2.182-0.173-3.27c-0.432-5.732,1.2-9.965,6.712-12.035
	c3.905-1.468,7.623-3.538,12.52-5.856c-0.264,3.543-0.27,5.952-0.648,8.294c-2.367,14.635-4.753,29.268-7.345,43.859
	C215.623,339.159,214.163,340.828,212.873,341.505 M208.661,387.937c0.117-0.944,1.112-2.26,1.948-2.547
	c7.584-2.608,15.221-5.039,22.854-7.473c0.514-0.164,1.128,0.059,2.216,0.139c-0.737,5.113-1.387,10.158-2.264,15.16
	c-0.142,0.809-1.207,1.862-1.995,2.055c-7.73,1.887-15.495,3.615-23.799,5.516C207.979,395.972,208.169,391.935,208.661,387.937
	 M205.907,415.777c0.1-0.901,1.236-2.144,2.106-2.419c7.734-2.451,15.515-4.719,24.365-7.365
	c-0.954,6.632-1.661,12.168-2.626,17.654c-0.163,0.924-1.332,2.124-2.219,2.359c-7.404,1.981-14.851,3.767-22.908,5.766
	C205.064,425.882,205.344,420.812,205.907,415.777 M205.379,443.599c7.468-1.607,14.964-3.055,22.986-4.655
	c-0.379,5.091-0.703,9.762-1.116,14.364c-0.617,1.365-1.097,2.78-1.396,4.24c-7.885,1.143-15.774,2.243-23.665,3.346
	c0.394-5.413,0.72-10.406,1.229-15.324C203.495,444.828,204.613,443.765,205.379,443.599 M191.074,390.313
	c-0.306,4.099-0.451,7.768-0.942,11.387c-0.12,0.891-1.254,2.102-2.111,2.343c-5.277,1.482-10.609,2.73-16.371,4.168
	c-0.077-5.123-0.143-9.438-0.214-14.222C177.936,392.772,184.252,391.591,191.074,390.313 M170.586,422.154
	c0.102-0.882,1.216-2.179,2.021-2.347c5.09-1.054,10.224-1.845,15.691-2.781c-0.395,5.309-0.674,10.381-1.259,15.416
	c-0.085,0.732-1.585,1.709-2.517,1.852c-4.855,0.742-9.74,1.25-15.069,1.895C169.83,431.129,170.064,426.624,170.586,422.154
	 M167.461,449.584c0.192-0.747,1.734-1.467,2.699-1.565c5.005-0.506,10.025-0.806,16.047-1.25
	c-0.416,5.58-0.653,10.382-1.232,15.138c-0.055,0.458-0.398,1.014-0.832,1.489c-6.826,0.928-13.649,1.865-20.477,2.777
	C164.963,460.289,166.096,454.882,167.461,449.584 M157.997,503.416c-0.598-0.143-1.143-0.135-1.642-0.032
	c-1.216-4.578-2.368-9.16-3.453-13.754c11.112-1.257,22.333-2.005,33.447-3.578c0.425,3.303,0.965,6.599,1.648,9.888
	C173.302,500.206,161.016,504.136,157.997,503.416 M227.381,484.033c-0.538,0.894-0.596,1.753-0.415,2.532
	c-8.666,0.66-15.435,2.964-25.701,5.673c-0.022-1.774-0.027-3.548-0.017-5.32c0.088-1.188,0.191-2.377,0.254-3.565
	c10.109-2.096,16.262-4.477,26.188-6.523C228.535,479.323,228.75,481.763,227.381,484.033 M305.398,494.776
	c-5.513,7.019-15.035,13.042-22.627,14.29c-19.604,3.224-30.938,3.763-49.998,0.437c2.627-0.563,5.193-1.181,7.563-1.972
	c4.89-1.632,9.079-1.779,10.374-7.717c1.477-1.13,2.875-2.354,4.145-3.708c3.963-1.516,7.571-3.729,8.774-7.667
	c1.237-4.043,0.576-9.257,0.76-13.436c0.04-0.896,0.079-1.791,0.119-2.686c6.458-0.347,12.933-0.664,19.401-0.587
	c10.617,0.127,10.203-2.455,19.009,5.098C309.566,482.533,312.252,486.052,305.398,494.776"/>
<g>
</g>
<g>
</g>
<g>
</g>
<g>
</g>
<g>
</g>
<g>
</g>
</svg>
