<?xml version="1.0" encoding="iso-8859-1"?>
<!-- Generator: Adobe Illustrator 16.0.0, SVG Export Plug-In . SVG Version: 6.00 Build 0)  -->
<!DOCTYPE svg PUBLIC "-//W3C//DTD SVG 1.1//EN" "http://www.w3.org/Graphics/SVG/1.1/DTD/svg11.dtd">
<svg version="1.1" id="&#x30EC;&#x30A4;&#x30E4;&#x30FC;_1"
	 xmlns="http://www.w3.org/2000/svg" xmlns:xlink="http://www.w3.org/1999/xlink" x="0px" y="0px" width="426.854px"
	 height="580.188px" viewBox="0 0 426.854 580.188" style="enable-background:new 0 0 426.854 580.188;" xml:space="preserve">
<path d="M331.124,199.888c-6.496-2.003-13.48-3.074-19.391-6.189c-15.787-8.321-32.875-12.097-50.029-15.652
	c-10.313-2.137-20.81-3.549-31.291-4.619c-4.064-0.414-8.677,0.158-12.427,1.737c-23.787,10.017-47.299,20.692-71.118,30.631
	c-12.742,5.317-25.906,9.626-38.902,14.327c-4.762,1.723-9.694,1.671-14.213-0.429c-7.469-3.473-14.808-7.26-22.005-11.266
	c-2.677-1.49-5.368-3.791-4.297-7.572c1.034-3.651,4.114-4.042,7.433-4.447c33.36-4.071,65.324-13.326,96.231-26.359
	c18.392-7.756,36.656-15.815,55.104-23.437c8.417-3.478,17.117-6.283,25.728-9.278c4.429-1.541,8.744-1.123,13.384,0.055
	c20.993,5.334,42.09,10.269,63.18,15.227c3.175,0.748,6.492,0.94,9.757,1.238c7.746,0.705,13.757,4.474,18.334,10.541
	c2.888,3.829,3.696,8.219,2.526,12.986C356.236,189.169,343.288,199.308,331.124,199.888"/>
<path d="M279.446,55.407c-1.36,6.035-2.3,11.668-3.936,17.091c-2.29,7.595-7.123,13.253-14.53,16.458
	c-9.93,4.297-19.731,8.941-29.85,12.737c-25.081,9.41-50.293,18.466-75.484,27.579c-16.736,6.054-30.01,2.021-40.967-12.256
	c-3.677-4.791-2.852-7.399,3.18-7.713c18.024-0.937,35.665-3.958,53.078-8.559c26.482-6.996,50.439-19.465,73.476-33.899
	c8.574-5.372,16.92-11.112,25.521-16.437c2.022-1.253,5.576-2.782,6.802-1.908C278.45,49.723,278.643,53.081,279.446,55.407"/>
<path style="fill:#79000C;" d="M351.957,478.25c-2.403-27.326-52.337-25.576-70.101-24.822c-4.842-0.209-9.686-0.194-14.53,0.026
	v-0.014c0.005-0.103-0.037-0.167-0.039-0.265c-0.149-10.521-1.147-20.512-0.073-30.252c1.853-16.77,4.407-33.558,10.709-49.318
	c1.672-4.182,0.877-7.604-2.49-9.756c-5.543-3.543-11.141-7.186-17.115-9.711c-11.166-4.72-11.285-4.398-19.066,5.229
	c-0.574,0.712-1.033,1.641-1.748,2.094c-3.85,2.442-7.763,4.766-11.654,7.131c-0.319-0.482-0.639-0.965-0.959-1.447
	c2.078-3.897,4.302-7.715,6.187-11.717c1.591-3.377,3.913-5.121,7.313-5.892c10.927-2.479,21.75-5.583,32.73-7.688
	c12.981-2.489,34.891-5.554,47.909-7.821c8.788-1.531,6.896-5.211,11.354-13.507c1.267-2.355,1.66-6.342,0.655-8.646
	c-0.71-1.632-4.477-2.467-6.827-2.329c-14.525,0.847-28.798,3.521-42.541,9.002c-12.265,4.893-24.465,9.982-36.697,14.97
	c-1.239,0.506-2.512,0.908-4.504,1.623c0.974-2.043,1.504-3.141,2.024-4.246c6.004-12.726,12.188-25.359,17.935-38.217
	c3.014-6.748,5.416-14.26,0.658-20.942c-6.85-9.614-16.224-15.757-26.998-19.119c-4.203-1.311-6.195,0.442-7.181,5.071
	c-0.323,1.521-0.803,3.198-0.522,4.637c2.244,11.461-3.457,18.513-11.428,24.46c-1.787,1.334-3.236,3.207-5.039,4.51
	c-1.08,0.779-2.531,0.974-3.833,1.359c-2.852,0.844-6.525,0.709-8.424,2.635c-5.455,5.534-10.638,11.543-15.072,18.044
	c-3.457,5.071-3.356,11.078-0.59,16.936c2.383,5.045,4.257,10.375,6.571,16.115c-2.7,0.467-4.669,0.865-6.651,1.143
	c-22.908,3.205-45.855,4.683-68.903,2.996c-2.004-0.145-4.116,1.169-6.177,1.805c1.059,2.413,2.034,4.876,3.224,7.211
	c0.381,0.748,1.35,1.128,2.014,1.723c9.662,8.647,21.48,9.441,32.955,8.101c15.363-1.795,30.557-5.531,45.796-8.597
	c7.621-1.533,15.185-3.424,24.168-5.472c-2.981,6.437-5.319,11.757-7.945,16.906c-0.513,1.007-2.083,1.668-3.271,1.961
	c-9.757,2.399-19.513,4.825-29.335,6.858c-1.999,0.414-4.52-0.282-6.364-1.342c-5.829-3.349-11.908-3.939-18.896-3.228
	c0.377,5.631,0.718,10.745,1.062,15.858c0.93,13.873,1.783,27.756,2.815,41.619c0.852,11.439,2.751,22.592,8.974,32.729
	c-3.834,0.52-7.668,1.053-11.489,1.525c-0.985-6.125-1.743-12.307-2.193-18.58c-1.273-17.705-0.298-24.484-19.042-28.707
	c-1.205-0.271-2.211,0.033-2.982,0.623c-0.025,0.011-0.045,0.028-0.069,0.039c-1.517,0.289-2.817,1.386-2.733,3.398
	c0.635,15.219,2.672,30.148,6.927,44.802c-8.758,0.183-17.493-0.565-26.213-2.935c-0.13-0.035-0.251-0.104-0.382-0.137
	c-3.005-0.761-11.074-1.908-13.948-0.51c-5.482,2.668,8.115,17.375,12.183,22.467c8.071,10.103,12.457,10.069,24.263,6.438
	c4.073-1.253,8.203-2.184,12.355-2.997c1.361,3.074,2.736,6.14,4.278,9.13c1.451,4.876,2.5,9.823,3.148,14.84
	c0.738,1.252,1.417,2.323,2.113,3.252c1.833,3.75,5.032,6.693,10.983,8.215c2.534,0.647,4.888-1.537,4.496-4.082
	c1.757-0.867,2.814-2.301,4.083-3.875c1.074,0.549,2.249,0.972,3.62,1.19c9.386,1.501,25.926-4.571,35.346-6.547
	c2.037-0.428,4.205-0.767,6.36-1.114c59.639,22.303,76.533,24.981,106.922,6.111C345.341,503.502,354.179,503.502,351.957,478.25
	 M214.855,341.505c-2.302,1.205-4.902,1.731-6.679,2.313c-0.472-12.643-0.924-24.868-1.382-37.092
	c-0.041-1.092-0.091-2.183-0.173-3.271c-0.431-5.733,1.2-9.965,6.712-12.035c3.905-1.468,7.625-3.538,12.521-5.856
	c-0.265,3.543-0.269,5.951-0.648,8.294c-2.366,14.635-4.753,29.268-7.345,43.858C217.605,339.159,216.146,340.828,214.855,341.505
	 M210.645,387.938c0.116-0.945,1.112-2.262,1.946-2.549c7.586-2.607,15.222-5.037,22.854-7.472c0.515-0.164,1.128,0.058,2.216,0.138
	c-0.736,5.114-1.387,10.16-2.264,15.162c-0.143,0.808-1.207,1.861-1.995,2.053c-7.731,1.888-15.495,3.617-23.799,5.517
	C209.962,395.973,210.15,391.936,210.645,387.938 M207.89,415.777c0.1-0.901,1.236-2.145,2.105-2.419
	c7.734-2.451,15.516-4.72,24.365-7.365c-0.954,6.632-1.661,12.168-2.627,17.654c-0.162,0.924-1.332,2.124-2.219,2.36
	c-7.403,1.98-14.85,3.766-22.907,5.765C207.046,425.881,207.327,420.813,207.89,415.777 M207.361,443.6
	c7.468-1.608,14.964-3.056,22.987-4.656c-0.381,5.091-0.704,9.762-1.117,14.363c-0.617,1.365-1.098,2.781-1.395,4.242
	c-7.886,1.142-15.775,2.242-23.666,3.344c0.395-5.412,0.72-10.405,1.228-15.323C205.478,444.828,206.595,443.764,207.361,443.6
	 M193.056,390.313c-0.306,4.099-0.451,7.768-0.941,11.387c-0.121,0.892-1.255,2.101-2.112,2.343
	c-5.277,1.482-10.609,2.73-16.371,4.168c-0.077-5.123-0.142-9.438-0.214-14.222C179.918,392.772,186.233,391.59,193.056,390.313
	 M172.567,422.154c0.103-0.882,1.217-2.18,2.022-2.346c5.09-1.055,10.225-1.846,15.691-2.782
	c-0.395,5.309-0.673,10.381-1.259,15.416c-0.085,0.733-1.585,1.709-2.516,1.852c-4.856,0.742-9.74,1.25-15.07,1.895
	C171.813,431.129,172.046,426.624,172.567,422.154 M169.442,449.584c0.193-0.747,1.735-1.467,2.7-1.566
	c5.005-0.504,10.025-0.805,16.047-1.25c-0.416,5.58-0.653,10.383-1.232,15.139c-0.056,0.458-0.398,1.014-0.832,1.488
	c-6.825,0.929-13.649,1.865-20.477,2.777C166.945,460.289,168.078,454.881,169.442,449.584 M159.98,503.416
	c-0.598-0.143-1.144-0.135-1.643-0.031c-1.216-4.578-2.368-9.162-3.452-13.755c11.111-1.257,22.332-2.005,33.446-3.579
	c0.425,3.303,0.965,6.6,1.648,9.889C175.284,500.206,162.999,504.135,159.98,503.416 M229.364,484.033
	c-0.539,0.893-0.596,1.753-0.416,2.532c-8.666,0.661-15.436,2.964-25.701,5.673c-0.021-1.773-0.027-3.548-0.017-5.32
	c0.087-1.189,0.192-2.377,0.253-3.566c10.109-2.094,16.263-4.476,26.188-6.522C230.518,479.323,230.732,481.764,229.364,484.033
	 M307.382,494.776c-5.514,7.019-15.035,13.042-22.629,14.29c-19.604,3.224-30.937,3.763-49.996,0.437
	c2.625-0.563,5.192-1.181,7.563-1.972c4.891-1.632,9.079-1.779,10.374-7.717c1.478-1.131,2.876-2.354,4.146-3.708
	c3.963-1.517,7.57-3.729,8.774-7.667c1.235-4.043,0.575-9.256,0.759-13.436c0.04-0.896,0.079-1.791,0.119-2.686
	c6.458-0.348,12.932-0.664,19.401-0.587c10.616,0.127,10.204-2.455,19.009,5.098C311.55,482.533,314.235,486.051,307.382,494.776"/>
<g>
</g>
<g>
</g>
<g>
</g>
<g>
</g>
<g>
</g>
<g>
</g>
</svg>
