<?xml version="1.0" encoding="iso-8859-1"?>
<!-- Generator: Adobe Illustrator 16.0.0, SVG Export Plug-In . SVG Version: 6.00 Build 0)  -->
<!DOCTYPE svg PUBLIC "-//W3C//DTD SVG 1.1//EN" "http://www.w3.org/Graphics/SVG/1.1/DTD/svg11.dtd">
<svg version="1.1" id="&#x30EC;&#x30A4;&#x30E4;&#x30FC;_1"
	 xmlns="http://www.w3.org/2000/svg" xmlns:xlink="http://www.w3.org/1999/xlink" x="0px" y="0px" width="426.854px"
	 height="580.188px" viewBox="0 0 426.854 580.188" style="enable-background:new 0 0 426.854 580.188;" xml:space="preserve">
<path style="fill:#00340E;" d="M213.407,38.358c9.783-0.007,13.282,6.727,21.379,10.034c10.209,4.172,19.877,4.796,23.916,17.901
	c4.136,13.416-5.564,18.528-13.521,26.601c-5.948,6.035-3.188,20.171-3.165,28.516c0.021,7.234,1.617,10.102,6.786,13.823
	c4.774,3.436,7.713,9.058,9.385,14.62c3.392,11.288,1.283,26.62-8.961,33.796c-1.794,1.257-4.985,1.54-6.329,3.344
	c-1.406,1.888-0.705,4.976-0.799,7.154c-0.257,6.015,0.068,8.888,0.109,14.909c0.033,4.925-0.785,10.78,0.109,15.645
	c1.242,6.745,6.789,5.637,11.26,10.047c8.894,8.77,8.102,25.698-1.256,33.76c-8.531,7.35-20.172,4.022-29.652,0.766
	c-13.115-4.506-22.678,3.804-35.689,3.707c-12.812-0.096-20.988-12.002-19.764-24.358c0.544-5.491,2.765-10.997,6.952-14.656
	c4.837-4.226,9.712-2.781,10.378-10.235c0.97-10.858,0.86-19.777,0.217-30.661c-0.413-6.972-3.145-6.44-8.073-10.163
	c-4.862-3.674-7.62-10.01-8.852-15.865c-2.407-11.433,1.25-25.631,11.17-32.361c2.723-1.848,4.666-1.552,5.808-5.061
	c0.738-2.268,0.028-9.391,0.029-11.791c0.003-5.949,0.619-12.313-0.041-18.232c-1.221-10.967-17.046-13.252-17.726-26.312
	c-0.777-14.945,10.682-20.969,22.078-23.933C198.673,46.877,202.996,38.519,213.407,38.358"/>
<g style="opacity:0.9;">
	<g>
		<defs>
			<rect id="SVGID_1_" x="193.643" y="58.683" width="39.567" height="191.87"/>
		</defs>
		<clipPath id="SVGID_2_">
			<use xlink:href="#SVGID_1_"  style="overflow:visible;"/>
		</clipPath>
		<path style="clip-path:url(#SVGID_2_);fill:#FFFFFF;" d="M207.299,250.553c-1.506,0-2.73-1.028-2.73-2.293v-59.382
			c0-1.264,1.224-2.293,2.73-2.293h12.256c1.507,0,2.731,1.029,2.731,2.293v59.382c0,1.265-1.225,2.293-2.731,2.293H207.299z
			 M196.219,176.385c-1.421,0-2.576-0.967-2.576-2.152v-5.987c0-1.187,1.155-2.151,2.576-2.151h34.416
			c1.42,0,2.575,0.965,2.575,2.151v5.987c0,1.186-1.155,2.152-2.575,2.152H196.219z M196.219,156.517
			c-1.421,0-2.576-0.965-2.576-2.151v-5.988c0-1.186,1.155-2.15,2.576-2.15h34.416c1.42,0,2.575,0.965,2.575,2.15v5.988
			c0,1.187-1.155,2.151-2.575,2.151H196.219z M207.227,136.645c-1.466,0-2.658-0.999-2.658-2.228V87.611l-0.978-0.609
			c-4.679-2.912-7.473-7.687-7.473-12.774c0-8.569,7.764-15.541,17.309-15.541s17.311,6.972,17.311,15.541
			c0,5.088-2.795,9.862-7.475,12.774l-0.977,0.609v46.806c0,1.229-1.193,2.228-2.659,2.228H207.227z"/>
	</g>
</g>
<path style="fill:#00340E;" d="M213.407,307.207c9.783-0.007,13.282,6.726,21.379,10.034c10.209,4.171,19.877,4.796,23.916,17.9
	c4.136,13.417-5.564,18.528-13.521,26.602c-5.948,6.034-3.188,20.17-3.165,28.515c0.021,7.235,1.617,10.102,6.786,13.823
	c4.774,3.437,7.713,9.059,9.385,14.621c3.392,11.288,1.283,26.62-8.961,33.795c-1.794,1.257-4.985,1.54-6.329,3.345
	c-1.406,1.887-0.705,4.975-0.799,7.154c-0.257,6.015,0.068,8.887,0.109,14.908c0.033,4.925-0.785,10.781,0.109,15.646
	c1.242,6.745,6.789,5.636,11.26,10.046c8.894,8.77,8.102,25.699-1.256,33.76c-8.531,7.35-20.172,4.023-29.652,0.767
	c-13.115-4.507-22.678,3.803-35.689,3.707c-12.812-0.097-20.988-12.003-19.764-24.358c0.544-5.491,2.765-10.997,6.952-14.656
	c4.837-4.226,9.712-2.781,10.378-10.235c0.97-10.858,0.86-19.777,0.217-30.661c-0.413-6.973-3.145-6.44-8.073-10.164
	c-4.862-3.674-7.62-10.01-8.852-15.865c-2.407-11.432,1.25-25.63,11.17-32.361c2.723-1.848,4.666-1.551,5.808-5.061
	c0.738-2.267,0.028-9.391,0.029-11.79c0.003-5.949,0.619-12.313-0.041-18.233c-1.221-10.967-17.046-13.252-17.726-26.311
	c-0.777-14.945,10.682-20.969,22.078-23.933C198.673,315.725,202.996,307.366,213.407,307.207"/>
<g style="opacity:0.9;">
	<g>
		<defs>
			<rect id="SVGID_3_" x="193.643" y="327.533" width="39.567" height="191.867"/>
		</defs>
		<clipPath id="SVGID_4_">
			<use xlink:href="#SVGID_3_"  style="overflow:visible;"/>
		</clipPath>
		<path style="clip-path:url(#SVGID_4_);fill:#FFFFFF;" d="M207.299,519.401c-1.506,0-2.73-1.028-2.73-2.293v-59.383
			c0-1.264,1.224-2.293,2.73-2.293h12.256c1.507,0,2.731,1.029,2.731,2.293v59.383c0,1.265-1.225,2.293-2.731,2.293H207.299z
			 M196.219,445.232c-1.421,0-2.576-0.966-2.576-2.151v-5.987c0-1.187,1.155-2.151,2.576-2.151h34.416
			c1.42,0,2.575,0.965,2.575,2.151v5.987c0,1.186-1.155,2.151-2.575,2.151H196.219z M196.219,425.365
			c-1.421,0-2.576-0.965-2.576-2.151v-5.988c0-1.186,1.155-2.15,2.576-2.15h34.416c1.42,0,2.575,0.965,2.575,2.15v5.988
			c0,1.187-1.155,2.151-2.575,2.151H196.219z M207.227,405.493c-1.466,0-2.658-0.999-2.658-2.229V356.46l-0.978-0.608
			c-4.679-2.914-7.473-7.688-7.473-12.775c0-8.57,7.764-15.542,17.309-15.542s17.311,6.972,17.311,15.542
			c0,5.087-2.795,9.861-7.475,12.775l-0.977,0.608v46.805c0,1.229-1.193,2.229-2.659,2.229H207.227z"/>
	</g>
</g>
<g>
</g>
<g>
</g>
<g>
</g>
<g>
</g>
<g>
</g>
<g>
</g>
</svg>
