<?xml version="1.0" encoding="iso-8859-1"?>
<!-- Generator: Adobe Illustrator 16.0.0, SVG Export Plug-In . SVG Version: 6.00 Build 0)  -->
<!DOCTYPE svg PUBLIC "-//W3C//DTD SVG 1.1//EN" "http://www.w3.org/Graphics/SVG/1.1/DTD/svg11.dtd">
<svg version="1.1" id="&#x30EC;&#x30A4;&#x30E4;&#x30FC;_1"
	 xmlns="http://www.w3.org/2000/svg" xmlns:xlink="http://www.w3.org/1999/xlink" x="0px" y="0px" width="426.854px"
	 height="580.188px" viewBox="0 0 426.854 580.188" style="enable-background:new 0 0 426.854 580.188;" xml:space="preserve">
<path style="fill:#00340E;" d="M213.408,38.358c9.782-0.007,13.281,6.727,21.377,10.034c10.209,4.172,19.877,4.796,23.916,17.901
	c4.136,13.416-5.564,18.528-13.521,26.601c-5.947,6.035-3.188,20.171-3.165,28.516c0.021,7.234,1.617,10.102,6.787,13.823
	c4.773,3.436,7.713,9.058,9.384,14.62c3.392,11.288,1.284,26.62-8.96,33.796c-1.795,1.257-4.986,1.54-6.33,3.344
	c-1.404,1.888-0.705,4.976-0.799,7.154c-0.257,6.015,0.068,8.888,0.109,14.909c0.033,4.925-0.785,10.78,0.11,15.645
	c1.242,6.745,6.788,5.637,11.259,10.047c8.894,8.77,8.103,25.698-1.256,33.76c-8.529,7.35-20.172,4.022-29.651,0.766
	c-13.116-4.506-22.678,3.804-35.689,3.707c-12.812-0.096-20.988-12.002-19.764-24.358c0.544-5.491,2.765-10.997,6.952-14.656
	c4.837-4.226,9.712-2.781,10.378-10.235c0.969-10.858,0.86-19.777,0.216-30.661c-0.412-6.972-3.144-6.44-8.072-10.163
	c-4.862-3.674-7.62-10.01-8.852-15.865c-2.408-11.433,1.249-25.631,11.17-32.361c2.723-1.848,4.665-1.552,5.807-5.061
	c0.739-2.268,0.028-9.391,0.03-11.791c0.002-5.949,0.618-12.313-0.041-18.232c-1.221-10.967-17.046-13.252-17.726-26.312
	c-0.778-14.945,10.681-20.969,22.078-23.933C198.673,46.877,202.995,38.519,213.408,38.358"/>
<g style="opacity:0.9;">
	<g>
		<defs>
			<rect id="SVGID_1_" x="193.642" y="58.683" width="39.569" height="191.87"/>
		</defs>
		<clipPath id="SVGID_2_">
			<use xlink:href="#SVGID_1_"  style="overflow:visible;"/>
		</clipPath>
		<path style="clip-path:url(#SVGID_2_);fill:#FFFFFF;" d="M207.299,250.553c-1.506,0-2.73-1.028-2.73-2.293v-59.382
			c0-1.264,1.224-2.293,2.73-2.293h12.255c1.507,0,2.731,1.029,2.731,2.293v59.382c0,1.265-1.225,2.293-2.731,2.293H207.299z
			 M196.218,176.385c-1.42,0-2.575-0.967-2.575-2.152v-5.987c0-1.187,1.155-2.151,2.575-2.151h34.417
			c1.42,0,2.575,0.965,2.575,2.151v5.987c0,1.186-1.155,2.152-2.575,2.152H196.218z M196.218,156.517
			c-1.42,0-2.575-0.965-2.575-2.151v-5.988c0-1.186,1.155-2.15,2.575-2.15h34.417c1.42,0,2.575,0.965,2.575,2.15v5.988
			c0,1.187-1.155,2.151-2.575,2.151H196.218z M207.227,136.645c-1.466,0-2.658-0.999-2.658-2.228V87.611l-0.978-0.609
			c-4.68-2.912-7.474-7.687-7.474-12.774c0-8.569,7.765-15.541,17.31-15.541c9.546,0,17.31,6.972,17.31,15.541
			c0,5.088-2.793,9.862-7.475,12.774l-0.977,0.609v46.806c0,1.229-1.193,2.228-2.659,2.228H207.227z"/>
	</g>
</g>
<path style="fill:#00340E;" d="M94.593,307.207c9.783-0.007,13.281,6.726,21.377,10.034c10.209,4.171,19.877,4.796,23.917,17.9
	c4.135,13.417-5.565,18.528-13.521,26.602c-5.947,6.034-3.188,20.17-3.165,28.515c0.021,7.235,1.617,10.102,6.787,13.823
	c4.773,3.437,7.713,9.059,9.384,14.621c3.392,11.288,1.284,26.62-8.96,33.795c-1.795,1.257-4.986,1.54-6.33,3.345
	c-1.405,1.887-0.705,4.975-0.799,7.154c-0.257,6.015,0.069,8.887,0.109,14.908c0.033,4.925-0.785,10.781,0.11,15.646
	c1.243,6.745,6.789,5.636,11.26,10.046c8.893,8.77,8.102,25.699-1.256,33.76c-8.53,7.35-20.172,4.023-29.652,0.767
	c-13.116-4.507-22.678,3.803-35.689,3.707c-12.812-0.097-20.988-12.003-19.764-24.358c0.544-5.491,2.765-10.997,6.952-14.656
	c4.837-4.226,9.712-2.781,10.378-10.235c0.969-10.858,0.86-19.777,0.216-30.661c-0.412-6.973-3.144-6.44-8.072-10.164
	c-4.862-3.674-7.62-10.01-8.852-15.865c-2.408-11.432,1.249-25.63,11.17-32.361c2.723-1.848,4.665-1.551,5.807-5.061
	c0.739-2.267,0.028-9.391,0.029-11.79c0.003-5.949,0.619-12.313-0.04-18.233c-1.221-10.967-17.046-13.252-17.726-26.311
	c-0.778-14.945,10.681-20.969,22.078-23.933C79.858,315.725,84.18,307.366,94.593,307.207"/>
<g style="opacity:0.9;">
	<g>
		<defs>
			<rect id="SVGID_3_" x="74.832" y="327.533" width="39.56" height="191.867"/>
		</defs>
		<clipPath id="SVGID_4_">
			<use xlink:href="#SVGID_3_"  style="overflow:visible;"/>
		</clipPath>
		<path style="clip-path:url(#SVGID_4_);fill:#FFFFFF;" d="M88.484,519.401c-1.506,0-2.73-1.028-2.73-2.293v-59.383
			c0-1.264,1.224-2.293,2.73-2.293h12.255c1.506,0,2.731,1.029,2.731,2.293v59.383c0,1.265-1.225,2.293-2.731,2.293H88.484z
			 M77.403,445.232c-1.42,0-2.575-0.966-2.575-2.151v-5.987c0-1.187,1.155-2.151,2.575-2.151h34.417c1.42,0,2.575,0.965,2.575,2.151
			v5.987c0,1.186-1.155,2.151-2.575,2.151H77.403z M77.403,425.365c-1.42,0-2.575-0.965-2.575-2.151v-5.988
			c0-1.186,1.155-2.15,2.575-2.15h34.417c1.42,0,2.575,0.965,2.575,2.15v5.988c0,1.187-1.155,2.151-2.575,2.151H77.403z
			 M88.413,405.493c-1.466,0-2.658-0.999-2.658-2.229V356.46l-0.978-0.608c-4.68-2.912-7.474-7.688-7.474-12.775
			c0-8.57,7.765-15.542,17.31-15.542c9.545,0,17.31,6.972,17.31,15.542c0,5.087-2.794,9.863-7.475,12.775l-0.977,0.608v46.805
			c0,1.229-1.193,2.229-2.659,2.229H88.413z"/>
	</g>
</g>
<path style="fill:#00340E;" d="M332.223,307.207c9.782-0.007,13.281,6.726,21.377,10.034c10.209,4.171,19.877,4.796,23.916,17.9
	c4.136,13.417-5.564,18.528-13.521,26.602c-5.947,6.034-3.188,20.17-3.165,28.515c0.021,7.235,1.617,10.102,6.787,13.823
	c4.773,3.437,7.713,9.059,9.384,14.621c3.392,11.288,1.284,26.62-8.96,33.795c-1.795,1.257-4.986,1.54-6.33,3.345
	c-1.404,1.887-0.705,4.975-0.799,7.154c-0.257,6.015,0.068,8.887,0.109,14.908c0.033,4.925-0.785,10.781,0.11,15.646
	c1.242,6.745,6.788,5.636,11.259,10.046c8.894,8.77,8.103,25.699-1.256,33.76c-8.529,7.35-20.172,4.023-29.651,0.767
	c-13.116-4.507-22.679,3.803-35.689,3.707c-12.812-0.097-20.987-12.003-19.764-24.358c0.544-5.491,2.765-10.997,6.952-14.656
	c4.837-4.226,9.712-2.781,10.378-10.235c0.969-10.858,0.86-19.777,0.216-30.661c-0.412-6.973-3.145-6.44-8.072-10.164
	c-4.861-3.674-7.619-10.01-8.852-15.865c-2.408-11.432,1.249-25.63,11.17-32.361c2.723-1.848,4.665-1.551,5.807-5.061
	c0.739-2.267,0.028-9.391,0.03-11.79c0.002-5.949,0.618-12.313-0.041-18.233c-1.222-10.967-17.046-13.252-17.726-26.311
	c-0.778-14.945,10.681-20.969,22.078-23.933C317.487,315.725,321.809,307.366,332.223,307.207"/>
<g style="opacity:0.9;">
	<g>
		<defs>
			<rect id="SVGID_5_" x="312.461" y="327.533" width="39.561" height="191.867"/>
		</defs>
		<clipPath id="SVGID_6_">
			<use xlink:href="#SVGID_5_"  style="overflow:visible;"/>
		</clipPath>
		<path style="clip-path:url(#SVGID_6_);fill:#FFFFFF;" d="M326.113,519.401c-1.506,0-2.73-1.028-2.73-2.293v-59.383
			c0-1.264,1.225-2.293,2.73-2.293h12.255c1.507,0,2.732,1.029,2.732,2.293v59.383c0,1.265-1.226,2.293-2.732,2.293H326.113z
			 M315.032,445.232c-1.42,0-2.575-0.966-2.575-2.151v-5.987c0-1.187,1.155-2.151,2.575-2.151h34.417
			c1.42,0,2.575,0.965,2.575,2.151v5.987c0,1.186-1.155,2.151-2.575,2.151H315.032z M315.032,425.365
			c-1.42,0-2.575-0.965-2.575-2.151v-5.988c0-1.186,1.155-2.15,2.575-2.15h34.417c1.42,0,2.575,0.965,2.575,2.15v5.988
			c0,1.187-1.155,2.151-2.575,2.151H315.032z M326.041,405.493c-1.466,0-2.658-0.999-2.658-2.229V356.46l-0.978-0.608
			c-4.679-2.912-7.473-7.688-7.473-12.775c0-8.57,7.764-15.542,17.309-15.542c9.546,0,17.31,6.972,17.31,15.542
			c0,5.087-2.793,9.861-7.474,12.775l-0.977,0.608v46.805c0,1.229-1.193,2.229-2.66,2.229H326.041z"/>
	</g>
</g>
<g>
</g>
<g>
</g>
<g>
</g>
<g>
</g>
<g>
</g>
<g>
</g>
</svg>
