<?xml version="1.0" encoding="iso-8859-1"?>
<!-- Generator: Adobe Illustrator 16.0.0, SVG Export Plug-In . SVG Version: 6.00 Build 0)  -->
<!DOCTYPE svg PUBLIC "-//W3C//DTD SVG 1.1//EN" "http://www.w3.org/Graphics/SVG/1.1/DTD/svg11.dtd">
<svg version="1.1" id="&#x30EC;&#x30A4;&#x30E4;&#x30FC;_1"
	 xmlns="http://www.w3.org/2000/svg" xmlns:xlink="http://www.w3.org/1999/xlink" x="0px" y="0px" width="426.854px"
	 height="580.188px" viewBox="0 0 426.854 580.188" style="enable-background:new 0 0 426.854 580.188;" xml:space="preserve">
<path style="fill:#00340E;" d="M123.252,38.358c9.783-0.007,13.282,6.727,21.377,10.034c10.209,4.172,19.877,4.796,23.917,17.901
	c4.135,13.416-5.565,18.528-13.521,26.601c-5.947,6.035-3.188,20.171-3.165,28.516c0.021,7.234,1.618,10.102,6.787,13.823
	c4.773,3.436,7.713,9.058,9.384,14.62c3.392,11.288,1.284,26.62-8.96,33.796c-1.795,1.257-4.986,1.54-6.33,3.344
	c-1.405,1.888-0.705,4.976-0.799,7.154c-0.257,6.015,0.069,8.888,0.11,14.909c0.032,4.925-0.786,10.78,0.11,15.645
	c1.242,6.745,6.788,5.637,11.259,10.047c8.893,8.77,8.102,25.698-1.256,33.76c-8.53,7.35-20.172,4.022-29.652,0.766
	c-13.116-4.506-22.678,3.804-35.689,3.707c-12.812-0.096-20.988-12.002-19.764-24.358c0.544-5.491,2.765-10.997,6.952-14.656
	c4.837-4.226,9.712-2.781,10.378-10.235c0.969-10.858,0.86-19.777,0.216-30.661c-0.412-6.972-3.144-6.44-8.072-10.163
	c-4.862-3.674-7.62-10.01-8.852-15.865c-2.408-11.433,1.249-25.631,11.17-32.361c2.723-1.848,4.665-1.552,5.807-5.061
	c0.739-2.268,0.028-9.391,0.03-11.791c0.002-5.949,0.618-12.313-0.041-18.232c-1.221-10.967-17.046-13.252-17.726-26.312
	C76.145,58.339,87.604,52.315,99,49.352C108.518,46.877,112.839,38.519,123.252,38.358"/>
<g style="opacity:0.9;">
	<g>
		<defs>
			<rect id="SVGID_1_" x="103.485" y="58.683" width="39.57" height="191.87"/>
		</defs>
		<clipPath id="SVGID_2_">
			<use xlink:href="#SVGID_1_"  style="overflow:visible;"/>
		</clipPath>
		<path style="clip-path:url(#SVGID_2_);fill:#FFFFFF;" d="M117.144,250.553c-1.506,0-2.73-1.028-2.73-2.293v-59.382
			c0-1.264,1.224-2.293,2.73-2.293h12.255c1.506,0,2.732,1.029,2.732,2.293v59.382c0,1.265-1.226,2.293-2.732,2.293H117.144z
			 M106.063,176.385c-1.42,0-2.575-0.967-2.575-2.152v-5.987c0-1.187,1.155-2.151,2.575-2.151h34.417
			c1.42,0,2.575,0.965,2.575,2.151v5.987c0,1.186-1.155,2.152-2.575,2.152H106.063z M106.063,156.517
			c-1.42,0-2.575-0.965-2.575-2.151v-5.988c0-1.186,1.155-2.15,2.575-2.15h34.417c1.42,0,2.575,0.965,2.575,2.15v5.988
			c0,1.187-1.155,2.151-2.575,2.151H106.063z M117.072,136.645c-1.466,0-2.658-0.999-2.658-2.228V87.611l-0.978-0.609
			c-4.679-2.91-7.473-7.687-7.473-12.774c0-8.569,7.764-15.541,17.309-15.541c9.545,0,17.31,6.972,17.31,15.541
			c0,5.088-2.794,9.862-7.474,12.774l-0.977,0.609v46.806c0,1.229-1.193,2.228-2.66,2.228H117.072z"/>
	</g>
</g>
<path style="fill:#00340E;" d="M123.252,307.207c9.783-0.007,13.282,6.726,21.377,10.034c10.209,4.171,19.877,4.796,23.917,17.9
	c4.135,13.417-5.565,18.528-13.521,26.602c-5.947,6.034-3.188,20.17-3.165,28.515c0.021,7.235,1.618,10.102,6.787,13.823
	c4.773,3.437,7.713,9.059,9.384,14.621c3.392,11.288,1.284,26.62-8.96,33.795c-1.795,1.257-4.986,1.54-6.33,3.345
	c-1.405,1.887-0.705,4.975-0.799,7.154c-0.257,6.015,0.069,8.887,0.11,14.908c0.032,4.925-0.786,10.781,0.11,15.646
	c1.242,6.745,6.788,5.636,11.259,10.046c8.893,8.77,8.102,25.699-1.256,33.76c-8.53,7.35-20.172,4.023-29.652,0.767
	c-13.116-4.507-22.678,3.803-35.689,3.707c-12.812-0.097-20.988-12.003-19.764-24.358c0.544-5.491,2.765-10.997,6.952-14.656
	c4.837-4.226,9.712-2.781,10.378-10.235c0.969-10.858,0.86-19.777,0.216-30.661c-0.412-6.973-3.144-6.44-8.072-10.164
	c-4.862-3.674-7.62-10.01-8.852-15.865c-2.408-11.432,1.249-25.63,11.17-32.361c2.723-1.848,4.665-1.551,5.807-5.061
	c0.739-2.267,0.028-9.391,0.03-11.79c0.002-5.949,0.618-12.313-0.041-18.233c-1.221-10.967-17.046-13.252-17.726-26.311
	C76.145,327.188,87.604,321.164,99,318.2C108.518,315.725,112.839,307.366,123.252,307.207"/>
<g style="opacity:0.9;">
	<g>
		<defs>
			<rect id="SVGID_3_" x="103.485" y="327.533" width="39.57" height="191.867"/>
		</defs>
		<clipPath id="SVGID_4_">
			<use xlink:href="#SVGID_3_"  style="overflow:visible;"/>
		</clipPath>
		<path style="clip-path:url(#SVGID_4_);fill:#FFFFFF;" d="M117.144,519.401c-1.506,0-2.73-1.028-2.73-2.293v-59.383
			c0-1.264,1.224-2.293,2.73-2.293h12.255c1.506,0,2.732,1.029,2.732,2.293v59.383c0,1.265-1.226,2.293-2.732,2.293H117.144z
			 M106.063,445.232c-1.42,0-2.575-0.966-2.575-2.151v-5.987c0-1.187,1.155-2.151,2.575-2.151h34.417
			c1.42,0,2.575,0.965,2.575,2.151v5.987c0,1.186-1.155,2.151-2.575,2.151H106.063z M106.063,425.365
			c-1.42,0-2.575-0.965-2.575-2.151v-5.988c0-1.186,1.155-2.15,2.575-2.15h34.417c1.42,0,2.575,0.965,2.575,2.15v5.988
			c0,1.187-1.155,2.151-2.575,2.151H106.063z M117.072,405.493c-1.466,0-2.658-0.999-2.658-2.229V356.46l-0.978-0.608
			c-4.679-2.912-7.473-7.688-7.473-12.775c0-8.57,7.764-15.542,17.309-15.542c9.545,0,17.31,6.972,17.31,15.542
			c0,5.087-2.794,9.861-7.474,12.775l-0.977,0.608v46.805c0,1.229-1.193,2.229-2.66,2.229H117.072z"/>
	</g>
</g>
<path style="fill:#00340E;" d="M303.564,38.358c9.782-0.007,13.28,6.727,21.377,10.034c10.209,4.172,19.877,4.796,23.916,17.901
	c4.136,13.416-5.564,18.528-13.521,26.601c-5.947,6.035-3.188,20.171-3.165,28.516c0.021,7.234,1.617,10.102,6.787,13.823
	c4.773,3.436,7.713,9.058,9.384,14.62c3.392,11.288,1.284,26.62-8.961,33.796c-1.794,1.257-4.985,1.54-6.329,3.344
	c-1.404,1.888-0.705,4.976-0.799,7.154c-0.257,6.015,0.068,8.888,0.109,14.909c0.033,4.925-0.785,10.78,0.109,15.645
	c1.243,6.745,6.789,5.637,11.26,10.047c8.894,8.77,8.103,25.698-1.256,33.76c-8.529,7.35-20.172,4.022-29.651,0.766
	c-13.116-4.506-22.679,3.804-35.69,3.707c-12.813-0.096-20.986-12.002-19.763-24.358c0.544-5.491,2.765-10.997,6.95-14.656
	c4.839-4.226,9.714-2.781,10.38-10.235c0.969-10.858,0.86-19.777,0.216-30.661c-0.412-6.972-3.145-6.44-8.073-10.163
	c-4.86-3.674-7.618-10.01-8.851-15.865c-2.408-11.433,1.249-25.631,11.169-32.361c2.724-1.848,4.666-1.552,5.808-5.061
	c0.739-2.268,0.028-9.391,0.029-11.791c0.003-5.949,0.619-12.313-0.04-18.232c-1.222-10.967-17.046-13.252-17.728-26.312
	c-0.776-14.945,10.683-20.969,22.08-23.933C288.829,46.877,293.15,38.519,303.564,38.358"/>
<g style="opacity:0.9;">
	<g>
		<defs>
			<rect id="SVGID_5_" x="283.795" y="58.683" width="39.57" height="191.87"/>
		</defs>
		<clipPath id="SVGID_6_">
			<use xlink:href="#SVGID_5_"  style="overflow:visible;"/>
		</clipPath>
		<path style="clip-path:url(#SVGID_6_);fill:#FFFFFF;" d="M297.455,250.553c-1.506,0-2.73-1.028-2.73-2.293v-59.382
			c0-1.264,1.225-2.293,2.73-2.293h12.255c1.507,0,2.731,1.029,2.731,2.293v59.382c0,1.265-1.225,2.293-2.731,2.293H297.455z
			 M286.374,176.385c-1.42,0-2.575-0.967-2.575-2.152v-5.987c0-1.187,1.155-2.151,2.575-2.151h34.417
			c1.42,0,2.575,0.965,2.575,2.151v5.987c0,1.186-1.155,2.152-2.575,2.152H286.374z M286.374,156.517
			c-1.42,0-2.575-0.965-2.575-2.151v-5.988c0-1.186,1.155-2.15,2.575-2.15h34.417c1.42,0,2.575,0.965,2.575,2.15v5.988
			c0,1.187-1.155,2.151-2.575,2.151H286.374z M297.383,136.645c-1.467,0-2.658-0.999-2.658-2.228V87.611l-0.979-0.609
			c-4.679-2.912-7.473-7.687-7.473-12.774c0-8.569,7.764-15.541,17.309-15.541s17.311,6.972,17.311,15.541
			c0,5.088-2.795,9.862-7.475,12.774l-0.977,0.609v46.806c0,1.229-1.193,2.228-2.659,2.228H297.383z"/>
	</g>
</g>
<path style="fill:#00340E;" d="M303.564,307.207c9.782-0.007,13.28,6.726,21.377,10.034c10.209,4.171,19.877,4.796,23.916,17.9
	c4.136,13.417-5.564,18.528-13.521,26.602c-5.947,6.034-3.188,20.17-3.165,28.515c0.021,7.235,1.617,10.102,6.787,13.823
	c4.773,3.437,7.713,9.059,9.384,14.621c3.392,11.288,1.284,26.62-8.961,33.795c-1.794,1.257-4.985,1.54-6.329,3.345
	c-1.404,1.887-0.705,4.975-0.799,7.154c-0.257,6.015,0.068,8.887,0.109,14.908c0.033,4.925-0.785,10.781,0.109,15.646
	c1.243,6.745,6.789,5.636,11.26,10.046c8.894,8.77,8.103,25.699-1.256,33.76c-8.529,7.35-20.172,4.023-29.651,0.767
	c-13.116-4.507-22.679,3.803-35.69,3.707c-12.813-0.097-20.986-12.003-19.763-24.358c0.544-5.491,2.765-10.997,6.95-14.656
	c4.839-4.226,9.714-2.781,10.38-10.235c0.969-10.858,0.86-19.777,0.216-30.661c-0.412-6.973-3.145-6.44-8.073-10.164
	c-4.86-3.674-7.618-10.01-8.851-15.865c-2.408-11.432,1.249-25.63,11.169-32.361c2.724-1.848,4.666-1.551,5.808-5.061
	c0.739-2.267,0.028-9.391,0.029-11.79c0.003-5.949,0.619-12.313-0.04-18.233c-1.222-10.967-17.046-13.252-17.728-26.311
	c-0.776-14.945,10.683-20.969,22.08-23.933C288.829,315.725,293.15,307.366,303.564,307.207"/>
<g style="opacity:0.9;">
	<g>
		<defs>
			<rect id="SVGID_7_" x="283.795" y="327.533" width="39.57" height="191.867"/>
		</defs>
		<clipPath id="SVGID_8_">
			<use xlink:href="#SVGID_7_"  style="overflow:visible;"/>
		</clipPath>
		<path style="clip-path:url(#SVGID_8_);fill:#FFFFFF;" d="M297.455,519.401c-1.506,0-2.73-1.028-2.73-2.293v-59.383
			c0-1.264,1.225-2.293,2.73-2.293h12.255c1.507,0,2.731,1.029,2.731,2.293v59.383c0,1.265-1.225,2.293-2.731,2.293H297.455z
			 M286.374,445.232c-1.42,0-2.575-0.966-2.575-2.151v-5.987c0-1.187,1.155-2.151,2.575-2.151h34.417
			c1.42,0,2.575,0.965,2.575,2.151v5.987c0,1.186-1.155,2.151-2.575,2.151H286.374z M286.374,425.365
			c-1.42,0-2.575-0.965-2.575-2.151v-5.988c0-1.186,1.155-2.15,2.575-2.15h34.417c1.42,0,2.575,0.965,2.575,2.15v5.988
			c0,1.187-1.155,2.151-2.575,2.151H286.374z M297.383,405.493c-1.467,0-2.658-0.999-2.658-2.229V356.46l-0.979-0.608
			c-4.679-2.914-7.473-7.688-7.473-12.775c0-8.57,7.764-15.542,17.309-15.542s17.311,6.972,17.311,15.542
			c0,5.087-2.795,9.861-7.475,12.775l-0.977,0.608v46.805c0,1.229-1.193,2.229-2.659,2.229H297.383z"/>
	</g>
</g>
<g>
</g>
<g>
</g>
<g>
</g>
<g>
</g>
<g>
</g>
<g>
</g>
</svg>
