<?xml version="1.0" encoding="iso-8859-1"?>
<!-- Generator: Adobe Illustrator 16.0.0, SVG Export Plug-In . SVG Version: 6.00 Build 0)  -->
<!DOCTYPE svg PUBLIC "-//W3C//DTD SVG 1.1//EN" "http://www.w3.org/Graphics/SVG/1.1/DTD/svg11.dtd">
<svg version="1.1" id="&#x30EC;&#x30A4;&#x30E4;&#x30FC;_1"
	 xmlns="http://www.w3.org/2000/svg" xmlns:xlink="http://www.w3.org/1999/xlink" x="0px" y="0px" width="426.854px"
	 height="580.188px" viewBox="0 0 426.854 580.188" style="enable-background:new 0 0 426.854 580.188;" xml:space="preserve">
<path style="fill:#00340E;" d="M328.151,390.658c8.592-0.005,11.664,4.923,18.773,7.344c8.966,3.052,17.456,3.509,21.004,13.1
	c3.632,9.818-4.886,13.559-11.874,19.467c-5.222,4.416-2.8,4.896-2.778,11.002c0.018,5.294,1.42,7.393,5.959,10.114
	c4.192,2.516,6.774,6.631,8.242,10.701c2.979,8.261,1.127,19.48-7.87,24.731c-1.575,0.92-4.379,1.127-5.559,2.447
	c-1.234,1.382-0.619,3.641-0.701,5.235c-0.226,4.401,0.06,3.009,0.097,7.416c0.027,3.604-0.69,0.928,0.097,4.487
	c1.09,4.936,5.962,4.126,9.887,7.352c7.812,6.417,7.116,18.807-1.103,24.707c-7.491,5.377-17.715,2.943-26.041,0.56
	c-11.52-3.298-19.916,2.782-31.344,2.713c-11.252-0.069-18.432-8.783-17.356-17.825c0.477-4.019,2.429-8.048,6.104-10.725
	c4.248-3.095,8.529-2.036,9.114-7.491c0.853-7.946,0.756-4.019,0.19-11.982c-0.361-5.103-2.762-4.713-7.088-7.438
	c-4.271-2.688-6.692-7.325-7.775-11.61c-2.114-8.367,1.097-18.756,9.81-23.682c2.393-1.353,4.098-1.137,5.102-3.704
	c0.647-1.658,0.023-6.872,0.024-8.628c0.004-4.354,0.543,0.854-0.035-3.478c-1.072-8.025-14.971-9.697-15.567-19.254
	c-0.683-10.937,9.38-15.346,19.389-17.515C315.211,396.892,319.006,390.775,328.151,390.658"/>
<g style="opacity:0.9;">
	<g>
		<defs>
			<rect id="SVGID_1_" x="309.696" y="407.353" width="36.94" height="116.195"/>
		</defs>
		<clipPath id="SVGID_2_">
			<use xlink:href="#SVGID_1_"  style="overflow:visible;"/>
		</clipPath>
		<path style="clip-path:url(#SVGID_2_);fill:#FFFFFF;" d="M323.483,523.548c-0.979,0-1.551-0.457-1.603-0.631l0.002-36.531
			c0.051-0.158,0.623-0.615,1.601-0.615h9.369c0.979,0,1.551,0.457,1.603,0.633l-0.002,36.53c-0.05,0.157-0.622,0.614-1.601,0.614
			H323.483z M311.996,474.888c-1.224,0-2.296-0.75-2.296-1.605v-5.214c0-0.854,1.072-1.604,2.296-1.604h32.345
			c1.223,0,2.295,0.75,2.295,1.604v5.214c0,0.855-1.072,1.605-2.295,1.605H311.996z M323.483,455.58
			c-0.978,0-1.55-0.457-1.603-0.631l0.002-25.946c0-1.494-0.583-2.951-1.685-4.214c-1.676-1.921-2.599-4.361-2.599-6.871
			c0-5.827,4.741-10.567,10.569-10.567c5.827,0,10.566,4.74,10.566,10.567c0,2.51-0.923,4.95-2.599,6.871
			c-1.101,1.263-1.684,2.72-1.684,4.214v25.964c-0.052,0.156-0.623,0.613-1.601,0.613H323.483z"/>
	</g>
</g>
<path style="fill:#00340E;" d="M98.669,390.658c8.592-0.005,11.664,4.923,18.773,7.344c8.966,3.052,17.457,3.509,21.004,13.1
	c3.633,9.818-4.885,13.559-11.873,19.467c-5.223,4.416-2.8,4.896-2.779,11.002c0.019,5.294,1.42,7.393,5.959,10.114
	c4.192,2.516,6.774,6.631,8.242,10.701c2.979,8.261,1.128,19.48-7.869,24.731c-1.576,0.92-4.379,1.127-5.559,2.447
	c-1.234,1.382-0.619,3.641-0.701,5.235c-0.227,4.401,0.061,3.009,0.096,7.416c0.028,3.604-0.689,0.928,0.097,4.487
	c1.091,4.936,5.962,4.126,9.888,7.352c7.811,6.417,7.116,18.807-1.104,24.707c-7.49,5.377-17.715,2.943-26.041,0.56
	c-11.519-3.298-19.916,2.782-31.343,2.713c-11.252-0.069-18.432-8.783-17.356-17.825c0.477-4.019,2.428-8.048,6.104-10.725
	c4.248-3.095,8.529-2.036,9.114-7.491c0.852-7.946,0.756-4.019,0.191-11.982c-0.363-5.103-2.763-4.713-7.09-7.438
	c-4.271-2.688-6.691-7.325-7.774-11.61c-2.114-8.367,1.097-18.756,9.809-23.682c2.394-1.353,4.099-1.137,5.103-3.704
	c0.647-1.658,0.022-6.872,0.023-8.628c0.004-4.354,0.544,0.854-0.035-3.478c-1.071-8.025-14.971-9.697-15.566-19.254
	c-0.684-10.937,9.379-15.346,19.389-17.515C85.729,396.892,89.524,390.775,98.669,390.658"/>
<g style="opacity:0.9;">
	<g>
		<defs>
			<rect id="SVGID_3_" x="80.217" y="407.353" width="36.939" height="116.195"/>
		</defs>
		<clipPath id="SVGID_4_">
			<use xlink:href="#SVGID_3_"  style="overflow:visible;"/>
		</clipPath>
		<path style="clip-path:url(#SVGID_4_);fill:#FFFFFF;" d="M94.001,523.548c-0.979,0-1.55-0.457-1.602-0.631l0.002-36.531
			c0.05-0.158,0.622-0.615,1.6-0.615h9.369c0.979,0,1.551,0.457,1.604,0.633l-0.002,36.53c-0.051,0.157-0.622,0.614-1.602,0.614
			H94.001z M82.515,474.888c-1.224,0-2.297-0.75-2.297-1.605v-5.214c0-0.854,1.073-1.604,2.297-1.604h32.344
			c1.223,0,2.296,0.75,2.296,1.604v5.214c0,0.855-1.073,1.605-2.296,1.605H82.515z M94.001,455.58c-0.978,0-1.55-0.457-1.602-0.63
			l0.002-25.947c0-1.494-0.583-2.951-1.684-4.214c-1.677-1.921-2.6-4.361-2.6-6.871c0-5.827,4.741-10.567,10.569-10.567
			c5.827,0,10.567,4.74,10.567,10.567c0,2.51-0.924,4.95-2.6,6.871c-1.101,1.263-1.684,2.72-1.684,4.214v25.964
			c-0.051,0.156-0.623,0.613-1.601,0.613H94.001z"/>
	</g>
</g>
<path style="fill:#00340E;" d="M328.151,214.406c8.592-0.005,11.664,4.922,18.773,7.343c8.966,3.053,17.456,3.51,21.004,13.099
	c3.632,9.819-4.886,13.561-11.874,19.468c-5.222,4.416-2.8,4.896-2.778,11.003c0.018,5.294,1.42,7.393,5.959,10.115
	c4.192,2.515,6.774,6.629,8.242,10.699c2.979,8.26,1.127,19.48-7.87,24.731c-1.575,0.92-4.379,1.127-5.559,2.446
	c-1.234,1.383-0.619,3.643-0.701,5.236c-0.226,4.402,0.06,3.009,0.097,7.417c0.027,3.604-0.69,0.927,0.097,4.487
	c1.09,4.935,5.962,4.125,9.887,7.351c7.812,6.418,7.116,18.808-1.103,24.707c-7.491,5.377-17.715,2.943-26.041,0.56
	c-11.52-3.297-19.916,2.783-31.344,2.713c-11.252-0.069-18.432-8.783-17.356-17.825c0.477-4.018,2.429-8.048,6.104-10.725
	c4.248-3.094,8.529-2.036,9.114-7.491c0.853-7.946,0.756-4.018,0.19-11.981c-0.361-5.103-2.762-4.714-7.088-7.438
	c-4.271-2.688-6.692-7.325-7.775-11.61c-2.114-8.366,1.097-18.756,9.81-23.681c2.393-1.353,4.098-1.137,5.102-3.704
	c0.647-1.659,0.023-6.872,0.024-8.628c0.004-4.354,0.543,0.854-0.035-3.479c-1.072-8.025-14.971-9.697-15.567-19.254
	c-0.683-10.937,9.38-15.345,19.389-17.514C315.211,220.639,319.006,214.522,328.151,214.406"/>
<g style="opacity:0.9;">
	<g>
		<defs>
			<rect id="SVGID_5_" x="309.696" y="231.093" width="36.94" height="116.2"/>
		</defs>
		<clipPath id="SVGID_6_">
			<use xlink:href="#SVGID_5_"  style="overflow:visible;"/>
		</clipPath>
		<path style="clip-path:url(#SVGID_6_);fill:#FFFFFF;" d="M323.483,347.296c-0.978,0-1.55-0.457-1.603-0.632l0.002-36.53
			c0.051-0.158,0.623-0.615,1.601-0.615h9.369c0.979,0,1.551,0.457,1.603,0.633l-0.002,36.53c-0.05,0.157-0.622,0.614-1.601,0.614
			H323.483z M311.996,298.635c-1.224,0-2.296-0.75-2.296-1.604v-5.214c0-0.854,1.072-1.604,2.296-1.604h32.345
			c1.223,0,2.295,0.75,2.295,1.604v5.214c0,0.854-1.072,1.604-2.295,1.604H311.996z M323.483,279.328
			c-0.978,0-1.551-0.457-1.603-0.632l0.002-25.946c0-1.492-0.582-2.949-1.685-4.213c-1.676-1.922-2.599-4.362-2.599-6.871
			c0-5.827,4.741-10.568,10.569-10.568c5.827,0,10.566,4.741,10.566,10.568c0,2.509-0.923,4.949-2.599,6.87
			c-1.103,1.265-1.684,2.722-1.684,4.214v25.964c-0.05,0.157-0.622,0.614-1.601,0.614H323.483z"/>
	</g>
</g>
<path style="fill:#00340E;" d="M213.409,390.658c8.592-0.005,11.665,4.923,18.774,7.344c8.966,3.052,17.456,3.509,21.004,13.1
	c3.632,9.818-4.886,13.559-11.874,19.467c-5.222,4.416-2.8,4.896-2.779,11.002c0.02,5.294,1.42,7.393,5.961,10.114
	c4.191,2.516,6.773,6.631,8.241,10.701c2.979,8.261,1.127,19.48-7.869,24.731c-1.575,0.92-4.38,1.127-5.559,2.447
	c-1.235,1.382-0.62,3.641-0.702,5.235c-0.226,4.401,0.061,3.009,0.096,7.416c0.029,3.604-0.689,0.928,0.098,4.487
	c1.09,4.936,5.962,4.126,9.888,7.352c7.81,6.417,7.116,18.807-1.103,24.707c-7.491,5.377-17.715,2.943-26.041,0.56
	c-11.521-3.298-19.918,2.782-31.344,2.713c-11.252-0.069-18.433-8.783-17.356-17.825c0.477-4.019,2.428-8.048,6.104-10.725
	c4.249-3.095,8.53-2.036,9.115-7.491c0.853-7.946,0.755-4.019,0.191-11.982c-0.363-5.103-2.763-4.713-7.091-7.438
	c-4.271-2.688-6.691-7.325-7.774-11.61c-2.113-8.367,1.098-18.756,9.81-23.682c2.394-1.353,4.099-1.137,5.102-3.704
	c0.647-1.658,0.023-6.872,0.024-8.628c0.003-4.354,0.544,0.854-0.034-3.478c-1.073-8.025-14.972-9.697-15.568-19.254
	c-0.684-10.937,9.38-15.346,19.39-17.515C200.47,396.892,204.265,390.775,213.409,390.658"/>
<g style="opacity:0.9;">
	<g>
		<defs>
			<rect id="SVGID_7_" x="194.956" y="407.353" width="36.94" height="116.195"/>
		</defs>
		<clipPath id="SVGID_8_">
			<use xlink:href="#SVGID_7_"  style="overflow:visible;"/>
		</clipPath>
		<path style="clip-path:url(#SVGID_8_);fill:#FFFFFF;" d="M208.743,523.548c-0.979,0-1.551-0.457-1.603-0.631l0.002-36.531
			c0.05-0.158,0.622-0.615,1.601-0.615h9.368c0.979,0,1.55,0.457,1.603,0.632l-0.002,36.531c-0.051,0.157-0.621,0.614-1.601,0.614
			H208.743z M197.256,474.888c-1.225,0-2.298-0.75-2.298-1.605v-5.214c0-0.854,1.073-1.604,2.298-1.604H229.6
			c1.223,0,2.295,0.75,2.295,1.604v5.214c0,0.855-1.072,1.605-2.295,1.605H197.256z M208.743,455.58
			c-0.979,0-1.551-0.457-1.603-0.63l0.002-25.947c0-1.493-0.583-2.95-1.685-4.214c-1.676-1.921-2.599-4.36-2.599-6.871
			c0-5.827,4.74-10.567,10.568-10.567c5.827,0,10.567,4.74,10.567,10.567c0,2.51-0.924,4.95-2.6,6.871
			c-1.102,1.265-1.684,2.722-1.684,4.214v25.964c-0.051,0.156-0.622,0.613-1.601,0.613H208.743z"/>
	</g>
</g>
<path style="fill:#00340E;" d="M213.409,214.406c8.592-0.005,11.665,4.922,18.774,7.343c8.966,3.053,17.456,3.51,21.004,13.099
	c3.632,9.819-4.886,13.561-11.874,19.468c-5.222,4.416-2.8,4.896-2.779,11.003c0.02,5.294,1.42,7.393,5.961,10.115
	c4.191,2.515,6.773,6.629,8.241,10.699c2.979,8.26,1.127,19.48-7.869,24.731c-1.575,0.92-4.38,1.127-5.559,2.446
	c-1.235,1.383-0.62,3.643-0.702,5.236c-0.226,4.402,0.061,3.009,0.096,7.417c0.029,3.604-0.689,0.927,0.098,4.487
	c1.09,4.935,5.962,4.125,9.888,7.351c7.81,6.418,7.116,18.808-1.103,24.707c-7.491,5.377-17.715,2.943-26.041,0.56
	c-11.521-3.297-19.918,2.783-31.344,2.713c-11.252-0.069-18.433-8.783-17.356-17.825c0.477-4.018,2.428-8.048,6.104-10.725
	c4.249-3.094,8.53-2.036,9.115-7.491c0.853-7.946,0.755-4.018,0.191-11.981c-0.363-5.103-2.763-4.714-7.091-7.438
	c-4.271-2.688-6.691-7.325-7.774-11.61c-2.113-8.366,1.098-18.756,9.81-23.681c2.394-1.353,4.099-1.137,5.102-3.704
	c0.647-1.659,0.023-6.872,0.024-8.628c0.003-4.354,0.544,0.854-0.034-3.479c-1.073-8.025-14.972-9.697-15.568-19.254
	c-0.684-10.937,9.38-15.345,19.39-17.514C200.47,220.639,204.265,214.522,213.409,214.406"/>
<g style="opacity:0.9;">
	<g>
		<defs>
			<rect id="SVGID_9_" x="194.956" y="231.093" width="36.94" height="116.2"/>
		</defs>
		<clipPath id="SVGID_10_">
			<use xlink:href="#SVGID_9_"  style="overflow:visible;"/>
		</clipPath>
		<path style="clip-path:url(#SVGID_10_);fill:#FFFFFF;" d="M208.743,347.296c-0.979,0-1.551-0.457-1.603-0.631l0.002-36.531
			c0.05-0.158,0.622-0.615,1.601-0.615h9.368c0.979,0,1.55,0.457,1.603,0.632l-0.002,36.531c-0.051,0.157-0.622,0.614-1.601,0.614
			H208.743z M197.256,298.635c-1.225,0-2.298-0.75-2.298-1.604v-5.214c0-0.854,1.073-1.604,2.298-1.604H229.6
			c1.223,0,2.295,0.75,2.295,1.604v5.214c0,0.854-1.072,1.604-2.295,1.604H197.256z M208.743,279.328
			c-0.979,0-1.551-0.457-1.603-0.631l0.002-25.947c0-1.491-0.583-2.948-1.685-4.213c-1.676-1.922-2.599-4.361-2.599-6.871
			c0-5.827,4.74-10.568,10.568-10.568c5.827,0,10.567,4.741,10.567,10.568c0,2.509-0.924,4.949-2.6,6.87
			c-1.102,1.267-1.684,2.724-1.684,4.214v25.964c-0.051,0.157-0.622,0.614-1.601,0.614H208.743z"/>
	</g>
</g>
<path style="fill:#00340E;" d="M98.669,214.406c8.592-0.005,11.664,4.922,18.773,7.343c8.966,3.053,17.457,3.51,21.004,13.099
	c3.633,9.819-4.885,13.561-11.873,19.468c-5.223,4.416-2.8,4.896-2.779,11.003c0.019,5.294,1.42,7.393,5.959,10.115
	c4.192,2.515,6.774,6.629,8.242,10.699c2.979,8.26,1.128,19.48-7.869,24.731c-1.576,0.92-4.379,1.127-5.559,2.446
	c-1.234,1.383-0.619,3.643-0.701,5.236c-0.227,4.402,0.061,3.009,0.096,7.417c0.028,3.604-0.689,0.927,0.097,4.487
	c1.091,4.935,5.962,4.125,9.888,7.351c7.811,6.418,7.116,18.808-1.104,24.707c-7.49,5.377-17.715,2.943-26.041,0.56
	c-11.519-3.297-19.916,2.783-31.343,2.713c-11.252-0.069-18.432-8.783-17.356-17.825c0.477-4.018,2.428-8.048,6.104-10.725
	c4.248-3.094,8.529-2.036,9.114-7.491c0.852-7.946,0.756-4.018,0.191-11.981c-0.363-5.103-2.763-4.714-7.09-7.438
	c-4.271-2.688-6.691-7.325-7.774-11.61c-2.114-8.366,1.097-18.756,9.809-23.681c2.394-1.353,4.099-1.137,5.103-3.704
	c0.647-1.659,0.022-6.872,0.023-8.628c0.004-4.354,0.544,0.854-0.035-3.479c-1.071-8.025-14.971-9.697-15.566-19.254
	c-0.684-10.937,9.379-15.345,19.389-17.514C85.729,220.639,89.524,214.522,98.669,214.406"/>
<g style="opacity:0.9;">
	<g>
		<defs>
			<rect id="SVGID_11_" x="80.217" y="231.093" width="36.939" height="116.2"/>
		</defs>
		<clipPath id="SVGID_12_">
			<use xlink:href="#SVGID_11_"  style="overflow:visible;"/>
		</clipPath>
		<path style="clip-path:url(#SVGID_12_);fill:#FFFFFF;" d="M94.001,347.296c-0.978,0-1.55-0.457-1.602-0.631l0.002-36.531
			c0.05-0.158,0.622-0.615,1.6-0.615h9.369c0.979,0,1.551,0.457,1.604,0.633l-0.002,36.53c-0.051,0.157-0.623,0.614-1.602,0.614
			H94.001z M82.515,298.635c-1.224,0-2.297-0.75-2.297-1.604v-5.214c0-0.854,1.073-1.604,2.297-1.604h32.344
			c1.245,0,2.296,0.734,2.296,1.604v5.214c0,0.854-1.073,1.604-2.296,1.604H82.515z M94.001,279.328
			c-0.978,0-1.55-0.457-1.602-0.631l0.002-25.947c0-1.492-0.582-2.949-1.684-4.213c-1.677-1.922-2.6-4.362-2.6-6.871
			c0-5.827,4.741-10.568,10.569-10.568c5.827,0,10.567,4.741,10.567,10.568c0,2.509-0.924,4.949-2.6,6.87
			c-1.102,1.265-1.684,2.722-1.684,4.214v25.964c-0.051,0.157-0.622,0.614-1.601,0.614H94.001z"/>
	</g>
</g>
<path style="fill:#79000C;" d="M213.409,38.153c8.592-0.005,11.665,4.923,18.774,7.343c8.966,3.053,17.456,3.51,21.004,13.1
	c3.632,9.819-4.885,13.56-11.873,19.468c-5.223,4.416-2.801,4.895-2.78,11.002c0.02,5.294,1.42,7.393,5.961,10.114
	c4.191,2.516,6.773,6.629,8.241,10.701c2.979,8.26,1.127,19.48-7.869,24.731c-1.575,0.919-4.38,1.127-5.559,2.446
	c-1.235,1.383-0.62,3.642-0.702,5.236c-0.226,4.401,0.061,3.009,0.096,7.416c0.029,3.604-0.688,0.928,0.098,4.487
	c1.09,4.935,5.962,4.125,9.888,7.351c7.81,6.418,7.116,18.808-1.103,24.708c-7.491,5.376-17.715,2.943-26.041,0.56
	c-11.521-3.298-19.918,2.783-31.344,2.713c-11.252-0.07-18.433-8.783-17.356-17.826c0.477-4.018,2.428-8.047,6.104-10.725
	c4.248-3.094,8.529-2.035,9.114-7.49c0.853-7.946,0.755-4.019,0.191-11.982c-0.363-5.103-2.763-4.713-7.091-7.438
	c-4.27-2.688-6.691-7.325-7.774-11.61c-2.113-8.367,1.098-18.757,9.81-23.682c2.394-1.353,4.099-1.136,5.103-3.704
	c0.646-1.658,0.022-6.872,0.023-8.628c0.003-4.354,0.544,0.854-0.034-3.479c-1.073-8.024-14.972-9.696-15.568-19.254
	c-0.684-10.936,9.38-15.345,19.39-17.514C200.47,44.386,204.265,38.271,213.409,38.153"/>
<g style="opacity:0.9;">
	<g>
		<defs>
			<rect id="SVGID_13_" x="194.956" y="54.843" width="36.94" height="116.2"/>
		</defs>
		<clipPath id="SVGID_14_">
			<use xlink:href="#SVGID_13_"  style="overflow:visible;"/>
		</clipPath>
		<path style="clip-path:url(#SVGID_14_);fill:#FFFFFF;" d="M208.743,171.043c-0.979,0-1.551-0.457-1.603-0.631l0.002-36.531
			c0.05-0.158,0.622-0.615,1.601-0.615h9.368c0.979,0,1.55,0.457,1.603,0.631l-0.002,36.532c-0.051,0.157-0.621,0.614-1.601,0.614
			H208.743z M197.256,122.383c-1.224,0-2.296-0.75-2.296-1.605v-5.213c0-0.854,1.072-1.604,2.296-1.604H229.6
			c1.223,0,2.296,0.75,2.296,1.604v5.213c0,0.855-1.073,1.605-2.296,1.605H197.256z M208.743,103.075
			c-0.979,0-1.551-0.457-1.603-0.631l0.002-25.947c0-1.492-0.583-2.949-1.685-4.213c-1.676-1.921-2.599-4.36-2.599-6.871
			c0-5.827,4.74-10.567,10.568-10.567c5.827,0,10.567,4.74,10.567,10.567c0,2.51-0.924,4.95-2.6,6.871
			c-1.102,1.265-1.684,2.722-1.684,4.213v25.964c-0.051,0.157-0.621,0.614-1.601,0.614H208.743z"/>
	</g>
</g>
<g>
</g>
<g>
</g>
<g>
</g>
<g>
</g>
<g>
</g>
<g>
</g>
</svg>
