<?xml version="1.0" encoding="iso-8859-1"?>
<!-- Generator: Adobe Illustrator 16.0.0, SVG Export Plug-In . SVG Version: 6.00 Build 0)  -->
<!DOCTYPE svg PUBLIC "-//W3C//DTD SVG 1.1//EN" "http://www.w3.org/Graphics/SVG/1.1/DTD/svg11.dtd">
<svg version="1.1" id="&#x30EC;&#x30A4;&#x30E4;&#x30FC;_1"
	 xmlns="http://www.w3.org/2000/svg" xmlns:xlink="http://www.w3.org/1999/xlink" x="0px" y="0px" width="426.853px"
	 height="580.188px" viewBox="0 0 426.853 580.188" style="enable-background:new 0 0 426.853 580.188;" xml:space="preserve">
<path style="fill:#00340E;" d="M369.345,493.55c-0.896-4.865-0.077-10.721-0.109-15.646c-0.041-6.021-0.367-8.894-0.109-14.908
	c0.094-2.179-0.606-5.268,0.799-7.154c1.343-1.805,4.535-2.088,6.33-3.344c10.244-7.176,12.352-22.508,8.961-33.796
	c-1.672-5.563-4.612-11.187-9.385-14.621c-5.17-3.721-6.767-6.589-6.787-13.822c-0.023-8.346-2.781-22.481,3.166-28.516
	c7.955-8.073,17.654-13.186,13.52-26.603c-4.04-13.104-13.708-13.729-23.917-17.899c-8.095-3.31-11.595-10.041-21.377-10.034
	c-10.413,0.159-14.735,8.517-24.253,10.992c-0.047,0.013-0.094,0.029-0.143,0.043c-4.847-1.496-13.59-4.678-20.42,2.172
	c-2.984,2.991-3.967,5.891-3.496,10.354c0.543,5.161,0.758,8.708-2.859,13.165c-5.268,6.493-13.711,14.982-19.932,20.536
	c-3.984,3.557-5.287,1.654-10.152,0.775c-4.801-0.867-9.809,0.958-13.67,3.423c-7.539,4.811-13.039,14.709-10.883,24.234
	c0.59,2.614,1.879,3.6,0.658,6.188c-0.787,1.671-5.027,5.134-6.314,6.443c-3.194,3.245-6.254,7.078-9.815,9.916
	c-1.635,1.302-3.506,1.777-5.506,1.87c-0.051-0.002-0.104,0.007-0.155,0.006c-0.051,0.001-0.104-0.008-0.154-0.006
	c-2-0.093-3.871-0.568-5.506-1.87c-3.563-2.838-6.621-6.671-9.816-9.916c-1.288-1.31-5.527-4.772-6.314-6.443
	c-1.221-2.588,0.067-3.573,0.659-6.188c2.154-9.525-3.345-19.424-10.884-24.234c-3.862-2.465-8.869-4.29-13.669-3.423
	c-4.866,0.879-6.17,2.781-10.153-0.775c-6.22-5.554-14.664-14.043-19.932-20.536c-3.616-4.457-3.402-8.004-2.858-13.165
	c0.47-4.464-0.513-7.363-3.495-10.354c-6.977-6.992-15.943-3.53-20.721-2.082c-0.96-0.348-1.921-0.693-2.895-1.091
	c-8.096-3.31-11.596-10.041-21.379-10.034c-10.412,0.159-14.735,8.517-24.252,10.992c-11.396,2.964-22.855,8.988-22.078,23.934
	c0.68,13.06,16.506,15.343,17.727,26.312c0.659,5.919,0.044,12.282,0.04,18.232c-0.001,2.399,0.71,9.523-0.028,11.79
	c-1.144,3.509-3.084,3.213-5.809,5.062c-9.92,6.73-13.576,20.929-11.17,32.36c1.234,5.855,3.99,12.191,8.854,15.865
	c4.928,3.723,7.659,3.191,8.072,10.164c0.643,10.884,0.753,19.803-0.217,30.66c-0.667,7.455-5.542,6.01-10.379,10.236
	c-4.187,3.657-6.408,9.164-6.952,14.656c-1.224,12.355,6.952,24.262,19.765,24.358c13.012,0.096,22.573-8.214,35.689-3.708
	c9.48,3.258,21.121,6.584,29.652-0.766c9.357-8.061,10.148-24.99,1.256-33.76c-4.471-4.41-10.018-3.301-11.26-10.046
	c-0.896-4.865-0.076-10.721-0.109-15.646c-0.041-6.021-0.368-8.894-0.109-14.908c0.094-2.179-0.605-5.268,0.799-7.154
	c1.344-1.805,4.535-2.088,6.329-3.344c7.769-5.442,10.841-15.568,10.401-25.069c1.719,1.585,3.609,2.93,5.566,3.94
	c3.961,2.046,8.689,3.376,13.311,2.431c5.005-1.023,7.474-0.403,11.371,3.529c4.494,4.536,13.691,10.612,13.473,17.413
	c-0.02,0.671-0.035,1.355-0.052,2.038c-1.522,2.607-2.476,5.571-2.774,8.577c-1.059,10.689,6.016,20.989,17.1,21.072
	c11.254,0.084,19.527-7.104,30.873-3.208c8.203,2.818,18.272,5.697,25.652-0.661c7.075-6.094,8.486-18.047,3.596-26.027
	c-0.015-0.599-0.025-1.201-0.043-1.791c-0.219-6.801,8.978-12.877,13.474-17.413c3.897-3.933,6.366-4.553,11.37-3.529
	c4.621,0.945,9.351-0.385,13.31-2.431c1.892-0.978,3.712-2.275,5.382-3.789c-0.1,2.832,0.098,5.646,0.658,8.309
	c1.233,5.855,3.991,12.191,8.854,15.865c4.928,3.723,7.66,3.191,8.072,10.164c0.644,10.884,0.754,19.803-0.217,30.66
	c-0.666,7.455-5.541,6.01-10.379,10.236c-4.186,3.657-6.408,9.164-6.951,14.656c-1.224,12.355,6.951,24.262,19.764,24.358
	c13.012,0.096,22.574-8.214,35.689-3.708c9.48,3.258,21.121,6.584,29.651-0.766c9.358-8.061,10.149-24.99,1.257-33.76
	C376.134,499.186,370.589,500.295,369.345,493.55 M121.772,404.081c-5.169-3.721-6.766-6.589-6.785-13.822
	c-0.001-0.423-0.031-0.918-0.047-1.37c0.241,0.255,0.482,0.535,0.723,0.775c3.258,3.259,4.99,4.631,8.07,8.062
	c1.116,1.244,3.182,2.514,3.378,4.372c0.181,1.701-1.347,3.637-1.804,5.329C124.253,406.183,123.099,405.035,121.772,404.081
	 M311.845,398.467c-1.145,3.509-3.086,3.213-5.809,5.062c-1.637,1.109-3.039,2.48-4.336,3.95c-0.438-1.705-2.003-3.664-1.82-5.381
	c0.195-1.858,2.261-3.128,3.377-4.372c3.08-3.431,4.813-4.803,8.069-8.062c0.212-0.211,0.423-0.456,0.634-0.678
	C312.122,392.117,312.411,396.722,311.845,398.467 M57.774,99.596c0.659,5.918,0.044,12.283,0.04,18.232
	c-0.001,2.4,0.71,9.523-0.028,11.79c-1.144,3.51-3.084,3.214-5.809,5.062c-9.92,6.73-13.576,20.929-11.17,32.36
	c1.234,5.854,3.99,12.19,8.854,15.865c4.928,3.724,7.659,3.191,8.072,10.164c0.643,10.885,0.753,19.803-0.217,30.661
	c-0.667,7.453-5.542,6.01-10.379,10.236c-4.187,3.658-6.408,9.165-6.952,14.655c-1.224,12.356,6.952,24.263,19.765,24.358
	c13.012,0.097,22.573-8.214,35.689-3.707c9.48,3.257,21.121,6.584,29.652-0.765c4.274-3.683,6.666-9.23,7.26-14.992
	c0.113-0.377,0.134-0.766,0.15-1.157c0.047-0.802-0.009-1.592-0.035-2.392c0.062-3.524,1.906-4.187,5.059-8.073
	c5.268-6.491,13.712-14.98,19.932-20.534c3.984-3.557,5.288-1.654,10.153-0.775c4.801,0.867,9.808-0.958,13.669-3.423
	c7.539-4.812,13.038-14.709,10.884-24.234c-0.591-2.615-1.88-3.6-0.659-6.188c0.788-1.671,5.027-5.135,6.315-6.444
	c3.194-3.244,6.253-7.077,9.815-9.915c1.635-1.302,3.506-1.779,5.506-1.87c0.05,0.002,0.104-0.008,0.154-0.006
	c0.051-0.002,0.104,0.008,0.155,0.006c2,0.091,3.871,0.568,5.506,1.87c3.562,2.838,6.621,6.671,9.815,9.915
	c1.289,1.31,5.527,4.773,6.316,6.444c1.219,2.588-0.068,3.572-0.66,6.188c-2.156,9.525,3.344,19.423,10.883,24.234
	c3.861,2.465,8.869,4.29,13.67,3.423c4.865-0.879,6.169-2.781,10.152,0.775c6.221,5.554,14.664,14.043,19.932,20.534
	c2.701,3.329,4.47,5.452,4.968,8.463c-0.03,1.097-0.056,2.188,0.058,3.261c-0.008,0.067,0.01,0.114,0.002,0.183
	c-0.076,0.73,0.08,1.228,0.326,1.642c1.74,9.567,8.987,17.461,19.389,17.538c13.012,0.097,22.574-8.214,35.689-3.707
	c9.48,3.257,21.121,6.584,29.651-0.765c9.358-8.063,10.149-24.992,1.257-33.761c-4.471-4.41-10.016-3.302-11.26-10.047
	c-0.896-4.863-0.077-10.721-0.109-15.646c-0.041-6.021-0.367-8.893-0.109-14.909c0.094-2.178-0.606-5.265,0.799-7.153
	c1.343-1.804,4.535-2.087,6.33-3.345c10.244-7.176,12.352-22.508,8.961-33.795c-1.672-5.562-4.612-11.185-9.385-14.62
	c-5.17-3.722-6.767-6.59-6.787-13.823c-0.023-8.346-2.781-22.48,3.166-28.517c7.955-8.072,17.654-13.184,13.52-26.6
	c-4.04-13.106-13.708-13.729-23.917-17.902c-8.095-3.307-11.595-10.041-21.377-10.033c-10.413,0.159-14.735,8.519-24.253,10.992
	c-11.396,2.964-22.855,8.989-22.077,23.934c0.681,13.06,16.504,15.345,17.726,26.312c0.659,5.918,0.045,12.283,0.041,18.232
	c-0.002,2.4,0.709,9.523-0.027,11.79c-1.145,3.51-3.086,3.214-5.809,5.062c-7.479,5.073-11.391,14.39-11.835,23.566
	c-1.671-1.512-3.487-2.812-5.376-3.785c-3.96-2.046-8.689-3.376-13.311-2.431c-5.004,1.023-7.473,0.401-11.37-3.529
	c-4.495-4.536-13.692-10.612-13.474-17.413c0.021-0.671,0.035-1.357,0.052-2.039c1.522-2.606,2.477-5.572,2.774-8.577
	c1.059-10.688-6.015-20.989-17.099-21.071c-11.256-0.084-19.526,7.104-30.874,3.207c-8.202-2.818-18.271-5.696-25.652,0.66
	c-7.074,6.096-8.486,18.047-3.596,26.029c0.016,0.597,0.025,1.201,0.044,1.791c0.218,6.801-8.978,12.877-13.474,17.413
	c-3.897,3.931-6.366,4.553-11.37,3.529c-4.622-0.945-9.351,0.385-13.31,2.431c-1.963,1.013-3.861,2.363-5.584,3.954
	c-0.151-2.971-0.619-5.883-1.425-8.562c-1.672-5.562-4.61-11.185-9.386-14.62c-5.169-3.722-6.766-6.59-6.785-13.823
	c-0.023-8.346-2.783-22.48,3.164-28.517c7.957-8.072,17.656-13.184,13.521-26.6c-4.039-13.106-13.707-13.729-23.916-17.902
	c-8.096-3.307-11.596-10.041-21.379-10.033c-10.412,0.159-14.735,8.519-24.252,10.992c-11.396,2.964-22.855,8.989-22.078,23.934
	C40.728,86.344,56.554,88.629,57.774,99.596 M303.718,182.905c4.928,3.724,7.66,3.191,8.072,10.164
	c0.077,1.312,0.119,2.525,0.18,3.786c-0.213-0.226-0.428-0.476-0.643-0.689c-3.258-3.259-4.99-4.631-8.07-8.063
	c-1.116-1.243-3.182-2.513-3.377-4.373c-0.119-1.119,0.51-2.341,1.086-3.529C301.81,181.183,302.691,182.131,303.718,182.905
	 M115.868,186.993c1.344-1.804,4.535-2.087,6.329-3.345c1.438-1.008,2.679-2.205,3.802-3.5c0.584,1.205,1.232,2.446,1.112,3.582
	c-0.196,1.86-2.262,3.13-3.378,4.373c-3.08,3.432-4.813,4.804-8.068,8.063c-0.221,0.22-0.443,0.475-0.662,0.707
	c0.015-0.869,0.022-1.706,0.066-2.727C115.163,191.969,114.464,188.882,115.868,186.993"/>
<g style="opacity:0.9;">
	<g>
		<defs>
			<rect id="SVGID_1_" x="66.608" y="58.683" width="293.631" height="460.718"/>
		</defs>
		<clipPath id="SVGID_2_">
			<use xlink:href="#SVGID_1_"  style="overflow:visible;"/>
		</clipPath>
		<path style="clip-path:url(#SVGID_2_);fill:#FFFFFF;" d="M334.327,519.401c-1.506,0-2.731-1.028-2.731-2.293v-59.382
			c0-1.266,1.226-2.293,2.731-2.293h12.256c1.506,0,2.729,1.027,2.729,2.293v59.382c0,1.265-1.224,2.293-2.729,2.293H334.327z
			 M80.271,519.401c-1.506,0-2.73-1.028-2.73-2.293v-59.382c0-1.266,1.225-2.293,2.73-2.293h12.255c1.507,0,2.731,1.027,2.731,2.293
			v59.382c0,1.265-1.225,2.293-2.731,2.293H80.271z M210.094,466.829c-1.022,0-1.759-0.376-2.106-0.728
			c-0.121-0.123-0.267-0.313-0.264-0.517l0.083-7.628l-40.072-40.47c-0.856-0.865-1.058-2.134-0.437-2.769l6.556-6.705
			c0.286-0.292,0.662-0.354,0.929-0.354c0.592,0,1.211,0.285,1.702,0.78l33.142,32.771l8.095-0.041l33.114-32.713
			c0.509-0.512,1.129-0.797,1.721-0.797c0.266,0,0.643,0.062,0.928,0.354l6.557,6.706c0.621,0.634,0.42,1.902-0.438,2.768
			l-40.532,40.934l-0.077,7.041c-0.007,0.527-1,1.327-2.486,1.334L210.094,466.829z M323.247,445.232
			c-1.42,0-2.576-0.965-2.576-2.151v-5.987c0-1.187,1.156-2.151,2.576-2.151h34.416c1.42,0,2.575,0.965,2.575,2.151v5.987
			c0,1.187-1.155,2.151-2.575,2.151H323.247z M69.189,445.232c-1.421,0-2.576-0.965-2.576-2.151v-5.987
			c0-1.187,1.155-2.151,2.576-2.151h34.416c1.42,0,2.575,0.965,2.575,2.151v5.987c0,1.187-1.155,2.151-2.575,2.151H69.189z
			 M323.247,425.365c-1.42,0-2.576-0.965-2.576-2.152v-5.986c0-1.187,1.156-2.151,2.576-2.151h34.416
			c1.42,0,2.575,0.965,2.575,2.151v5.986c0,1.188-1.155,2.152-2.575,2.152H323.247z M69.189,425.365
			c-1.421,0-2.576-0.965-2.576-2.152v-5.986c0-1.187,1.155-2.151,2.576-2.151h34.416c1.42,0,2.575,0.965,2.575,2.151v5.986
			c0,1.188-1.155,2.152-2.575,2.152H69.189z M280.521,416.286c-0.767,0-1.548-0.345-2.14-0.946l-25.793-26.18
			c-1.131-1.148-1.274-2.871-0.318-3.841l4.486-4.555c0.509-0.517,1.127-0.624,1.558-0.624c0.769,0,1.547,0.346,2.14,0.946
			l25.793,26.181c1.131,1.147,1.272,2.87,0.317,3.84l-4.485,4.555C281.569,416.178,280.952,416.286,280.521,416.286 M146.47,416.286
			c-0.43,0-1.049-0.108-1.557-0.624l-4.488-4.555c-0.955-0.97-0.813-2.692,0.318-3.84l25.793-26.181
			c0.594-0.601,1.373-0.946,2.141-0.946c0.429,0,1.047,0.107,1.555,0.624l4.488,4.555c0.955,0.97,0.813,2.692-0.319,3.841
			l-25.791,26.18C148.017,415.941,147.236,416.286,146.47,416.286 M334.255,405.493c-1.467,0-2.659-0.999-2.659-2.228V356.46
			l-0.978-0.607c-4.68-2.914-7.474-7.689-7.474-12.776c0-8.57,7.765-15.542,17.31-15.542s17.31,6.972,17.31,15.542
			c0,5.087-2.794,9.863-7.474,12.776l-0.978,0.606v46.807c0,1.229-1.192,2.228-2.658,2.228H334.255z M80.198,405.493
			c-1.467,0-2.658-0.999-2.658-2.228V356.46l-0.979-0.607c-4.68-2.914-7.473-7.689-7.473-12.776c0-8.57,7.764-15.542,17.309-15.542
			s17.311,6.972,17.311,15.542c0,5.087-2.795,9.862-7.475,12.776l-0.977,0.607v46.806c0,1.229-1.193,2.228-2.659,2.228H80.198z
			 M286.2,389.946c-0.33,0-0.856-0.176-1.344-0.669l-6.582-6.681c-0.713-0.724-0.759-1.557-0.588-1.729l27.077-27.484
			c0.063-0.063,0.213-0.07,0.274-0.07c0.33,0,0.857,0.176,1.344,0.669l6.58,6.681c0.715,0.725,0.76,1.558,0.59,1.731l-27.076,27.481
			C286.413,389.939,286.262,389.946,286.2,389.946 M140.79,389.946c-0.049,0-0.209-0.005-0.274-0.071l-27.078-27.482
			c-0.17-0.173-0.125-1.006,0.589-1.729l6.583-6.682c0.485-0.493,1.013-0.669,1.343-0.669c0.049,0,0.209,0.005,0.273,0.07
			l27.077,27.484c0.171,0.173,0.125,1.005-0.587,1.729l-6.584,6.682C141.646,389.771,141.12,389.946,140.79,389.946
			 M334.327,250.553c-1.506,0-2.731-1.028-2.731-2.293v-59.382c0-1.264,1.226-2.293,2.731-2.293h12.256
			c1.506,0,2.729,1.029,2.729,2.293v59.382c0,1.265-1.224,2.293-2.729,2.293H334.327z M80.271,250.553
			c-1.506,0-2.73-1.028-2.73-2.293v-59.382c0-1.264,1.225-2.293,2.73-2.293h12.255c1.507,0,2.731,1.029,2.731,2.293v59.382
			c0,1.265-1.225,2.293-2.731,2.293H80.271z M305.038,232.518c-0.062,0-0.211-0.007-0.275-0.071l-27.076-27.483
			c-0.171-0.173-0.124-1.006,0.59-1.729l6.581-6.681c0.486-0.493,1.013-0.67,1.345-0.67c0.047,0,0.209,0.006,0.272,0.071
			l27.078,27.483c0.17,0.173,0.124,1.006-0.589,1.729l-6.582,6.682C305.896,232.342,305.368,232.518,305.038,232.518
			 M121.952,232.518c-0.33,0-0.857-0.176-1.343-0.669l-6.583-6.682c-0.713-0.724-0.759-1.557-0.588-1.729l27.076-27.483
			c0.064-0.063,0.214-0.071,0.275-0.071c0.33,0,0.857,0.177,1.344,0.67l6.58,6.681c0.714,0.724,0.761,1.557,0.59,1.729
			l-27.077,27.484C122.165,232.511,122.014,232.518,121.952,232.518 M258.314,205.689c-0.431,0-1.048-0.108-1.556-0.624
			l-4.488-4.555c-0.955-0.971-0.813-2.692,0.318-3.841l25.793-26.18c0.592-0.602,1.373-0.947,2.139-0.947
			c0.43,0,1.049,0.109,1.557,0.624l4.488,4.556c0.955,0.97,0.813,2.692-0.316,3.84l-25.793,26.18
			C259.861,205.344,259.083,205.689,258.314,205.689 M168.677,205.689c-0.768,0-1.547-0.346-2.141-0.947l-25.793-26.18
			c-1.131-1.147-1.273-2.87-0.316-3.84l4.486-4.556c0.508-0.515,1.127-0.624,1.557-0.624c0.767,0,1.547,0.346,2.14,0.947
			l25.793,26.18c1.132,1.148,1.272,2.87,0.317,3.84l-4.487,4.556C169.725,205.581,169.105,205.689,168.677,205.689 M252.21,178.169
			c-0.592,0-1.213-0.283-1.703-0.779l-33.143-32.771l-8.096,0.041l-33.114,32.713c-0.508,0.514-1.129,0.797-1.72,0.797
			c-0.266,0-0.643-0.061-0.928-0.353l-6.557-6.705c-0.619-0.635-0.42-1.903,0.438-2.769l40.531-40.935l0.078-7.041
			c0.006-0.527,1-1.327,2.485-1.334l6.394-0.033c1.043,0,1.778,0.376,2.127,0.729c0.123,0.123,0.267,0.311,0.264,0.514l-0.083,7.629
			l40.073,40.471c0.856,0.864,1.057,2.134,0.436,2.769l-6.556,6.705C252.851,178.108,252.475,178.169,252.21,178.169
			 M323.247,176.385c-1.42,0-2.576-0.967-2.576-2.152v-5.987c0-1.187,1.156-2.151,2.576-2.151h34.416
			c1.42,0,2.575,0.965,2.575,2.151v5.987c0,1.186-1.155,2.152-2.575,2.152H323.247z M69.189,176.385
			c-1.421,0-2.576-0.967-2.576-2.152v-5.987c0-1.187,1.155-2.151,2.576-2.151h34.416c1.42,0,2.575,0.965,2.575,2.151v5.987
			c0,1.186-1.155,2.152-2.575,2.152H69.189z M323.247,156.517c-1.42,0-2.576-0.965-2.576-2.151v-5.988
			c0-1.186,1.156-2.15,2.576-2.15h34.416c1.42,0,2.575,0.965,2.575,2.15v5.988c0,1.187-1.155,2.151-2.575,2.151H323.247z
			 M69.189,156.517c-1.421,0-2.576-0.965-2.576-2.151v-5.988c0-1.186,1.155-2.15,2.576-2.15h34.416c1.42,0,2.575,0.965,2.575,2.15
			v5.988c0,1.187-1.155,2.151-2.575,2.151H69.189z M334.255,136.645c-1.467,0-2.659-0.999-2.659-2.228V87.611l-0.978-0.609
			c-4.68-2.912-7.474-7.687-7.474-12.774c0-8.569,7.765-15.541,17.31-15.541s17.31,6.972,17.31,15.541
			c0,5.088-2.794,9.864-7.474,12.774l-0.978,0.609v46.806c0,1.229-1.192,2.228-2.658,2.228H334.255z M80.198,136.645
			c-1.467,0-2.658-0.999-2.658-2.228V87.611l-0.979-0.609c-4.68-2.912-7.473-7.687-7.473-12.774c0-8.569,7.764-15.541,17.309-15.541
			s17.311,6.972,17.311,15.541c0,5.088-2.795,9.862-7.475,12.774l-0.977,0.609v46.806c0,1.229-1.193,2.228-2.659,2.228H80.198z"/>
	</g>
</g>
<g>
</g>
<g>
</g>
<g>
</g>
<g>
</g>
<g>
</g>
<g>
</g>
</svg>
