<?xml version="1.0" encoding="iso-8859-1"?>
<!-- Generator: Adobe Illustrator 16.0.0, SVG Export Plug-In . SVG Version: 6.00 Build 0)  -->
<!DOCTYPE svg PUBLIC "-//W3C//DTD SVG 1.1//EN" "http://www.w3.org/Graphics/SVG/1.1/DTD/svg11.dtd">
<svg version="1.1" id="&#x30EC;&#x30A4;&#x30E4;&#x30FC;_1"
	 xmlns="http://www.w3.org/2000/svg" xmlns:xlink="http://www.w3.org/1999/xlink" x="0px" y="0px" width="426.854px"
	 height="580.189px" viewBox="0 0 426.854 580.189" style="enable-background:new 0 0 426.854 580.189;" xml:space="preserve">
<path style="fill:#00203F;" d="M213.427,106.494c-101.396,0-183.596,82.209-183.596,183.604
	c0,101.397,82.199,183.597,183.596,183.597s183.596-82.199,183.596-183.597C397.022,188.703,314.823,106.494,213.427,106.494"/>
<path style="fill:#00394B;" d="M213.427,122.941c-92.313,0-167.148,74.845-167.148,167.157c0,92.313,74.836,167.149,167.148,167.149
	c92.313,0,167.149-74.836,167.149-167.149C380.576,197.786,305.74,122.941,213.427,122.941"/>
<path style="fill:#FFFFFF;" d="M227.933,191.403c0,32.676-6.494,59.164-14.506,59.164c-8.011,0-14.505-26.488-14.505-59.164
	s6.494-59.165,14.505-59.165C221.438,132.238,227.933,158.728,227.933,191.403"/>
<path style="fill:#FFFFFF;" d="M227.933,388.787c0,32.675-6.494,59.164-14.506,59.164c-8.011,0-14.505-26.489-14.505-59.164
	c0-32.676,6.494-59.165,14.505-59.165C221.438,329.622,227.933,356.111,227.933,388.787"/>
<path style="fill:#00394B;" d="M219.192,290.095c0,78.421-2.582,141.993-5.766,141.993s-5.766-63.572-5.766-141.993
	c0-78.42,2.582-141.993,5.766-141.993S219.192,211.675,219.192,290.095"/>
<path style="fill:#FFFFFF;" d="M201.894,191.012c8.457,31.562,9.041,58.829,1.303,60.902c-7.739,2.074-20.866-21.832-29.324-53.395
	c-8.457-31.562-9.04-58.829-1.302-60.903C180.309,135.544,193.437,159.449,201.894,191.012"/>
<path style="fill:#FFFFFF;" d="M252.981,381.67c8.457,31.562,9.039,58.829,1.303,60.901c-7.739,2.074-20.866-21.832-29.324-53.394
	c-8.458-31.563-9.041-58.829-1.303-60.903C231.396,326.202,244.524,350.107,252.981,381.67"/>
<path style="fill:#00394B;" d="M218.995,288.603c20.297,75.749,34.258,137.823,31.183,138.646
	c-3.076,0.825-22.022-59.914-42.319-135.662s-34.258-137.821-31.182-138.646C179.752,152.116,198.699,212.854,218.995,288.603"/>
<path style="fill:#FFFFFF;" d="M176.643,197.373c16.338,28.298,23.958,54.484,17.021,58.49
	c-6.938,4.005-25.806-15.688-42.145-43.985c-16.337-28.299-23.958-54.485-17.02-58.491
	C141.436,149.382,160.305,169.075,176.643,197.373"/>
<path style="fill:#FFFFFF;" d="M275.335,368.313c16.338,28.298,23.957,54.483,17.021,58.489
	c-6.938,4.006-25.806-15.687-42.144-43.985c-16.338-28.298-23.959-54.484-17.021-58.49
	C240.128,320.321,258.996,340.014,275.335,368.313"/>
<path style="fill:#00394B;" d="M218.419,287.212c39.211,67.914,68.762,124.261,66.004,125.853
	c-2.756,1.591-36.777-52.173-75.988-120.087c-39.21-67.914-68.761-124.26-66.004-125.853
	C145.188,165.533,179.209,219.298,218.419,287.212"/>
<path style="fill:#FFFFFF;" d="M153.898,210.053c23.105,23.104,37.244,46.428,31.579,52.092
	c-5.664,5.665-28.987-8.474-52.092-31.579s-37.244-46.428-31.579-52.092C107.47,172.809,130.793,186.947,153.898,210.053"/>
<path style="fill:#FFFFFF;" d="M293.47,349.624c23.104,23.104,37.243,46.428,31.578,52.092c-5.664,5.665-28.986-8.474-52.092-31.579
	s-37.244-46.428-31.579-52.092C247.041,312.38,270.364,326.519,293.47,349.624"/>
<path style="fill:#00394B;" d="M217.503,286.019c55.452,55.451,98.58,102.229,96.328,104.479s-49.029-40.876-104.479-96.328
	c-55.452-55.45-98.58-102.228-96.328-104.479C115.274,187.439,162.051,230.566,217.503,286.019"/>
<path style="fill:#FFFFFF;" d="M135.21,228.188c28.298,16.338,47.991,35.206,43.986,42.144c-4.006,6.938-30.193-0.683-58.491-17.021
	c-28.298-16.338-47.991-35.206-43.986-42.145C80.725,204.229,106.912,211.85,135.21,228.188"/>
<path style="fill:#FFFFFF;" d="M306.149,326.879c28.297,16.338,47.99,35.207,43.985,42.145c-4.006,6.938-30.192-0.684-58.491-17.021
	c-28.298-16.338-47.99-35.206-43.984-42.145C251.664,302.921,277.851,310.541,306.149,326.879"/>
<path style="fill:#00394B;" d="M216.31,285.103c67.914,39.21,121.68,73.23,120.088,75.987
	c-1.594,2.759-57.939-26.793-125.854-66.003c-67.914-39.211-121.678-73.231-120.087-75.988
	C92.05,216.34,148.395,245.892,216.31,285.103"/>
<path style="fill:#FFFFFF;" d="M121.852,250.541c31.562,8.457,55.468,21.586,53.395,29.323c-2.074,7.738-29.341,7.155-60.903-1.303
	s-55.468-21.585-53.394-29.323C63.023,241.501,90.29,242.084,121.852,250.541"/>
<path style="fill:#FFFFFF;" d="M312.511,301.628c31.562,8.457,55.467,21.585,53.395,29.323c-2.074,7.737-29.342,7.154-60.903-1.303
	c-31.562-8.458-55.469-21.586-53.394-29.324C253.681,292.588,280.948,293.171,312.511,301.628"/>
<path style="fill:#00394B;" d="M214.919,284.526c75.748,20.297,136.486,39.243,135.662,42.318
	c-0.824,3.076-62.897-10.885-138.646-31.182c-75.749-20.296-136.487-39.243-135.663-42.319
	C77.096,250.269,139.17,264.229,214.919,284.526"/>
<path style="fill:#FFFFFF;" d="M114.735,275.59c32.676,0,59.165,6.494,59.165,14.505S147.411,304.6,114.735,304.6
	c-32.676,0-59.165-6.494-59.165-14.505S82.059,275.59,114.735,275.59"/>
<path style="fill:#FFFFFF;" d="M312.118,275.59c32.676,0,59.166,6.494,59.166,14.505s-26.49,14.505-59.166,14.505
	s-59.164-6.494-59.164-14.505S279.442,275.59,312.118,275.59"/>
<path style="fill:#00394B;" d="M213.427,284.33c78.42,0,141.993,2.581,141.993,5.765s-63.573,5.765-141.993,5.765
	c-78.419,0-141.993-2.581-141.993-5.765S135.007,284.33,213.427,284.33"/>
<path style="fill:#FFFFFF;" d="M114.344,301.628c31.562-8.457,58.829-9.04,60.902-1.304c2.074,7.738-21.832,20.866-53.394,29.324
	c-31.562,8.457-58.829,9.04-60.903,1.303C58.876,323.213,82.782,310.085,114.344,301.628"/>
<path style="fill:#FFFFFF;" d="M305.003,250.541c31.562-8.457,58.828-9.04,60.901-1.303c2.074,7.738-21.832,20.865-53.394,29.323
	c-31.563,8.458-58.83,9.041-60.903,1.303C249.533,272.127,273.44,258.998,305.003,250.541"/>
<path style="fill:#00394B;" d="M211.935,284.526c75.748-20.297,137.822-34.258,138.646-31.183
	c0.824,3.076-59.914,22.023-135.662,42.319c-75.748,20.297-137.822,34.258-138.647,31.182
	C75.449,323.77,136.186,304.823,211.935,284.526"/>
<path style="fill:#FFFFFF;" d="M120.705,326.879c28.298-16.338,54.485-23.958,58.491-17.021
	c4.005,6.938-15.688,25.807-43.986,42.145s-54.485,23.959-58.491,17.021C72.714,362.086,92.407,343.217,120.705,326.879"/>
<path style="fill:#FFFFFF;" d="M291.644,228.188c28.299-16.338,54.485-23.958,58.491-17.021
	c4.005,6.938-15.688,25.807-43.985,42.145c-28.299,16.338-54.485,23.958-58.49,17.021
	C243.653,263.394,263.346,244.525,291.644,228.188"/>
<path style="fill:#00394B;" d="M210.544,285.103c67.914-39.211,124.26-68.763,125.854-66.004
	c1.591,2.757-52.173,36.777-120.087,75.988c-67.915,39.21-124.261,68.762-125.853,66.003
	C88.865,358.333,142.63,324.313,210.544,285.103"/>
<path style="fill:#FFFFFF;" d="M133.385,349.624c23.105-23.105,46.428-37.244,52.092-31.579c5.665,5.664-8.474,28.986-31.579,52.092
	c-23.106,23.105-46.428,37.244-52.093,31.579C96.141,396.052,110.28,372.729,133.385,349.624"/>
<path style="fill:#FFFFFF;" d="M272.956,210.053c23.105-23.105,46.428-37.244,52.092-31.579c5.666,5.664-8.474,28.986-31.578,52.092
	c-23.106,23.105-46.428,37.244-52.092,31.579C235.712,256.48,249.852,233.157,272.956,210.053"/>
<path style="fill:#00394B;" d="M209.351,286.019c55.451-55.452,102.229-98.579,104.48-96.328
	c2.251,2.252-40.876,49.029-96.328,104.479c-55.451,55.452-102.229,98.579-104.48,96.328
	C110.771,388.247,153.899,341.47,209.351,286.019"/>
<path style="fill:#FFFFFF;" d="M151.52,368.313c16.338-28.299,35.207-47.991,42.144-43.986c6.938,4.006-0.683,30.192-17.02,58.49
	c-16.339,28.299-35.207,47.991-42.145,43.985C127.562,422.796,135.183,396.61,151.52,368.313"/>
<path style="fill:#FFFFFF;" d="M250.212,197.373c16.338-28.298,35.205-47.991,42.144-43.986c6.937,4.006-0.683,30.192-17.021,58.491
	c-16.339,28.298-35.207,47.99-42.145,43.985C226.253,251.857,233.874,225.671,250.212,197.373"/>
<path style="fill:#00394B;" d="M208.435,287.212c39.211-67.914,73.231-121.679,75.988-120.087
	c2.758,1.593-26.793,57.938-66.004,125.853c-39.21,67.914-73.231,121.678-75.988,120.087
	C139.673,411.473,169.224,355.126,208.435,287.212"/>
<path style="fill:#FFFFFF;" d="M173.874,381.67c8.457-31.563,21.585-55.468,29.323-53.396c7.738,2.074,7.155,29.34-1.302,60.903
	c-8.458,31.562-21.585,55.468-29.324,53.394C164.833,440.499,165.417,413.231,173.874,381.67"/>
<path style="fill:#FFFFFF;" d="M224.96,191.012c8.457-31.563,21.586-55.468,29.323-53.396c7.738,2.074,7.155,29.342-1.302,60.903
	c-8.458,31.563-21.586,55.469-29.324,53.395C215.919,249.841,216.503,222.573,224.96,191.012"/>
<path style="fill:#00394B;" d="M207.858,288.603c20.297-75.748,39.244-136.486,42.318-135.662
	c3.077,0.824-10.884,62.897-31.181,138.646c-20.297,75.748-39.243,136.487-42.32,135.662
	C173.601,426.426,187.562,364.352,207.858,288.603"/>
<path style="fill:#00394B;" d="M213.427,177.695c-62.075,0-112.396,50.327-112.396,112.402s50.322,112.397,112.396,112.397
	c62.074,0,112.397-50.322,112.397-112.397S275.501,177.695,213.427,177.695"/>
<path style="fill:#79000C;" d="M213.427,190.437c-55.038,0-99.656,44.623-99.656,99.661s44.618,99.654,99.656,99.654
	c55.039,0,99.656-44.616,99.656-99.654S268.466,190.437,213.427,190.437"/>
<path style="fill:#FFFFFF;" d="M213.427,318.871c-15.865,0-28.774-12.906-28.774-28.775s12.91-28.775,28.774-28.775
	c15.866,0,28.776,12.906,28.776,28.775S229.293,318.871,213.427,318.871 M213.427,270.972c-10.542,0-19.124,8.581-19.124,19.124
	c0,10.544,8.581,19.125,19.124,19.125c10.545,0,19.125-8.581,19.125-19.125C232.552,279.553,223.972,270.972,213.427,270.972"/>
<path style="fill:#FFFFFF;" d="M213.427,393.404c-56.966,0-103.31-46.343-103.31-103.309s46.344-103.317,103.31-103.317
	c56.967,0,103.311,46.352,103.311,103.317S270.394,393.404,213.427,393.404 M213.427,194.089c-52.936,0-96,43.066-96,96.007
	c0,52.932,43.064,96,96,96c52.938,0,96-43.068,96-96C309.427,237.155,266.364,194.089,213.427,194.089"/>
<path style="fill:#FFFFFF;" d="M213.427,460.901c-94.183,0-170.805-76.626-170.805-170.806c0-94.188,76.622-170.813,170.805-170.813
	c94.185,0,170.807,76.625,170.807,170.813C384.233,384.275,307.611,460.901,213.427,460.901 M213.427,126.594
	c-90.153,0-163.495,73.349-163.495,163.502c0,90.152,73.342,163.495,163.495,163.495c90.153,0,163.495-73.343,163.495-163.495
	C376.922,199.942,303.58,126.594,213.427,126.594"/>
<path style="fill:#EFEFEF;" d="M238.841,367.346c-7.768,0-13.506-1.751-14.961-3.398c-3.865-4.377-4.867-6.812-4.558-15.59
	c0.181-4.934,0.244-13.25,0.267-19.904c4.506-0.708,8.584-1.996,12.174-3.866l9.277,12.779c-1.631,3.582-1.253,7.736,1.096,10.976
	c2.068,2.841,5.398,4.536,8.916,4.536c2.332,0,4.564-0.732,6.459-2.101c2.379-1.728,3.942-4.283,4.404-7.187
	c0.461-2.905-0.238-5.817-1.97-8.197c-2.045-2.809-5.356-4.496-8.86-4.496c-0.41,0-0.82,0.023-1.229,0.071l-9.3-12.796
	c3.063-2.97,5.67-6.479,7.66-10.298c6.299,2.021,14.098,4.488,18.805,5.832c8.435,2.411,10.441,4.115,13.414,9.152
	c2.562,4.338-1.557,26.438-16.24,37.109C257.736,364.656,248.497,367.346,238.841,367.346"/>
<path style="fill:#EFEFEF;" d="M188.016,367.346c-9.657,0-18.896-2.689-25.354-7.377c-14.688-10.672-18.806-32.771-16.244-37.109
	c2.973-5.037,4.978-6.741,13.414-9.152c4.707-1.344,12.51-3.812,18.809-5.832c1.985,3.819,4.592,7.328,7.656,10.298l-9.296,12.796
	c-0.409-0.048-0.819-0.071-1.229-0.071c-3.505,0-6.816,1.688-8.865,4.496c-1.727,2.38-2.427,5.292-1.97,8.197
	c0.462,2.903,2.025,5.459,4.405,7.187c1.894,1.368,4.13,2.101,6.462,2.101c3.518,0,6.848-1.695,8.913-4.536
	c2.352-3.239,2.73-7.394,1.099-10.976l9.278-12.779c3.59,1.87,7.668,3.158,12.172,3.866c0.021,6.654,0.084,14.971,0.263,19.904
	c0.31,8.778-0.688,11.213-4.552,15.59C201.521,365.595,195.783,367.346,188.016,367.346"/>
<path style="fill:#EFEFEF;" d="M280.04,304.731c-2.297,0-5.011-0.646-9.371-2.244c-4.58-1.664-12.287-4.235-18.559-6.295
	c0.35-2.094,0.521-4.099,0.521-6.097c0-2.18-0.219-4.416-0.664-6.797l14.953-4.861c2.021,1.854,4.64,2.889,7.396,2.889
	c1.143,0,2.281-0.183,3.374-0.541c2.794-0.908,5.07-2.849,6.403-5.468c1.337-2.618,1.576-5.604,0.664-8.403
	c-1.48-4.552-5.687-7.608-10.473-7.608c-1.149,0-2.293,0.184-3.397,0.542c-3.806,1.24-6.55,4.385-7.334,8.229l-14.898,4.846
	c-1.821-3.612-4.399-7.043-7.698-10.241c3.895-5.396,8.726-12.152,11.49-16.26c4.899-7.28,7.139-8.666,12.842-9.931h0.056
	c6.728,0,24.965,10.735,30.224,26.914c5.607,17.262-4.051,37.562-8.674,39.576c-2.92,1.257-4.842,1.751-6.852,1.751H280.04z"/>
<path style="fill:#EFEFEF;" d="M146.813,304.731c-2.013,0-3.935-0.494-6.852-1.751c-4.624-2.006-14.285-22.314-8.674-39.576
	c5.272-16.227,23.596-26.97,29.608-26.97c6.363,1.32,8.603,2.696,13.509,9.986c2.765,4.107,7.6,10.872,11.492,16.26
	c-3.299,3.198-5.877,6.629-7.7,10.241l-14.893-4.846c-0.784-3.844-3.534-6.988-7.334-8.229c-1.106-0.358-2.248-0.542-3.402-0.542
	c-4.783,0-8.989,3.057-10.469,7.608c-0.911,2.793-0.677,5.777,0.656,8.403c1.337,2.619,3.614,4.56,6.411,5.468
	c1.09,0.358,2.228,0.541,3.37,0.541c2.757,0,5.38-1.034,7.401-2.889l14.95,4.861c-0.443,2.381-0.661,4.624-0.661,6.797
	c0,1.989,0.171,4.003,0.521,6.097c-6.266,2.06-13.982,4.631-18.558,6.295C151.827,304.086,149.108,304.731,146.813,304.731"/>
<path style="fill:#EFEFEF;" d="M195.915,255.51c-3.939-5.38-8.905-12.112-11.965-16.027c-5.412-6.909-6.032-9.462-5.475-15.271
	c0.477-5.021,16.799-20.484,34.952-20.484c18.156,0,34.478,15.463,34.951,20.476c0.558,5.818-0.063,8.371-5.472,15.28
	c-3.063,3.915-8.028,10.647-11.965,16.027c-4.078-2.108-8.058-3.438-12.067-4.051v-15.836c3.422-1.942,5.562-5.531,5.562-9.526
	c0-6.072-4.94-11.006-11.009-11.006c-6.069,0-11.01,4.934-11.01,11.006c0,3.995,2.141,7.584,5.562,9.526v15.845
	C203.973,252.071,199.992,253.401,195.915,255.51"/>
<path style="fill:#79000C;" d="M203.121,257.062c-1.214,0-2.38-0.685-2.941-1.846l-8.786-18.208c-0.78-1.624-0.1-3.573,1.52-4.354
	c1.635-0.804,3.569-0.096,4.353,1.52l8.786,18.209c0.779,1.623,0.1,3.572-1.52,4.353
	C204.076,256.957,203.594,257.062,203.121,257.062 M226.672,255.216l8.786-18.208c0.779-1.624,0.1-3.573-1.52-4.354
	c-1.627-0.796-3.566-0.096-4.354,1.52l-8.786,18.209c-0.78,1.623-0.099,3.572,1.521,4.353c0.457,0.222,0.938,0.326,1.412,0.326
	C224.946,257.062,226.112,256.377,226.672,255.216 M156.132,294.648l20.031-2.73c1.782-0.246,3.031-1.886,2.789-3.669
	c-0.247-1.79-1.878-2.983-3.673-2.794l-20.031,2.731c-1.782,0.246-3.032,1.886-2.789,3.668c0.223,1.639,1.623,2.825,3.227,2.825
	C155.833,294.68,155.98,294.663,156.132,294.648 M184.451,271.323c1.245-1.298,1.197-3.358-0.1-4.608l-14.604-13.982
	c-1.304-1.249-3.366-1.201-4.611,0.104c-1.245,1.297-1.197,3.358,0.1,4.608l14.603,13.982c0.632,0.604,1.445,0.906,2.256,0.906
	C182.955,272.333,183.81,271.991,184.451,271.323 M200.048,345.993l3.594-19.895c0.322-1.774-0.855-3.47-2.627-3.788
	c-1.838-0.374-3.47,0.851-3.788,2.626l-3.593,19.895c-0.322,1.775,0.856,3.471,2.626,3.788c0.199,0.04,0.395,0.057,0.585,0.057
	C198.393,348.676,199.766,347.569,200.048,345.993 M167.488,325.836l17.81-9.565c1.583-0.853,2.181-2.833,1.329-4.417
	c-0.855-1.584-2.825-2.173-4.417-1.329l-17.81,9.565c-1.583,0.852-2.181,2.834-1.329,4.417c0.589,1.091,1.715,1.719,2.877,1.719
	C166.469,326.226,166.995,326.099,167.488,325.836 M263.786,324.507c0.851-1.583,0.253-3.565-1.33-4.417l-17.811-9.565
	c-1.6-0.844-3.562-0.255-4.416,1.329c-0.853,1.584-0.256,3.564,1.328,4.417l17.812,9.565c0.493,0.263,1.018,0.39,1.54,0.39
	C262.069,326.226,263.196,325.598,263.786,324.507 M230.596,348.619c1.771-0.317,2.948-2.013,2.626-3.788l-3.593-19.895
	c-0.321-1.775-1.981-3-3.788-2.626c-1.771,0.318-2.949,2.014-2.627,3.788l3.594,19.895c0.282,1.576,1.655,2.683,3.203,2.683
	C230.202,348.676,230.397,348.659,230.596,348.619 M247.017,271.427l14.601-13.982c1.297-1.25,1.344-3.312,0.099-4.608
	c-1.254-1.305-3.314-1.345-4.611-0.104l-14.6,13.982c-1.297,1.25-1.344,3.311-0.1,4.608c0.641,0.668,1.5,1.01,2.355,1.01
	C245.573,272.333,246.385,272.031,247.017,271.427 M274.394,291.847c0.242-1.782-1.007-3.422-2.793-3.669l-20.031-2.723
	c-1.762-0.189-3.426,1.004-3.668,2.794c-0.244,1.783,1.006,3.423,2.793,3.669l20.031,2.723c0.146,0.016,0.293,0.031,0.44,0.031
	C272.771,294.672,274.17,293.486,274.394,291.847"/>
<g>
</g>
<g>
</g>
<g>
</g>
<g>
</g>
<g>
</g>
<g>
</g>
</svg>
