<?xml version="1.0" encoding="iso-8859-1"?>
<!-- Generator: Adobe Illustrator 16.0.0, SVG Export Plug-In . SVG Version: 6.00 Build 0)  -->
<!DOCTYPE svg PUBLIC "-//W3C//DTD SVG 1.1//EN" "http://www.w3.org/Graphics/SVG/1.1/DTD/svg11.dtd">
<svg version="1.1" id="&#x30EC;&#x30A4;&#x30E4;&#x30FC;_1"
	 xmlns="http://www.w3.org/2000/svg" xmlns:xlink="http://www.w3.org/1999/xlink" x="0px" y="0px" width="426.854px"
	 height="580.189px" viewBox="0 0 426.854 580.189" style="enable-background:new 0 0 426.854 580.189;" xml:space="preserve">
<path style="fill:#00203F;" d="M213.428,312.731c-63.538,0-115.045,51.514-115.045,115.051s51.508,115.045,115.045,115.045
	c63.537,0,115.045-51.508,115.045-115.045S276.965,312.731,213.428,312.731"/>
<path style="fill:#00394B;" d="M213.428,332.646c-52.539,0-95.13,42.596-95.13,95.135s42.592,95.131,95.13,95.131
	c52.539,0,95.131-42.592,95.131-95.131S265.967,332.646,213.428,332.646"/>
<path style="fill:#FFFFFF;" d="M213.428,453.591c-14.234,0-25.813-11.578-25.813-25.813s11.579-25.813,25.813-25.813
	c14.233,0,25.812,11.579,25.812,25.813S227.661,453.591,213.428,453.591 M213.428,410.617c-9.459,0-17.155,7.702-17.155,17.161
	c0,9.458,7.695,17.16,17.155,17.16c9.457,0,17.152-7.702,17.152-17.16C230.58,418.319,222.885,410.617,213.428,410.617"/>
<path style="fill:#FFFFFF;" d="M213.428,527.49c-54.979,0-99.709-44.73-99.709-99.712s44.73-99.705,99.709-99.705
	c54.98,0,99.711,44.724,99.711,99.705S268.408,527.49,213.428,527.49 M213.428,337.183c-49.954,0-90.594,40.64-90.594,90.596
	s40.64,90.603,90.594,90.603c49.955,0,90.596-40.646,90.596-90.603S263.383,337.183,213.428,337.183"/>
<path style="fill:#EFEFEF;" d="M236.225,497.074c-6.969,0-12.115-1.57-13.422-3.048c-3.466-3.927-4.365-6.11-4.087-13.984
	c0.161-4.426,0.218-11.886,0.239-17.854c4.04-0.636,7.7-1.792,10.919-3.47l8.324,11.464c-1.464,3.212-1.124,6.939,0.981,9.845
	c1.856,2.549,4.844,4.068,7.998,4.068c2.092,0,4.094-0.656,5.793-1.884c2.135-1.549,3.537-3.841,3.951-6.447
	c0.414-2.604-0.214-5.217-1.766-7.352c-1.835-2.521-4.805-4.033-7.95-4.033c-0.367,0-0.735,0.021-1.103,0.064l-8.342-11.479
	c2.748-2.662,5.086-5.811,6.871-9.238c5.651,1.814,12.646,4.027,16.868,5.233c7.567,2.163,9.367,3.691,12.033,8.21
	c2.298,3.89-1.396,23.714-14.567,33.287C253.174,494.662,244.887,497.074,236.225,497.074"/>
<path style="fill:#EFEFEF;" d="M190.633,497.074c-8.663,0-16.951-2.412-22.744-6.617c-13.174-9.573-16.868-29.397-14.569-33.287
	c2.666-4.519,4.464-6.047,12.032-8.21c4.222-1.206,11.221-3.419,16.872-5.233c1.781,3.428,4.119,6.576,6.867,9.238l-8.338,11.479
	c-0.367-0.043-0.735-0.064-1.102-0.064c-3.145,0-6.115,1.513-7.954,4.033c-1.548,2.135-2.176,4.747-1.766,7.352
	c0.414,2.606,1.817,4.898,3.951,6.447c1.699,1.228,3.705,1.884,5.797,1.884c3.155,0,6.142-1.52,7.995-4.068
	c2.109-2.905,2.448-6.633,0.985-9.845l8.324-11.464c3.219,1.678,6.878,2.834,10.919,3.47c0.017,5.968,0.074,13.428,0.234,17.854
	c0.278,7.874-0.617,10.058-4.083,13.984C202.747,495.504,197.6,497.074,190.633,497.074"/>
<path style="fill:#EFEFEF;" d="M273.18,440.908c-2.06,0-4.492-0.578-8.404-2.014c-4.109-1.491-11.023-3.798-16.648-5.646
	c0.315-1.877,0.469-3.676,0.469-5.468c0-1.956-0.196-3.962-0.598-6.098l13.414-4.36c1.813,1.663,4.162,2.591,6.635,2.591
	c1.025,0,2.047-0.164,3.028-0.485c2.505-0.813,4.546-2.556,5.743-4.904c1.199-2.349,1.412-5.025,0.595-7.538
	c-1.328-4.083-5.101-6.824-9.394-6.824c-1.031,0-2.057,0.164-3.049,0.485c-3.412,1.113-5.875,3.934-6.578,7.381l-13.363,4.348
	c-1.635-3.241-3.948-6.318-6.907-9.188c3.495-4.841,7.828-10.9,10.31-14.584c4.394-6.531,6.402-7.773,11.518-8.909h0.049
	c6.036,0,22.395,9.63,27.113,24.143c5.029,15.484-3.633,33.694-7.781,35.501c-2.62,1.128-4.343,1.57-6.146,1.57H273.18z"/>
<path style="fill:#EFEFEF;" d="M153.673,440.908c-1.807,0-3.53-0.442-6.146-1.57c-4.148-1.799-12.814-20.017-7.782-35.501
	c4.73-14.555,21.166-24.192,26.56-24.192c5.707,1.186,7.717,2.42,12.117,8.959c2.48,3.684,6.817,9.751,10.309,14.584
	c-2.959,2.869-5.273,5.946-6.908,9.188l-13.359-4.348c-0.703-3.447-3.17-6.268-6.578-7.381c-0.992-0.321-2.017-0.485-3.052-0.485
	c-4.29,0-8.063,2.741-9.39,6.824c-0.818,2.506-0.608,5.183,0.588,7.538c1.2,2.349,3.241,4.091,5.75,4.904
	c0.978,0.321,1.999,0.485,3.024,0.485c2.473,0,4.825-0.928,6.638-2.591l13.411,4.36c-0.397,2.136-0.593,4.148-0.593,6.098
	c0,1.784,0.153,3.591,0.468,5.468c-5.622,1.849-12.543,4.155-16.648,5.646C158.17,440.33,155.733,440.908,153.673,440.908"/>
<path style="fill:#EFEFEF;" d="M197.718,396.756c-3.533-4.825-7.988-10.865-10.732-14.377c-4.855-6.196-5.412-8.488-4.913-13.699
	c0.429-4.504,15.071-18.375,31.353-18.375c16.287,0,30.93,13.871,31.354,18.368c0.499,5.218-0.058,7.51-4.909,13.706
	c-2.748,3.512-7.203,9.552-10.732,14.377c-3.658-1.893-7.229-3.084-10.826-3.634v-14.205c3.069-1.742,4.99-4.962,4.99-8.545
	c0-5.447-4.434-9.873-9.877-9.873c-5.441,0-9.875,4.426-9.875,9.873c0,3.583,1.921,6.803,4.99,8.545v14.213
	C204.946,393.672,201.376,394.863,197.718,396.756"/>
<path style="fill:#00394B;" d="M204.182,398.147c-1.088,0-2.134-0.613-2.637-1.655l-7.881-16.334
	c-0.699-1.456-0.089-3.205,1.363-3.905c1.467-0.72,3.202-0.086,3.905,1.364l7.881,16.333c0.699,1.456,0.089,3.205-1.363,3.905
	C205.039,398.055,204.606,398.147,204.182,398.147 M225.309,396.492l7.881-16.334c0.699-1.456,0.09-3.205-1.363-3.905
	c-1.459-0.714-3.197-0.086-3.904,1.364l-7.881,16.333c-0.699,1.456-0.09,3.205,1.363,3.905c0.41,0.199,0.842,0.292,1.268,0.292
	C223.761,398.147,224.805,397.534,225.309,396.492 M162.033,431.863L180,429.414c1.598-0.221,2.719-1.691,2.502-3.291
	c-0.222-1.605-1.685-2.676-3.295-2.505l-17.968,2.449c-1.599,0.22-2.72,1.691-2.502,3.29c0.2,1.471,1.456,2.534,2.895,2.534
	C161.765,431.892,161.896,431.877,162.033,431.863 M187.435,410.94c1.118-1.164,1.075-3.013-0.089-4.134l-13.099-12.542
	c-1.171-1.121-3.02-1.078-4.137,0.093c-1.117,1.163-1.074,3.013,0.089,4.133l13.1,12.543c0.567,0.542,1.296,0.813,2.023,0.813
	C186.094,411.847,186.861,411.539,187.435,410.94 M201.427,477.921l3.223-17.846c0.289-1.592-0.767-3.113-2.355-3.398
	c-1.65-0.335-3.113,0.765-3.399,2.356l-3.222,17.846c-0.289,1.593,0.767,3.113,2.355,3.398c0.179,0.036,0.354,0.05,0.524,0.05
	C199.941,480.327,201.174,479.334,201.427,477.921 M172.22,459.839l15.976-8.58c1.42-0.764,1.955-2.541,1.191-3.963
	c-0.767-1.42-2.534-1.947-3.961-1.191l-15.976,8.581c-1.421,0.764-1.956,2.541-1.192,3.962c0.528,0.977,1.538,1.542,2.58,1.542
	C171.305,460.189,171.776,460.075,172.22,459.839 M258.6,458.647c0.764-1.421,0.229-3.198-1.191-3.962l-15.978-8.581
	c-1.435-0.756-3.194-0.229-3.961,1.191c-0.765,1.422-0.229,3.199,1.192,3.963l15.976,8.58c0.442,0.236,0.914,0.351,1.381,0.351
	C257.061,460.189,258.072,459.624,258.6,458.647 M228.828,480.277c1.588-0.285,2.645-1.806,2.355-3.398l-3.223-17.846
	c-0.289-1.592-1.778-2.691-3.398-2.356c-1.589,0.285-2.645,1.807-2.355,3.398l3.223,17.846c0.254,1.413,1.486,2.406,2.873,2.406
	C228.475,480.327,228.649,480.313,228.828,480.277 M243.559,411.033l13.096-12.543c1.163-1.12,1.207-2.97,0.09-4.133
	c-1.125-1.171-2.975-1.206-4.138-0.093l-13.095,12.542c-1.165,1.121-1.207,2.97-0.089,4.134c0.573,0.599,1.344,0.906,2.112,0.906
	C242.263,411.847,242.99,411.575,243.559,411.033 M268.115,429.351c0.219-1.6-0.902-3.069-2.506-3.291l-17.968-2.441
	c-1.581-0.171-3.073,0.899-3.291,2.505c-0.217,1.6,0.904,3.07,2.506,3.291l17.968,2.442c0.133,0.015,0.265,0.028,0.396,0.028
	C266.66,431.885,267.916,430.821,268.115,429.351"/>
<path style="fill:#00203F;" d="M213.428,37.362c-63.538,0-115.045,51.514-115.045,115.051s51.508,115.046,115.045,115.046
	c63.537,0,115.045-51.509,115.045-115.046S276.965,37.362,213.428,37.362"/>
<path style="fill:#00394B;" d="M213.428,57.277c-52.539,0-95.13,42.597-95.13,95.136s42.592,95.131,95.13,95.131
	c52.539,0,95.131-42.592,95.131-95.131S265.967,57.277,213.428,57.277"/>
<path style="fill:#FFFFFF;" d="M213.428,178.22c-14.234,0-25.813-11.571-25.813-25.806s11.579-25.813,25.813-25.813
	c14.233,0,25.812,11.579,25.812,25.813S227.661,178.22,213.428,178.22 M213.428,135.253c-9.459,0-17.155,7.702-17.155,17.161
	s7.695,17.153,17.155,17.153c9.457,0,17.152-7.694,17.152-17.153S222.885,135.253,213.428,135.253"/>
<path style="fill:#FFFFFF;" d="M213.428,252.119c-54.979,0-99.709-44.724-99.709-99.705s44.73-99.712,99.709-99.712
	c54.98,0,99.711,44.73,99.711,99.712S268.408,252.119,213.428,252.119 M213.428,61.811c-49.954,0-90.594,40.646-90.594,90.604
	c0,49.956,40.64,90.596,90.594,90.596c49.955,0,90.596-40.64,90.596-90.596C304.023,102.457,263.383,61.811,213.428,61.811"/>
<path style="fill:#EFEFEF;" d="M236.225,221.706c-6.969,0-12.115-1.57-13.422-3.048c-3.466-3.928-4.365-6.111-4.087-13.985
	c0.161-4.426,0.218-11.886,0.239-17.854c4.04-0.634,7.7-1.791,10.919-3.468l8.324,11.464c-1.464,3.213-1.124,6.939,0.981,9.845
	c1.856,2.549,4.844,4.068,7.998,4.068c2.092,0,4.094-0.656,5.793-1.884c2.135-1.55,3.537-3.841,3.951-6.447
	c0.414-2.604-0.214-5.218-1.766-7.352c-1.835-2.521-4.805-4.033-7.95-4.033c-0.367,0-0.735,0.021-1.103,0.063l-8.342-11.479
	c2.748-2.663,5.086-5.811,6.871-9.238c5.651,1.814,12.646,4.027,16.868,5.233c7.567,2.163,9.367,3.69,12.033,8.21
	c2.298,3.889-1.396,23.714-14.567,33.287C253.174,219.293,244.887,221.706,236.225,221.706"/>
<path style="fill:#EFEFEF;" d="M190.633,221.706c-8.663,0-16.951-2.413-22.744-6.617c-13.174-9.573-16.868-29.398-14.569-33.287
	c2.666-4.52,4.464-6.047,12.032-8.21c4.222-1.206,11.221-3.419,16.872-5.233c1.781,3.428,4.119,6.575,6.867,9.238l-8.338,11.479
	c-0.367-0.043-0.735-0.063-1.102-0.063c-3.145,0-6.115,1.512-7.954,4.033c-1.548,2.134-2.176,4.747-1.766,7.352
	c0.414,2.606,1.817,4.897,3.951,6.447c1.699,1.228,3.705,1.884,5.797,1.884c3.155,0,6.142-1.52,7.995-4.068
	c2.109-2.905,2.448-6.632,0.985-9.845l8.324-11.464c3.219,1.677,6.878,2.834,10.919,3.468c0.017,5.969,0.074,13.429,0.234,17.854
	c0.278,7.874-0.617,10.058-4.083,13.985C202.747,220.136,197.6,221.706,190.633,221.706"/>
<path style="fill:#EFEFEF;" d="M273.18,165.54c-2.06,0-4.492-0.579-8.404-2.015c-4.109-1.491-11.023-3.798-16.648-5.646
	c0.315-1.878,0.469-3.677,0.469-5.468c0-1.956-0.196-3.962-0.598-6.098l13.414-4.36c1.813,1.663,4.162,2.591,6.635,2.591
	c1.025,0,2.047-0.164,3.028-0.485c2.505-0.813,4.546-2.556,5.743-4.904c1.199-2.349,1.412-5.025,0.595-7.538
	c-1.328-4.083-5.101-6.824-9.394-6.824c-1.031,0-2.057,0.164-3.049,0.484c-3.412,1.114-5.875,3.934-6.578,7.382l-13.363,4.348
	c-1.635-3.241-3.948-6.319-6.907-9.188c3.495-4.84,7.828-10.899,10.31-14.584c4.394-6.531,6.402-7.773,11.518-8.908h0.049
	c6.036,0,22.395,9.63,27.113,24.143c5.029,15.483-3.633,33.694-7.781,35.5c-2.62,1.128-4.343,1.571-6.146,1.571H273.18z"/>
<path style="fill:#EFEFEF;" d="M153.673,165.54c-1.807,0-3.53-0.443-6.146-1.571c-4.148-1.799-12.814-20.017-7.782-35.5
	c4.73-14.556,21.166-24.193,26.56-24.193c5.707,1.186,7.717,2.42,12.117,8.959c2.48,3.685,6.817,9.752,10.309,14.584
	c-2.959,2.869-5.273,5.947-6.908,9.188l-13.359-4.348c-0.703-3.448-3.17-6.268-6.578-7.382c-0.992-0.32-2.017-0.484-3.052-0.484
	c-4.29,0-8.063,2.741-9.39,6.824c-0.818,2.506-0.608,5.183,0.588,7.538c1.2,2.349,3.241,4.091,5.75,4.904
	c0.978,0.321,1.999,0.485,3.024,0.485c2.473,0,4.825-0.928,6.638-2.591l13.411,4.36c-0.397,2.136-0.593,4.148-0.593,6.098
	c0,1.783,0.153,3.59,0.468,5.468c-5.622,1.848-12.543,4.154-16.648,5.646C158.17,164.961,155.733,165.54,153.673,165.54"/>
<path style="fill:#EFEFEF;" d="M197.718,121.388c-3.533-4.826-7.988-10.865-10.732-14.378c-4.855-6.196-5.412-8.487-4.913-13.698
	c0.429-4.505,15.071-18.375,31.353-18.375c16.287,0,30.93,13.87,31.354,18.367c0.499,5.219-0.058,7.51-4.909,13.706
	c-2.748,3.513-7.203,9.552-10.732,14.378c-3.658-1.893-7.229-3.084-10.826-3.634v-14.206c3.069-1.741,4.99-4.962,4.99-8.546
	c0-5.445-4.434-9.871-9.877-9.871c-5.441,0-9.875,4.426-9.875,9.871c0,3.584,1.921,6.805,4.99,8.546v14.213
	C204.946,118.304,201.376,119.495,197.718,121.388"/>
<path style="fill:#00394B;" d="M204.182,122.779c-1.088,0-2.134-0.614-2.637-1.656l-7.881-16.333
	c-0.699-1.456-0.089-3.205,1.363-3.905c1.467-0.721,3.202-0.086,3.905,1.364l7.881,16.333c0.699,1.456,0.089,3.205-1.363,3.904
	C205.039,122.687,204.606,122.779,204.182,122.779 M225.309,121.123l7.881-16.333c0.699-1.456,0.09-3.205-1.363-3.905
	c-1.459-0.714-3.197-0.086-3.904,1.364l-7.881,16.333c-0.699,1.456-0.09,3.205,1.363,3.904c0.41,0.2,0.842,0.293,1.268,0.293
	C223.761,122.779,224.805,122.165,225.309,121.123 M162.033,156.495L180,154.046c1.598-0.221,2.719-1.691,2.502-3.291
	c-0.222-1.605-1.685-2.677-3.295-2.505l-17.968,2.448c-1.599,0.221-2.72,1.692-2.502,3.291c0.2,1.471,1.456,2.534,2.895,2.534
	C161.765,156.523,161.896,156.508,162.033,156.495 M187.435,135.571c1.118-1.163,1.075-3.012-0.089-4.133l-13.099-12.542
	c-1.171-1.121-3.02-1.078-4.137,0.093c-1.117,1.163-1.074,3.012,0.089,4.133l13.1,12.543c0.567,0.542,1.296,0.813,2.023,0.813
	C186.094,136.479,186.861,136.171,187.435,135.571 M201.427,202.552l3.223-17.845c0.289-1.592-0.767-3.113-2.355-3.398
	c-1.65-0.335-3.113,0.764-3.399,2.355l-3.222,17.846c-0.289,1.593,0.767,3.113,2.355,3.399c0.179,0.035,0.354,0.05,0.524,0.05
	C199.941,204.959,201.174,203.966,201.427,202.552 M172.22,184.471l15.976-8.58c1.42-0.764,1.955-2.541,1.191-3.963
	c-0.767-1.421-2.534-1.948-3.961-1.191l-15.976,8.581c-1.421,0.764-1.956,2.541-1.192,3.962c0.528,0.977,1.538,1.542,2.58,1.542
	C171.305,184.821,171.776,184.707,172.22,184.471 M258.6,183.279c0.764-1.421,0.229-3.198-1.191-3.962l-15.978-8.581
	c-1.435-0.757-3.194-0.229-3.961,1.191c-0.765,1.422-0.229,3.199,1.192,3.963l15.976,8.58c0.442,0.236,0.914,0.351,1.381,0.351
	C257.061,184.821,258.072,184.256,258.6,183.279 M228.828,204.909c1.588-0.286,2.645-1.807,2.355-3.399l-3.223-17.846
	c-0.289-1.592-1.778-2.69-3.398-2.355c-1.589,0.285-2.645,1.807-2.355,3.398l3.223,17.845c0.254,1.414,1.486,2.407,2.873,2.407
	C228.475,204.959,228.649,204.944,228.828,204.909 M243.559,135.665l13.096-12.543c1.163-1.121,1.207-2.97,0.09-4.133
	c-1.125-1.171-2.975-1.207-4.138-0.093l-13.095,12.542c-1.165,1.121-1.207,2.97-0.089,4.133c0.573,0.6,1.344,0.907,2.112,0.907
	C242.263,136.479,242.99,136.207,243.559,135.665 M268.115,153.982c0.219-1.601-0.902-3.07-2.506-3.291l-17.968-2.441
	c-1.581-0.172-3.073,0.899-3.291,2.505c-0.217,1.6,0.904,3.07,2.506,3.291l17.968,2.442c0.133,0.014,0.265,0.028,0.396,0.028
	C266.66,156.517,267.916,155.453,268.115,153.982"/>
<g>
</g>
<g>
</g>
<g>
</g>
<g>
</g>
<g>
</g>
<g>
</g>
</svg>
