<?xml version="1.0" encoding="iso-8859-1"?>
<!-- Generator: Adobe Illustrator 16.0.0, SVG Export Plug-In . SVG Version: 6.00 Build 0)  -->
<!DOCTYPE svg PUBLIC "-//W3C//DTD SVG 1.1//EN" "http://www.w3.org/Graphics/SVG/1.1/DTD/svg11.dtd">
<svg version="1.1" id="&#x30EC;&#x30A4;&#x30E4;&#x30FC;_1"
	 xmlns="http://www.w3.org/2000/svg" xmlns:xlink="http://www.w3.org/1999/xlink" x="0px" y="0px" width="426.854px"
	 height="580.188px" viewBox="0 0 426.854 580.188" style="enable-background:new 0 0 426.854 580.188;" xml:space="preserve">
<path d="M327.575,216.952c-6.273-1.945-13.012-3.007-18.734-6.005c-15.756-8.251-32.837-11.794-49.926-15.395
	c-8.127-1.712-16.409-2.688-24.629-3.953c-6.408-0.986-12.494-0.256-18.549,2.434c-22.03,9.791-44.074,19.564-66.319,28.85
	c-12.076,5.041-24.559,9.113-36.881,13.557c-4.564,1.647-9.301,1.632-13.633-0.404c-7.366-3.463-14.684-7.105-21.654-11.285
	c-1.936-1.161-3.637-4.529-3.554-6.815c0.126-3.48,3.574-3.995,6.707-4.369c30.431-3.635,59.731-11.613,87.994-23.385
	c19.517-8.128,38.877-16.635,58.449-24.627c8.72-3.56,17.716-6.51,26.742-9.221c2.768-0.832,6.16-0.438,9.081,0.221
	c22.806,5.147,45.505,10.792,68.385,15.583c6.175,1.292,12.142,2.181,17.124,6.303c7.512,6.215,9.128,14.366,3.977,22.582
	C346.581,209.913,339.353,216.488,327.575,216.952"/>
<path d="M277.739,55.517c-1.258,5.572-2.101,10.589-3.547,15.424c-2.251,7.528-6.926,13.16-14.289,16.328
	c-9.316,4.007-18.483,8.41-27.972,11.957c-24.693,9.231-49.744,17.54-74.227,27.283c-16.862,6.709-28.088-0.684-39.149-13.039
	c-3.159-3.527-2.069-5.796,2.579-6.65c2.353-0.432,4.758-0.664,7.15-0.789c43.22-2.251,81.69-17.991,117.509-41.294
	c7.445-4.845,14.846-9.771,22.438-14.376c2.116-1.283,4.845-1.557,7.292-2.294C276.295,50.658,277.064,53.25,277.739,55.517"/>
<path d="M267.575,110.368c-0.953,7.767-2.526,14.992-6.654,21.491c-2.348,3.696-5.457,6.224-9.752,7.603
	c-15.68,5.034-31.344,10.121-46.906,15.502c-14.906,5.155-29.624,10.856-44.526,16.027c-13.13,4.557-30.176-2.299-37.054-14.528
	c-1.81-3.22-1.111-5.117,2.674-5.636c5.295-0.726,10.678-0.779,15.991-1.39c25.982-2.986,50.841-10.09,74.377-21.414
	c14.199-6.831,27.983-14.516,41.955-21.82c0.374-0.196,0.714-0.493,1.11-0.606c2.188-0.618,5.028-2.291,6.414-1.486
	C266.7,104.982,266.844,108.183,267.575,110.368"/>
<path style="fill:#79000C;" d="M354.899,477.562c-2.404-27.327-52.337-25.575-70.102-24.821c-4.842-0.209-9.686-0.195-14.53,0.025
	c0-0.005,0.001-0.009,0.001-0.014c0.004-0.103-0.037-0.167-0.039-0.266c-0.15-10.52-1.148-20.511-0.072-30.25
	c1.852-16.771,4.406-33.559,10.707-49.319c1.672-4.183,0.877-7.604-2.49-9.757c-5.543-3.543-11.141-7.185-17.113-9.709
	c-11.167-4.721-11.286-4.399-19.068,5.228c-0.574,0.712-1.033,1.642-1.748,2.094c-3.85,2.442-7.762,4.765-11.652,7.13
	c-0.321-0.481-0.641-0.964-0.961-1.447c2.078-3.896,4.303-7.715,6.188-11.717c1.591-3.375,3.913-5.119,7.313-5.891
	c10.928-2.479,21.752-5.583,32.73-7.689c12.981-2.488,34.893-5.553,47.909-7.82c8.788-1.531,6.896-5.211,11.354-13.506
	c1.267-2.356,1.66-6.342,0.656-8.647c-0.711-1.632-4.478-2.467-6.828-2.329c-14.524,0.848-28.798,3.521-42.539,9.002
	c-12.267,4.893-24.466,9.982-36.699,14.971c-1.238,0.504-2.512,0.908-4.504,1.621c0.975-2.041,1.506-3.14,2.025-4.244
	c6.003-12.727,12.188-25.36,17.934-38.219c3.016-6.747,5.416-14.259,0.658-20.941c-6.849-9.614-16.223-15.757-26.996-19.119
	c-4.203-1.311-6.196,0.442-7.182,5.071c-0.322,1.521-0.803,3.198-0.521,4.637c2.242,11.461-3.459,18.513-11.429,24.46
	c-1.786,1.334-3.237,3.207-5.04,4.51c-1.078,0.779-2.531,0.975-3.832,1.359c-2.853,0.844-6.525,0.709-8.425,2.635
	c-5.455,5.534-10.638,11.543-15.072,18.044c-3.458,5.071-3.355,11.078-0.59,16.937c2.383,5.045,4.257,10.375,6.57,16.115
	c-2.7,0.467-4.668,0.864-6.65,1.142c-22.909,3.204-45.855,4.683-68.903,2.997c-2.005-0.146-4.115,1.168-6.177,1.804
	c1.059,2.413,2.034,4.876,3.224,7.211c0.381,0.748,1.349,1.128,2.013,1.722c9.663,8.648,21.481,9.442,32.956,8.102
	c15.362-1.795,30.556-5.531,45.796-8.598c7.621-1.531,15.186-3.423,24.168-5.471c-2.982,6.438-5.32,11.758-7.945,16.906
	c-0.513,1.007-2.082,1.668-3.271,1.961c-9.756,2.398-19.512,4.825-29.334,6.859c-1.999,0.414-4.52-0.283-6.365-1.344
	c-5.828-3.348-11.908-3.938-18.896-3.227c0.377,5.631,0.718,10.745,1.061,15.859c0.931,13.873,1.783,27.754,2.816,41.617
	c0.851,11.44,2.75,22.594,8.974,32.729c-3.834,0.521-7.668,1.053-11.489,1.526c-0.985-6.125-1.743-12.308-2.194-18.58
	c-1.272-17.705-0.297-24.485-19.041-28.707c-1.205-0.271-2.212,0.033-2.983,0.621c-0.024,0.012-0.044,0.029-0.068,0.041
	c-1.517,0.289-2.816,1.385-2.733,3.397c0.635,15.219,2.671,30.147,6.927,44.802c-8.758,0.182-17.493-0.566-26.213-2.935
	c-0.13-0.035-0.251-0.104-0.382-0.138c-3.005-0.76-11.074-1.907-13.949-0.508c-5.482,2.668,8.117,17.375,12.184,22.465
	c8.071,10.104,12.456,10.07,24.262,6.438c4.074-1.253,8.204-2.185,12.355-2.997c1.361,3.074,2.736,6.141,4.279,9.13
	c1.451,4.876,2.499,9.823,3.148,14.839c0.738,1.252,1.416,2.324,2.113,3.254c1.833,3.75,5.032,6.692,10.984,8.213
	c2.533,0.648,4.886-1.535,4.495-4.08c1.756-0.868,2.813-2.301,4.083-3.877c1.074,0.55,2.249,0.973,3.62,1.191
	c9.385,1.501,25.926-4.572,35.346-6.547c2.036-0.428,4.206-0.766,6.359-1.114c59.64,22.304,76.533,24.981,106.923,6.111
	C348.284,502.813,357.12,502.813,354.899,477.562 M217.798,340.816c-2.303,1.205-4.903,1.731-6.68,2.313
	c-0.471-12.644-0.924-24.868-1.381-37.093c-0.041-1.092-0.092-2.182-0.174-3.27c-0.432-5.732,1.2-9.965,6.712-12.035
	c3.905-1.468,7.623-3.538,12.521-5.856c-0.266,3.543-0.27,5.952-0.648,8.294c-2.367,14.635-4.754,29.268-7.345,43.859
	C220.548,338.471,219.088,340.14,217.798,340.816 M213.586,387.248c0.116-0.944,1.112-2.26,1.946-2.547
	c7.586-2.608,15.223-5.039,22.855-7.473c0.513-0.164,1.128,0.059,2.215,0.139c-0.736,5.113-1.386,10.158-2.263,15.16
	c-0.142,0.809-1.207,1.862-1.995,2.055c-7.732,1.887-15.495,3.615-23.799,5.516C212.903,395.283,213.093,391.246,213.586,387.248
	 M210.831,415.089c0.101-0.901,1.236-2.144,2.105-2.419c7.735-2.451,15.516-4.719,24.366-7.365
	c-0.954,6.632-1.661,12.168-2.626,17.654c-0.163,0.924-1.332,2.124-2.219,2.359c-7.404,1.981-14.852,3.767-22.908,5.766
	C209.987,425.193,210.269,420.123,210.831,415.089 M210.303,442.91c7.469-1.607,14.964-3.055,22.987-4.655
	c-0.379,5.091-0.704,9.762-1.117,14.364c-0.617,1.365-1.098,2.78-1.395,4.24c-7.886,1.143-15.774,2.243-23.665,3.346
	c0.394-5.413,0.719-10.406,1.229-15.324C208.42,444.14,209.538,443.076,210.303,442.91 M195.998,389.625
	c-0.306,4.099-0.45,7.768-0.941,11.387c-0.121,0.891-1.254,2.102-2.111,2.343c-5.277,1.482-10.609,2.73-16.371,4.168
	c-0.077-5.123-0.143-9.438-0.214-14.222C182.859,392.084,189.177,390.902,195.998,389.625 M175.51,421.466
	c0.103-0.882,1.217-2.179,2.022-2.347c5.09-1.054,10.224-1.845,15.691-2.781c-0.396,5.309-0.674,10.381-1.259,15.416
	c-0.085,0.732-1.585,1.709-2.517,1.852c-4.855,0.742-9.74,1.25-15.07,1.895C174.755,430.44,174.989,425.936,175.51,421.466
	 M172.386,448.896c0.191-0.747,1.733-1.467,2.699-1.565c5.005-0.506,10.023-0.806,16.046-1.25
	c-0.415,5.58-0.653,10.382-1.231,15.138c-0.055,0.458-0.397,1.014-0.833,1.489c-6.825,0.928-13.648,1.865-20.476,2.777
	C169.888,459.601,171.021,454.193,172.386,448.896 M162.922,502.728c-0.597-0.143-1.143-0.135-1.642-0.032
	c-1.216-4.578-2.368-9.16-3.453-13.754c11.112-1.257,22.332-2.005,33.447-3.578c0.425,3.303,0.965,6.599,1.648,9.888
	C178.227,499.518,165.94,503.447,162.922,502.728 M232.306,483.345c-0.538,0.894-0.596,1.753-0.416,2.532
	c-8.665,0.66-15.434,2.964-25.7,5.673c-0.023-1.774-0.028-3.548-0.017-5.32c0.088-1.188,0.191-2.377,0.253-3.565
	c10.11-2.096,16.263-4.477,26.188-6.523C233.46,478.635,233.675,481.074,232.306,483.345 M310.323,494.088
	c-5.513,7.019-15.035,13.042-22.629,14.29c-19.602,3.224-30.936,3.763-49.996,0.437c2.627-0.563,5.193-1.181,7.563-1.972
	c4.89-1.632,9.079-1.779,10.374-7.717c1.477-1.13,2.875-2.354,4.145-3.708c3.963-1.516,7.571-3.729,8.774-7.667
	c1.235-4.043,0.576-9.257,0.76-13.436c0.04-0.896,0.079-1.791,0.118-2.686c6.459-0.347,12.932-0.664,19.402-0.587
	c10.617,0.127,10.203-2.455,19.009,5.098C314.491,481.845,317.177,485.363,310.323,494.088"/>
<g>
</g>
<g>
</g>
<g>
</g>
<g>
</g>
<g>
</g>
<g>
</g>
</svg>
