<?xml version="1.0" encoding="iso-8859-1"?>
<!-- Generator: Adobe Illustrator 16.0.0, SVG Export Plug-In . SVG Version: 6.00 Build 0)  -->
<!DOCTYPE svg PUBLIC "-//W3C//DTD SVG 1.1//EN" "http://www.w3.org/Graphics/SVG/1.1/DTD/svg11.dtd">
<svg version="1.1" id="&#x30EC;&#x30A4;&#x30E4;&#x30FC;_1"
	 xmlns="http://www.w3.org/2000/svg" xmlns:xlink="http://www.w3.org/1999/xlink" x="0px" y="0px" width="426.854px"
	 height="580.189px" viewBox="0 0 426.854 580.189" style="enable-background:new 0 0 426.854 580.189;" xml:space="preserve">
<path style="fill:#00203F;" d="M126.576,40.965c-46.273,0-83.786,37.517-83.786,83.79c0,46.272,37.513,83.786,83.786,83.786
	s83.785-37.514,83.785-83.786C210.36,78.481,172.849,40.965,126.576,40.965"/>
<path style="fill:#00394B;" d="M126.576,55.469c-38.264,0-69.282,31.021-69.282,69.286c0,38.263,31.018,69.281,69.282,69.281
	c38.263,0,69.282-31.019,69.282-69.281C195.857,86.49,164.839,55.469,126.576,55.469"/>
<path style="fill:#FFFFFF;" d="M126.578,143.177c-10.159,0-18.425-8.267-18.425-18.425s8.266-18.426,18.425-18.426
	c10.158,0,18.421,8.268,18.421,18.426S136.735,143.177,126.578,143.177 M126.578,111.881c-7.097,0-12.871,5.774-12.871,12.871
	c0,7.096,5.774,12.871,12.871,12.871c7.096,0,12.867-5.775,12.867-12.871C139.444,117.655,133.674,111.881,126.578,111.881"/>
<path style="fill:#FFFFFF;" d="M126.578,196.245c-39.424,0-71.493-32.074-71.493-71.493c0-39.42,32.069-71.493,71.493-71.493
	c39.419,0,71.489,32.073,71.489,71.493C198.066,164.171,165.997,196.245,126.578,196.245 M126.578,57.642
	c-37.003,0-67.11,30.104-67.11,67.11s30.107,67.109,67.11,67.109c37.002,0,67.105-30.103,67.105-67.109
	S163.58,57.642,126.578,57.642"/>
<g>
	<g>
		<defs>
			<rect id="SVGID_1_" x="72.381" y="68.892" width="108.38" height="105.767"/>
		</defs>
		<clipPath id="SVGID_2_">
			<use xlink:href="#SVGID_1_"  style="overflow:visible;"/>
		</clipPath>
		<path style="clip-path:url(#SVGID_2_);fill:#EFEFEF;" d="M143.177,174.658c-5.155,0-8.628-1.212-9.35-2.031
			c-2.447-2.771-3.036-4.211-2.836-9.789c0.112-3.122,0.155-8.253,0.17-12.548c2.635-0.452,5.05-1.215,7.217-2.284l5.594,7.7
			c-0.996,2.45-0.687,5.237,0.902,7.426c1.456,2.002,3.803,3.198,6.28,3.198c1.644,0,3.218-0.512,4.552-1.48
			c1.676-1.219,2.778-3.016,3.102-5.061c0.324-2.047-0.168-4.097-1.387-5.772c-1.441-1.984-3.776-3.17-6.245-3.17
			c-0.179,0-0.358,0.006-0.536,0.019l-5.601-7.708c1.8-1.803,3.32-3.848,4.541-6.11c4.049,1.301,8.888,2.827,11.854,3.675
			c5.364,1.532,6.553,2.538,8.432,5.721c1.562,2.646-1.283,16.837-10.456,23.502C155.285,172.94,149.369,174.658,143.177,174.658
			 M109.973,174.658c-6.191,0-12.108-1.718-16.231-4.714c-9.175-6.665-12.02-20.856-10.457-23.502
			c1.877-3.181,3.066-4.187,8.432-5.721c2.454-0.701,6.438-1.936,11.854-3.674c1.22,2.262,2.74,4.306,4.541,6.109l-5.601,7.708
			c-0.179-0.012-0.358-0.019-0.538-0.019c-2.468,0-4.802,1.186-6.244,3.171c-2.514,3.459-1.744,8.317,1.715,10.831
			c1.334,0.97,2.908,1.481,4.552,1.481c2.478,0,4.825-1.196,6.28-3.198c1.59-2.187,1.898-4.975,0.903-7.426l5.594-7.699
			c2.167,1.068,4.583,1.831,7.217,2.283c0.021,5.784,0.078,10.001,0.17,12.549c0.199,5.578-0.39,7.019-2.835,9.788
			C118.601,173.446,115.129,174.658,109.973,174.658 M170.094,133.752c-1.429,0-3.146-0.414-5.931-1.43
			c-2.38-0.868-6.307-2.204-11.686-3.975c0.182-1.224,0.271-2.411,0.271-3.596c0-1.307-0.116-2.646-0.354-4.057l8.996-2.923
			c1.387,1.166,3.134,1.813,4.968,1.813c0.803,0,1.603-0.126,2.375-0.377c1.97-0.641,3.573-2.01,4.512-3.855
			c0.941-1.846,1.106-3.946,0.465-5.916c-1.041-3.205-4.004-5.36-7.373-5.36c-0.812,0-1.619,0.129-2.397,0.382
			c-2.572,0.835-4.461,2.909-5.097,5.478l-8.973,2.915c-1.132-2.128-2.662-4.16-4.57-6.069c2.516-3.489,5.494-7.663,7.235-10.247
			c3.116-4.629,4.439-5.449,8.045-6.252c0.044-0.01,0.144-0.027,0.313-0.027c3.81,0,15.441,6.869,18.809,17.235
			c3.504,10.785-2.536,23.937-5.355,25.159C172.518,133.444,171.326,133.752,170.094,133.752 M83.057,133.752
			c-1.231,0-2.424-0.308-4.253-1.102c-2.819-1.223-8.859-14.376-5.354-25.159c3.368-10.365,14.998-17.234,18.806-17.234
			c0.17,0,0.271,0.018,0.314,0.027c3.604,0.802,4.928,1.622,8.047,6.251c1.723,2.561,4.709,6.745,7.233,10.247
			c-1.907,1.909-3.437,3.941-4.57,6.07l-8.972-2.916c-0.635-2.568-2.523-4.643-5.097-5.478c-0.778-0.253-1.585-0.382-2.398-0.382
			c-3.368,0-6.331,2.154-7.373,5.36c-1.322,4.065,0.912,8.449,4.978,9.771c0.772,0.251,1.571,0.377,2.374,0.377
			c1.834,0,3.581-0.647,4.968-1.813l8.996,2.923c-0.237,1.408-0.353,2.748-0.353,4.057c0,1.185,0.09,2.372,0.271,3.596
			c-5.375,1.77-9.302,3.104-11.685,3.975C86.203,133.338,84.486,133.752,83.057,133.752L83.057,133.752z M115.306,101.439
			c-2.561-3.497-5.634-7.653-7.545-10.096c-3.439-4.394-3.81-5.905-3.46-9.585c0.292-3.058,10.936-12.866,22.275-12.866
			s21.982,9.808,22.273,12.866c0.351,3.68-0.021,5.191-3.46,9.585c-1.588,2.029-4.123,5.421-7.545,10.096
			c-2.409-1.199-4.772-1.993-7.149-2.403v-9.55c2.247-1.397,3.635-3.834,3.635-6.54c0-4.277-3.478-7.755-7.754-7.755
			c-4.277,0-7.755,3.478-7.755,7.755c0,2.704,1.388,5.141,3.634,6.539v9.552C120.08,99.446,117.716,100.241,115.306,101.439"/>
	</g>
</g>
<path style="fill:#00203F;" d="M311.761,371.649c-46.273,0-83.787,37.517-83.787,83.789s37.514,83.786,83.787,83.786
	c46.272,0,83.784-37.514,83.784-83.786S358.033,371.649,311.761,371.649"/>
<path style="fill:#00394B;" d="M311.761,386.152c-38.265,0-69.283,31.021-69.283,69.286c0,38.264,31.019,69.281,69.283,69.281
	c38.263,0,69.281-31.018,69.281-69.281C381.042,417.174,350.023,386.152,311.761,386.152"/>
<path style="fill:#FFFFFF;" d="M311.759,473.857c-10.158,0-18.425-8.26-18.425-18.417c0-10.158,8.267-18.426,18.425-18.426
	s18.426,8.268,18.426,18.426C330.185,465.598,321.917,473.857,311.759,473.857 M311.759,442.569
	c-7.096,0-12.871,5.774-12.871,12.871c0,7.096,5.775,12.862,12.871,12.862c7.097,0,12.871-5.767,12.871-12.862
	C324.63,448.344,318.855,442.569,311.759,442.569"/>
<path style="fill:#FFFFFF;" d="M311.759,526.926c-39.418,0-71.488-32.067-71.488-71.486c0-39.42,32.07-71.492,71.488-71.492
	c39.42,0,71.489,32.072,71.489,71.492C383.248,494.858,351.179,526.926,311.759,526.926 M311.759,388.33
	c-37.002,0-67.105,30.104-67.105,67.109c0,36.999,30.104,67.104,67.105,67.104c37.004,0,67.106-30.104,67.106-67.104
	C378.865,418.434,348.763,388.33,311.759,388.33"/>
<g>
	<g>
		<defs>
			<rect id="SVGID_3_" x="257.571" y="399.576" width="108.381" height="105.766"/>
		</defs>
		<clipPath id="SVGID_4_">
			<use xlink:href="#SVGID_3_"  style="overflow:visible;"/>
		</clipPath>
		<path style="clip-path:url(#SVGID_4_);fill:#EFEFEF;" d="M328.362,505.342c-5.156,0-8.629-1.212-9.351-2.031
			c-2.446-2.77-3.035-4.21-2.836-9.788c0.112-3.122,0.155-8.253,0.17-12.548c2.636-0.452,5.052-1.216,7.218-2.284l5.594,7.699
			c-0.996,2.45-0.688,5.238,0.901,7.426c1.455,2.003,3.804,3.198,6.28,3.198c1.644,0,3.219-0.512,4.552-1.48
			c1.676-1.219,2.778-3.016,3.103-5.061c0.323-2.047-0.168-4.097-1.388-5.772c-1.44-1.984-3.774-3.169-6.243-3.169
			c-0.181,0-0.358,0.006-0.537,0.019l-5.603-7.711c1.784-1.795,3.323-3.864,4.539-6.108c5.438,1.745,9.421,2.979,11.856,3.675
			c5.365,1.533,6.555,2.54,8.433,5.721c1.562,2.646-1.284,16.838-10.456,23.502C340.47,503.624,334.554,505.342,328.362,505.342
			 M295.159,505.342c-6.192,0-12.109-1.718-16.232-4.714c-9.175-6.665-12.02-20.856-10.457-23.502
			c1.877-3.181,3.066-4.187,8.432-5.721c2.437-0.695,6.42-1.93,11.857-3.675c1.216,2.244,2.754,4.313,4.539,6.108l-5.602,7.71
			c-0.18-0.012-0.358-0.019-0.539-0.019c-2.468,0-4.802,1.186-6.244,3.171c-2.514,3.459-1.743,8.317,1.716,10.831
			c1.334,0.97,2.909,1.481,4.553,1.481c2.478,0,4.825-1.196,6.279-3.198c1.59-2.187,1.898-4.974,0.903-7.425l5.594-7.7
			c2.166,1.068,4.58,1.831,7.217,2.284c0.021,5.788,0.079,10.004,0.17,12.548c0.199,5.579-0.391,7.02-2.834,9.787
			C303.786,504.13,300.313,505.342,295.159,505.342 M355.278,464.437c-1.429,0-3.146-0.415-5.932-1.43
			c-2.377-0.868-6.302-2.203-11.686-3.976c0.183-1.223,0.271-2.411,0.271-3.595c0-1.308-0.116-2.647-0.354-4.058l8.996-2.923
			c1.387,1.166,3.133,1.813,4.967,1.813c0.804,0,1.604-0.126,2.375-0.377c1.97-0.64,3.572-2.009,4.513-3.854
			c0.94-1.847,1.106-3.947,0.466-5.917c-1.042-3.206-4.005-5.359-7.374-5.359c-0.812,0-1.618,0.128-2.397,0.381
			c-2.571,0.835-4.461,2.909-5.096,5.478l-8.974,2.916c-1.132-2.129-2.663-4.161-4.57-6.07c2.521-3.495,5.501-7.673,7.235-10.246
			c3.116-4.63,4.439-5.45,8.045-6.253c0.044-0.01,0.145-0.027,0.313-0.027c3.811,0,15.441,6.87,18.81,17.235
			c3.503,10.784-2.536,23.937-5.354,25.16C357.702,464.128,356.511,464.437,355.278,464.437 M268.241,464.437
			c-1.23,0-2.424-0.309-4.252-1.102c-2.819-1.224-8.859-14.376-5.354-25.16c3.368-10.365,14.998-17.234,18.806-17.234
			c0.17,0,0.271,0.018,0.314,0.027c3.605,0.802,4.928,1.622,8.047,6.252c1.736,2.579,4.716,6.755,7.234,10.247
			c-1.908,1.909-3.438,3.94-4.571,6.069l-8.972-2.916c-0.636-2.568-2.523-4.643-5.099-5.478c-0.776-0.253-1.584-0.381-2.396-0.381
			c-3.369,0-6.332,2.153-7.375,5.359c-0.64,1.97-0.475,4.07,0.467,5.917c0.939,1.846,2.543,3.215,4.512,3.854
			c0.771,0.251,1.571,0.377,2.375,0.377c1.832,0,3.579-0.647,4.967-1.813l8.996,2.923c-0.236,1.408-0.353,2.748-0.353,4.057
			c0,1.184,0.09,2.372,0.271,3.595c-4.023,1.324-8.809,2.926-11.685,3.976c-2.785,1.015-4.503,1.43-5.931,1.43H268.241z
			 M300.491,432.124c-2.552-3.484-5.617-7.631-7.545-10.097c-3.439-4.394-3.811-5.905-3.461-9.584
			c0.293-3.058,10.937-12.867,22.275-12.867s21.982,9.809,22.273,12.867c0.351,3.679-0.021,5.19-3.461,9.584
			c-1.574,2.012-4.108,5.404-7.545,10.096c-2.408-1.198-4.772-1.993-7.147-2.402v-9.551c2.246-1.397,3.634-3.834,3.634-6.54
			c0-4.277-3.479-7.755-7.754-7.755c-4.277,0-7.755,3.478-7.755,7.755c0,2.705,1.388,5.142,3.634,6.54v9.551
			C305.264,430.13,302.9,430.925,300.491,432.124"/>
	</g>
</g>
<path style="fill:#00203F;" d="M219.167,206.307c-46.271,0-83.785,37.517-83.785,83.79c0,46.272,37.513,83.786,83.785,83.786
	c46.273,0,83.786-37.514,83.786-83.786C302.953,243.823,265.44,206.307,219.167,206.307"/>
<path style="fill:#79000C;" d="M219.167,220.811c-38.263,0-69.282,31.021-69.282,69.286c0,38.263,31.019,69.281,69.282,69.281
	c38.265,0,69.282-31.019,69.282-69.281C288.449,251.832,257.432,220.811,219.167,220.811"/>
<path style="fill:#FFFFFF;" d="M219.169,308.521c-10.158,0-18.426-8.268-18.426-18.425c0-10.158,8.268-18.426,18.426-18.426
	c10.157,0,18.424,8.268,18.424,18.426C237.593,300.253,229.326,308.521,219.169,308.521 M219.169,277.226
	c-7.097,0-12.871,5.773-12.871,12.87c0,7.096,5.774,12.871,12.871,12.871c7.096,0,12.871-5.775,12.871-12.871
	C232.04,282.999,226.265,277.226,219.169,277.226"/>
<path style="fill:#FFFFFF;" d="M219.169,361.589c-39.42,0-71.489-32.074-71.489-71.494c0-39.419,32.069-71.492,71.489-71.492
	c39.418,0,71.488,32.073,71.488,71.492C290.657,329.515,258.587,361.589,219.169,361.589 M219.169,222.986
	c-37.003,0-67.106,30.104-67.106,67.108c0,37.008,30.103,67.111,67.106,67.111c37.002,0,67.105-30.104,67.105-67.111
	C286.274,253.09,256.171,222.986,219.169,222.986"/>
<g>
	<g>
		<defs>
			<rect id="SVGID_5_" x="164.981" y="234.234" width="108.38" height="105.766"/>
		</defs>
		<clipPath id="SVGID_6_">
			<use xlink:href="#SVGID_5_"  style="overflow:visible;"/>
		</clipPath>
		<path style="clip-path:url(#SVGID_6_);fill:#EFEFEF;" d="M235.771,340c-5.156,0-8.629-1.212-9.352-2.031
			c-2.446-2.771-3.035-4.211-2.835-9.788c0.11-3.102,0.153-8.24,0.169-12.548c2.636-0.452,5.052-1.216,7.218-2.284l5.593,7.699
			c-0.996,2.45-0.686,5.238,0.904,7.426c1.453,2.002,3.801,3.198,6.278,3.198c1.645,0,3.219-0.512,4.553-1.48
			c1.676-1.219,2.778-3.016,3.103-5.062c0.322-2.045-0.17-4.095-1.387-5.771c-1.443-1.985-3.777-3.172-6.244-3.172
			c-0.181,0-0.358,0.008-0.537,0.02l-5.602-7.708c1.8-1.802,3.32-3.847,4.54-6.109c4.045,1.298,8.882,2.824,11.854,3.673
			c5.364,1.534,6.554,2.539,8.433,5.722c1.562,2.646-1.285,16.838-10.457,23.502C247.878,338.282,241.962,340,235.771,340
			 M202.566,340c-6.192,0-12.109-1.718-16.232-4.714c-9.174-6.664-12.019-20.856-10.456-23.502c1.877-3.181,3.066-4.188,8.432-5.722
			c2.949-0.843,7.796-2.371,11.854-3.673c1.22,2.263,2.741,4.308,4.54,6.109l-5.6,7.708c-0.179-0.012-0.358-0.02-0.538-0.02
			c-2.468,0-4.802,1.187-6.244,3.172c-1.219,1.675-1.711,3.725-1.387,5.771c0.324,2.045,1.426,3.842,3.103,5.061
			c1.334,0.969,2.908,1.48,4.553,1.48c2.477,0,4.824-1.196,6.279-3.198c1.59-2.188,1.898-4.975,0.903-7.426l5.592-7.699
			c2.166,1.068,4.582,1.831,7.219,2.284c0.015,4.308,0.058,9.446,0.17,12.548c0.199,5.578-0.391,7.019-2.835,9.788
			C211.194,338.788,207.721,340,202.566,340 M262.687,299.095c-1.43,0-3.147-0.415-5.933-1.43
			c-2.375-0.867-6.301-2.203-11.685-3.976c0.182-1.225,0.271-2.412,0.271-3.596c0-1.309-0.116-2.648-0.353-4.057l8.996-2.923
			c1.387,1.166,3.133,1.813,4.967,1.813c0.804,0,1.603-0.126,2.375-0.377c1.97-0.64,3.572-2.009,4.512-3.854
			c0.941-1.847,1.105-3.947,0.466-5.917c-1.042-3.206-4.005-5.36-7.373-5.36c-0.813,0-1.62,0.129-2.397,0.382
			c-2.572,0.835-4.461,2.909-5.098,5.478l-8.972,2.915c-1.132-2.128-2.663-4.159-4.57-6.069c3.371-4.677,5.802-8.12,7.234-10.247
			c3.117-4.629,4.44-5.449,8.046-6.252c0.043-0.01,0.143-0.027,0.313-0.027c3.81,0,15.44,6.87,18.81,17.236
			c3.503,10.783-2.537,23.936-5.356,25.159C265.11,298.786,263.918,299.095,262.687,299.095 M175.65,299.095
			c-1.232,0-2.425-0.309-4.254-1.102c-2.819-1.224-8.858-14.376-5.354-25.16c3.368-10.365,14.998-17.234,18.807-17.234
			c0.17,0,0.271,0.018,0.314,0.027c3.604,0.802,4.927,1.622,8.046,6.251c1.726,2.564,4.711,6.746,7.234,10.247
			c-1.907,1.909-3.438,3.94-4.571,6.07l-8.972-2.916c-0.635-2.568-2.522-4.643-5.097-5.478c-0.777-0.253-1.584-0.382-2.397-0.382
			c-3.369,0-6.332,2.155-7.373,5.361c-0.641,1.969-0.476,4.069,0.465,5.916c0.939,1.846,2.543,3.215,4.512,3.854
			c0.773,0.251,1.572,0.377,2.375,0.377c1.833,0,3.581-0.647,4.967-1.813l8.997,2.923c-0.238,1.41-0.354,2.75-0.354,4.057
			c0,1.182,0.09,2.37,0.271,3.596c-4.031,1.327-8.822,2.931-11.685,3.976C178.796,298.68,177.078,299.095,175.65,299.095
			 M207.899,266.782c-2.545-3.478-5.607-7.618-7.546-10.097c-3.438-4.394-3.809-5.905-3.46-9.584
			c0.292-3.058,10.937-12.867,22.275-12.867c11.34,0,21.983,9.809,22.274,12.867c0.35,3.679-0.022,5.19-3.461,9.584
			c-1.91,2.442-4.983,6.598-7.545,10.096c-2.408-1.199-4.771-1.993-7.148-2.403v-9.55c2.246-1.397,3.634-3.834,3.634-6.54
			c0-4.277-3.478-7.755-7.754-7.755s-7.754,3.478-7.754,7.755c0,2.705,1.388,5.142,3.633,6.54v9.551
			C212.672,264.788,210.309,265.583,207.899,266.782"/>
	</g>
</g>
<g>
</g>
<g>
</g>
<g>
</g>
<g>
</g>
<g>
</g>
<g>
</g>
</svg>
