<?xml version="1.0" encoding="iso-8859-1"?>
<!-- Generator: Adobe Illustrator 16.0.0, SVG Export Plug-In . SVG Version: 6.00 Build 0)  -->
<!DOCTYPE svg PUBLIC "-//W3C//DTD SVG 1.1//EN" "http://www.w3.org/Graphics/SVG/1.1/DTD/svg11.dtd">
<svg version="1.1" id="&#x30EC;&#x30A4;&#x30E4;&#x30FC;_1"
	 xmlns="http://www.w3.org/2000/svg" xmlns:xlink="http://www.w3.org/1999/xlink" x="0px" y="0px" width="426.854px"
	 height="580.189px" viewBox="0 0 426.854 580.189" style="enable-background:new 0 0 426.854 580.189;" xml:space="preserve">
<path style="fill:#00203F;" d="M306.021,40.965c-46.273,0-83.787,37.517-83.787,83.79c0,46.272,37.514,83.786,83.787,83.786
	c46.272,0,83.784-37.514,83.784-83.786C389.805,78.481,352.293,40.965,306.021,40.965"/>
<path style="fill:#00394B;" d="M306.021,55.469c-38.265,0-69.283,31.021-69.283,69.286c0,38.263,31.019,69.281,69.283,69.281
	c38.263,0,69.281-31.019,69.281-69.281C375.302,86.49,344.283,55.469,306.021,55.469"/>
<path style="fill:#FFFFFF;" d="M306.019,143.177c-10.158,0-18.425-8.267-18.425-18.425s8.267-18.426,18.425-18.426
	s18.426,8.268,18.426,18.426S316.177,143.177,306.019,143.177 M306.019,111.881c-7.096,0-12.869,5.774-12.869,12.871
	c0,7.096,5.773,12.871,12.869,12.871c7.097,0,12.871-5.775,12.871-12.871C318.89,117.655,313.115,111.881,306.019,111.881"/>
<path style="fill:#FFFFFF;" d="M306.019,196.245c-39.418,0-71.488-32.074-71.488-71.493c0-39.42,32.07-71.493,71.488-71.493
	c39.42,0,71.489,32.073,71.489,71.493C377.508,164.171,345.438,196.245,306.019,196.245 M306.019,57.642
	c-37.002,0-67.105,30.104-67.105,67.11s30.104,67.109,67.105,67.109c37.004,0,67.106-30.103,67.106-67.109
	S343.022,57.642,306.019,57.642"/>
<g>
	<g>
		<defs>
			<rect id="SVGID_1_" x="251.825" y="68.892" width="108.38" height="105.767"/>
		</defs>
		<clipPath id="SVGID_2_">
			<use xlink:href="#SVGID_1_"  style="overflow:visible;"/>
		</clipPath>
		<path style="clip-path:url(#SVGID_2_);fill:#EFEFEF;" d="M322.622,174.658c-5.156,0-8.629-1.212-9.351-2.031
			c-2.447-2.771-3.036-4.211-2.836-9.789c0.091-2.564,0.149-6.78,0.17-12.548c2.635-0.452,5.05-1.215,7.217-2.284l5.593,7.7
			c-0.994,2.45-0.686,5.238,0.903,7.426c1.456,2.002,3.804,3.198,6.28,3.198c1.644,0,3.218-0.512,4.552-1.48
			c1.676-1.219,2.778-3.016,3.103-5.061c0.323-2.047-0.168-4.097-1.388-5.772c-1.44-1.984-3.776-3.17-6.245-3.17
			c-0.179,0-0.357,0.006-0.535,0.019l-5.602-7.708c1.8-1.803,3.32-3.848,4.541-6.11c4.048,1.3,8.887,2.827,11.854,3.675
			c5.364,1.532,6.554,2.538,8.433,5.721c1.562,2.646-1.283,16.837-10.456,23.502C334.729,172.94,328.813,174.658,322.622,174.658
			 M289.417,174.658c-6.19,0-12.107-1.718-16.23-4.714c-9.175-6.665-12.02-20.856-10.457-23.502
			c1.877-3.181,3.066-4.187,8.432-5.721c2.454-0.701,6.438-1.936,11.854-3.674c1.22,2.262,2.739,4.306,4.541,6.109l-5.601,7.708
			c-0.18-0.012-0.358-0.019-0.539-0.019c-2.468,0-4.802,1.186-6.244,3.171c-2.514,3.459-1.743,8.317,1.716,10.831
			c1.334,0.97,2.907,1.481,4.552,1.481c2.479,0,4.825-1.196,6.28-3.198c1.59-2.187,1.898-4.975,0.903-7.426l5.594-7.699
			c2.166,1.068,4.582,1.831,7.217,2.283c0.021,5.784,0.078,10.001,0.17,12.549c0.199,5.577-0.391,7.018-2.835,9.788
			C298.046,173.446,294.573,174.658,289.417,174.658 M349.538,133.752c-1.429,0-3.146-0.414-5.931-1.43
			c-2.38-0.868-6.308-2.204-11.687-3.975c0.183-1.224,0.271-2.411,0.271-3.596c0-1.307-0.116-2.646-0.354-4.057l8.996-2.923
			c1.387,1.166,3.133,1.813,4.967,1.813c0.804,0,1.604-0.126,2.375-0.377c1.971-0.641,3.574-2.01,4.513-3.855
			c0.94-1.846,1.106-3.946,0.465-5.916c-1.041-3.205-4.004-5.36-7.373-5.36c-0.812,0-1.618,0.129-2.397,0.382
			c-2.571,0.834-4.461,2.909-5.096,5.478l-8.974,2.915c-1.133-2.129-2.663-4.16-4.57-6.069c2.517-3.489,5.494-7.663,7.235-10.247
			c3.116-4.629,4.439-5.449,8.045-6.252c0.044-0.01,0.145-0.027,0.313-0.027c3.81,0,15.44,6.87,18.81,17.235
			c3.504,10.785-2.536,23.937-5.355,25.159C351.962,133.444,350.771,133.752,349.538,133.752 M262.501,133.752
			c-1.23,0-2.424-0.308-4.252-1.102c-2.819-1.223-8.859-14.376-5.355-25.159c3.369-10.365,14.999-17.234,18.807-17.234
			c0.17,0,0.271,0.018,0.314,0.027c3.604,0.802,4.928,1.622,8.047,6.251c1.723,2.561,4.709,6.745,7.232,10.247
			c-1.907,1.91-3.438,3.941-4.569,6.07l-8.972-2.916c-0.636-2.568-2.523-4.643-5.098-5.478c-0.777-0.253-1.585-0.382-2.398-0.382
			c-3.367,0-6.33,2.154-7.373,5.36c-1.321,4.065,0.912,8.449,4.979,9.771c0.771,0.251,1.571,0.377,2.374,0.377
			c1.834,0,3.581-0.647,4.967-1.813l8.997,2.923c-0.236,1.408-0.353,2.748-0.353,4.057c0,1.185,0.09,2.372,0.271,3.596
			c-5.375,1.77-9.302,3.104-11.685,3.975c-2.786,1.016-4.503,1.43-5.931,1.43H262.501z M294.751,101.439
			c-2.562-3.497-5.635-7.653-7.545-10.096c-3.439-4.394-3.811-5.905-3.461-9.585c0.291-3.059,10.935-12.866,22.275-12.866
			c11.339,0,21.982,9.808,22.273,12.866c0.351,3.68-0.021,5.191-3.461,9.585c-1.588,2.029-4.123,5.421-7.545,10.096
			c-2.408-1.199-4.771-1.993-7.148-2.403v-9.55c2.247-1.397,3.635-3.834,3.635-6.54c0-4.277-3.479-7.755-7.754-7.755
			c-4.277,0-7.755,3.478-7.755,7.755c0,2.704,1.388,5.14,3.633,6.539v9.552C299.523,99.446,297.16,100.241,294.751,101.439"/>
	</g>
</g>
<path style="fill:#00203F;" d="M120.835,40.965c-46.273,0-83.786,37.517-83.786,83.79c0,46.272,37.513,83.786,83.786,83.786
	s83.785-37.514,83.785-83.786C204.62,78.481,167.108,40.965,120.835,40.965"/>
<path style="fill:#00394B;" d="M120.835,55.469c-38.264,0-69.282,31.021-69.282,69.286c0,38.263,31.018,69.281,69.282,69.281
	c38.263,0,69.282-31.019,69.282-69.281C190.117,86.49,159.099,55.469,120.835,55.469"/>
<path style="fill:#FFFFFF;" d="M120.833,143.177c-10.158,0-18.421-8.267-18.421-18.425s8.263-18.426,18.421-18.426
	c10.158,0,18.425,8.268,18.425,18.426S130.991,143.177,120.833,143.177 M120.833,111.881c-7.096,0-12.867,5.774-12.867,12.871
	c0,7.096,5.771,12.871,12.867,12.871s12.871-5.775,12.871-12.871C133.705,117.655,127.93,111.881,120.833,111.881"/>
<path style="fill:#FFFFFF;" d="M120.833,196.245c-39.419,0-71.489-32.074-71.489-71.493c0-39.42,32.07-71.493,71.489-71.493
	c39.423,0,71.493,32.073,71.493,71.493C192.326,164.171,160.256,196.245,120.833,196.245 M120.833,57.642
	c-37.003,0-67.106,30.104-67.106,67.11s30.103,67.109,67.106,67.109s67.11-30.103,67.11-67.109S157.836,57.642,120.833,57.642"/>
<g>
	<g>
		<defs>
			<rect id="SVGID_3_" x="66.645" y="68.892" width="108.38" height="105.767"/>
		</defs>
		<clipPath id="SVGID_4_">
			<use xlink:href="#SVGID_3_"  style="overflow:visible;"/>
		</clipPath>
		<path style="clip-path:url(#SVGID_4_);fill:#EFEFEF;" d="M137.437,174.658c-5.155,0-8.628-1.212-9.35-2.031
			c-2.447-2.771-3.036-4.211-2.836-9.789c0.091-2.563,0.149-6.78,0.17-12.548c2.635-0.452,5.05-1.215,7.217-2.284l5.593,7.7
			c-0.996,2.45-0.686,5.237,0.903,7.426c1.456,2.002,3.803,3.198,6.28,3.198c1.644,0,3.218-0.512,4.552-1.48
			c1.676-1.219,2.778-3.016,3.102-5.061c0.324-2.047-0.168-4.097-1.387-5.772c-1.441-1.984-3.776-3.17-6.245-3.17
			c-0.179,0-0.358,0.006-0.536,0.019l-5.601-7.708c1.8-1.803,3.32-3.848,4.54-6.109c4.045,1.298,8.882,2.824,11.854,3.674
			c5.365,1.532,6.554,2.538,8.433,5.721c1.562,2.646-1.283,16.837-10.456,23.502C149.545,172.94,143.629,174.658,137.437,174.658
			 M104.233,174.658c-6.191,0-12.108-1.718-16.231-4.714c-9.175-6.665-12.02-20.856-10.457-23.502
			c1.877-3.181,3.066-4.187,8.432-5.721c2.95-0.844,7.796-2.371,11.854-3.674c1.22,2.262,2.74,4.306,4.541,6.109l-5.601,7.708
			c-0.179-0.012-0.358-0.019-0.538-0.019c-2.468,0-4.802,1.186-6.244,3.171c-2.514,3.459-1.744,8.317,1.715,10.832
			c1.334,0.969,2.908,1.48,4.552,1.48c2.478,0,4.825-1.196,6.28-3.198c1.59-2.187,1.898-4.975,0.903-7.426l5.594-7.699
			c2.167,1.068,4.583,1.831,7.217,2.283c0.021,5.784,0.078,10.002,0.17,12.549c0.199,5.577-0.39,7.018-2.835,9.788
			C112.861,173.446,109.389,174.658,104.233,174.658 M164.353,133.752c-1.428,0-3.145-0.414-5.93-1.43
			c-2.38-0.868-6.307-2.204-11.686-3.975c0.182-1.226,0.271-2.414,0.271-3.596c0-1.307-0.116-2.646-0.354-4.057l8.996-2.923
			c1.387,1.166,3.134,1.813,4.968,1.813c0.803,0,1.603-0.126,2.374-0.377c1.971-0.641,3.574-2.01,4.513-3.855
			c0.941-1.846,1.106-3.946,0.465-5.916c-1.041-3.205-4.004-5.36-7.373-5.36c-0.812,0-1.619,0.129-2.397,0.382
			c-2.573,0.835-4.462,2.909-5.097,5.478l-8.973,2.915c-1.133-2.129-2.663-4.16-4.57-6.069c2.516-3.489,5.494-7.663,7.235-10.247
			c3.116-4.629,4.439-5.449,8.045-6.252c0.044-0.01,0.144-0.027,0.313-0.027c3.809,0,15.44,6.87,18.809,17.235
			c3.504,10.785-2.536,23.937-5.355,25.159C166.778,133.444,165.585,133.752,164.353,133.752 M77.317,133.752
			c-1.231,0-2.424-0.308-4.253-1.102c-2.819-1.223-8.859-14.376-5.355-25.159c3.369-10.365,14.999-17.234,18.807-17.234
			c0.17,0,0.271,0.018,0.314,0.027c3.604,0.802,4.928,1.622,8.047,6.251c1.723,2.562,4.709,6.745,7.233,10.247
			c-1.908,1.91-3.438,3.941-4.57,6.07l-8.972-2.916c-0.635-2.568-2.523-4.643-5.098-5.478c-0.777-0.253-1.584-0.382-2.397-0.382
			c-3.368,0-6.331,2.154-7.373,5.36c-1.322,4.065,0.912,8.449,4.978,9.771c0.772,0.251,1.571,0.377,2.374,0.377
			c1.834,0,3.581-0.647,4.967-1.813l8.997,2.923c-0.237,1.408-0.353,2.748-0.353,4.057c0,1.184,0.09,2.371,0.271,3.596
			c-5.381,1.771-9.307,3.106-11.685,3.975C80.463,133.338,78.746,133.752,77.317,133.752L77.317,133.752z M109.566,101.439
			c-2.561-3.497-5.634-7.652-7.545-10.096c-3.439-4.394-3.81-5.905-3.46-9.585c0.291-3.059,10.934-12.866,22.275-12.866
			c11.339,0,21.982,9.808,22.273,12.866c0.351,3.68-0.021,5.191-3.46,9.585c-1.927,2.463-4.993,6.609-7.545,10.096
			c-2.409-1.199-4.772-1.993-7.149-2.403v-9.55c2.246-1.397,3.634-3.834,3.634-6.54c0-4.277-3.478-7.755-7.753-7.755
			c-4.277,0-7.755,3.478-7.755,7.755c0,2.704,1.388,5.141,3.633,6.539v9.552C114.339,99.446,111.976,100.241,109.566,101.439"/>
	</g>
</g>
<path style="fill:#00203F;" d="M306.021,371.649c-46.273,0-83.787,37.517-83.787,83.789s37.514,83.786,83.787,83.786
	c46.272,0,83.784-37.514,83.784-83.786S352.293,371.649,306.021,371.649"/>
<path style="fill:#00394B;" d="M306.021,386.152c-38.265,0-69.283,31.021-69.283,69.286c0,38.264,31.019,69.281,69.283,69.281
	c38.263,0,69.281-31.018,69.281-69.281C375.302,417.174,344.283,386.152,306.021,386.152"/>
<path style="fill:#FFFFFF;" d="M306.019,473.857c-10.158,0-18.425-8.26-18.425-18.417c0-10.158,8.267-18.426,18.425-18.426
	s18.426,8.268,18.426,18.426C324.444,465.598,316.177,473.857,306.019,473.857 M306.019,442.569
	c-7.096,0-12.869,5.774-12.869,12.871c0,7.096,5.773,12.862,12.869,12.862c7.097,0,12.871-5.767,12.871-12.862
	C318.89,448.344,313.115,442.569,306.019,442.569"/>
<path style="fill:#FFFFFF;" d="M306.019,526.926c-39.418,0-71.488-32.067-71.488-71.486c0-39.42,32.07-71.492,71.488-71.492
	c39.42,0,71.489,32.072,71.489,71.492C377.508,494.858,345.438,526.926,306.019,526.926 M306.019,388.33
	c-37.002,0-67.105,30.104-67.105,67.109c0,36.999,30.104,67.104,67.105,67.104c37.004,0,67.106-30.104,67.106-67.104
	C373.125,418.434,343.022,388.33,306.019,388.33"/>
<g>
	<g>
		<defs>
			<rect id="SVGID_5_" x="251.825" y="399.576" width="108.38" height="105.766"/>
		</defs>
		<clipPath id="SVGID_6_">
			<use xlink:href="#SVGID_5_"  style="overflow:visible;"/>
		</clipPath>
		<path style="clip-path:url(#SVGID_6_);fill:#EFEFEF;" d="M322.622,505.342c-5.156,0-8.629-1.212-9.351-2.031
			c-2.447-2.771-3.036-4.211-2.836-9.788c0.091-2.564,0.149-6.781,0.17-12.548c2.636-0.452,5.051-1.216,7.217-2.284l5.593,7.699
			c-0.994,2.451-0.686,5.238,0.903,7.426c1.455,2.003,3.804,3.198,6.28,3.198c1.644,0,3.218-0.512,4.552-1.48
			c1.676-1.219,2.778-3.016,3.103-5.061c0.323-2.047-0.168-4.097-1.388-5.772c-1.44-1.984-3.774-3.169-6.243-3.169
			c-0.181,0-0.358,0.006-0.537,0.019l-5.602-7.709c1.799-1.802,3.32-3.847,4.541-6.109c5.436,1.744,9.417,2.979,11.854,3.674
			c5.365,1.533,6.555,2.54,8.433,5.721c1.562,2.646-1.284,16.838-10.456,23.502C334.729,503.624,328.813,505.342,322.622,505.342
			 M289.417,505.342c-6.19,0-12.107-1.718-16.23-4.714c-9.175-6.665-12.02-20.856-10.457-23.502
			c1.877-3.181,3.066-4.187,8.432-5.721c2.437-0.695,6.42-1.93,11.857-3.675c1.216,2.244,2.754,4.313,4.539,6.108l-5.602,7.71
			c-0.18-0.012-0.358-0.019-0.539-0.019c-2.468,0-4.802,1.186-6.244,3.171c-2.514,3.459-1.743,8.317,1.716,10.831
			c1.334,0.97,2.909,1.481,4.553,1.481c2.478,0,4.825-1.196,6.279-3.198c1.59-2.187,1.898-4.974,0.903-7.425l5.594-7.7
			c2.166,1.068,4.58,1.831,7.217,2.284c0.021,5.784,0.078,10.001,0.17,12.548c0.199,5.578-0.391,7.019-2.835,9.788
			C298.046,504.13,294.573,505.342,289.417,505.342 M349.538,464.437c-1.429,0-3.146-0.415-5.932-1.43
			c-2.377-0.868-6.302-2.203-11.686-3.976c0.183-1.223,0.271-2.411,0.271-3.595c0-1.308-0.116-2.647-0.354-4.058l8.996-2.923
			c1.387,1.166,3.133,1.813,4.967,1.813c0.804,0,1.604-0.126,2.375-0.377c1.97-0.64,3.574-2.009,4.513-3.854
			c0.94-1.847,1.106-3.947,0.465-5.917c-1.041-3.205-4.004-5.359-7.373-5.359c-0.812,0-1.618,0.128-2.397,0.381
			c-2.571,0.835-4.461,2.909-5.096,5.478l-8.974,2.916c-1.133-2.13-2.663-4.161-4.57-6.07c2.521-3.495,5.501-7.673,7.235-10.246
			c3.116-4.63,4.439-5.45,8.045-6.253c0.044-0.01,0.145-0.027,0.313-0.027c3.81,0,15.44,6.87,18.81,17.236
			c3.503,10.783-2.536,23.936-5.355,25.159C351.962,464.128,350.771,464.437,349.538,464.437 M262.501,464.437
			c-1.23,0-2.424-0.309-4.252-1.102c-2.819-1.224-8.859-14.376-5.355-25.16c3.369-10.365,14.999-17.234,18.807-17.234
			c0.17,0,0.271,0.018,0.314,0.027c3.604,0.802,4.928,1.622,8.047,6.252c1.724,2.562,4.71,6.745,7.232,10.247
			c-1.907,1.91-3.438,3.941-4.569,6.069l-8.972-2.916c-0.636-2.568-2.523-4.643-5.098-5.478c-0.777-0.253-1.585-0.381-2.396-0.381
			c-3.369,0-6.332,2.153-7.375,5.359c-0.64,1.97-0.475,4.07,0.467,5.917c0.939,1.846,2.543,3.215,4.512,3.854
			c0.771,0.251,1.571,0.377,2.375,0.377c1.832,0,3.579-0.647,4.966-1.813l8.997,2.923c-0.236,1.408-0.353,2.748-0.353,4.057
			c0,1.184,0.09,2.372,0.271,3.595c-4.023,1.324-8.809,2.926-11.685,3.976c-2.785,1.015-4.503,1.43-5.931,1.43H262.501z
			 M294.751,432.124c-2.552-3.484-5.617-7.631-7.545-10.097c-3.439-4.394-3.811-5.905-3.461-9.584
			c0.291-3.059,10.935-12.867,22.275-12.867c11.339,0,21.982,9.809,22.273,12.867c0.351,3.679-0.021,5.19-3.461,9.584
			c-1.574,2.012-4.108,5.404-7.545,10.096c-2.41-1.199-4.772-1.993-7.148-2.402v-9.551c2.247-1.397,3.635-3.834,3.635-6.54
			c0-4.277-3.479-7.755-7.754-7.755c-4.277,0-7.755,3.478-7.755,7.755c0,2.705,1.388,5.141,3.633,6.539v9.552
			C299.523,430.13,297.16,430.925,294.751,432.124"/>
	</g>
</g>
<path style="fill:#00203F;" d="M120.835,371.649c-46.273,0-83.786,37.517-83.786,83.789s37.513,83.786,83.786,83.786
	s83.785-37.514,83.785-83.786S167.108,371.649,120.835,371.649"/>
<path style="fill:#00394B;" d="M120.835,386.152c-38.264,0-69.282,31.021-69.282,69.286c0,38.264,31.018,69.281,69.282,69.281
	c38.263,0,69.282-31.018,69.282-69.281C190.117,417.174,159.099,386.152,120.835,386.152"/>
<path style="fill:#FFFFFF;" d="M120.833,473.857c-10.158,0-18.421-8.26-18.421-18.417c0-10.158,8.263-18.426,18.421-18.426
	c10.158,0,18.425,8.268,18.425,18.426C139.258,465.598,130.991,473.857,120.833,473.857 M120.833,442.569
	c-7.096,0-12.867,5.774-12.867,12.871c0,7.096,5.771,12.862,12.867,12.862s12.871-5.767,12.871-12.862
	C133.705,448.344,127.93,442.569,120.833,442.569"/>
<path style="fill:#FFFFFF;" d="M120.833,526.926c-39.419,0-71.489-32.067-71.489-71.486c0-39.42,32.07-71.492,71.489-71.492
	c39.423,0,71.493,32.072,71.493,71.492C192.326,494.858,160.256,526.926,120.833,526.926 M120.833,388.33
	c-37.003,0-67.106,30.104-67.106,67.109c0,36.999,30.103,67.104,67.106,67.104s67.11-30.104,67.11-67.104
	C187.943,418.434,157.836,388.33,120.833,388.33"/>
<g>
	<g>
		<defs>
			<rect id="SVGID_7_" x="66.645" y="399.576" width="108.38" height="105.766"/>
		</defs>
		<clipPath id="SVGID_8_">
			<use xlink:href="#SVGID_7_"  style="overflow:visible;"/>
		</clipPath>
		<path style="clip-path:url(#SVGID_8_);fill:#EFEFEF;" d="M137.437,505.342c-5.155,0-8.628-1.212-9.35-2.031
			c-2.447-2.771-3.036-4.211-2.836-9.788c0.091-2.564,0.149-6.781,0.17-12.548c2.636-0.452,5.051-1.216,7.217-2.284l5.593,7.699
			c-0.996,2.45-0.686,5.238,0.903,7.426c1.455,2.003,3.803,3.198,6.28,3.198c1.644,0,3.218-0.512,4.552-1.48
			c1.676-1.219,2.778-3.016,3.102-5.061c0.324-2.047-0.168-4.097-1.387-5.772c-1.44-1.984-3.775-3.169-6.244-3.169
			c-0.18,0-0.358,0.006-0.537,0.019l-5.602-7.711c1.784-1.795,3.322-3.864,4.539-6.108c5.431,1.743,9.416,2.978,11.856,3.675
			c5.366,1.533,6.555,2.54,8.433,5.721c1.561,2.646-1.284,16.838-10.456,23.502C149.545,503.624,143.629,505.342,137.437,505.342
			 M104.233,505.342c-6.191,0-12.108-1.718-16.231-4.714c-9.175-6.665-12.02-20.856-10.457-23.502
			c1.877-3.181,3.066-4.187,8.432-5.721c2.441-0.697,6.425-1.932,11.857-3.675c1.216,2.244,2.754,4.313,4.539,6.108l-5.602,7.71
			c-0.179-0.012-0.358-0.019-0.538-0.019c-2.468,0-4.802,1.186-6.244,3.171c-2.514,3.459-1.744,8.318,1.715,10.832
			c1.334,0.969,2.909,1.48,4.553,1.48c2.477,0,4.825-1.196,6.279-3.198c1.59-2.187,1.898-4.974,0.904-7.425l5.593-7.7
			c2.166,1.068,4.581,1.831,7.217,2.284c0.021,5.785,0.078,10.001,0.17,12.548c0.199,5.578-0.39,7.019-2.835,9.788
			C112.861,504.13,109.389,505.342,104.233,505.342 M164.353,464.437c-1.428,0-3.146-0.415-5.931-1.43
			c-2.377-0.868-6.303-2.204-11.685-3.976c0.182-1.226,0.271-2.413,0.271-3.595c0-1.308-0.116-2.647-0.354-4.058l8.996-2.923
			c1.387,1.166,3.134,1.813,4.968,1.813c0.803,0,1.603-0.126,2.374-0.377c1.97-0.64,3.574-2.009,4.513-3.854
			c0.941-1.847,1.106-3.947,0.465-5.917c-1.041-3.205-4.004-5.359-7.373-5.359c-0.812,0-1.619,0.128-2.397,0.381
			c-2.573,0.835-4.462,2.909-5.097,5.478l-8.973,2.916c-1.133-2.13-2.663-4.161-4.57-6.07c2.521-3.495,5.501-7.673,7.235-10.246
			c3.116-4.63,4.439-5.45,8.045-6.253c0.044-0.01,0.144-0.027,0.313-0.027c3.809,0,15.44,6.87,18.809,17.236
			c3.503,10.783-2.536,23.936-5.355,25.159C166.778,464.128,165.586,464.437,164.353,464.437L164.353,464.437z M77.317,464.437
			c-1.231,0-2.424-0.309-4.253-1.102c-2.819-1.224-8.859-14.376-5.355-25.16c3.369-10.365,14.999-17.234,18.807-17.234
			c0.17,0,0.271,0.018,0.314,0.027c3.606,0.802,4.928,1.622,8.047,6.252c1.725,2.563,4.71,6.745,7.233,10.247
			c-1.908,1.91-3.438,3.941-4.57,6.069l-8.972-2.916c-0.635-2.568-2.523-4.643-5.098-5.478c-0.777-0.253-1.584-0.381-2.396-0.381
			c-3.369,0-6.332,2.153-7.374,5.359c-0.64,1.97-0.475,4.07,0.466,5.917c0.94,1.846,2.543,3.215,4.512,3.854
			c0.772,0.251,1.571,0.377,2.375,0.377c1.832,0,3.579-0.647,4.966-1.813l8.997,2.923c-0.237,1.408-0.353,2.748-0.353,4.057
			c0,1.183,0.09,2.371,0.271,3.595c-4.028,1.326-8.816,2.929-11.685,3.976C80.464,464.021,78.746,464.437,77.317,464.437
			L77.317,464.437z M109.566,432.124c-2.551-3.484-5.616-7.631-7.545-10.097c-3.439-4.394-3.81-5.905-3.46-9.584
			c0.291-3.059,10.934-12.867,22.275-12.867c11.339,0,21.982,9.809,22.273,12.867c0.351,3.679-0.021,5.19-3.46,9.584
			c-1.911,2.442-4.984,6.598-7.545,10.096c-2.41-1.199-4.773-1.993-7.149-2.402v-9.551c2.246-1.397,3.634-3.834,3.634-6.54
			c0-4.277-3.478-7.755-7.753-7.755c-4.277,0-7.755,3.478-7.755,7.755c0,2.705,1.388,5.142,3.633,6.54v9.551
			C114.339,430.13,111.976,430.925,109.566,432.124"/>
	</g>
</g>
<g>
</g>
<g>
</g>
<g>
</g>
<g>
</g>
<g>
</g>
<g>
</g>
</svg>
