<?xml version="1.0" encoding="iso-8859-1"?>
<!-- Generator: Adobe Illustrator 16.0.0, SVG Export Plug-In . SVG Version: 6.00 Build 0)  -->
<!DOCTYPE svg PUBLIC "-//W3C//DTD SVG 1.1//EN" "http://www.w3.org/Graphics/SVG/1.1/DTD/svg11.dtd">
<svg version="1.1" id="&#x30EC;&#x30A4;&#x30E4;&#x30FC;_1"
	 xmlns="http://www.w3.org/2000/svg" xmlns:xlink="http://www.w3.org/1999/xlink" x="0px" y="0px" width="426.854px"
	 height="580.189px" viewBox="0 0 426.854 580.189" style="enable-background:new 0 0 426.854 580.189;" xml:space="preserve">
<path style="fill:#00203F;" d="M144.318,252.761c-40.767,0-73.814,33.053-73.814,73.818c0,40.769,33.048,73.816,73.814,73.816
	c40.769,0,73.816-33.048,73.816-73.816C218.135,285.813,185.087,252.761,144.318,252.761"/>
<path style="fill:#79000C;" d="M144.318,265.539c-33.71,0-61.037,27.331-61.037,61.041s27.327,61.038,61.037,61.038
	c33.711,0,61.038-27.328,61.038-61.038S178.029,265.539,144.318,265.539"/>
<path style="fill:#FFFFFF;" d="M144.318,343.142c-9.13,0-16.562-7.43-16.562-16.561c0-9.13,7.432-16.562,16.562-16.562
	c9.131,0,16.563,7.432,16.563,16.562C160.881,335.712,153.449,343.142,144.318,343.142 M144.318,315.573
	c-6.066,0-11.008,4.939-11.008,11.008s4.941,11.008,11.008,11.008c6.068,0,11.008-4.939,11.008-11.008
	S150.387,315.573,144.318,315.573"/>
<path style="fill:#FFFFFF;" d="M144.318,389.821c-34.871,0-63.24-28.369-63.24-63.241c0-34.879,28.369-63.248,63.24-63.248
	c34.872,0,63.241,28.369,63.241,63.248C207.56,361.452,179.19,389.821,144.318,389.821 M144.318,267.717
	c-32.451,0-58.856,26.404-58.856,58.863c0,32.452,26.405,58.859,58.856,58.859c32.452,0,58.858-26.407,58.858-58.859
	C203.177,294.121,176.771,267.717,144.318,267.717"/>
<g>
	<g>
		<defs>
			<rect id="SVGID_1_" x="96.803" y="277.612" width="95.03" height="92.687"/>
		</defs>
		<clipPath id="SVGID_2_">
			<use xlink:href="#SVGID_1_"  style="overflow:visible;"/>
		</clipPath>
		<path style="clip-path:url(#SVGID_2_);fill:#EFEFEF;" d="M158.946,370.298c-4.627,0-7.529-1.11-8.054-1.705
			c-2.104-2.384-2.609-3.626-2.438-8.451c0.08-2.216,0.13-5.864,0.151-10.857c2.189-0.392,4.209-1.03,6.034-1.907l4.725,6.506
			c-0.848,2.205-0.548,4.692,0.877,6.653c1.329,1.828,3.47,2.919,5.73,2.919c1.502-0.001,2.938-0.468,4.155-1.352
			c3.158-2.296,3.861-6.731,1.566-9.889c-1.316-1.812-3.447-2.894-5.701-2.894c-0.118,0-0.235,0.003-0.353,0.009l-4.733-6.516
			c1.478-1.514,2.762-3.242,3.795-5.108c3.539,1.134,7.707,2.448,10.259,3.177c4.645,1.327,5.67,2.194,7.285,4.93
			c1.148,1.944-0.806,14.322-9.145,20.38C169.509,368.803,164.35,370.298,158.946,370.298 M129.693,370.298
			c-5.405,0-10.564-1.495-14.156-4.105c-8.341-6.061-10.294-18.436-9.145-20.38c1.614-2.734,2.641-3.602,7.285-4.93
			c2.123-0.605,5.569-1.674,10.258-3.176c1.033,1.866,2.317,3.594,3.796,5.107l-4.733,6.515c-0.117-0.006-0.234-0.009-0.354-0.009
			c-2.252,0-4.385,1.083-5.7,2.895c-2.294,3.158-1.593,7.593,1.563,9.888c1.219,0.885,2.656,1.353,4.157,1.353
			c2.261,0,4.404-1.091,5.731-2.919c1.425-1.96,1.723-4.447,0.876-6.653l4.727-6.506c1.825,0.877,3.845,1.516,6.034,1.907
			c0.02,4.974,0.068,8.622,0.15,10.858c0.172,4.825-0.334,6.067-2.438,8.45C137.221,369.188,134.32,370.298,129.693,370.298
			 M182.659,334.261c-1.228,0-2.717-0.36-5.14-1.245c-2.072-0.756-5.467-1.911-10.108-3.439c0.144-1.02,0.213-2.011,0.213-2.997
			c0-1.102-0.093-2.228-0.28-3.407l7.596-2.467c1.248,1.008,2.801,1.568,4.429,1.568c0.735,0,1.464-0.116,2.167-0.345
			c1.799-0.584,3.262-1.834,4.121-3.519c0.857-1.685,1.008-3.603,0.424-5.4c-0.951-2.928-3.656-4.893-6.73-4.893
			c-0.741,0-1.479,0.117-2.189,0.348c-2.304,0.747-4.007,2.584-4.618,4.866l-7.58,2.463c-0.97-1.774-2.249-3.472-3.823-5.073
			c2.193-3.044,4.754-6.636,6.256-8.864c2.695-4.006,3.837-4.714,6.938-5.405c0.018-0.004,0.087-0.018,0.221-0.018
			c3.306,0,13.402,5.982,16.336,15.014c3.187,9.804-2.508,20.965-4.58,21.863C184.731,333.995,183.707,334.261,182.659,334.261
			 M105.979,334.261c-1.048,0-2.072-0.266-3.649-0.95c-2.072-0.898-7.767-12.062-4.581-21.863
			c2.935-9.03,13.031-15.013,16.335-15.013c0.135,0,0.204,0.014,0.223,0.018c3.1,0.69,4.239,1.398,6.938,5.404
			c1.501,2.229,4.063,5.82,6.256,8.864c-1.575,1.603-2.855,3.3-3.824,5.074l-7.58-2.464c-0.609-2.282-2.314-4.119-4.619-4.866
			c-0.709-0.23-1.445-0.348-2.188-0.348c-3.075,0-5.78,1.965-6.73,4.893c-0.584,1.798-0.435,3.716,0.425,5.4
			c0.857,1.685,2.321,2.935,4.118,3.519c0.705,0.229,1.434,0.345,2.168,0.345c1.629,0,3.181-0.561,4.43-1.568l7.595,2.468
			c-0.187,1.179-0.28,2.305-0.28,3.406c0,0.987,0.07,1.979,0.213,2.997c-4.636,1.526-8.029,2.682-10.106,3.439
			C108.696,333.9,107.206,334.261,105.979,334.261 M134.469,305.728c-2.229-3.041-4.867-6.608-6.53-8.734
			c-2.978-3.804-3.298-5.106-2.997-8.268c0.214-2.249,9.068-11.113,19.378-11.113c10.309,0,19.164,8.864,19.378,11.113
			c0.301,3.162-0.02,4.465-2.997,8.268c-1.655,2.115-4.297,5.686-6.53,8.733c-2.011-0.982-3.986-1.647-5.974-2.012v-8.07
			c1.981-1.287,3.202-3.475,3.202-5.897c0-3.903-3.176-7.08-7.079-7.08s-7.079,3.177-7.079,7.08c0,2.422,1.22,4.61,3.203,5.896
			v8.071C138.456,304.079,136.48,304.745,134.469,305.728"/>
	</g>
</g>
<path style="fill:#00203F;" d="M282.535,252.761c-40.769,0-73.815,33.053-73.815,73.818c0,40.769,33.047,73.816,73.815,73.816
	c40.767,0,73.814-33.048,73.814-73.816C356.35,285.813,323.302,252.761,282.535,252.761"/>
<path style="fill:#79000C;" d="M282.535,265.539c-33.711,0-61.039,27.331-61.039,61.041s27.328,61.038,61.039,61.038
	c33.709,0,61.037-27.328,61.037-61.038S316.244,265.539,282.535,265.539"/>
<path style="fill:#FFFFFF;" d="M282.537,343.142c-9.131,0-16.563-7.43-16.563-16.561c0-9.13,7.432-16.562,16.563-16.562
	c9.129,0,16.562,7.432,16.562,16.562C299.099,335.712,291.666,343.142,282.537,343.142 M282.537,315.573
	c-6.067,0-11.009,4.939-11.009,11.008s4.941,11.008,11.009,11.008c6.066,0,11.008-4.939,11.008-11.008
	S288.604,315.573,282.537,315.573"/>
<path style="fill:#FFFFFF;" d="M282.537,389.821c-34.88,0-63.248-28.369-63.248-63.241c0-34.879,28.368-63.248,63.248-63.248
	c34.871,0,63.24,28.369,63.24,63.248C345.777,361.452,317.408,389.821,282.537,389.821 M282.537,267.717
	c-32.46,0-58.865,26.404-58.865,58.863c0,32.452,26.405,58.859,58.865,58.859c32.451,0,58.856-26.407,58.856-58.859
	C341.394,294.121,314.988,267.717,282.537,267.717"/>
<g>
	<g>
		<defs>
			<rect id="SVGID_3_" x="235.014" y="277.612" width="95.039" height="92.687"/>
		</defs>
		<clipPath id="SVGID_4_">
			<use xlink:href="#SVGID_3_"  style="overflow:visible;"/>
		</clipPath>
		<path style="clip-path:url(#SVGID_4_);fill:#EFEFEF;" d="M297.161,370.298c-4.627,0-7.528-1.11-8.054-1.705
			c-2.103-2.383-2.609-3.625-2.438-8.451c0.098-2.69,0.136-7.105,0.151-10.857c2.189-0.392,4.21-1.03,6.034-1.907l4.725,6.506
			c-0.848,2.205-0.548,4.692,0.877,6.653c1.329,1.828,3.47,2.919,5.73,2.919c1.502-0.001,2.938-0.468,4.155-1.352
			c3.158-2.296,3.861-6.73,1.568-9.889c-1.318-1.812-3.45-2.894-5.703-2.894c-0.118,0-0.235,0.003-0.353,0.009l-4.731-6.513
			c1.491-1.521,2.76-3.229,3.796-5.11c3.535,1.133,7.7,2.446,10.257,3.176c4.644,1.327,5.669,2.194,7.284,4.93
			c1.148,1.944-0.804,14.32-9.145,20.38C307.725,368.803,302.564,370.298,297.161,370.298 M267.908,370.298
			c-5.405,0-10.564-1.495-14.156-4.105c-8.341-6.061-10.294-18.436-9.145-20.38c1.614-2.734,2.641-3.602,7.285-4.93
			c2.129-0.607,5.574-1.676,10.258-3.176c1.033,1.866,2.317,3.594,3.796,5.107l-4.733,6.515c-0.117-0.006-0.234-0.009-0.354-0.009
			c-2.252,0-4.383,1.083-5.699,2.895c-2.295,3.158-1.594,7.593,1.564,9.888c1.219,0.885,2.654,1.353,4.155,1.353
			c2.263,0,4.405-1.092,5.732-2.919c1.424-1.96,1.722-4.446,0.876-6.653l4.726-6.506c1.825,0.877,3.845,1.516,6.034,1.907
			c0.02,4.974,0.068,8.622,0.15,10.858c0.172,4.825-0.334,6.067-2.438,8.45C275.436,369.188,272.535,370.298,267.908,370.298
			 M320.874,334.261c-1.228,0-2.716-0.36-5.142-1.245c-2.064-0.754-5.459-1.909-10.105-3.439c0.143-1.018,0.212-2.01,0.212-2.997
			c0-1.102-0.093-2.228-0.28-3.407l7.596-2.467c1.248,1.008,2.801,1.568,4.429,1.568c0.735,0,1.464-0.116,2.167-0.345
			c1.799-0.584,3.262-1.834,4.121-3.519c0.857-1.685,1.008-3.603,0.424-5.4c-0.951-2.928-3.655-4.893-6.73-4.893
			c-0.74,0-1.478,0.117-2.188,0.348c-2.304,0.747-4.008,2.584-4.619,4.866l-7.58,2.463c-0.969-1.773-2.248-3.472-3.823-5.073
			c2.905-4.032,5.008-7.011,6.256-8.864c2.695-4.006,3.837-4.714,6.938-5.405c0.018-0.004,0.087-0.018,0.223-0.018
			c3.305,0,13.4,5.982,16.334,15.014c3.187,9.804-2.508,20.965-4.58,21.863C322.946,333.995,321.922,334.261,320.874,334.261
			L320.874,334.261z M244.195,334.261c-1.049,0-2.072-0.266-3.65-0.95c-2.072-0.898-7.767-12.062-4.581-21.863
			c2.935-9.03,13.032-15.013,16.336-15.013c0.134,0,0.204,0.014,0.222,0.018c3.1,0.69,4.239,1.398,6.938,5.404
			c1.513,2.245,4.069,5.829,6.256,8.864c-1.575,1.603-2.855,3.3-3.824,5.074l-7.578-2.463c-0.61-2.283-2.315-4.119-4.621-4.867
			c-0.709-0.23-1.445-0.348-2.188-0.348c-3.075,0-5.78,1.965-6.73,4.893c-0.584,1.798-0.435,3.716,0.426,5.4
			c0.857,1.685,2.32,2.935,4.119,3.519c0.705,0.229,1.433,0.345,2.168,0.345c1.627,0,3.179-0.561,4.428-1.568l7.596,2.468
			c-0.187,1.178-0.279,2.304-0.279,3.406c0,0.987,0.069,1.979,0.211,2.997c-3.504,1.154-7.613,2.53-10.106,3.439
			C246.911,333.9,245.421,334.261,244.195,334.261 M272.684,305.728c-2.229-3.041-4.867-6.608-6.53-8.734
			c-2.978-3.803-3.298-5.105-2.997-8.268c0.214-2.249,9.07-11.113,19.379-11.113c10.308,0,19.163,8.864,19.377,11.113
			c0.301,3.162-0.02,4.465-2.997,8.268c-1.367,1.747-3.56,4.681-6.53,8.733c-2.01-0.982-3.986-1.647-5.974-2.012v-8.07
			c1.981-1.286,3.202-3.475,3.202-5.897c0-3.903-3.176-7.08-7.078-7.08c-3.904,0-7.08,3.177-7.08,7.08
			c0,2.422,1.22,4.61,3.203,5.896v8.071C276.671,304.079,274.695,304.745,272.684,305.728"/>
	</g>
</g>
<path style="fill:#00203F;" d="M144.318,390.867c-40.767,0-73.814,33.053-73.814,73.818c0,40.769,33.048,73.816,73.814,73.816
	c40.769,0,73.816-33.048,73.816-73.816C218.135,423.92,185.087,390.867,144.318,390.867"/>
<path style="fill:#79000C;" d="M144.318,403.646c-33.71,0-61.037,27.331-61.037,61.041s27.327,61.038,61.037,61.038
	c33.711,0,61.038-27.328,61.038-61.038S178.029,403.646,144.318,403.646"/>
<path style="fill:#FFFFFF;" d="M144.318,481.245c-9.13,0-16.562-7.431-16.562-16.561s7.432-16.563,16.562-16.563
	c9.131,0,16.563,7.433,16.563,16.563S153.449,481.245,144.318,481.245 M144.318,453.677c-6.066,0-11.008,4.939-11.008,11.008
	c0,6.067,4.941,11.008,11.008,11.008c6.068,0,11.008-4.94,11.008-11.008C155.326,458.616,150.387,453.677,144.318,453.677"/>
<path style="fill:#FFFFFF;" d="M144.318,527.932c-34.871,0-63.24-28.368-63.24-63.247c0-34.88,28.369-63.248,63.24-63.248
	c34.872,0,63.241,28.368,63.241,63.248C207.56,499.563,179.19,527.932,144.318,527.932 M144.318,405.819
	c-32.451,0-58.856,26.405-58.856,58.865c0,32.459,26.405,58.864,58.856,58.864c32.452,0,58.858-26.405,58.858-58.864
	C203.177,432.225,176.771,405.819,144.318,405.819"/>
<g>
	<g>
		<defs>
			<rect id="SVGID_5_" x="96.803" y="415.719" width="95.03" height="92.687"/>
		</defs>
		<clipPath id="SVGID_6_">
			<use xlink:href="#SVGID_5_"  style="overflow:visible;"/>
		</clipPath>
		<path style="clip-path:url(#SVGID_6_);fill:#EFEFEF;" d="M158.946,508.404c-4.627,0-7.529-1.11-8.054-1.705
			c-2.104-2.384-2.609-3.627-2.438-8.451c0.08-2.217,0.13-5.864,0.151-10.857c2.189-0.392,4.209-1.03,6.034-1.907l4.726,6.506
			c-0.847,2.206-0.548,4.693,0.876,6.653c1.329,1.828,3.47,2.919,5.73,2.919c1.502-0.001,2.938-0.468,4.155-1.352
			c3.158-2.296,3.861-6.731,1.566-9.889c-1.316-1.812-3.447-2.894-5.701-2.894c-0.118,0-0.235,0.003-0.353,0.009l-4.733-6.516
			c1.478-1.515,2.762-3.242,3.795-5.108c4.695,1.505,8.142,2.573,10.26,3.177c4.644,1.327,5.669,2.194,7.284,4.93
			c1.148,1.944-0.806,14.321-9.145,20.381C169.509,506.909,164.35,508.404,158.946,508.404 M129.693,508.404
			c-5.405,0-10.564-1.495-14.156-4.104c-8.341-6.062-10.294-18.437-9.145-20.381c1.614-2.734,2.641-3.602,7.285-4.93
			c2.104-0.6,5.552-1.668,10.258-3.176c1.033,1.866,2.317,3.593,3.796,5.107l-4.733,6.515c-0.117-0.006-0.234-0.009-0.354-0.009
			c-2.252,0-4.385,1.083-5.7,2.895c-2.294,3.158-1.593,7.593,1.563,9.888c1.219,0.885,2.656,1.353,4.157,1.353
			c2.261,0,4.404-1.091,5.731-2.919c1.425-1.96,1.723-4.447,0.876-6.653l4.727-6.506c1.825,0.877,3.845,1.516,6.034,1.907
			c0.02,4.974,0.068,8.622,0.15,10.858c0.172,4.825-0.334,6.067-2.438,8.45C137.221,507.294,134.32,508.404,129.693,508.404
			 M182.659,472.367c-1.228,0-2.717-0.36-5.14-1.245c-2.072-0.757-5.467-1.911-10.108-3.439c0.144-1.02,0.213-2.011,0.213-2.997
			c0-1.102-0.093-2.228-0.28-3.407l7.596-2.467c1.248,1.008,2.801,1.568,4.429,1.568c0.735,0,1.464-0.116,2.167-0.345
			c1.799-0.584,3.262-1.834,4.121-3.519c0.857-1.685,1.008-3.603,0.424-5.401c-0.951-2.927-3.656-4.892-6.73-4.892
			c-0.741,0-1.479,0.117-2.189,0.347c-2.304,0.748-4.007,2.585-4.618,4.867l-7.58,2.464c-0.97-1.774-2.249-3.473-3.823-5.074
			c2.193-3.044,4.754-6.636,6.256-8.864c2.695-4.006,3.837-4.714,6.938-5.405c0.018-0.004,0.087-0.018,0.221-0.018
			c3.306,0,13.402,5.982,16.336,15.014c3.187,9.804-2.508,20.965-4.58,21.863C184.731,472.102,183.707,472.367,182.659,472.367
			 M105.979,472.367c-1.048,0-2.072-0.266-3.649-0.95c-2.072-0.898-7.766-12.062-4.581-21.863
			c2.935-9.03,13.031-15.013,16.335-15.013c0.135,0,0.204,0.014,0.223,0.018c3.1,0.69,4.239,1.398,6.938,5.404
			c1.494,2.218,4.059,5.813,6.256,8.865c-1.575,1.602-2.855,3.299-3.824,5.073l-7.58-2.464c-0.609-2.282-2.314-4.119-4.619-4.867
			c-0.709-0.229-1.445-0.347-2.188-0.347c-3.075,0-5.78,1.965-6.73,4.892c-0.584,1.799-0.435,3.717,0.425,5.401
			c0.857,1.685,2.321,2.935,4.118,3.519c0.705,0.229,1.434,0.345,2.168,0.345c1.629,0,3.181-0.561,4.43-1.568l7.595,2.468
			c-0.187,1.179-0.28,2.305-0.28,3.406c0,0.987,0.07,1.979,0.213,2.997c-4.636,1.526-8.029,2.681-10.106,3.439
			C108.696,472.007,107.206,472.367,105.979,472.367 M134.469,443.834c-2.224-3.035-4.857-6.598-6.53-8.734
			c-2.978-3.804-3.298-5.106-2.997-8.268c0.214-2.249,9.068-11.113,19.378-11.113c10.309,0,19.164,8.864,19.378,11.113
			c0.301,3.162-0.02,4.465-2.997,8.268c-1.655,2.115-4.297,5.686-6.53,8.733c-2.011-0.982-3.986-1.647-5.974-2.012v-8.07
			c1.981-1.287,3.202-3.475,3.202-5.897c0-3.903-3.176-7.08-7.079-7.08s-7.079,3.177-7.079,7.08c0,2.422,1.22,4.61,3.203,5.896
			v8.071C138.456,442.186,136.48,442.852,134.469,443.834"/>
	</g>
</g>
<path style="fill:#00203F;" d="M282.535,390.867c-40.769,0-73.815,33.053-73.815,73.818c0,40.769,33.047,73.816,73.815,73.816
	c40.767,0,73.814-33.048,73.814-73.816C356.35,423.92,323.302,390.867,282.535,390.867"/>
<path style="fill:#79000C;" d="M282.535,403.646c-33.711,0-61.039,27.331-61.039,61.041s27.328,61.038,61.039,61.038
	c33.709,0,61.037-27.328,61.037-61.038S316.244,403.646,282.535,403.646"/>
<path style="fill:#FFFFFF;" d="M282.537,481.245c-9.131,0-16.563-7.431-16.563-16.561s7.432-16.563,16.563-16.563
	c9.129,0,16.562,7.433,16.562,16.563S291.666,481.245,282.537,481.245 M282.537,453.677c-6.067,0-11.009,4.939-11.009,11.008
	c0,6.067,4.941,11.008,11.009,11.008c6.066,0,11.008-4.94,11.008-11.008C293.545,458.616,288.604,453.677,282.537,453.677"/>
<path style="fill:#FFFFFF;" d="M282.537,527.932c-34.88,0-63.248-28.368-63.248-63.247c0-34.88,28.368-63.248,63.248-63.248
	c34.871,0,63.24,28.368,63.24,63.248C345.777,499.563,317.408,527.932,282.537,527.932 M282.537,405.819
	c-32.46,0-58.865,26.405-58.865,58.865c0,32.459,26.405,58.864,58.865,58.864c32.451,0,58.856-26.405,58.856-58.864
	C341.394,432.225,314.988,405.819,282.537,405.819"/>
<g>
	<g>
		<defs>
			<rect id="SVGID_7_" x="235.014" y="415.719" width="95.039" height="92.687"/>
		</defs>
		<clipPath id="SVGID_8_">
			<use xlink:href="#SVGID_7_"  style="overflow:visible;"/>
		</clipPath>
		<path style="clip-path:url(#SVGID_8_);fill:#EFEFEF;" d="M297.162,508.404c-4.627,0-7.529-1.11-8.055-1.705
			c-2.103-2.383-2.609-3.625-2.438-8.451c0.098-2.69,0.136-7.105,0.151-10.857c2.189-0.392,4.21-1.03,6.034-1.907l4.726,6.506
			c-0.847,2.205-0.548,4.693,0.876,6.653c1.329,1.828,3.47,2.919,5.73,2.919c1.502-0.001,2.938-0.468,4.155-1.352
			c3.158-2.296,3.861-6.73,1.568-9.889c-1.318-1.812-3.45-2.894-5.703-2.894c-0.118,0-0.235,0.003-0.353,0.009l-4.731-6.513
			c1.491-1.521,2.76-3.23,3.796-5.11c4.688,1.503,8.134,2.571,10.258,3.176c4.643,1.327,5.668,2.194,7.283,4.93
			c1.148,1.944-0.805,14.32-9.145,20.381C307.725,506.909,302.566,508.404,297.162,508.404 M267.908,508.404
			c-5.405,0-10.564-1.495-14.156-4.104c-8.341-6.062-10.294-18.437-9.145-20.381c1.614-2.734,2.641-3.602,7.285-4.93
			c2.109-0.602,5.557-1.669,10.258-3.176c1.033,1.866,2.317,3.593,3.796,5.107l-4.733,6.515c-0.117-0.006-0.234-0.009-0.354-0.009
			c-2.252,0-4.383,1.083-5.699,2.895c-2.295,3.158-1.594,7.593,1.564,9.888c1.219,0.885,2.654,1.353,4.155,1.353
			c2.263,0,4.405-1.092,5.732-2.919c1.424-1.96,1.722-4.446,0.876-6.653l4.726-6.506c1.825,0.877,3.845,1.516,6.034,1.907
			c0.02,4.974,0.068,8.622,0.15,10.858c0.172,4.825-0.334,6.067-2.438,8.45C275.436,507.294,272.535,508.404,267.908,508.404
			 M320.874,472.367c-1.228,0-2.716-0.36-5.142-1.245c-2.064-0.754-5.459-1.909-10.105-3.439c0.143-1.018,0.212-2.01,0.212-2.997
			c0-1.102-0.093-2.228-0.28-3.407l7.596-2.467c1.248,1.008,2.801,1.568,4.429,1.568c0.735,0,1.464-0.116,2.167-0.345
			c1.799-0.584,3.262-1.834,4.121-3.519c0.857-1.685,1.008-3.603,0.424-5.401c-0.951-2.927-3.655-4.892-6.73-4.892
			c-0.74,0-1.478,0.117-2.188,0.347c-2.305,0.748-4.008,2.584-4.619,4.868l-7.58,2.463c-0.969-1.774-2.248-3.473-3.823-5.074
			c2.905-4.032,5.008-7.011,6.256-8.864c2.695-4.006,3.837-4.714,6.938-5.405c0.018-0.004,0.087-0.018,0.223-0.018
			c3.305,0,13.4,5.982,16.334,15.014c3.187,9.804-2.508,20.965-4.58,21.863C322.946,472.102,321.922,472.367,320.874,472.367
			L320.874,472.367z M244.195,472.367c-1.049,0-2.072-0.266-3.65-0.95c-2.072-0.898-7.766-12.062-4.581-21.863
			c2.935-9.03,13.032-15.013,16.336-15.013c0.134,0,0.204,0.014,0.222,0.018c3.1,0.69,4.239,1.398,6.938,5.404
			c1.504,2.232,4.064,5.822,6.256,8.865c-1.575,1.602-2.855,3.299-3.824,5.073l-7.578-2.463c-0.61-2.283-2.315-4.119-4.621-4.868
			c-0.709-0.229-1.445-0.347-2.188-0.347c-3.075,0-5.78,1.965-6.73,4.892c-0.584,1.799-0.435,3.717,0.426,5.401
			c0.857,1.685,2.32,2.935,4.119,3.519c0.705,0.229,1.433,0.345,2.168,0.345c1.627,0,3.179-0.561,4.428-1.568l7.596,2.468
			c-0.187,1.178-0.279,2.304-0.279,3.406c0,0.987,0.069,1.979,0.211,2.997c-3.504,1.154-7.613,2.53-10.106,3.439
			C246.911,472.007,245.421,472.367,244.195,472.367 M272.684,443.834c-2.224-3.035-4.857-6.598-6.53-8.734
			c-2.978-3.803-3.298-5.105-2.997-8.268c0.214-2.249,9.07-11.113,19.379-11.113c10.308,0,19.163,8.864,19.377,11.113
			c0.301,3.162-0.02,4.465-2.997,8.268c-1.367,1.747-3.56,4.68-6.53,8.733c-2.01-0.982-3.986-1.647-5.974-2.012v-8.07
			c1.981-1.286,3.202-3.475,3.202-5.897c0-3.903-3.176-7.08-7.078-7.08c-3.904,0-7.08,3.177-7.08,7.08
			c0,2.422,1.22,4.61,3.203,5.896v8.071C276.671,442.186,274.695,442.852,272.684,443.834"/>
	</g>
</g>
<path style="fill:#00203F;" d="M144.318,41.688c-40.767,0-73.814,33.052-73.814,73.818c0,40.768,33.048,73.816,73.814,73.816
	c40.769,0,73.816-33.049,73.816-73.816C218.135,74.739,185.087,41.688,144.318,41.688"/>
<path style="fill:#00394B;" d="M144.318,54.465c-33.71,0-61.037,27.331-61.037,61.041s27.327,61.038,61.037,61.038
	c33.711,0,61.038-27.328,61.038-61.038S178.029,54.465,144.318,54.465"/>
<path style="fill:#FFFFFF;" d="M144.318,132.068c-9.13,0-16.562-7.431-16.562-16.561c0-9.131,7.432-16.563,16.562-16.563
	c9.131,0,16.563,7.432,16.563,16.563C160.881,124.638,153.449,132.068,144.318,132.068 M144.318,104.5
	c-6.066,0-11.008,4.938-11.008,11.008c0,6.066,4.941,11.007,11.008,11.007c6.068,0,11.008-4.94,11.008-11.007
	C155.326,109.438,150.387,104.5,144.318,104.5"/>
<path style="fill:#FFFFFF;" d="M144.318,178.747c-34.871,0-63.24-28.368-63.24-63.239c0-34.881,28.369-63.248,63.24-63.248
	c34.872,0,63.241,28.367,63.241,63.248C207.56,150.379,179.19,178.747,144.318,178.747 M144.318,56.643
	c-32.451,0-58.856,26.404-58.856,58.865c0,32.45,26.405,58.857,58.856,58.857c32.452,0,58.858-26.407,58.858-58.857
	C203.177,83.047,176.771,56.643,144.318,56.643"/>
<g>
	<g>
		<defs>
			<rect id="SVGID_9_" x="96.803" y="66.538" width="95.03" height="92.686"/>
		</defs>
		<clipPath id="SVGID_10_">
			<use xlink:href="#SVGID_9_"  style="overflow:visible;"/>
		</clipPath>
		<path style="clip-path:url(#SVGID_10_);fill:#EFEFEF;" d="M158.946,159.225c-4.627,0-7.529-1.111-8.054-1.706
			c-2.104-2.383-2.609-3.625-2.438-8.451c0.08-2.216,0.13-5.862,0.151-10.856c2.189-0.393,4.209-1.031,6.032-1.907l4.728,6.505
			c-0.849,2.206-0.548,4.693,0.876,6.653c1.329,1.828,3.471,2.919,5.73,2.919c1.502,0,2.938-0.468,4.156-1.352
			c1.529-1.112,2.535-2.752,2.83-4.62c0.296-1.867-0.152-3.738-1.265-5.269c-1.316-1.812-3.447-2.894-5.701-2.894
			c-0.118,0-0.235,0.003-0.353,0.009l-4.732-6.513c1.492-1.521,2.761-3.23,3.797-5.109c3.538,1.135,7.705,2.448,10.256,3.177
			c4.645,1.326,5.67,2.192,7.285,4.928c1.148,1.945-0.806,14.322-9.145,20.381C169.509,157.729,164.35,159.225,158.946,159.225
			 M129.693,159.225c-5.405,0-10.564-1.496-14.156-4.105c-8.34-6.061-10.293-18.436-9.145-20.381
			c1.615-2.735,2.641-3.602,7.285-4.928c2.558-0.73,6.722-2.043,10.256-3.177c1.035,1.879,2.306,3.589,3.797,5.109l-4.732,6.513
			c-0.118-0.006-0.236-0.009-0.354-0.009c-2.254,0-4.385,1.082-5.7,2.894c-2.294,3.158-1.593,7.594,1.564,9.889
			c1.218,0.884,2.654,1.352,4.156,1.352c2.26,0,4.403-1.091,5.731-2.919c1.425-1.96,1.723-4.447,0.876-6.653l4.727-6.506
			c1.824,0.877,3.845,1.516,6.034,1.908c0.02,4.973,0.068,8.621,0.15,10.857c0.172,4.825-0.334,6.067-2.438,8.45
			C137.221,158.113,134.32,159.225,129.693,159.225 M182.658,123.188c-1.227-0.001-2.716-0.361-5.141-1.245
			c-2.487-0.908-6.6-2.285-10.106-3.44c0.144-1.019,0.213-2.011,0.213-2.997c0-1.102-0.093-2.228-0.28-3.407l7.596-2.467
			c1.246,1.008,2.8,1.568,4.428,1.568c0.734,0,1.464-0.116,2.168-0.345c1.799-0.584,3.262-1.834,4.121-3.519
			c0.857-1.685,1.008-3.603,0.424-5.4c-0.951-2.928-3.656-4.893-6.73-4.893c-0.741,0-1.479,0.117-2.189,0.348
			c-2.304,0.747-4.007,2.584-4.618,4.866l-7.58,2.464c-0.97-1.774-2.249-3.473-3.823-5.074c2.193-3.044,4.754-6.636,6.256-8.864
			c2.696-4.006,3.837-4.714,6.937-5.404c0.019-0.004,0.088-0.018,0.224-0.018c3.305,0,13.4,5.982,16.334,15.014
			c3.187,9.803-2.508,20.964-4.58,21.862C184.731,122.921,183.707,123.188,182.658,123.188L182.658,123.188z M105.98,123.188
			c-1.049,0-2.073-0.267-3.65-0.951c-2.073-0.898-7.767-12.06-4.581-21.863c2.935-9.03,13.031-15.013,16.335-15.013
			c0.135,0,0.204,0.014,0.223,0.018c3.1,0.69,4.239,1.398,6.938,5.404c1.494,2.218,4.059,5.813,6.256,8.865
			c-1.575,1.602-2.854,3.299-3.824,5.073l-7.58-2.464c-0.609-2.282-2.314-4.119-4.619-4.866c-0.709-0.23-1.445-0.348-2.188-0.348
			c-3.075,0-5.78,1.965-6.73,4.893c-0.584,1.798-0.435,3.716,0.425,5.4c0.857,1.685,2.321,2.935,4.118,3.519
			c0.705,0.229,1.435,0.345,2.17,0.345c1.628,0,3.18-0.561,4.428-1.567l7.595,2.468c-0.187,1.178-0.28,2.304-0.28,3.405
			c0,0.988,0.07,1.979,0.213,2.997c-4.639,1.527-8.033,2.684-10.107,3.44C108.697,122.826,107.207,123.188,105.98,123.188
			 M134.469,94.653c-2.224-3.036-4.859-6.6-6.53-8.733c-2.978-3.804-3.3-5.107-2.997-8.269c0.214-2.249,9.068-11.113,19.378-11.113
			c10.309,0,19.164,8.864,19.378,11.113c0.301,3.162-0.02,4.466-2.997,8.269c-1.663,2.124-4.301,5.69-6.53,8.733
			c-2.011-0.982-3.988-1.648-5.974-2.013v-8.07c1.981-1.287,3.202-3.475,3.202-5.897c0-3.902-3.176-7.079-7.079-7.079
			s-7.079,3.177-7.079,7.079c0,2.422,1.22,4.61,3.203,5.896v8.071C138.456,93.005,136.48,93.671,134.469,94.653"/>
	</g>
</g>
<path style="fill:#00203F;" d="M282.535,41.688c-40.769,0-73.815,33.052-73.815,73.818c0,40.768,33.047,73.816,73.815,73.816
	c40.767,0,73.814-33.049,73.814-73.816C356.35,74.739,323.302,41.688,282.535,41.688"/>
<path style="fill:#00394B;" d="M282.535,54.465c-33.711,0-61.039,27.331-61.039,61.041s27.328,61.038,61.039,61.038
	c33.709,0,61.037-27.328,61.037-61.038S316.244,54.465,282.535,54.465"/>
<path style="fill:#FFFFFF;" d="M282.537,132.068c-9.131,0-16.563-7.431-16.563-16.561c0-9.131,7.432-16.563,16.563-16.563
	c9.129,0,16.562,7.432,16.562,16.563C299.099,124.638,291.666,132.068,282.537,132.068 M282.537,104.5
	c-6.067,0-11.009,4.938-11.009,11.008c0,6.066,4.941,11.007,11.009,11.007c6.066,0,11.008-4.94,11.008-11.007
	C293.545,109.438,288.604,104.5,282.537,104.5"/>
<path style="fill:#FFFFFF;" d="M282.537,178.747c-34.88,0-63.248-28.368-63.248-63.239c0-34.881,28.368-63.248,63.248-63.248
	c34.871,0,63.24,28.367,63.24,63.248C345.777,150.379,317.408,178.747,282.537,178.747 M282.537,56.643
	c-32.46,0-58.865,26.404-58.865,58.865c0,32.45,26.405,58.857,58.865,58.857c32.451,0,58.856-26.407,58.856-58.857
	C341.394,83.047,314.988,56.643,282.537,56.643"/>
<g>
	<g>
		<defs>
			<rect id="SVGID_11_" x="235.014" y="66.538" width="95.039" height="92.686"/>
		</defs>
		<clipPath id="SVGID_12_">
			<use xlink:href="#SVGID_11_"  style="overflow:visible;"/>
		</clipPath>
		<path style="clip-path:url(#SVGID_12_);fill:#EFEFEF;" d="M297.162,159.225c-4.627,0-7.529-1.111-8.055-1.706
			c-2.103-2.382-2.609-3.624-2.438-8.451c0.098-2.689,0.136-7.105,0.151-10.856c2.189-0.393,4.209-1.031,6.034-1.908l4.726,6.506
			c-0.847,2.206-0.548,4.693,0.876,6.653c1.329,1.828,3.471,2.919,5.73,2.919c1.502,0,2.938-0.468,4.156-1.352
			c3.157-2.295,3.86-6.73,1.567-9.889c-1.318-1.812-3.45-2.894-5.703-2.894c-0.118,0-0.235,0.003-0.353,0.009l-4.731-6.513
			c1.491-1.521,2.761-3.229,3.796-5.109c3.535,1.134,7.701,2.446,10.257,3.177c4.644,1.326,5.669,2.192,7.284,4.928
			c1.148,1.945-0.805,14.32-9.145,20.381C307.725,157.729,302.566,159.225,297.162,159.225 M267.908,159.225
			c-5.405,0-10.564-1.496-14.156-4.105c-8.34-6.061-10.293-18.436-9.145-20.381c1.615-2.735,2.641-3.602,7.285-4.928
			c2.563-0.732,6.725-2.045,10.256-3.177c1.035,1.879,2.306,3.589,3.797,5.109l-4.732,6.513c-0.118-0.006-0.236-0.009-0.354-0.009
			c-2.252,0-4.383,1.082-5.699,2.894c-1.113,1.53-1.563,3.401-1.266,5.27c0.295,1.867,1.301,3.508,2.83,4.619
			c1.217,0.884,2.654,1.352,4.155,1.352c2.261,0,4.404-1.091,5.732-2.919c1.424-1.96,1.722-4.446,0.876-6.653l4.726-6.506
			c1.824,0.877,3.843,1.516,6.034,1.908c0.02,4.973,0.068,8.621,0.15,10.857c0.172,4.825-0.334,6.067-2.438,8.45
			C275.436,158.113,272.535,159.225,267.908,159.225 M320.874,123.188c-1.228-0.001-2.717-0.361-5.142-1.245
			c-2.481-0.906-6.595-2.283-10.105-3.44c0.143-1.018,0.212-2.009,0.212-2.997c0-1.102-0.093-2.228-0.28-3.407l7.596-2.467
			c1.246,1.008,2.8,1.568,4.428,1.568c0.734,0,1.464-0.116,2.168-0.345c1.799-0.584,3.262-1.834,4.121-3.519
			c0.857-1.685,1.008-3.603,0.424-5.4c-0.951-2.928-3.655-4.893-6.73-4.893c-0.74,0-1.478,0.117-2.188,0.348
			c-2.305,0.747-4.008,2.584-4.619,4.867l-7.58,2.463c-0.969-1.774-2.248-3.473-3.823-5.074c2.905-4.032,5.008-7.011,6.256-8.864
			c2.696-4.006,3.837-4.714,6.937-5.404c0.019-0.004,0.088-0.018,0.224-0.018c3.305,0,13.4,5.982,16.334,15.014
			c3.187,9.803-2.508,20.964-4.58,21.862C322.946,122.921,321.922,123.188,320.874,123.188 M244.195,123.188
			c-1.049,0-2.072-0.267-3.65-0.951c-2.073-0.898-7.767-12.06-4.581-21.863c2.935-9.03,13.032-15.013,16.336-15.013
			c0.134,0,0.204,0.014,0.222,0.018c3.1,0.69,4.239,1.398,6.938,5.404c1.504,2.233,4.064,5.822,6.256,8.865
			c-1.575,1.602-2.854,3.299-3.824,5.073l-7.578-2.463c-0.61-2.283-2.315-4.119-4.621-4.867c-0.709-0.23-1.445-0.348-2.188-0.348
			c-3.075,0-5.78,1.965-6.73,4.893c-0.584,1.798-0.435,3.716,0.426,5.4c0.857,1.685,2.32,2.935,4.119,3.519
			c0.705,0.229,1.434,0.345,2.169,0.345c1.627,0,3.179-0.561,4.427-1.567l7.596,2.468c-0.188,1.177-0.279,2.303-0.279,3.405
			c0,0.988,0.069,1.979,0.211,2.997c-3.506,1.155-7.617,2.532-10.106,3.44C246.912,122.826,245.422,123.188,244.195,123.188
			 M272.684,94.653c-2.224-3.036-4.859-6.6-6.53-8.733c-2.978-3.803-3.298-5.106-2.997-8.269c0.214-2.249,9.07-11.113,19.379-11.113
			c10.308,0,19.163,8.864,19.377,11.113c0.301,3.162-0.02,4.466-2.997,8.269c-1.374,1.754-3.567,4.688-6.53,8.733
			c-2.011-0.982-3.988-1.648-5.974-2.013v-8.07c1.981-1.286,3.202-3.475,3.202-5.897c0-3.902-3.176-7.079-7.078-7.079
			c-3.904,0-7.08,3.177-7.08,7.079c0,2.422,1.22,4.61,3.203,5.896v8.071C276.671,93.005,274.695,93.671,272.684,94.653"/>
	</g>
</g>
<g>
</g>
<g>
</g>
<g>
</g>
<g>
</g>
<g>
</g>
<g>
</g>
</svg>
