<?xml version="1.0" encoding="iso-8859-1"?>
<!-- Generator: Adobe Illustrator 16.0.0, SVG Export Plug-In . SVG Version: 6.00 Build 0)  -->
<!DOCTYPE svg PUBLIC "-//W3C//DTD SVG 1.1//EN" "http://www.w3.org/Graphics/SVG/1.1/DTD/svg11.dtd">
<svg version="1.1" id="&#x30EC;&#x30A4;&#x30E4;&#x30FC;_1"
	 xmlns="http://www.w3.org/2000/svg" xmlns:xlink="http://www.w3.org/1999/xlink" x="0px" y="0px" width="426.854px"
	 height="580.189px" viewBox="0 0 426.854 580.189" style="enable-background:new 0 0 426.854 580.189;" xml:space="preserve">
<path style="fill:#00203F;" d="M107.044,43.105c-36.173,0-65.496,29.327-65.496,65.499S70.871,174.1,107.044,174.1
	c36.172,0,65.494-29.323,65.494-65.495S143.216,43.105,107.044,43.105"/>
<path style="fill:#00394B;" d="M107.044,54.443c-29.912,0-54.158,24.25-54.158,54.16s24.246,54.157,54.158,54.157
	c29.909,0,54.156-24.247,54.156-54.157S136.953,54.443,107.044,54.443"/>
<path style="fill:#FFFFFF;" d="M107.04,123.609c-8.272,0-15.005-6.732-15.005-15.005c0-8.281,6.732-15.013,15.005-15.013
	c8.281,0,15.014,6.731,15.014,15.013C122.054,116.877,115.321,123.609,107.04,123.609 M107.04,99.146
	c-5.211,0-9.451,4.24-9.451,9.459c0,5.211,4.24,9.451,9.451,9.451c5.22,0,9.459-4.24,9.459-9.451
	C116.499,103.386,112.26,99.146,107.04,99.146"/>
<path style="fill:#FFFFFF;" d="M107.04,164.964c-31.074,0-56.357-25.285-56.357-56.36c0-31.081,25.283-56.365,56.357-56.365
	c31.082,0,56.366,25.284,56.366,56.365C163.406,139.679,138.122,164.964,107.04,164.964 M107.04,56.621
	c-28.66,0-51.976,23.321-51.976,51.982c0,28.662,23.315,51.977,51.976,51.977c28.662,0,51.983-23.314,51.983-51.977
	C159.023,79.942,135.702,56.621,107.04,56.621"/>
<g>
	<g>
		<defs>
			<rect id="SVGID_1_" x="65.137" y="65.389" width="83.81" height="81.772"/>
		</defs>
		<clipPath id="SVGID_2_">
			<use xlink:href="#SVGID_1_"  style="overflow:visible;"/>
		</clipPath>
		<path style="clip-path:url(#SVGID_2_);fill:#EFEFEF;" d="M120.021,147.16c-4.346,0-6.63-1.051-6.971-1.434
			c-1.813-2.055-2.256-3.044-2.104-7.336c0.07-1.934,0.115-5.105,0.133-9.447c1.821-0.341,3.51-0.873,5.047-1.592l4.006,5.514
			c-0.726,2-0.437,4.235,0.85,6.004c1.223,1.683,3.195,2.687,5.275,2.687c1.382-0.001,2.703-0.432,3.823-1.244
			c1.408-1.023,2.333-2.532,2.606-4.251c0.271-1.719-0.143-3.441-1.165-4.85c-1.211-1.668-3.173-2.663-5.248-2.663
			c-0.065,0-0.131,0.001-0.197,0.003l-4.009-5.519c1.234-1.283,2.296-2.711,3.175-4.273c3.099,0.991,6.698,2.125,8.925,2.762
			c4.131,1.18,4.934,1.907,6.326,4.266c0.961,1.64-0.915,12.593-8.05,17.776C129.296,145.85,124.768,147.16,120.021,147.16
			 M94.065,147.16c-4.748,0-9.276-1.311-12.423-3.598c-7.136-5.184-9.011-16.136-8.05-17.776c1.392-2.357,2.195-3.084,6.326-4.266
			c2.231-0.638,5.829-1.771,8.926-2.762c0.879,1.563,1.94,2.99,3.175,4.273l-4.011,5.519c-0.065-0.002-0.131-0.003-0.196-0.003
			c-2.074,0-4.036,0.995-5.249,2.665c-1.022,1.406-1.436,3.129-1.164,4.848c0.273,1.719,1.199,3.228,2.605,4.251
			c1.121,0.813,2.443,1.244,3.825,1.244c2.08,0,4.052-1.004,5.274-2.686c1.285-1.77,1.575-4.004,0.85-6.004l4.008-5.515
			c1.536,0.719,3.225,1.251,5.045,1.592c0.015,3.29,0.05,7.107,0.134,9.448c0.151,4.293-0.291,5.282-2.104,7.335
			C100.696,146.109,98.412,147.16,94.065,147.16 M141.063,115.186c-1.062,0-2.36-0.317-4.483-1.091
			c-1.817-0.664-4.771-1.67-8.789-2.994c0.109-0.846,0.164-1.673,0.164-2.498c0-0.928-0.072-1.874-0.222-2.861l6.431-2.09
			c1.133,0.879,2.523,1.365,3.979,1.365c0.675,0,1.347-0.106,1.995-0.317c1.655-0.539,3.003-1.688,3.792-3.238
			c0.789-1.551,0.928-3.316,0.39-4.971c-0.875-2.692-3.363-4.502-6.192-4.502c-0.685,0-1.361,0.107-2.016,0.32
			c-2.08,0.675-3.628,2.313-4.217,4.356l-6.423,2.087c-0.829-1.479-1.9-2.899-3.2-4.243c1.917-2.659,4.124-5.757,5.439-7.711
			c2.398-3.563,3.34-4.103,6.014-4.698c0.001,0,0.046-0.01,0.146-0.01c2.982,0,11.802,5.557,14.273,13.158
			c2.724,8.388-2.195,18.353-3.937,19.113C142.839,114.953,141.956,115.186,141.063,115.186 M73.024,115.186
			c-0.895,0-1.777-0.232-3.145-0.824c-1.74-0.761-6.66-10.726-3.936-19.113c2.47-7.602,11.29-13.158,14.273-13.158
			c0.1,0,0.145,0.01,0.146,0.01c2.673,0.596,3.613,1.135,6.013,4.698c1.309,1.943,3.52,5.045,5.439,7.712
			c-1.3,1.344-2.37,2.763-3.2,4.242l-6.423-2.087c-0.588-2.044-2.137-3.682-4.218-4.356c-0.653-0.213-1.33-0.32-2.015-0.32
			c-2.83,0-5.317,1.81-6.192,4.502c-1.11,3.416,0.766,7.098,4.181,8.209c0.65,0.211,1.321,0.317,1.996,0.317
			c1.455,0,2.845-0.486,3.977-1.364l6.433,2.089c-0.149,0.987-0.222,1.934-0.222,2.861c0,0.823,0.055,1.651,0.164,2.498
			c-3.075,1.015-6.629,2.205-8.789,2.994C75.382,114.868,74.085,115.186,73.024,115.186 M98.376,89.807
			c-1.951-2.662-4.23-5.742-5.685-7.6c-2.647-3.382-2.87-4.442-2.61-7.17c0.188-1.89,8.144-9.648,16.963-9.648
			c8.817,0,16.773,7.759,16.961,9.648c0.26,2.728,0.036,3.788-2.61,7.17c-1.448,1.851-3.73,4.933-5.685,7.599
			c-1.678-0.804-3.332-1.36-4.994-1.684V81.28c1.763-1.191,2.842-3.17,2.842-5.358c0-3.593-2.922-6.514-6.514-6.514
			c-3.593,0-6.516,2.921-6.516,6.514c0,2.188,1.079,4.166,2.841,5.358v6.842C101.708,88.445,100.055,89.002,98.376,89.807"/>
	</g>
</g>
<path style="fill:#00203F;" d="M213.427,106.23c-36.172,0-65.494,29.326-65.494,65.498s29.322,65.495,65.494,65.495
	s65.495-29.323,65.495-65.495S249.599,106.23,213.427,106.23"/>
<path style="fill:#00394B;" d="M213.427,117.567c-29.91,0-54.158,24.251-54.158,54.161c0,29.909,24.248,54.157,54.158,54.157
	s54.158-24.248,54.158-54.157C267.585,141.818,243.337,117.567,213.427,117.567"/>
<path style="fill:#FFFFFF;" d="M213.427,186.736c-8.272,0-15.005-6.732-15.005-15.005c0-8.281,6.732-15.013,15.005-15.013
	c8.273,0,15.006,6.731,15.006,15.013C228.433,180.004,221.7,186.736,213.427,186.736 M213.427,162.272
	c-5.211,0-9.451,4.24-9.451,9.459c0,5.211,4.24,9.451,9.451,9.451s9.451-4.24,9.451-9.451
	C222.878,166.513,218.638,162.272,213.427,162.272"/>
<path style="fill:#FFFFFF;" d="M213.427,228.09c-31.074,0-56.358-25.284-56.358-56.359c0-31.082,25.284-56.366,56.358-56.366
	s56.359,25.284,56.359,56.366C269.786,202.806,244.501,228.09,213.427,228.09 M213.427,119.748c-28.66,0-51.976,23.32-51.976,51.982
	s23.315,51.977,51.976,51.977c28.661,0,51.978-23.314,51.978-51.977S242.088,119.748,213.427,119.748"/>
<g>
	<g>
		<defs>
			<rect id="SVGID_3_" x="171.526" y="128.514" width="83.8" height="81.772"/>
		</defs>
		<clipPath id="SVGID_4_">
			<use xlink:href="#SVGID_3_"  style="overflow:visible;"/>
		</clipPath>
		<path style="clip-path:url(#SVGID_4_);fill:#EFEFEF;" d="M226.406,210.285c-4.347,0-6.631-1.052-6.972-1.435
			c-1.814-2.054-2.258-3.043-2.104-7.335c0.084-2.341,0.119-6.157,0.133-9.447c1.821-0.341,3.509-0.874,5.046-1.593l4.006,5.514
			c-0.725,2.001-0.436,4.236,0.852,6.005c1.222,1.682,3.193,2.687,5.273,2.687c1.383,0,2.705-0.432,3.825-1.244
			c2.905-2.112,3.552-6.194,1.441-9.101c-1.213-1.669-3.175-2.664-5.249-2.664c-0.065,0-0.131,0.001-0.197,0.003l-4.009-5.518
			c1.233-1.282,2.295-2.711,3.175-4.274c4.067,1.303,7.064,2.23,8.926,2.762c4.131,1.182,4.935,1.908,6.326,4.267
			c0.96,1.64-0.917,12.594-8.051,17.776C235.681,208.975,231.153,210.285,226.406,210.285 M200.448,210.285
			c-4.747,0-9.274-1.311-12.421-3.598c-7.136-5.184-9.013-16.136-8.05-17.776c1.392-2.357,2.194-3.085,6.326-4.267
			c1.844-0.526,4.842-1.454,8.928-2.762c0.878,1.552,1.949,2.993,3.174,4.271l-4.012,5.521c-0.066-0.002-0.131-0.003-0.197-0.003
			c-2.074,0-4.035,0.994-5.248,2.663c-2.111,2.906-1.464,6.988,1.439,9.1c1.123,0.813,2.444,1.245,3.826,1.245
			c2.081,0,4.053-1.005,5.274-2.687c1.286-1.769,1.576-4.003,0.851-6.004l4.006-5.514c1.538,0.719,3.227,1.251,5.047,1.592
			c0.018,4.321,0.062,7.494,0.133,9.447c0.152,4.293-0.29,5.281-2.104,7.335C207.08,209.233,204.795,210.285,200.448,210.285
			 M247.446,178.311c-1.061,0-2.359-0.317-4.483-1.091c-1.807-0.66-4.759-1.666-8.789-2.994c0.11-0.846,0.164-1.674,0.164-2.498
			c0-0.93-0.073-1.877-0.221-2.862l6.431-2.089c1.131,0.879,2.522,1.364,3.978,1.364c0.676,0,1.348-0.106,1.996-0.317
			c1.653-0.538,3.001-1.688,3.791-3.237c0.79-1.551,0.928-3.315,0.391-4.971c-0.875-2.692-3.364-4.502-6.195-4.502
			c-0.683,0-1.358,0.107-2.013,0.319c-2.081,0.677-3.629,2.313-4.217,4.357l-6.423,2.086c-0.83-1.479-1.9-2.897-3.2-4.242
			c2.519-3.499,4.346-6.091,5.439-7.712c2.398-3.563,3.338-4.103,6.013-4.698c0,0,0.045-0.01,0.146-0.01
			c2.982,0,11.803,5.558,14.273,13.159c2.724,8.388-2.196,18.353-3.937,19.113C249.224,178.078,248.341,178.311,247.446,178.311
			L247.446,178.311z M179.408,178.311c-0.896,0-1.777-0.232-3.144-0.824c-1.74-0.761-6.66-10.726-3.937-19.114
			c2.471-7.601,11.29-13.157,14.272-13.157c0.1,0,0.146,0.01,0.146,0.01c2.673,0.595,3.613,1.134,6.015,4.698
			c1.305,1.937,3.517,5.041,5.438,7.712c-1.3,1.344-2.37,2.763-3.2,4.242l-6.422-2.087c-0.589-2.044-2.137-3.681-4.217-4.357
			c-0.655-0.212-1.331-0.319-2.014-0.319c-2.832,0-5.32,1.81-6.195,4.502c-0.538,1.655-0.399,3.42,0.391,4.971
			c0.79,1.55,2.137,2.699,3.792,3.237c0.648,0.211,1.319,0.317,1.995,0.317c1.455,0,2.845-0.485,3.977-1.363l6.432,2.089
			c-0.148,0.985-0.221,1.932-0.221,2.861c0,0.825,0.055,1.652,0.164,2.498c-3.068,1.012-6.616,2.201-8.789,2.994
			C181.767,177.993,180.468,178.311,179.408,178.311 M204.759,152.932c-1.949-2.661-4.229-5.739-5.683-7.599
			c-2.647-3.383-2.871-4.443-2.611-7.171c0.187-1.89,8.143-9.648,16.962-9.648c8.82,0,16.775,7.758,16.961,9.648
			c0.261,2.728,0.037,3.788-2.609,7.17c-1.452,1.854-3.732,4.935-5.684,7.599c-1.68-0.805-3.334-1.361-4.994-1.685v-6.841
			c1.762-1.192,2.842-3.171,2.842-5.358c0-3.593-2.924-6.515-6.516-6.515s-6.515,2.922-6.515,6.515c0,2.187,1.08,4.164,2.842,5.357
			v6.843C208.093,151.569,206.439,152.126,204.759,152.932"/>
	</g>
</g>
<path style="fill:#00203F;" d="M319.812,169.354c-36.172,0-65.496,29.327-65.496,65.499s29.324,65.495,65.496,65.495
	s65.495-29.323,65.495-65.495S355.983,169.354,319.812,169.354"/>
<path style="fill:#00394B;" d="M319.812,180.692c-29.91,0-54.158,24.25-54.158,54.161c0,29.909,24.248,54.156,54.158,54.156
	s54.157-24.247,54.157-54.156C373.969,204.942,349.722,180.692,319.812,180.692"/>
<path style="fill:#FFFFFF;" d="M319.813,249.863c-8.28,0-15.013-6.733-15.013-15.013c0-8.273,6.732-15.007,15.013-15.007
	c8.273,0,15.006,6.733,15.006,15.007C334.819,243.13,328.087,249.863,319.813,249.863 M319.813,225.398
	c-5.219,0-9.459,4.241-9.459,9.452c0,5.218,4.24,9.458,9.459,9.458c5.211,0,9.451-4.24,9.451-9.458
	C329.265,229.64,325.024,225.398,319.813,225.398"/>
<path style="fill:#FFFFFF;" d="M319.813,291.217c-31.082,0-56.365-25.285-56.365-56.366c0-31.075,25.283-56.359,56.365-56.359
	c31.074,0,56.359,25.284,56.359,56.359C376.173,265.932,350.888,291.217,319.813,291.217 M319.813,182.874
	c-28.662,0-51.982,23.313-51.982,51.977c0,28.661,23.32,51.983,51.982,51.983c28.661,0,51.977-23.322,51.977-51.983
	C371.79,206.188,348.475,182.874,319.813,182.874"/>
<g>
	<g>
		<defs>
			<rect id="SVGID_5_" x="277.906" y="191.639" width="83.811" height="81.771"/>
		</defs>
		<clipPath id="SVGID_6_">
			<use xlink:href="#SVGID_5_"  style="overflow:visible;"/>
		</clipPath>
		<path style="clip-path:url(#SVGID_6_);fill:#EFEFEF;" d="M332.789,273.409c-4.347,0-6.63-1.051-6.97-1.434
			c-1.814-2.053-2.258-3.042-2.104-7.336c0.084-2.345,0.118-6.159,0.132-9.446c1.82-0.341,3.51-0.874,5.047-1.593l4.006,5.514
			c-0.725,2-0.436,4.234,0.85,6.004c1.224,1.684,3.195,2.688,5.275,2.688c1.383,0,2.705-0.432,3.824-1.244
			c2.905-2.112,3.553-6.194,1.441-9.101c-1.212-1.669-3.174-2.664-5.248-2.664c-0.065,0-0.131,0.001-0.197,0.003l-4.009-5.519
			c1.233-1.282,2.295-2.711,3.174-4.273c3.097,0.99,6.694,2.124,8.927,2.762c4.129,1.182,4.934,1.908,6.325,4.266
			c0.961,1.64-0.916,12.594-8.05,17.776C342.063,272.099,337.536,273.409,332.789,273.409 M306.834,273.409
			c-4.748,0-9.276-1.311-12.423-3.598c-7.135-5.185-9.012-16.137-8.051-17.776c1.393-2.357,2.196-3.085,6.326-4.266
			c2.232-0.638,5.83-1.771,8.926-2.762c0.88,1.563,1.94,2.991,3.176,4.274l-4.01,5.519c-0.066-0.002-0.133-0.003-0.198-0.003
			c-2.075,0-4.037,0.995-5.248,2.663c-1.022,1.408-1.437,3.131-1.164,4.849c0.272,1.719,1.198,3.228,2.606,4.252
			c1.119,0.813,2.441,1.244,3.823,1.244c2.081,0,4.052-1.005,5.275-2.688c1.285-1.769,1.575-4.003,0.851-6.003l4.006-5.514
			c1.538,0.719,3.227,1.251,5.047,1.592c0.017,4.321,0.061,7.494,0.132,9.447c0.153,4.293-0.29,5.282-2.104,7.334
			C313.464,272.358,311.18,273.409,306.834,273.409 M353.83,241.435c-1.06,0-2.358-0.316-4.482-1.09
			c-1.808-0.66-4.761-1.666-8.79-2.994c0.11-0.849,0.165-1.675,0.165-2.499c0-0.928-0.073-1.874-0.222-2.861l6.432-2.089
			c1.131,0.879,2.522,1.364,3.978,1.364c0.675,0,1.347-0.106,1.995-0.317c3.416-1.112,5.292-4.793,4.182-8.208
			c-0.875-2.693-3.364-4.503-6.194-4.503c-0.683,0-1.359,0.108-2.014,0.32c-2.08,0.675-3.628,2.312-4.217,4.356l-6.423,2.088
			c-0.83-1.48-1.9-2.899-3.2-4.243c1.92-2.667,4.131-5.769,5.44-7.712c2.398-3.563,3.338-4.103,6.013-4.698
			c0,0,0.045-0.01,0.145-0.01c2.983,0,11.804,5.558,14.273,13.159c2.726,8.389-2.195,18.352-3.937,19.112
			C355.606,241.203,354.725,241.435,353.83,241.435L353.83,241.435z M285.793,241.435c-0.896,0-1.777-0.231-3.144-0.824
			c-1.741-0.761-6.662-10.724-3.938-19.113c2.471-7.602,11.291-13.158,14.273-13.158c0.1,0,0.145,0.01,0.146,0.01
			c2.674,0.596,3.614,1.135,6.013,4.698c1.31,1.943,3.521,5.045,5.44,7.712c-1.3,1.344-2.371,2.764-3.201,4.243l-6.422-2.087
			c-0.588-2.045-2.136-3.682-4.218-4.357c-0.653-0.212-1.33-0.32-2.014-0.32c-2.83,0-5.318,1.81-6.193,4.503
			c-0.538,1.654-0.4,3.419,0.39,4.969c0.789,1.551,2.136,2.7,3.791,3.239c0.65,0.211,1.321,0.317,1.996,0.317
			c1.455,0,2.845-0.485,3.978-1.364l6.432,2.09c-0.149,0.986-0.223,1.933-0.223,2.86c0,0.826,0.056,1.653,0.164,2.499
			c-4.023,1.326-6.977,2.332-8.789,2.994C288.151,241.118,286.853,241.435,285.793,241.435 M311.144,216.056
			c-1.957-2.672-4.242-5.758-5.684-7.599c-2.646-3.383-2.87-4.443-2.61-7.171c0.188-1.89,8.144-9.647,16.962-9.647
			s16.774,7.758,16.961,9.647c0.261,2.728,0.037,3.788-2.61,7.17c-1.455,1.86-3.734,4.938-5.683,7.6
			c-1.68-0.804-3.334-1.361-4.996-1.685v-6.841c1.763-1.192,2.843-3.171,2.843-5.358c0-3.593-2.923-6.515-6.515-6.515
			c-3.593,0-6.515,2.922-6.515,6.515c0,2.187,1.079,4.164,2.841,5.357v6.843C314.477,214.694,312.823,215.252,311.144,216.056"/>
	</g>
</g>
<path style="fill:#00203F;" d="M151.96,406.09c-36.172,0-65.496,29.327-65.496,65.499s29.324,65.495,65.496,65.495
	s65.495-29.323,65.495-65.495S188.132,406.09,151.96,406.09"/>
<path style="fill:#79000C;" d="M151.96,417.428c-29.91,0-54.158,24.25-54.158,54.161c0,29.909,24.248,54.156,54.158,54.156
	s54.157-24.247,54.157-54.156C206.117,441.678,181.87,417.428,151.96,417.428"/>
<path style="fill:#FFFFFF;" d="M151.956,486.593c-8.272,0-15.005-6.731-15.005-15.005c0-8.274,6.732-15.007,15.005-15.007
	c8.281,0,15.014,6.732,15.014,15.007C166.97,479.861,160.237,486.593,151.956,486.593 M151.956,462.136
	c-5.211,0-9.451,4.24-9.451,9.452c0,5.211,4.24,9.45,9.451,9.45c5.22,0,9.459-4.239,9.459-9.45
	C161.415,466.376,157.176,462.136,151.956,462.136"/>
<path style="fill:#FFFFFF;" d="M151.956,527.954c-31.074,0-56.357-25.286-56.357-56.367c0-31.082,25.283-56.365,56.357-56.365
	c31.082,0,56.366,25.283,56.366,56.365C208.322,502.668,183.038,527.954,151.956,527.954 M151.956,419.604
	c-28.66,0-51.976,23.32-51.976,51.982s23.315,51.984,51.976,51.984c28.662,0,51.983-23.322,51.983-51.984
	S180.618,419.604,151.956,419.604"/>
<g>
	<g>
		<defs>
			<rect id="SVGID_7_" x="110.057" y="428.374" width="83.81" height="81.771"/>
		</defs>
		<clipPath id="SVGID_8_">
			<use xlink:href="#SVGID_7_"  style="overflow:visible;"/>
		</clipPath>
		<path style="clip-path:url(#SVGID_8_);fill:#EFEFEF;" d="M164.938,510.145c-4.347,0-6.63-1.051-6.97-1.434
			c-1.814-2.053-2.258-3.042-2.104-7.335c0.084-2.346,0.118-6.16,0.132-9.447c1.82-0.341,3.51-0.874,5.047-1.593l4.006,5.514
			c-0.725,2-0.436,4.234,0.85,6.004c1.224,1.684,3.195,2.688,5.275,2.688c1.383,0,2.705-0.432,3.824-1.244
			c2.905-2.112,3.553-6.194,1.441-9.1c-1.212-1.67-3.174-2.665-5.248-2.665c-0.065,0-0.131,0.001-0.197,0.003l-4.009-5.519
			c1.233-1.282,2.295-2.711,3.174-4.273c3.097,0.99,6.694,2.124,8.927,2.762c4.129,1.182,4.934,1.908,6.325,4.266
			c0.961,1.64-0.916,12.594-8.05,17.776C174.212,508.834,169.685,510.145,164.938,510.145 M138.982,510.145
			c-4.748,0-9.276-1.311-12.423-3.598c-7.135-5.184-9.012-16.137-8.051-17.776c1.393-2.357,2.196-3.085,6.326-4.266
			c2.232-0.638,5.83-1.771,8.926-2.762c0.88,1.563,1.94,2.991,3.176,4.274l-4.01,5.519c-0.066-0.002-0.133-0.003-0.198-0.003
			c-2.075,0-4.037,0.996-5.248,2.664c-1.022,1.407-1.437,3.13-1.164,4.848c0.272,1.719,1.198,3.228,2.606,4.252
			c1.119,0.813,2.441,1.244,3.823,1.244c2.081,0,4.052-1.005,5.275-2.688c1.285-1.769,1.575-4.003,0.851-6.003l4.006-5.514
			c1.538,0.719,3.227,1.251,5.047,1.592c0.017,4.321,0.061,7.494,0.132,9.447c0.153,4.293-0.29,5.282-2.104,7.334
			C145.612,509.094,143.328,510.145,138.982,510.145 M185.979,478.17c-1.06,0-2.358-0.316-4.482-1.09
			c-1.808-0.66-4.761-1.666-8.79-2.994c0.11-0.848,0.165-1.675,0.165-2.499c0-0.928-0.073-1.874-0.222-2.861l6.432-2.089
			c1.131,0.879,2.522,1.364,3.978,1.364c0.675,0,1.347-0.106,1.995-0.317c3.416-1.111,5.292-4.793,4.182-8.208
			c-0.875-2.693-3.364-4.503-6.194-4.503c-0.683,0-1.359,0.108-2.014,0.32c-2.08,0.675-3.628,2.312-4.217,4.356l-6.423,2.087
			c-0.83-1.479-1.9-2.898-3.2-4.242c1.92-2.667,4.131-5.769,5.44-7.712c2.398-3.563,3.338-4.103,6.013-4.698
			c0,0,0.045-0.01,0.145-0.01c2.983,0,11.804,5.558,14.273,13.159c2.726,8.389-2.195,18.352-3.937,19.112
			C187.755,477.938,186.873,478.17,185.979,478.17L185.979,478.17z M117.941,478.17c-0.896,0-1.777-0.231-3.144-0.824
			c-1.741-0.761-6.662-10.724-3.938-19.113c2.471-7.602,11.291-13.158,14.273-13.158c0.1,0,0.145,0.01,0.146,0.01
			c2.674,0.596,3.614,1.135,6.013,4.698c1.31,1.943,3.521,5.045,5.44,7.712c-1.3,1.344-2.371,2.764-3.201,4.244l-6.422-2.088
			c-0.588-2.045-2.136-3.682-4.218-4.357c-0.653-0.212-1.33-0.32-2.014-0.32c-2.83,0-5.318,1.81-6.193,4.503
			c-0.538,1.654-0.4,3.419,0.39,4.97c0.789,1.55,2.136,2.699,3.791,3.238c0.65,0.211,1.321,0.317,1.996,0.317
			c1.455,0,2.845-0.485,3.978-1.364l6.432,2.09c-0.149,0.986-0.223,1.933-0.223,2.86c0,0.826,0.056,1.653,0.164,2.499
			c-4.023,1.326-6.977,2.332-8.789,2.994C120.3,477.854,119.001,478.17,117.941,478.17 M143.292,452.791
			c-1.957-2.672-4.242-5.758-5.684-7.599c-2.646-3.383-2.87-4.443-2.61-7.171c0.188-1.89,8.144-9.647,16.962-9.647
			s16.774,7.758,16.961,9.647c0.261,2.728,0.037,3.788-2.61,7.17c-1.455,1.86-3.734,4.938-5.683,7.6
			c-1.68-0.805-3.334-1.361-4.996-1.685v-6.841c1.763-1.192,2.843-3.171,2.843-5.358c0-3.593-2.923-6.515-6.515-6.515
			c-3.593,0-6.515,2.922-6.515,6.515c0,2.187,1.079,4.165,2.841,5.357v6.843C146.625,451.43,144.972,451.986,143.292,452.791"/>
	</g>
</g>
<path style="fill:#00203F;" d="M274.894,406.09c-36.171,0-65.494,29.327-65.494,65.499s29.323,65.495,65.494,65.495
	c36.172,0,65.496-29.323,65.496-65.495S311.065,406.09,274.894,406.09"/>
<path style="fill:#79000C;" d="M274.894,417.428c-29.91,0-54.156,24.25-54.156,54.161c0,29.909,24.246,54.156,54.156,54.156
	c29.911,0,54.158-24.247,54.158-54.156C329.052,441.678,304.805,417.428,274.894,417.428"/>
<path style="fill:#FFFFFF;" d="M274.897,486.593c-8.28,0-15.013-6.731-15.013-15.005c0-8.274,6.732-15.007,15.013-15.007
	c8.273,0,15.006,6.732,15.006,15.007C289.903,479.861,283.171,486.593,274.897,486.593 M274.897,462.136
	c-5.219,0-9.459,4.24-9.459,9.452c0,5.211,4.24,9.45,9.459,9.45c5.211,0,9.451-4.239,9.451-9.45
	C284.349,466.376,280.108,462.136,274.897,462.136"/>
<path style="fill:#FFFFFF;" d="M274.897,527.954c-31.082,0-56.365-25.286-56.365-56.367c0-31.082,25.283-56.365,56.365-56.365
	c31.074,0,56.359,25.283,56.359,56.365C331.257,502.668,305.972,527.954,274.897,527.954 M274.897,419.604
	c-28.662,0-51.982,23.32-51.982,51.982s23.32,51.984,51.982,51.984c28.661,0,51.977-23.322,51.977-51.984
	S303.559,419.604,274.897,419.604"/>
<g>
	<g>
		<defs>
			<rect id="SVGID_9_" x="232.986" y="428.374" width="83.811" height="81.771"/>
		</defs>
		<clipPath id="SVGID_10_">
			<use xlink:href="#SVGID_9_"  style="overflow:visible;"/>
		</clipPath>
		<path style="clip-path:url(#SVGID_10_);fill:#EFEFEF;" d="M287.872,510.145c-4.346,0-6.63-1.051-6.971-1.434
			c-1.813-2.053-2.256-3.042-2.104-7.335c0.084-2.346,0.118-6.161,0.132-9.447c1.82-0.341,3.509-0.874,5.048-1.593l4.006,5.514
			c-0.726,2-0.437,4.234,0.849,6.004c1.224,1.684,3.196,2.688,5.276,2.688c1.382,0,2.703-0.432,3.823-1.244
			c2.905-2.112,3.552-6.194,1.441-9.1c-1.212-1.67-3.174-2.665-5.248-2.665c-0.065,0-0.131,0.001-0.197,0.003l-4.009-5.519
			c1.234-1.282,2.295-2.711,3.174-4.273c3.096,0.99,6.694,2.124,8.926,2.762c4.131,1.181,4.935,1.908,6.326,4.266
			c0.961,1.64-0.915,12.593-8.05,17.776C297.147,508.834,292.619,510.145,287.872,510.145 M261.917,510.145
			c-4.748,0-9.276-1.311-12.423-3.598c-7.136-5.184-9.011-16.137-8.05-17.776c1.392-2.357,2.195-3.085,6.326-4.266
			c2.231-0.638,5.829-1.771,8.926-2.762c0.879,1.563,1.94,2.991,3.175,4.274l-4.011,5.519c-0.065-0.002-0.131-0.003-0.197-0.003
			c-2.075,0-4.037,0.996-5.248,2.664c-2.11,2.905-1.463,6.987,1.441,9.099c1.121,0.813,2.442,1.245,3.824,1.245
			c2.081,0,4.053-1.005,5.275-2.688c1.285-1.769,1.575-4.003,0.851-6.003l4.007-5.514c1.537,0.719,3.226,1.251,5.045,1.592
			c0.015,3.287,0.049,7.103,0.132,9.446c0.153,4.294-0.289,5.283-2.103,7.335C268.547,509.094,266.263,510.145,261.917,510.145
			 M308.913,478.17c-1.061,0-2.358-0.316-4.482-1.09c-2.16-0.789-5.714-1.98-8.79-2.994c0.11-0.848,0.165-1.675,0.165-2.499
			c0-0.928-0.072-1.874-0.222-2.861l6.432-2.089c1.132,0.879,2.522,1.364,3.978,1.364c0.675,0,1.347-0.106,1.995-0.317
			c3.417-1.111,5.293-4.793,4.182-8.208c-0.875-2.693-3.364-4.503-6.194-4.503c-0.683,0-1.359,0.108-2.014,0.32
			c-2.08,0.675-3.628,2.312-4.217,4.356l-6.423,2.087c-0.83-1.479-1.9-2.898-3.2-4.242c1.92-2.667,4.131-5.769,5.439-7.712
			c2.399-3.563,3.34-4.103,6.014-4.698c0.001,0,0.046-0.01,0.146-0.01c2.982,0,11.802,5.558,14.272,13.159
			c2.726,8.389-2.194,18.352-3.937,19.112C310.69,477.938,309.808,478.17,308.913,478.17L308.913,478.17z M240.876,478.17
			c-0.895,0-1.777-0.231-3.145-0.824c-1.74-0.761-6.662-10.724-3.936-19.113c2.47-7.602,11.29-13.158,14.271-13.158
			c0.101,0,0.146,0.01,0.146,0.01c2.674,0.596,3.614,1.135,6.014,4.698c1.309,1.943,3.52,5.045,5.439,7.712
			c-1.3,1.344-2.371,2.764-3.201,4.244l-6.422-2.088c-0.588-2.045-2.137-3.683-4.218-4.357c-0.653-0.212-1.33-0.32-2.013-0.32
			c-2.83,0-5.319,1.81-6.194,4.503c-0.538,1.654-0.4,3.419,0.39,4.97c0.79,1.55,2.137,2.699,3.791,3.238
			c0.65,0.211,1.321,0.317,1.996,0.317c1.455,0,2.845-0.485,3.977-1.364l6.433,2.09c-0.149,0.986-0.222,1.933-0.222,2.86
			c0,0.826,0.055,1.653,0.164,2.499c-4.024,1.326-6.978,2.332-8.791,2.994C243.233,477.854,241.937,478.17,240.876,478.17
			 M266.228,452.791c-1.959-2.672-4.244-5.757-5.685-7.599c-2.647-3.383-2.87-4.443-2.61-7.171c0.188-1.89,8.144-9.647,16.961-9.647
			c8.819,0,16.775,7.758,16.963,9.647c0.26,2.728,0.036,3.788-2.611,7.17c-1.206,1.541-3.114,4.094-5.684,7.6
			c-1.679-0.805-3.334-1.361-4.994-1.685v-6.841c1.762-1.192,2.842-3.171,2.842-5.358c0-3.593-2.924-6.515-6.516-6.515
			s-6.514,2.922-6.514,6.515c0,2.187,1.079,4.165,2.841,5.357v6.843C269.56,451.43,267.906,451.986,266.228,452.791"/>
	</g>
</g>
<path style="fill:#00203F;" d="M151.96,280.474c-36.172,0-65.496,29.326-65.496,65.498s29.324,65.495,65.496,65.495
	s65.495-29.323,65.495-65.495S188.132,280.474,151.96,280.474"/>
<path style="fill:#79000C;" d="M151.96,291.812c-29.91,0-54.158,24.25-54.158,54.16c0,29.909,24.248,54.157,54.158,54.157
	s54.157-24.248,54.157-54.157C206.117,316.062,181.87,291.812,151.96,291.812"/>
<path style="fill:#FFFFFF;" d="M151.956,360.982c-8.272,0-15.005-6.732-15.005-15.013c0-8.273,6.732-15.006,15.005-15.006
	c8.281,0,15.014,6.732,15.014,15.006C166.97,354.25,160.237,360.982,151.956,360.982 M151.956,336.519
	c-5.211,0-9.451,4.24-9.451,9.451c0,5.219,4.24,9.459,9.451,9.459c5.22,0,9.459-4.24,9.459-9.459
	C161.415,340.759,157.176,336.519,151.956,336.519"/>
<path style="fill:#FFFFFF;" d="M151.956,402.336c-31.074,0-56.357-25.285-56.357-56.366c0-31.075,25.283-56.359,56.357-56.359
	c31.082,0,56.366,25.284,56.366,56.359C208.322,377.051,183.038,402.336,151.956,402.336 M151.956,293.994
	c-28.66,0-51.976,23.313-51.976,51.976c0,28.661,23.315,51.983,51.976,51.983c28.662,0,51.983-23.322,51.983-51.983
	C203.939,317.308,180.618,293.994,151.956,293.994"/>
<g>
	<g>
		<defs>
			<rect id="SVGID_11_" x="110.057" y="302.757" width="83.81" height="81.772"/>
		</defs>
		<clipPath id="SVGID_12_">
			<use xlink:href="#SVGID_11_"  style="overflow:visible;"/>
		</clipPath>
		<path style="clip-path:url(#SVGID_12_);fill:#EFEFEF;" d="M164.938,384.528c-4.346,0-6.63-1.051-6.971-1.435
			c-1.814-2.053-2.258-3.042-2.104-7.335c0.084-2.345,0.118-6.16,0.132-9.447c1.821-0.341,3.508-0.873,5.047-1.592l4.006,5.514
			c-0.725,2-0.436,4.234,0.85,6.004c1.224,1.683,3.195,2.687,5.275,2.687c1.383,0,2.705-0.432,3.824-1.244
			c2.905-2.112,3.553-6.194,1.441-9.1c-1.213-1.67-3.175-2.664-5.249-2.664c-0.065,0-0.13,0.001-0.196,0.003l-4.009-5.519
			c1.233-1.282,2.295-2.711,3.174-4.274c4.068,1.303,7.066,2.23,8.927,2.762c4.129,1.182,4.934,1.908,6.325,4.267
			c0.961,1.64-0.916,12.594-8.05,17.776C174.212,383.218,169.686,384.528,164.938,384.528 M138.981,384.528
			c-4.747,0-9.275-1.311-12.422-3.598c-7.135-5.184-9.012-16.136-8.051-17.776c1.393-2.357,2.195-3.085,6.328-4.267
			c1.842-0.526,4.84-1.453,8.927-2.762c0.878,1.552,1.95,2.993,3.175,4.272l-4.012,5.521c-0.066-0.002-0.133-0.003-0.198-0.003
			c-2.074,0-4.036,0.995-5.248,2.664c-1.022,1.407-1.437,3.13-1.164,4.848c0.272,1.719,1.198,3.228,2.606,4.252
			c1.119,0.813,2.441,1.244,3.823,1.244c2.081,0,4.052-1.005,5.275-2.687c1.285-1.768,1.575-4.003,0.85-6.003l4.007-5.515
			c1.538,0.719,3.227,1.251,5.047,1.592c0.017,4.321,0.061,7.494,0.132,9.447c0.153,4.294-0.29,5.282-2.104,7.334
			C145.611,383.478,143.327,384.528,138.981,384.528 M185.979,352.554c-1.06,0-2.359-0.317-4.482-1.091
			c-1.808-0.66-4.761-1.666-8.79-2.994c0.11-0.847,0.165-1.675,0.165-2.498c0-0.928-0.073-1.874-0.222-2.861l6.431-2.09
			c1.132,0.879,2.522,1.364,3.978,1.364c0.676,0,1.348-0.106,1.997-0.317c1.653-0.538,3.001-1.688,3.79-3.238
			c0.789-1.55,0.928-3.314,0.391-4.97c-0.875-2.692-3.364-4.502-6.194-4.502c-0.683,0-1.359,0.107-2.014,0.319
			c-2.08,0.676-3.628,2.313-4.217,4.357l-6.423,2.088c-0.829-1.481-1.9-2.9-3.2-4.244c1.925-2.674,4.139-5.778,5.44-7.712
			c2.398-3.563,3.338-4.103,6.013-4.698c0,0,0.045-0.01,0.145-0.01c2.982,0,11.804,5.558,14.273,13.159
			c2.726,8.389-2.195,18.353-3.937,19.113C187.755,352.321,186.873,352.554,185.979,352.554L185.979,352.554z M117.941,352.554
			c-0.896,0-1.777-0.232-3.144-0.824c-1.741-0.761-6.662-10.725-3.938-19.114c2.471-7.601,11.29-13.157,14.271-13.157
			c0.101,0,0.146,0.01,0.146,0.01c2.674,0.595,3.614,1.134,6.014,4.697c1.309,1.942,3.52,5.045,5.44,7.713
			c-1.3,1.343-2.371,2.763-3.201,4.243l-6.422-2.088c-0.588-2.043-2.136-3.681-4.217-4.357c-0.654-0.212-1.331-0.319-2.015-0.319
			c-2.83,0-5.318,1.81-6.193,4.502c-0.538,1.654-0.4,3.42,0.39,4.97c0.79,1.551,2.138,2.7,3.792,3.238
			c0.648,0.211,1.32,0.317,1.996,0.317c1.455,0,2.845-0.485,3.977-1.363l6.432,2.089c-0.149,0.987-0.223,1.934-0.223,2.861
			c0,0.825,0.056,1.652,0.164,2.498c-3.066,1.012-6.614,2.201-8.789,2.994C120.3,352.236,119.001,352.554,117.941,352.554
			 M143.292,327.175c-2.569-3.508-4.479-6.061-5.684-7.6c-2.646-3.382-2.87-4.442-2.61-7.17c0.188-1.89,8.144-9.648,16.962-9.648
			s16.774,7.759,16.961,9.648c0.261,2.728,0.037,3.788-2.61,7.17c-1.461,1.869-3.738,4.943-5.683,7.599
			c-1.68-0.805-3.334-1.361-4.996-1.685v-6.841c1.763-1.192,2.843-3.171,2.843-5.358c0-3.593-2.923-6.514-6.515-6.514
			c-3.593,0-6.515,2.921-6.515,6.514c0,2.188,1.079,4.166,2.841,5.357v6.843C146.626,325.813,144.973,326.369,143.292,327.175"/>
	</g>
</g>
<path style="fill:#00203F;" d="M274.894,280.474c-36.171,0-65.494,29.326-65.494,65.498s29.323,65.495,65.494,65.495
	c36.172,0,65.496-29.323,65.496-65.495S311.065,280.474,274.894,280.474"/>
<path style="fill:#79000C;" d="M274.894,291.812c-29.91,0-54.156,24.25-54.156,54.16c0,29.909,24.246,54.157,54.156,54.157
	c29.911,0,54.158-24.248,54.158-54.157C329.052,316.062,304.805,291.812,274.894,291.812"/>
<path style="fill:#FFFFFF;" d="M274.897,360.982c-8.28,0-15.013-6.732-15.013-15.013c0-8.273,6.732-15.006,15.013-15.006
	c8.273,0,15.006,6.732,15.006,15.006C289.903,354.25,283.171,360.982,274.897,360.982 M274.897,336.519
	c-5.219,0-9.459,4.24-9.459,9.451c0,5.219,4.24,9.459,9.459,9.459c5.211,0,9.451-4.24,9.451-9.459
	C284.349,340.759,280.108,336.519,274.897,336.519"/>
<path style="fill:#FFFFFF;" d="M274.897,402.336c-31.082,0-56.365-25.285-56.365-56.366c0-31.075,25.283-56.359,56.365-56.359
	c31.074,0,56.359,25.284,56.359,56.359C331.257,377.051,305.972,402.336,274.897,402.336 M274.897,293.994
	c-28.662,0-51.982,23.313-51.982,51.976c0,28.661,23.32,51.983,51.982,51.983c28.661,0,51.977-23.322,51.977-51.983
	C326.874,317.308,303.559,293.994,274.897,293.994"/>
<g>
	<g>
		<defs>
			<rect id="SVGID_13_" x="232.986" y="302.757" width="83.811" height="81.772"/>
		</defs>
		<clipPath id="SVGID_14_">
			<use xlink:href="#SVGID_13_"  style="overflow:visible;"/>
		</clipPath>
		<path style="clip-path:url(#SVGID_14_);fill:#EFEFEF;" d="M287.873,384.528c-4.347,0-6.63-1.051-6.972-1.435
			c-1.813-2.053-2.256-3.042-2.104-7.335c0.084-2.345,0.118-6.16,0.132-9.447c1.821-0.341,3.509-0.873,5.048-1.592l4.006,5.514
			c-0.726,2-0.437,4.234,0.849,6.004c1.224,1.683,3.196,2.687,5.276,2.687c1.382,0,2.703-0.432,3.823-1.244
			c2.905-2.112,3.552-6.194,1.441-9.1c-1.213-1.67-3.175-2.664-5.249-2.664c-0.065,0-0.13,0.001-0.196,0.003l-4.009-5.519
			c1.234-1.282,2.295-2.711,3.174-4.274c4.068,1.303,7.066,2.23,8.928,2.762c4.129,1.181,4.933,1.908,6.324,4.267
			c0.961,1.641-0.916,12.593-8.05,17.776C297.147,383.218,292.62,384.528,287.873,384.528 M261.916,384.528
			c-4.747,0-9.275-1.311-12.422-3.598c-7.134-5.184-9.011-16.136-8.05-17.776c1.392-2.357,2.194-3.085,6.326-4.267
			c1.843-0.526,4.84-1.453,8.926-2.761c0.88,1.563,1.94,2.991,3.175,4.273l-4.011,5.519c-0.065-0.002-0.131-0.003-0.197-0.003
			c-2.074,0-4.036,0.995-5.248,2.664c-2.11,2.905-1.463,6.987,1.441,9.099c1.121,0.813,2.442,1.245,3.824,1.245
			c2.081,0,4.053-1.005,5.275-2.687c1.285-1.768,1.575-4.003,0.85-6.003l4.008-5.515c1.537,0.719,3.226,1.251,5.045,1.592
			c0.015,3.288,0.049,7.103,0.132,9.446c0.153,4.295-0.289,5.283-2.103,7.335C268.547,383.478,266.262,384.528,261.916,384.528
			 M308.913,352.554c-1.061,0-2.359-0.317-4.482-1.091c-2.16-0.789-5.714-1.98-8.79-2.994c0.11-0.847,0.165-1.675,0.165-2.498
			c0-0.928-0.072-1.874-0.222-2.861l6.431-2.09c1.131,0.879,2.522,1.364,3.978,1.364c0.676,0,1.348-0.106,1.997-0.317
			c1.653-0.538,3.001-1.688,3.791-3.238c0.789-1.55,0.928-3.315,0.39-4.97c-0.875-2.692-3.364-4.502-6.194-4.502
			c-0.683,0-1.359,0.107-2.014,0.319c-2.08,0.676-3.628,2.313-4.217,4.357l-6.423,2.088c-0.829-1.481-1.9-2.9-3.2-4.244
			c1.925-2.674,4.139-5.778,5.439-7.712c2.399-3.563,3.34-4.103,6.014-4.698c0,0,0.045-0.01,0.145-0.01
			c2.983,0,11.803,5.558,14.273,13.159c2.726,8.389-2.195,18.353-3.937,19.113C310.69,352.321,309.808,352.554,308.913,352.554
			L308.913,352.554z M240.876,352.554c-0.895,0-1.777-0.232-3.145-0.824c-1.74-0.761-6.662-10.725-3.936-19.114
			c2.47-7.601,11.289-13.157,14.271-13.157c0.1,0,0.146,0.01,0.146,0.01c2.674,0.595,3.614,1.134,6.015,4.697
			c1.308,1.942,3.519,5.045,5.439,7.713c-1.3,1.343-2.371,2.762-3.201,4.243l-6.422-2.088c-0.588-2.044-2.136-3.681-4.217-4.357
			c-0.654-0.212-1.331-0.319-2.014-0.319c-2.83,0-5.319,1.81-6.194,4.502c-0.538,1.654-0.4,3.42,0.39,4.97
			c0.79,1.551,2.137,2.7,3.791,3.238c0.649,0.211,1.321,0.317,1.997,0.317c1.455,0,2.845-0.485,3.976-1.363l6.433,2.089
			c-0.149,0.987-0.222,1.934-0.222,2.861c0,0.825,0.055,1.652,0.164,2.498c-3.068,1.012-6.615,2.201-8.789,2.994
			C243.233,352.236,241.937,352.554,240.876,352.554 M266.228,327.175c-2.57-3.507-4.479-6.061-5.685-7.6
			c-2.647-3.382-2.87-4.442-2.61-7.17c0.188-1.89,8.144-9.648,16.961-9.648c8.819,0,16.775,7.759,16.963,9.648
			c0.26,2.728,0.036,3.788-2.611,7.17c-1.44,1.842-3.725,4.927-5.684,7.599c-1.679-0.805-3.334-1.361-4.994-1.685v-6.841
			c1.762-1.192,2.842-3.171,2.842-5.358c0-3.593-2.924-6.514-6.516-6.514s-6.514,2.921-6.514,6.514c0,2.188,1.079,4.166,2.841,5.357
			v6.843C269.562,325.813,267.907,326.369,266.228,327.175"/>
	</g>
</g>
<g>
</g>
<g>
</g>
<g>
</g>
<g>
</g>
<g>
</g>
<g>
</g>
</svg>
