<?xml version="1.0" encoding="iso-8859-1"?>
<!-- Generator: Adobe Illustrator 16.0.0, SVG Export Plug-In . SVG Version: 6.00 Build 0)  -->
<!DOCTYPE svg PUBLIC "-//W3C//DTD SVG 1.1//EN" "http://www.w3.org/Graphics/SVG/1.1/DTD/svg11.dtd">
<svg version="1.1" id="&#x30EC;&#x30A4;&#x30E4;&#x30FC;_1"
	 xmlns="http://www.w3.org/2000/svg" xmlns:xlink="http://www.w3.org/1999/xlink" x="0px" y="0px" width="426.853px"
	 height="580.189px" viewBox="0 0 426.853 580.189" style="enable-background:new 0 0 426.853 580.189;" xml:space="preserve">
<path style="fill:#00203F;" d="M151.96,39.45c-36.173,0-65.496,29.327-65.496,65.499s29.323,65.495,65.496,65.495
	c36.172,0,65.494-29.323,65.494-65.495S188.132,39.45,151.96,39.45"/>
<path style="fill:#00394B;" d="M151.96,50.788c-29.91,0-54.158,24.25-54.158,54.161c0,29.909,24.248,54.156,54.158,54.156
	c29.909,0,54.157-24.247,54.157-54.156C206.117,75.038,181.869,50.788,151.96,50.788"/>
<path style="fill:#FFFFFF;" d="M151.962,119.955c-8.279,0-15.013-6.733-15.013-15.006c0-8.28,6.733-15.014,15.013-15.014
	c8.273,0,15.006,6.733,15.006,15.014C166.968,113.222,160.235,119.955,151.962,119.955 M151.962,95.491
	c-5.219,0-9.459,4.24-9.459,9.458c0,5.211,4.24,9.452,9.459,9.452c5.211,0,9.451-4.241,9.451-9.452
	C161.413,99.731,157.173,95.491,151.962,95.491"/>
<path style="fill:#FFFFFF;" d="M151.962,161.309c-31.08,0-56.365-25.285-56.365-56.36c0-31.081,25.285-56.365,56.365-56.365
	c31.074,0,56.359,25.284,56.359,56.365C208.321,136.023,183.036,161.309,151.962,161.309 M151.962,52.966
	c-28.66,0-51.982,23.321-51.982,51.982c0,28.663,23.322,51.978,51.982,51.978c28.661,0,51.977-23.314,51.977-51.978
	C203.938,76.287,180.623,52.966,151.962,52.966"/>
<g>
	<g>
		<defs>
			<rect id="SVGID_1_" x="110.06" y="61.734" width="83.799" height="81.771"/>
		</defs>
		<clipPath id="SVGID_2_">
			<use xlink:href="#SVGID_1_"  style="overflow:visible;"/>
		</clipPath>
		<path style="clip-path:url(#SVGID_2_);fill:#EFEFEF;" d="M164.938,143.505c-4.347,0-6.632-1.051-6.972-1.435
			c-1.813-2.053-2.256-3.042-2.104-7.334c0.084-2.341,0.119-6.158,0.133-9.447c1.82-0.341,3.508-0.874,5.047-1.593l4.006,5.514
			c-0.726,2-0.436,4.235,0.85,6.004c1.223,1.683,3.195,2.688,5.275,2.688c1.381,0,2.703-0.432,3.824-1.244
			c2.906-2.112,3.553-6.194,1.441-9.101c-1.213-1.669-3.174-2.664-5.248-2.664c-0.066,0-0.131,0.001-0.198,0.003l-4.009-5.519
			c1.234-1.283,2.296-2.711,3.175-4.273c3.095,0.99,6.692,2.123,8.925,2.762c4.131,1.181,4.934,1.908,6.326,4.266
			c0.961,1.64-0.915,12.592-8.05,17.776C174.212,142.194,169.685,143.505,164.938,143.505 M138.981,143.505
			c-4.747,0-9.275-1.311-12.422-3.598c-7.137-5.185-9.012-16.137-8.051-17.776c1.392-2.357,2.195-3.084,6.326-4.266
			c2.233-0.639,5.83-1.771,8.926-2.762c0.879,1.563,1.94,2.991,3.174,4.273l-4.008,5.52c-0.067-0.002-0.133-0.003-0.199-0.003
			c-2.074,0-4.035,0.995-5.248,2.663c-2.11,2.906-1.463,6.988,1.441,9.1c1.121,0.813,2.443,1.245,3.825,1.245
			c2.081,0,4.052-1.005,5.274-2.688c1.285-1.769,1.576-4.003,0.851-6.003l4.007-5.514c1.537,0.719,3.225,1.251,5.047,1.592
			c0.017,4.321,0.061,7.494,0.131,9.447c0.154,4.292-0.289,5.281-2.104,7.335C145.612,142.454,143.328,143.505,138.981,143.505
			 M185.978,111.53c-1.059,0-2.358-0.316-4.482-1.09c-1.813-0.662-4.765-1.668-8.789-2.994c0.109-0.846,0.164-1.673,0.164-2.499
			c0-0.93-0.072-1.876-0.221-2.861l6.431-2.089c1.132,0.879,2.522,1.364,3.978,1.364c0.676,0,1.347-0.106,1.994-0.317
			c3.418-1.11,5.293-4.792,4.184-8.208c-0.876-2.693-3.365-4.503-6.193-4.503c-0.685,0-1.361,0.107-2.016,0.32
			c-2.08,0.675-3.628,2.313-4.217,4.356l-6.424,2.088c-0.828-1.48-1.899-2.899-3.198-4.243c2.519-3.499,4.346-6.091,5.438-7.712
			c2.399-3.563,3.34-4.103,6.014-4.698c0,0,0.045-0.01,0.146-0.01c2.983,0,11.804,5.558,14.272,13.159
			c2.725,8.388-2.194,18.352-3.936,19.112c-1.367,0.593-2.249,0.824-3.143,0.824H185.978z M117.94,111.53
			c-0.895,0-1.777-0.231-3.145-0.824c-1.74-0.761-6.66-10.726-3.936-19.113c2.471-7.602,11.291-13.158,14.273-13.158
			c0.1,0,0.145,0.01,0.146,0.01c2.673,0.596,3.612,1.135,6.013,4.698c1.094,1.623,2.92,4.213,5.439,7.712
			c-1.301,1.345-2.371,2.764-3.2,4.243l-6.423-2.087c-0.588-2.045-2.137-3.682-4.217-4.357c-0.653-0.213-1.332-0.32-2.014-0.32
			c-2.83,0-5.32,1.81-6.195,4.503c-1.109,3.416,0.767,7.098,4.183,8.208c0.649,0.211,1.319,0.317,1.995,0.317
			c1.456,0,2.846-0.486,3.977-1.364l6.432,2.09c-0.148,0.985-0.221,1.932-0.221,2.86c0,0.824,0.055,1.65,0.164,2.499
			c-4.029,1.328-6.981,2.334-8.791,2.994C120.298,111.214,119.001,111.53,117.94,111.53 M143.292,86.151
			c-1.945-2.655-4.223-5.73-5.685-7.599c-2.647-3.383-2.87-4.443-2.61-7.171c0.188-1.89,8.143-9.647,16.963-9.647
			c8.818,0,16.773,7.757,16.961,9.647c0.26,2.728,0.036,3.788-2.611,7.17c-1.204,1.539-3.113,4.092-5.684,7.6
			c-1.679-0.804-3.332-1.361-4.994-1.685v-6.842c1.762-1.191,2.842-3.17,2.842-5.357c0-3.593-2.922-6.515-6.514-6.515
			c-3.593,0-6.516,2.922-6.516,6.515c0,2.188,1.08,4.164,2.842,5.357v6.842C146.626,84.79,144.972,85.348,143.292,86.151"/>
	</g>
</g>
<path style="fill:#00203F;" d="M274.894,39.45c-36.172,0-65.494,29.327-65.494,65.499s29.322,65.495,65.494,65.495
	s65.495-29.323,65.495-65.495S311.065,39.45,274.894,39.45"/>
<path style="fill:#00394B;" d="M274.894,50.788c-29.91,0-54.158,24.25-54.158,54.161c0,29.909,24.248,54.156,54.158,54.156
	s54.158-24.247,54.158-54.156C329.052,75.038,304.804,50.788,274.894,50.788"/>
<path style="fill:#FFFFFF;" d="M274.896,119.955c-8.279,0-15.013-6.733-15.013-15.006c0-8.28,6.733-15.014,15.013-15.014
	c8.273,0,15.006,6.733,15.006,15.014C289.901,113.222,283.169,119.955,274.896,119.955 M274.896,95.491
	c-5.218,0-9.459,4.24-9.459,9.458c0,5.211,4.241,9.452,9.459,9.452c5.211,0,9.451-4.241,9.451-9.452
	C284.347,99.731,280.106,95.491,274.896,95.491"/>
<path style="fill:#FFFFFF;" d="M274.896,161.309c-31.08,0-56.365-25.285-56.365-56.36c0-31.081,25.285-56.365,56.365-56.365
	c31.074,0,56.359,25.284,56.359,56.365C331.255,136.023,305.97,161.309,274.896,161.309 M274.896,52.966
	c-28.66,0-51.982,23.321-51.982,51.982c0,28.663,23.322,51.978,51.982,51.978c28.661,0,51.977-23.314,51.977-51.978
	C326.872,76.287,303.557,52.966,274.896,52.966"/>
<g>
	<g>
		<defs>
			<rect id="SVGID_3_" x="232.989" y="61.734" width="83.81" height="81.771"/>
		</defs>
		<clipPath id="SVGID_4_">
			<use xlink:href="#SVGID_3_"  style="overflow:visible;"/>
		</clipPath>
		<path style="clip-path:url(#SVGID_4_);fill:#EFEFEF;" d="M287.872,143.505c-4.346,0-6.631-1.051-6.971-1.434
			c-1.814-2.054-2.258-3.043-2.104-7.335c0.084-2.342,0.119-6.158,0.133-9.447c1.82-0.341,3.509-0.874,5.046-1.593l4.006,5.514
			c-0.725,2.001-0.435,4.235,0.851,6.004c1.223,1.683,3.194,2.688,5.274,2.688c1.383,0,2.705-0.432,3.825-1.244
			c2.905-2.112,3.552-6.194,1.441-9.101c-1.212-1.669-3.175-2.664-5.248-2.664c-0.066,0-0.132,0.001-0.198,0.003l-4.009-5.519
			c1.235-1.283,2.296-2.711,3.175-4.273c3.096,0.99,6.691,2.123,8.926,2.762c4.129,1.181,4.934,1.908,6.326,4.266
			c0.961,1.64-0.917,12.592-8.051,17.776C297.147,142.194,292.618,143.505,287.872,143.505 M261.916,143.505
			c-4.747,0-9.275-1.311-12.423-3.598c-7.137-5.185-9.012-16.137-8.049-17.776c1.392-2.357,2.195-3.085,6.326-4.266
			c2.232-0.639,5.829-1.771,8.924-2.762c0.879,1.563,1.941,2.991,3.176,4.273l-4.01,5.52c-0.066-0.002-0.133-0.003-0.199-0.003
			c-2.073,0-4.034,0.995-5.247,2.663c-2.11,2.906-1.464,6.988,1.44,9.1c1.123,0.813,2.444,1.245,3.826,1.245
			c2.081,0,4.053-1.005,5.273-2.688c1.287-1.769,1.576-4.003,0.852-6.003l4.006-5.514c1.538,0.719,3.227,1.251,5.047,1.592
			c0.018,4.321,0.062,7.494,0.133,9.447c0.152,4.292-0.291,5.281-2.104,7.335C268.547,142.454,266.263,143.505,261.916,143.505
			 M308.913,111.53c-1.061,0-2.359-0.316-4.483-1.09c-1.812-0.662-4.765-1.668-8.789-2.994c0.109-0.846,0.164-1.673,0.164-2.499
			c0-0.93-0.073-1.876-0.221-2.861l6.431-2.089c1.131,0.879,2.521,1.364,3.979,1.364c0.675,0,1.346-0.106,1.994-0.317
			c3.416-1.11,5.293-4.792,4.183-8.208c-0.875-2.693-3.364-4.503-6.194-4.503c-0.683,0-1.361,0.107-2.015,0.32
			c-2.08,0.676-3.628,2.313-4.216,4.356l-6.424,2.088c-0.83-1.48-1.899-2.898-3.199-4.243c2.519-3.499,4.346-6.091,5.439-7.712
			c2.398-3.563,3.338-4.103,6.012-4.698c0.002,0,0.047-0.01,0.146-0.01c2.982,0,11.803,5.558,14.273,13.159
			c2.724,8.388-2.195,18.352-3.937,19.112C310.69,111.299,309.808,111.53,308.913,111.53L308.913,111.53z M240.875,111.53
			c-0.896,0-1.777-0.231-3.144-0.824c-1.74-0.761-6.66-10.726-3.937-19.113c2.471-7.602,11.291-13.158,14.272-13.158
			c0.101,0,0.146,0.01,0.146,0.01c2.673,0.596,3.613,1.135,6.014,4.698c1.092,1.621,2.92,4.213,5.438,7.712
			c-1.3,1.345-2.371,2.764-3.2,4.243l-6.423-2.087c-0.589-2.045-2.136-3.682-4.218-4.357c-0.652-0.213-1.33-0.32-2.014-0.32
			c-2.83,0-5.318,1.81-6.193,4.503c-1.11,3.416,0.766,7.098,4.182,8.208c0.648,0.211,1.32,0.317,1.995,0.317
			c1.456,0,2.846-0.486,3.978-1.364l6.432,2.09c-0.148,0.984-0.221,1.931-0.221,2.86c0,0.826,0.055,1.653,0.164,2.499
			c-4.025,1.326-6.978,2.332-8.791,2.994C243.233,111.214,241.935,111.53,240.875,111.53 M266.226,86.151
			c-1.943-2.654-4.22-5.729-5.683-7.599c-2.647-3.383-2.871-4.443-2.611-7.171c0.187-1.89,8.144-9.647,16.962-9.647
			c8.819,0,16.774,7.757,16.961,9.647c0.26,2.728,0.037,3.788-2.609,7.17c-1.444,1.846-3.729,4.93-5.684,7.6
			c-1.68-0.804-3.334-1.361-4.994-1.685v-6.841c1.762-1.192,2.842-3.171,2.842-5.358c0-3.593-2.924-6.515-6.516-6.515
			s-6.515,2.922-6.515,6.515c0,2.187,1.08,4.164,2.842,5.357v6.842C269.56,84.79,267.905,85.348,266.226,86.151"/>
	</g>
</g>
<path style="fill:#00203F;" d="M151.96,163.045c-36.173,0-65.496,29.327-65.496,65.499s29.323,65.495,65.496,65.495
	c36.172,0,65.494-29.323,65.494-65.495S188.132,163.045,151.96,163.045"/>
<path style="fill:#00394B;" d="M151.96,174.383c-29.91,0-54.158,24.25-54.158,54.16c0,29.911,24.248,54.158,54.158,54.158
	c29.909,0,54.157-24.247,54.157-54.158C206.117,198.633,181.869,174.383,151.96,174.383"/>
<path style="fill:#FFFFFF;" d="M151.962,243.553c-8.279,0-15.013-6.733-15.013-15.013c0-8.273,6.733-15.007,15.013-15.007
	c8.273,0,15.006,6.733,15.006,15.007C166.968,236.819,160.235,243.553,151.962,243.553 M151.962,219.089
	c-5.219,0-9.459,4.24-9.459,9.451c0,5.218,4.24,9.458,9.459,9.458c5.211,0,9.451-4.24,9.451-9.458
	C161.413,223.329,157.173,219.089,151.962,219.089"/>
<path style="fill:#FFFFFF;" d="M151.962,284.906c-31.08,0-56.365-25.285-56.365-56.366c0-31.075,25.285-56.359,56.365-56.359
	c31.074,0,56.359,25.284,56.359,56.359C208.321,259.621,183.036,284.906,151.962,284.906 M151.962,176.563
	c-28.66,0-51.982,23.314-51.982,51.977c0,28.661,23.322,51.983,51.982,51.983c28.661,0,51.977-23.322,51.977-51.983
	C203.938,199.878,180.623,176.563,151.962,176.563"/>
<g>
	<g>
		<defs>
			<rect id="SVGID_5_" x="110.06" y="185.328" width="83.799" height="81.771"/>
		</defs>
		<clipPath id="SVGID_6_">
			<use xlink:href="#SVGID_5_"  style="overflow:visible;"/>
		</clipPath>
		<path style="clip-path:url(#SVGID_6_);fill:#EFEFEF;" d="M164.938,267.1c-4.347,0-6.632-1.051-6.972-1.435
			c-1.813-2.054-2.256-3.043-2.104-7.335c0.084-2.341,0.119-6.157,0.133-9.447c1.821-0.341,3.51-0.873,5.047-1.592l4.006,5.514
			c-0.726,2-0.437,4.235,0.85,6.004c1.223,1.683,3.195,2.687,5.275,2.687c1.381-0.001,2.703-0.432,3.824-1.244
			c1.407-1.023,2.333-2.532,2.605-4.251c0.271-1.719-0.141-3.441-1.165-4.85c-1.212-1.668-3.173-2.664-5.247-2.664
			c-0.066,0-0.131,0.002-0.198,0.004l-4.009-5.519c1.234-1.283,2.296-2.711,3.175-4.273c3.095,0.99,6.692,2.122,8.925,2.762
			c4.131,1.18,4.934,1.907,6.326,4.266c0.961,1.64-0.915,12.592-8.05,17.776C174.212,265.789,169.685,267.1,164.938,267.1
			 M138.981,267.1c-4.747,0-9.275-1.311-12.422-3.598c-7.137-5.185-9.012-16.136-8.051-17.776c1.392-2.357,2.195-3.084,6.326-4.266
			c2.233-0.64,5.83-1.771,8.926-2.762c0.879,1.563,1.939,2.99,3.174,4.273l-4.008,5.519c-0.066-0.002-0.133-0.004-0.199-0.004
			c-2.073,0-4.035,0.996-5.248,2.665c-1.022,1.407-1.436,3.13-1.164,4.849c0.273,1.719,1.199,3.228,2.605,4.251
			c1.121,0.813,2.443,1.244,3.825,1.244c2.08,0,4.052-1.004,5.274-2.686c1.285-1.77,1.576-4.004,0.851-6.005l4.007-5.514
			c1.536,0.719,3.225,1.251,5.047,1.592c0.017,4.321,0.061,7.495,0.131,9.448c0.154,4.292-0.289,5.28-2.104,7.335
			C145.612,266.049,143.328,267.1,138.981,267.1 M185.978,235.125c-1.059,0-2.358-0.317-4.482-1.091
			c-1.813-0.662-4.765-1.668-8.789-2.994c0.109-0.847,0.164-1.673,0.164-2.498c0-0.931-0.072-1.876-0.221-2.861l6.43-2.09
			c1.133,0.879,2.523,1.365,3.979,1.365c0.676,0,1.347-0.106,1.994-0.317c3.418-1.111,5.293-4.793,4.184-8.209
			c-0.876-2.693-3.365-4.502-6.193-4.502c-0.684,0-1.361,0.107-2.016,0.32c-2.08,0.675-3.628,2.313-4.217,4.356l-6.424,2.087
			c-0.828-1.479-1.899-2.899-3.198-4.243c1.921-2.669,4.133-5.771,5.438-7.712c2.398-3.562,3.34-4.102,6.014-4.697
			c0,0,0.045-0.01,0.146-0.01c2.983,0,11.804,5.557,14.272,13.158c2.725,8.388-2.194,18.353-3.936,19.113
			C187.755,234.893,186.873,235.125,185.978,235.125 M117.94,235.125c-0.895,0-1.777-0.232-3.145-0.824
			c-1.74-0.761-6.66-10.726-3.936-19.113c2.471-7.602,11.291-13.158,14.273-13.158c0.1,0,0.145,0.01,0.146,0.01
			c2.673,0.596,3.612,1.135,6.013,4.697c1.094,1.623,2.92,4.214,5.439,7.713c-1.301,1.345-2.37,2.763-3.2,4.242l-6.423-2.087
			c-0.588-2.044-2.137-3.681-4.217-4.356c-0.654-0.213-1.332-0.32-2.014-0.32c-2.83,0-5.32,1.809-6.195,4.502
			c-1.109,3.416,0.767,7.098,4.183,8.209c0.649,0.211,1.319,0.317,1.995,0.317c1.456,0,2.846-0.486,3.977-1.364l6.432,2.089
			c-0.148,0.986-0.221,1.933-0.221,2.861c0,0.823,0.055,1.65,0.164,2.498c-3.07,1.013-6.621,2.203-8.789,2.994
			C120.298,234.808,119.001,235.125,117.94,235.125 M143.292,209.746c-1.951-2.662-4.23-5.742-5.685-7.6
			c-2.647-3.382-2.87-4.442-2.61-7.17c0.188-1.89,8.143-9.648,16.963-9.648c8.818,0,16.773,7.758,16.961,9.648
			c0.26,2.728,0.036,3.788-2.611,7.17c-1.447,1.851-3.729,4.933-5.684,7.599c-1.678-0.804-3.332-1.36-4.994-1.684v-6.842
			c1.762-1.192,2.842-3.17,2.842-5.358c0-3.593-2.922-6.514-6.514-6.514c-3.593,0-6.516,2.921-6.516,6.514
			c0,2.188,1.08,4.165,2.842,5.358v6.842C146.626,208.385,144.972,208.941,143.292,209.746"/>
	</g>
</g>
<path style="fill:#00203F;" d="M274.894,163.045c-36.172,0-65.494,29.327-65.494,65.499s29.322,65.495,65.494,65.495
	s65.495-29.323,65.495-65.495S311.065,163.045,274.894,163.045"/>
<path style="fill:#00394B;" d="M274.894,174.383c-29.91,0-54.158,24.25-54.158,54.16c0,29.911,24.248,54.158,54.158,54.158
	s54.158-24.247,54.158-54.158C329.052,198.633,304.804,174.383,274.894,174.383"/>
<path style="fill:#FFFFFF;" d="M274.896,243.553c-8.279,0-15.013-6.733-15.013-15.013c0-8.273,6.733-15.007,15.013-15.007
	c8.273,0,15.006,6.733,15.006,15.007C289.901,236.819,283.169,243.553,274.896,243.553 M274.896,219.089
	c-5.218,0-9.459,4.24-9.459,9.451c0,5.218,4.241,9.458,9.459,9.458c5.211,0,9.451-4.24,9.451-9.458
	C284.347,223.329,280.106,219.089,274.896,219.089"/>
<path style="fill:#FFFFFF;" d="M274.896,284.906c-31.08,0-56.365-25.285-56.365-56.366c0-31.075,25.285-56.359,56.365-56.359
	c31.074,0,56.359,25.284,56.359,56.359C331.255,259.621,305.97,284.906,274.896,284.906 M274.896,176.563
	c-28.66,0-51.982,23.314-51.982,51.977c0,28.661,23.322,51.983,51.982,51.983c28.661,0,51.977-23.322,51.977-51.983
	C326.872,199.878,303.557,176.563,274.896,176.563"/>
<g>
	<g>
		<defs>
			<rect id="SVGID_7_" x="232.989" y="185.328" width="83.81" height="81.771"/>
		</defs>
		<clipPath id="SVGID_8_">
			<use xlink:href="#SVGID_7_"  style="overflow:visible;"/>
		</clipPath>
		<path style="clip-path:url(#SVGID_8_);fill:#EFEFEF;" d="M287.872,267.1c-4.346,0-6.631-1.051-6.971-1.434
			c-1.813-2.055-2.258-3.044-2.104-7.336c0.084-2.341,0.119-6.157,0.133-9.447c1.821-0.341,3.509-0.873,5.046-1.592l4.006,5.514
			c-0.725,2-0.436,4.235,0.851,6.004c1.223,1.683,3.194,2.687,5.274,2.687c1.383-0.001,2.705-0.432,3.825-1.244
			c1.407-1.023,2.333-2.532,2.606-4.251c0.271-1.719-0.143-3.441-1.166-4.85c-1.211-1.668-3.174-2.664-5.247-2.664
			c-0.066,0-0.132,0.002-0.198,0.004l-4.009-5.519c1.235-1.283,2.296-2.711,3.175-4.273c3.096,0.99,6.691,2.122,8.926,2.762
			c4.129,1.18,4.932,1.907,6.326,4.266c0.961,1.64-0.917,12.592-8.051,17.776C297.147,265.789,292.618,267.1,287.872,267.1
			 M261.916,267.1c-4.747,0-9.275-1.311-12.423-3.598c-7.135-5.185-9.012-16.136-8.049-17.776c1.392-2.357,2.195-3.085,6.326-4.266
			c2.232-0.64,5.829-1.771,8.924-2.762c0.879,1.563,1.94,2.99,3.176,4.273l-4.01,5.519c-0.065-0.002-0.131-0.004-0.197-0.004
			c-2.074,0-4.036,0.996-5.249,2.665c-1.022,1.407-1.435,3.13-1.164,4.849c0.272,1.719,1.198,3.228,2.606,4.251
			c1.121,0.813,2.442,1.244,3.824,1.244c2.08,0,4.053-1.004,5.273-2.686c1.287-1.77,1.576-4.004,0.852-6.005l4.006-5.514
			c1.537,0.719,3.225,1.251,5.047,1.592c0.018,4.321,0.062,7.495,0.133,9.448c0.152,4.292-0.291,5.28-2.104,7.335
			C268.547,266.049,266.263,267.1,261.916,267.1 M308.913,235.125c-1.061,0-2.359-0.317-4.483-1.091
			c-1.812-0.662-4.765-1.668-8.789-2.994c0.109-0.847,0.164-1.673,0.164-2.498c0-0.931-0.073-1.876-0.221-2.861l6.43-2.09
			c1.132,0.879,2.522,1.365,3.979,1.365c0.675,0,1.346-0.106,1.994-0.317c3.416-1.111,5.293-4.793,4.183-8.209
			c-0.875-2.693-3.364-4.502-6.194-4.502c-0.683,0-1.359,0.107-2.015,0.32c-2.08,0.676-3.628,2.313-4.216,4.356l-6.424,2.087
			c-0.828-1.479-1.899-2.898-3.199-4.243c1.921-2.669,4.133-5.771,5.439-7.712c2.397-3.562,3.338-4.102,6.012-4.697
			c0.002,0,0.047-0.01,0.146-0.01c2.982,0,11.803,5.557,14.273,13.158c2.724,8.388-2.195,18.353-3.937,19.113
			C310.69,234.893,309.808,235.125,308.913,235.125L308.913,235.125z M240.875,235.125c-0.896,0-1.777-0.232-3.144-0.824
			c-1.74-0.761-6.66-10.726-3.937-19.113c2.471-7.602,11.291-13.158,14.272-13.158c0.101,0,0.146,0.01,0.146,0.01
			c2.673,0.596,3.613,1.135,6.014,4.697c1.092,1.622,2.92,4.214,5.438,7.713c-1.3,1.345-2.37,2.763-3.2,4.242l-6.423-2.087
			c-0.589-2.044-2.136-3.681-4.218-4.356c-0.653-0.213-1.33-0.32-2.014-0.32c-2.83,0-5.318,1.809-6.193,4.502
			c-1.11,3.416,0.766,7.098,4.182,8.209c0.648,0.211,1.32,0.317,1.995,0.317c1.456,0,2.846-0.486,3.978-1.364l6.432,2.089
			c-0.148,0.985-0.221,1.931-0.221,2.861c0,0.825,0.055,1.651,0.164,2.498c-3.068,1.012-6.617,2.201-8.789,2.994
			C243.233,234.808,241.935,235.125,240.875,235.125 M266.226,209.746c-1.949-2.661-4.229-5.739-5.683-7.599
			c-2.647-3.383-2.871-4.443-2.611-7.171c0.187-1.89,8.144-9.648,16.962-9.648c8.819,0,16.774,7.758,16.961,9.648
			c0.26,2.728,0.037,3.788-2.609,7.17c-1.459,1.865-3.737,4.941-5.684,7.599c-1.679-0.804-3.332-1.36-4.994-1.684v-6.841
			c1.762-1.193,2.842-3.171,2.842-5.359c0-3.593-2.924-6.514-6.516-6.514s-6.515,2.921-6.515,6.514c0,2.188,1.08,4.165,2.842,5.358
			v6.842C269.56,208.385,267.905,208.941,266.226,209.746"/>
	</g>
</g>
<path style="fill:#00203F;" d="M151.96,286.396c-36.173,0-65.496,29.326-65.496,65.498s29.323,65.495,65.496,65.495
	c36.172,0,65.494-29.323,65.494-65.495S188.132,286.396,151.96,286.396"/>
<path style="fill:#00394B;" d="M151.96,297.732c-29.91,0-54.158,24.251-54.158,54.161c0,29.909,24.248,54.157,54.158,54.157
	c29.909,0,54.157-24.248,54.157-54.157C206.117,321.983,181.869,297.732,151.96,297.732"/>
<path style="fill:#FFFFFF;" d="M151.962,366.9c-8.279,0-15.013-6.733-15.013-15.006c0-8.28,6.733-15.012,15.013-15.012
	c8.273,0,15.006,6.731,15.006,15.012C166.968,360.167,160.235,366.9,151.962,366.9 M151.962,342.437
	c-5.219,0-9.459,4.24-9.459,9.458c0,5.212,4.24,9.452,9.459,9.452c5.211,0,9.451-4.24,9.451-9.452
	C161.413,346.677,157.173,342.437,151.962,342.437"/>
<path style="fill:#FFFFFF;" d="M151.962,408.254c-31.08,0-56.365-25.285-56.365-56.36c0-31.081,25.285-56.365,56.365-56.365
	c31.074,0,56.359,25.284,56.359,56.365C208.321,382.969,183.036,408.254,151.962,408.254 M151.962,299.911
	c-28.66,0-51.982,23.321-51.982,51.982c0,28.663,23.322,51.978,51.982,51.978c28.661,0,51.977-23.314,51.977-51.978
	C203.938,323.232,180.623,299.911,151.962,299.911"/>
<g>
	<g>
		<defs>
			<rect id="SVGID_9_" x="110.06" y="308.679" width="83.799" height="81.772"/>
		</defs>
		<clipPath id="SVGID_10_">
			<use xlink:href="#SVGID_9_"  style="overflow:visible;"/>
		</clipPath>
		<path style="clip-path:url(#SVGID_10_);fill:#EFEFEF;" d="M164.938,390.45c-4.347,0-6.632-1.052-6.972-1.436
			c-1.813-2.053-2.256-3.042-2.104-7.334c0.084-2.341,0.119-6.158,0.133-9.447c1.821-0.341,3.51-0.874,5.047-1.593l4.006,5.514
			c-0.726,2.001-0.437,4.236,0.851,6.005c1.222,1.682,3.194,2.687,5.274,2.687c1.381,0,2.703-0.432,3.824-1.244
			c2.906-2.112,3.553-6.194,1.441-9.1c-1.213-1.67-3.174-2.665-5.248-2.665c-0.066,0-0.131,0.001-0.198,0.003l-4.009-5.519
			c1.234-1.283,2.296-2.711,3.175-4.273c3.095,0.99,6.692,2.123,8.925,2.762c4.131,1.181,4.934,1.908,6.326,4.266
			c0.961,1.64-0.915,12.594-8.05,17.777C174.212,389.14,169.685,390.45,164.938,390.45 M138.98,390.45
			c-4.746,0-9.274-1.311-12.421-3.598c-7.137-5.185-9.012-16.137-8.051-17.777c1.392-2.357,2.195-3.084,6.326-4.266
			c1.861-0.532,4.858-1.459,8.926-2.761c0.879,1.562,1.94,2.99,3.174,4.272l-4.008,5.52c-0.067-0.002-0.133-0.003-0.199-0.003
			c-2.074,0-4.035,0.996-5.248,2.664c-2.11,2.905-1.463,6.987,1.441,9.099c1.121,0.813,2.443,1.245,3.825,1.245
			c2.081,0,4.052-1.005,5.274-2.688c1.285-1.768,1.576-4.002,0.851-6.003l4.007-5.514c1.537,0.719,3.225,1.251,5.047,1.592
			c0.017,4.321,0.061,7.494,0.131,9.447c0.154,4.292-0.289,5.281-2.104,7.335C145.612,389.398,143.327,390.45,138.98,390.45
			 M185.978,358.476c-1.061,0-2.358-0.317-4.482-1.091c-1.813-0.662-4.765-1.668-8.789-2.994c0.109-0.846,0.164-1.673,0.164-2.498
			c0-0.93-0.072-1.877-0.221-2.862l6.431-2.089c1.132,0.879,2.522,1.364,3.978,1.364c0.676,0,1.348-0.106,1.996-0.317
			c1.653-0.538,3-1.688,3.791-3.237c0.789-1.552,0.928-3.315,0.391-4.971c-0.876-2.693-3.365-4.503-6.195-4.502
			c-0.683,0-1.359,0.107-2.013,0.319c-2.081,0.677-3.629,2.313-4.218,4.356l-6.424,2.088c-0.828-1.48-1.899-2.899-3.198-4.243
			c2.519-3.499,4.346-6.09,5.438-7.712c2.399-3.563,3.34-4.103,6.014-4.698c0,0,0.045-0.01,0.146-0.01
			c2.983,0,11.804,5.558,14.272,13.159c2.725,8.388-2.194,18.352-3.936,19.112C187.755,358.243,186.872,358.476,185.978,358.476z
			 M117.941,358.476c-0.896,0-1.777-0.232-3.146-0.825c-1.74-0.761-6.66-10.726-3.936-19.113
			c2.471-7.601,11.29-13.157,14.271-13.157c0.101,0,0.146,0.01,0.146,0.01c2.674,0.595,3.613,1.134,6.014,4.697
			c1.313,1.948,3.521,5.048,5.439,7.712c-1.301,1.345-2.371,2.764-3.2,4.244l-6.423-2.089c-0.588-2.043-2.137-3.68-4.217-4.356
			c-0.654-0.212-1.33-0.319-2.014-0.319c-2.83,0-5.32,1.81-6.195,4.502c-0.537,1.655-0.398,3.419,0.392,4.971
			c0.79,1.55,2.138,2.699,3.792,3.237c0.646,0.211,1.318,0.317,1.995,0.317c1.455,0,2.845-0.485,3.976-1.364l6.432,2.09
			c-0.148,0.986-0.221,1.933-0.221,2.861c0,0.823,0.055,1.651,0.164,2.498c-4.029,1.328-6.981,2.334-8.791,2.994
			C120.3,358.158,119.001,358.476,117.941,358.476 M143.292,333.096c-1.941-2.65-4.217-5.723-5.685-7.599
			c-2.647-3.382-2.87-4.442-2.61-7.171c0.188-1.89,8.143-9.647,16.963-9.647c8.818,0,16.773,7.757,16.961,9.647
			c0.26,2.729,0.036,3.789-2.611,7.171c-1.203,1.536-3.112,4.089-5.684,7.599c-1.679-0.804-3.332-1.361-4.994-1.685v-6.842
			c1.762-1.191,2.842-3.17,2.842-5.357c0-3.593-2.922-6.515-6.514-6.515c-3.593,0-6.516,2.922-6.516,6.515
			c0,2.188,1.08,4.165,2.842,5.357v6.842C146.626,331.734,144.97,332.292,143.292,333.096"/>
	</g>
</g>
<path style="fill:#00203F;" d="M274.894,286.396c-36.172,0-65.494,29.326-65.494,65.498s29.322,65.495,65.494,65.495
	s65.495-29.323,65.495-65.495S311.065,286.396,274.894,286.396"/>
<path style="fill:#00394B;" d="M274.894,297.732c-29.91,0-54.158,24.251-54.158,54.161c0,29.909,24.248,54.157,54.158,54.157
	s54.158-24.248,54.158-54.157C329.052,321.983,304.804,297.732,274.894,297.732"/>
<path style="fill:#FFFFFF;" d="M274.896,366.9c-8.279,0-15.013-6.733-15.013-15.006c0-8.28,6.733-15.012,15.013-15.012
	c8.273,0,15.006,6.731,15.006,15.012C289.901,360.167,283.169,366.9,274.896,366.9 M274.896,342.437
	c-5.218,0-9.459,4.24-9.459,9.458c0,5.212,4.241,9.452,9.459,9.452c5.211,0,9.451-4.24,9.451-9.452
	C284.347,346.677,280.106,342.437,274.896,342.437"/>
<path style="fill:#FFFFFF;" d="M274.896,408.254c-31.08,0-56.365-25.285-56.365-56.36c0-31.081,25.285-56.365,56.365-56.365
	c31.074,0,56.359,25.284,56.359,56.365C331.255,382.969,305.97,408.254,274.896,408.254 M274.896,299.911
	c-28.66,0-51.982,23.321-51.982,51.982c0,28.663,23.322,51.978,51.982,51.978c28.661,0,51.977-23.314,51.977-51.978
	C326.872,323.232,303.557,299.911,274.896,299.911"/>
<g>
	<g>
		<defs>
			<rect id="SVGID_11_" x="232.989" y="308.679" width="83.81" height="81.772"/>
		</defs>
		<clipPath id="SVGID_12_">
			<use xlink:href="#SVGID_11_"  style="overflow:visible;"/>
		</clipPath>
		<path style="clip-path:url(#SVGID_12_);fill:#EFEFEF;" d="M287.872,390.45c-4.346,0-6.631-1.052-6.971-1.435
			c-1.814-2.054-2.258-3.043-2.104-7.335c0.084-2.342,0.119-6.158,0.133-9.447c1.821-0.341,3.509-0.874,5.046-1.593l4.006,5.514
			c-0.725,2.001-0.436,4.236,0.852,6.005c1.222,1.682,3.193,2.687,5.273,2.687c1.383,0,2.705-0.432,3.825-1.244
			c2.905-2.112,3.552-6.194,1.441-9.1c-1.212-1.67-3.175-2.665-5.248-2.665c-0.066,0-0.132,0.001-0.198,0.003l-4.009-5.519
			c1.235-1.283,2.296-2.711,3.175-4.273c3.096,0.99,6.691,2.123,8.926,2.762c4.129,1.181,4.934,1.908,6.326,4.266
			c0.961,1.64-0.916,12.594-8.051,17.777C297.147,389.14,292.618,390.45,287.872,390.45 M261.915,390.45
			c-4.746,0-9.274-1.311-12.422-3.598c-7.137-5.185-9.012-16.137-8.049-17.777c1.392-2.357,2.195-3.085,6.326-4.266
			c1.86-0.532,4.857-1.459,8.924-2.761c0.879,1.562,1.941,2.99,3.176,4.272l-4.01,5.52c-0.066-0.002-0.133-0.003-0.199-0.003
			c-2.073,0-4.034,0.996-5.247,2.664c-2.11,2.905-1.464,6.987,1.44,9.099c1.123,0.813,2.444,1.245,3.826,1.245
			c2.081,0,4.053-1.005,5.273-2.688c1.287-1.768,1.576-4.002,0.852-6.003l4.006-5.514c1.538,0.719,3.227,1.251,5.047,1.592
			c0.018,4.321,0.062,7.494,0.133,9.447c0.152,4.292-0.291,5.281-2.104,7.335C268.547,389.398,266.262,390.45,261.915,390.45
			 M308.911,358.476c-1.059,0-2.357-0.317-4.481-1.091c-1.812-0.662-4.765-1.668-8.789-2.994c0.109-0.846,0.164-1.673,0.164-2.498
			c0-0.93-0.073-1.876-0.221-2.862l6.431-2.089c1.131,0.879,2.521,1.364,3.977,1.364c0.677,0,1.349-0.106,1.996-0.317
			c1.654-0.538,3.002-1.688,3.791-3.237c0.791-1.552,0.929-3.315,0.392-4.971c-0.875-2.692-3.364-4.502-6.195-4.502
			c-0.683,0-1.358,0.107-2.013,0.319c-2.081,0.677-3.629,2.313-4.217,4.356l-6.424,2.088c-0.83-1.48-1.899-2.898-3.199-4.243
			c2.519-3.499,4.346-6.09,5.439-7.712c2.398-3.563,3.338-4.103,6.012-4.698c0.002,0,0.047-0.01,0.146-0.01
			c2.982,0,11.803,5.558,14.273,13.159c2.724,8.388-2.195,18.352-3.937,19.112c-1.368,0.593-2.25,0.825-3.144,0.825H308.911z
			 M240.876,358.476c-0.895,0-1.777-0.232-3.145-0.825c-1.742-0.761-6.66-10.726-3.937-19.113
			c2.471-7.601,11.29-13.157,14.272-13.157c0.1,0,0.146,0.01,0.146,0.01c2.674,0.595,3.614,1.134,6.015,4.697
			c1.312,1.947,3.521,5.048,5.438,7.712c-1.3,1.345-2.371,2.764-3.2,4.244l-6.423-2.089c-0.589-2.043-2.136-3.68-4.216-4.356
			c-0.655-0.212-1.332-0.319-2.014-0.319c-2.832,0-5.32,1.81-6.195,4.502c-0.539,1.655-0.399,3.419,0.391,4.971
			c0.79,1.55,2.137,2.699,3.792,3.237c0.647,0.211,1.319,0.317,1.995,0.317c1.455,0,2.845-0.485,3.977-1.364l6.432,2.09
			c-0.148,0.985-0.221,1.932-0.221,2.861c0,0.825,0.055,1.652,0.164,2.498c-4.025,1.326-6.978,2.332-8.791,2.994
			C243.233,358.158,241.937,358.476,240.876,358.476 M266.226,333.096c-1.939-2.648-4.213-5.719-5.683-7.598
			c-2.647-3.383-2.871-4.443-2.611-7.172c0.187-1.89,8.144-9.647,16.962-9.647c8.819,0,16.774,7.757,16.961,9.647
			c0.26,2.729,0.037,3.789-2.609,7.171c-1.443,1.843-3.727,4.928-5.684,7.599c-1.68-0.804-3.334-1.361-4.994-1.685v-6.841
			c1.762-1.192,2.842-3.171,2.842-5.358c0-3.593-2.924-6.515-6.516-6.515s-6.515,2.922-6.515,6.515c0,2.187,1.08,4.165,2.842,5.357
			v6.842C269.56,331.734,267.905,332.292,266.226,333.096"/>
	</g>
</g>
<path style="fill:#00203F;" d="M151.96,409.745c-36.173,0-65.496,29.327-65.496,65.499s29.323,65.495,65.496,65.495
	c36.172,0,65.494-29.323,65.494-65.495S188.132,409.745,151.96,409.745"/>
<path style="fill:#00394B;" d="M151.96,421.083c-29.91,0-54.158,24.25-54.158,54.16c0,29.911,24.248,54.157,54.158,54.157
	c29.909,0,54.157-24.246,54.157-54.157C206.117,445.333,181.869,421.083,151.96,421.083"/>
<path style="fill:#FFFFFF;" d="M151.962,490.248c-8.279,0-15.013-6.731-15.013-15.006c0-8.273,6.733-15.006,15.013-15.006
	c8.273,0,15.006,6.732,15.006,15.006C166.968,483.517,160.235,490.248,151.962,490.248 M151.962,465.791
	c-5.219,0-9.459,4.24-9.459,9.451c0,5.212,4.24,9.451,9.459,9.451c5.211,0,9.451-4.239,9.451-9.451
	C161.413,470.031,157.173,465.791,151.962,465.791"/>
<path style="fill:#FFFFFF;" d="M151.962,531.608c-31.08,0-56.365-25.285-56.365-56.367c0-31.081,25.285-56.365,56.365-56.365
	c31.074,0,56.359,25.284,56.359,56.365C208.321,506.323,183.036,531.608,151.962,531.608 M151.962,423.26
	c-28.66,0-51.982,23.32-51.982,51.981c0,28.663,23.322,51.984,51.982,51.984c28.661,0,51.977-23.321,51.977-51.984
	C203.938,446.58,180.623,423.26,151.962,423.26"/>
<g>
	<g>
		<defs>
			<rect id="SVGID_13_" x="110.06" y="432.028" width="83.799" height="81.772"/>
		</defs>
		<clipPath id="SVGID_14_">
			<use xlink:href="#SVGID_13_"  style="overflow:visible;"/>
		</clipPath>
		<path style="clip-path:url(#SVGID_14_);fill:#EFEFEF;" d="M164.938,513.8c-4.347,0-6.632-1.051-6.972-1.435
			c-1.813-2.055-2.256-3.043-2.104-7.335c0.084-2.341,0.119-6.157,0.133-9.447c1.821-0.341,3.51-0.873,5.047-1.592l4.006,5.514
			c-0.726,2-0.437,4.235,0.85,6.004c1.223,1.683,3.195,2.687,5.275,2.687c1.381-0.001,2.703-0.432,3.824-1.244
			c1.407-1.023,2.333-2.532,2.605-4.251c0.271-1.719-0.141-3.441-1.165-4.85c-1.212-1.668-3.173-2.663-5.247-2.663
			c-0.066,0-0.131,0.001-0.198,0.003l-4.009-5.519c1.234-1.283,2.296-2.711,3.175-4.273c3.095,0.99,6.692,2.123,8.925,2.762
			c4.131,1.18,4.934,1.907,6.326,4.266c0.961,1.64-0.915,12.592-8.05,17.776C174.212,512.489,169.685,513.8,164.938,513.8
			 M138.981,513.8c-4.747,0-9.275-1.311-12.422-3.598c-7.137-5.185-9.012-16.136-8.051-17.776c1.392-2.357,2.195-3.084,6.326-4.266
			c2.233-0.639,5.83-1.771,8.926-2.762c0.879,1.563,1.939,2.99,3.174,4.273l-4.008,5.519c-0.066-0.002-0.133-0.003-0.199-0.003
			c-2.073,0-4.035,0.995-5.248,2.664c-1.022,1.407-1.436,3.13-1.164,4.849c0.273,1.719,1.199,3.228,2.605,4.251
			c1.121,0.813,2.443,1.244,3.825,1.244c2.08,0,4.052-1.004,5.274-2.686c1.285-1.77,1.576-4.004,0.851-6.005l4.007-5.514
			c1.536,0.719,3.225,1.251,5.047,1.592c0.017,4.321,0.061,7.495,0.131,9.448c0.154,4.292-0.289,5.281-2.104,7.335
			C145.612,512.749,143.328,513.8,138.981,513.8 M185.978,481.825c-1.059,0-2.358-0.317-4.482-1.091
			c-1.813-0.662-4.765-1.668-8.789-2.994c0.109-0.846,0.164-1.673,0.164-2.498c0-0.93-0.072-1.876-0.221-2.861l6.43-2.09
			c1.133,0.879,2.523,1.365,3.979,1.365c0.676,0,1.347-0.106,1.994-0.317c3.418-1.11,5.293-4.793,4.184-8.209
			c-0.876-2.692-3.365-4.502-6.193-4.502c-0.684,0-1.361,0.107-2.016,0.32c-2.08,0.675-3.628,2.313-4.217,4.356l-6.424,2.087
			c-0.828-1.479-1.899-2.899-3.198-4.243c1.921-2.669,4.133-5.771,5.438-7.711c2.398-3.563,3.34-4.103,6.014-4.698
			c0,0,0.045-0.01,0.146-0.01c2.983,0,11.804,5.557,14.272,13.158c2.725,8.388-2.194,18.353-3.936,19.113
			C187.755,481.593,186.873,481.825,185.978,481.825 M117.94,481.825c-0.895,0-1.777-0.232-3.145-0.824
			c-1.74-0.761-6.66-10.726-3.936-19.113c2.471-7.602,11.291-13.158,14.273-13.158c0.1,0,0.145,0.01,0.146,0.01
			c2.673,0.596,3.612,1.135,6.013,4.698c1.094,1.622,2.92,4.213,5.439,7.712c-1.301,1.345-2.37,2.763-3.2,4.242l-6.423-2.087
			c-0.588-2.044-2.137-3.681-4.217-4.356c-0.654-0.213-1.332-0.32-2.014-0.32c-2.83,0-5.32,1.81-6.195,4.502
			c-1.109,3.416,0.767,7.099,4.183,8.209c0.649,0.211,1.319,0.317,1.995,0.317c1.456,0,2.846-0.486,3.977-1.364l6.432,2.089
			c-0.148,0.986-0.221,1.933-0.221,2.861c0,0.823,0.055,1.65,0.164,2.498c-3.07,1.013-6.621,2.203-8.789,2.994
			C120.298,481.508,119.001,481.825,117.94,481.825 M143.292,456.446c-1.951-2.662-4.23-5.742-5.685-7.6
			c-2.647-3.382-2.87-4.442-2.61-7.17c0.188-1.89,8.143-9.648,16.963-9.648c8.818,0,16.773,7.758,16.961,9.648
			c0.26,2.728,0.036,3.788-2.611,7.17c-1.447,1.85-3.729,4.933-5.684,7.599c-1.678-0.804-3.332-1.36-4.994-1.684v-6.842
			c1.762-1.191,2.842-3.17,2.842-5.359c0-3.592-2.922-6.513-6.514-6.513c-3.593,0-6.516,2.921-6.516,6.513
			c0,2.188,1.08,4.166,2.842,5.359v6.842C146.626,455.085,144.972,455.642,143.292,456.446"/>
	</g>
</g>
<path style="fill:#00203F;" d="M274.894,409.745c-36.172,0-65.494,29.327-65.494,65.499s29.322,65.495,65.494,65.495
	s65.495-29.323,65.495-65.495S311.065,409.745,274.894,409.745"/>
<path style="fill:#00394B;" d="M274.894,421.083c-29.91,0-54.158,24.25-54.158,54.16c0,29.911,24.248,54.157,54.158,54.157
	s54.158-24.246,54.158-54.157C329.052,445.333,304.804,421.083,274.894,421.083"/>
<path style="fill:#FFFFFF;" d="M274.896,490.248c-8.279,0-15.013-6.731-15.013-15.006c0-8.273,6.733-15.006,15.013-15.006
	c8.273,0,15.006,6.732,15.006,15.006C289.901,483.517,283.169,490.248,274.896,490.248 M274.896,465.791
	c-5.218,0-9.459,4.24-9.459,9.451c0,5.212,4.241,9.451,9.459,9.451c5.211,0,9.451-4.239,9.451-9.451
	C284.347,470.031,280.106,465.791,274.896,465.791"/>
<path style="fill:#FFFFFF;" d="M274.896,531.608c-31.08,0-56.365-25.285-56.365-56.367c0-31.081,25.285-56.365,56.365-56.365
	c31.074,0,56.359,25.284,56.359,56.365C331.255,506.323,305.97,531.608,274.896,531.608 M274.896,423.26
	c-28.66,0-51.982,23.32-51.982,51.981c0,28.663,23.322,51.984,51.982,51.984c28.661,0,51.977-23.321,51.977-51.984
	C326.872,446.58,303.557,423.26,274.896,423.26"/>
<g>
	<g>
		<defs>
			<rect id="SVGID_15_" x="232.989" y="432.028" width="83.81" height="81.772"/>
		</defs>
		<clipPath id="SVGID_16_">
			<use xlink:href="#SVGID_15_"  style="overflow:visible;"/>
		</clipPath>
		<path style="clip-path:url(#SVGID_16_);fill:#EFEFEF;" d="M287.872,513.8c-4.346,0-6.631-1.051-6.971-1.434
			c-1.813-2.056-2.258-3.044-2.104-7.336c0.084-2.341,0.119-6.157,0.133-9.447c1.821-0.341,3.509-0.873,5.046-1.592l4.006,5.514
			c-0.725,2-0.436,4.235,0.851,6.004c1.223,1.683,3.194,2.687,5.274,2.687c1.383-0.001,2.705-0.432,3.825-1.244
			c1.407-1.023,2.333-2.532,2.606-4.251c0.271-1.719-0.143-3.441-1.166-4.85c-1.211-1.668-3.174-2.663-5.247-2.663
			c-0.066,0-0.132,0.001-0.198,0.003l-4.009-5.519c1.235-1.283,2.296-2.711,3.175-4.273c3.096,0.99,6.691,2.123,8.926,2.762
			c4.129,1.18,4.932,1.907,6.326,4.266c0.961,1.64-0.917,12.592-8.051,17.776C297.147,512.489,292.618,513.8,287.872,513.8
			 M261.916,513.8c-4.747,0-9.275-1.311-12.423-3.598c-7.135-5.185-9.012-16.136-8.049-17.776c1.392-2.357,2.195-3.085,6.326-4.266
			c2.232-0.639,5.829-1.771,8.924-2.762c0.879,1.563,1.94,2.99,3.176,4.273l-4.01,5.519c-0.065-0.002-0.131-0.003-0.197-0.003
			c-2.074,0-4.036,0.995-5.249,2.664c-1.022,1.407-1.435,3.13-1.164,4.849c0.272,1.719,1.198,3.228,2.606,4.251
			c1.121,0.813,2.442,1.244,3.824,1.244c2.08,0,4.053-1.004,5.273-2.686c1.287-1.77,1.576-4.004,0.852-6.005l4.006-5.514
			c1.537,0.719,3.225,1.251,5.047,1.592c0.018,4.321,0.062,7.495,0.133,9.448c0.152,4.292-0.291,5.281-2.104,7.335
			C268.547,512.749,266.263,513.8,261.916,513.8 M308.913,481.825c-1.061,0-2.359-0.317-4.483-1.091
			c-1.812-0.662-4.765-1.668-8.789-2.994c0.109-0.846,0.164-1.673,0.164-2.498c0-0.93-0.073-1.876-0.221-2.861l6.43-2.09
			c1.132,0.879,2.522,1.365,3.979,1.365c0.675,0,1.346-0.106,1.994-0.317c3.416-1.11,5.293-4.793,4.183-8.209
			c-0.875-2.692-3.364-4.502-6.194-4.502c-0.683,0-1.359,0.107-2.015,0.32c-2.08,0.676-3.628,2.313-4.216,4.356l-6.424,2.087
			c-0.828-1.479-1.899-2.898-3.199-4.243c1.921-2.669,4.133-5.771,5.439-7.711c2.397-3.563,3.338-4.103,6.012-4.698
			c0.002,0,0.047-0.01,0.146-0.01c2.982,0,11.803,5.557,14.273,13.158c2.724,8.388-2.195,18.353-3.937,19.113
			C310.69,481.593,309.808,481.825,308.913,481.825 M240.875,481.825c-0.896,0-1.777-0.232-3.144-0.824
			c-1.74-0.761-6.66-10.726-3.937-19.113c2.471-7.602,11.291-13.158,14.272-13.158c0.101,0,0.146,0.01,0.146,0.01
			c2.673,0.596,3.613,1.135,6.014,4.698c1.092,1.622,2.92,4.213,5.438,7.712c-1.3,1.345-2.37,2.763-3.2,4.242l-6.423-2.087
			c-0.589-2.044-2.136-3.681-4.218-4.356c-0.653-0.213-1.33-0.32-2.014-0.32c-2.83,0-5.318,1.81-6.193,4.502
			c-1.11,3.416,0.766,7.099,4.182,8.209c0.648,0.211,1.32,0.317,1.995,0.317c1.456,0,2.846-0.486,3.978-1.364l6.432,2.089
			c-0.148,0.985-0.221,1.932-0.221,2.861c0,0.825,0.055,1.652,0.164,2.498c-3.068,1.012-6.615,2.201-8.789,2.994
			C243.233,481.508,241.935,481.825,240.875,481.825 M266.226,456.446c-1.949-2.661-4.229-5.739-5.683-7.599
			c-2.647-3.383-2.871-4.443-2.611-7.171c0.187-1.89,8.144-9.648,16.962-9.648c8.819,0,16.774,7.758,16.961,9.648
			c0.26,2.728,0.037,3.788-2.609,7.17c-1.459,1.865-3.737,4.941-5.684,7.599c-1.679-0.804-3.332-1.36-4.994-1.684v-6.841
			c1.762-1.192,2.842-3.171,2.842-5.36c0-3.592-2.924-6.513-6.516-6.513s-6.515,2.921-6.515,6.513c0,2.188,1.08,4.166,2.842,5.359
			v6.842C269.56,455.085,267.905,455.642,266.226,456.446"/>
	</g>
</g>
<g>
</g>
<g>
</g>
<g>
</g>
<g>
</g>
<g>
</g>
<g>
</g>
</svg>
