<?xml version="1.0" encoding="iso-8859-1"?>
<!-- Generator: Adobe Illustrator 16.0.0, SVG Export Plug-In . SVG Version: 6.00 Build 0)  -->
<!DOCTYPE svg PUBLIC "-//W3C//DTD SVG 1.1//EN" "http://www.w3.org/Graphics/SVG/1.1/DTD/svg11.dtd">
<svg version="1.1" id="&#x30EC;&#x30A4;&#x30E4;&#x30FC;_1"
	 xmlns="http://www.w3.org/2000/svg" xmlns:xlink="http://www.w3.org/1999/xlink" x="0px" y="0px" width="426.854px"
	 height="580.189px" viewBox="0 0 426.854 580.189" style="enable-background:new 0 0 426.854 580.189;" xml:space="preserve">
<path style="fill:#00203F;" d="M90.492,50.46c-36.172,0-65.494,29.327-65.494,65.499s29.322,65.495,65.494,65.495
	s65.495-29.323,65.495-65.495S126.664,50.46,90.492,50.46"/>
<path style="fill:#00394B;" d="M90.492,61.798c-29.91,0-54.158,24.25-54.158,54.16c0,29.911,24.248,54.157,54.158,54.157
	s54.158-24.246,54.158-54.157C144.65,86.048,120.402,61.798,90.492,61.798"/>
<path style="fill:#FFFFFF;" d="M90.492,130.963c-8.275,0-15.007-6.732-15.007-15.006s6.731-15.006,15.007-15.006
	c8.279,0,15.012,6.732,15.012,15.006S98.771,130.963,90.492,130.963 M90.492,106.506c-5.213,0-9.453,4.24-9.453,9.451
	s4.24,9.45,9.453,9.45c5.217,0,9.457-4.239,9.457-9.45S95.709,106.506,90.492,106.506"/>
<path style="fill:#FFFFFF;" d="M90.492,172.323c-31.074,0-56.359-25.285-56.359-56.367c0-31.081,25.285-56.365,56.359-56.365
	c31.08,0,56.365,25.284,56.365,56.365C146.857,147.038,121.572,172.323,90.492,172.323 M90.492,63.974
	c-28.662,0-51.978,23.321-51.978,51.982c0,28.662,23.315,51.984,51.978,51.984c28.66,0,51.981-23.322,51.981-51.984
	C142.474,87.295,119.152,63.974,90.492,63.974"/>
<g>
	<g>
		<defs>
			<rect id="SVGID_1_" x="48.592" y="72.743" width="83.801" height="81.771"/>
		</defs>
		<clipPath id="SVGID_2_">
			<use xlink:href="#SVGID_1_"  style="overflow:visible;"/>
		</clipPath>
		<path style="clip-path:url(#SVGID_2_);fill:#EFEFEF;" d="M103.471,154.515c-4.346,0-6.631-1.051-6.973-1.435
			c-1.813-2.053-2.256-3.042-2.103-7.335c0.084-2.341,0.119-6.157,0.133-9.446c1.82-0.341,3.509-0.874,5.046-1.593l4.006,5.514
			c-0.725,2-0.436,4.235,0.851,6.004c1.223,1.683,3.194,2.687,5.274,2.687c1.383,0,2.705-0.432,3.825-1.244
			c1.407-1.023,2.333-2.532,2.606-4.251c0.271-1.718-0.143-3.44-1.165-4.849c-1.212-1.669-3.175-2.664-5.248-2.664
			c-0.066,0-0.132,0.001-0.198,0.003l-4.009-5.519c1.235-1.283,2.296-2.711,3.175-4.273c3.1,0.991,6.698,2.125,8.926,2.762
			c4.129,1.181,4.934,1.908,6.325,4.266c0.961,1.64-0.915,12.592-8.05,17.776C112.746,153.204,108.217,154.515,103.471,154.515
			 M77.515,154.515c-4.747,0-9.275-1.311-12.423-3.598c-7.135-5.185-9.012-16.136-8.049-17.776c1.391-2.357,2.194-3.084,6.326-4.266
			c2.232-0.639,5.829-1.771,8.924-2.762c0.879,1.563,1.94,2.99,3.176,4.273l-4.01,5.519c-0.065-0.002-0.131-0.003-0.197-0.003
			c-2.074,0-4.036,0.995-5.249,2.664c-1.022,1.408-1.435,3.131-1.164,4.849c0.272,1.719,1.198,3.228,2.606,4.251
			c1.119,0.813,2.442,1.244,3.824,1.244c2.081,0,4.053-1.004,5.273-2.687c1.287-1.769,1.576-4.004,0.852-6.004l4.006-5.514
			c1.538,0.719,3.227,1.252,5.047,1.593c0.018,4.341,0.063,7.514,0.133,9.447c0.152,4.292-0.291,5.281-2.104,7.335
			C84.146,153.464,81.861,154.515,77.515,154.515 M124.512,122.54c-1.061,0-2.359-0.317-4.483-1.091
			c-2.174-0.793-5.722-1.982-8.789-2.994c0.109-0.845,0.164-1.672,0.164-2.498c0-0.93-0.073-1.876-0.221-2.861l6.431-2.089
			c1.131,0.879,2.521,1.364,3.977,1.364c0.676,0,1.348-0.106,1.996-0.317c3.416-1.11,5.293-4.793,4.182-8.209
			c-0.875-2.692-3.363-4.502-6.193-4.502c-0.683,0-1.359,0.107-2.015,0.32c-2.08,0.675-3.628,2.313-4.218,4.356l-6.422,2.088
			c-0.83-1.481-1.9-2.9-3.199-4.243c2.519-3.499,4.346-6.089,5.439-7.712c2.398-3.563,3.338-4.103,6.012-4.698
			c0.002,0,0.047-0.01,0.146-0.01c2.982,0,11.803,5.557,14.273,13.158c2.724,8.388-2.195,18.353-3.937,19.113
			C126.27,122.316,125.418,122.54,124.512,122.54 M56.474,122.54c-0.896,0-1.777-0.232-3.144-0.824
			c-1.742-0.761-6.662-10.726-3.937-19.113c2.471-7.602,11.291-13.158,14.272-13.158c0.101,0,0.146,0.01,0.146,0.01
			c2.673,0.596,3.613,1.135,6.014,4.698c1.307,1.941,3.518,5.044,5.438,7.712c-1.3,1.345-2.37,2.764-3.2,4.243l-6.423-2.088
			c-0.589-2.044-2.136-3.681-4.218-4.356c-0.653-0.213-1.33-0.32-2.014-0.32c-2.83,0-5.318,1.81-6.193,4.502
			c-1.11,3.416,0.766,7.099,4.181,8.209c0.649,0.211,1.321,0.317,1.996,0.317c1.455,0,2.846-0.486,3.978-1.364l6.432,2.089
			c-0.149,0.986-0.223,1.933-0.223,2.861c0,0.824,0.055,1.65,0.166,2.498c-3.072,1.013-6.621,2.203-8.791,2.994
			C58.832,122.223,57.533,122.54,56.474,122.54 M81.824,97.161c-1.945-2.655-4.222-5.73-5.684-7.6
			c-2.646-3.382-2.87-4.442-2.61-7.17c0.187-1.89,8.144-9.648,16.962-9.648c8.819,0,16.774,7.758,16.961,9.648
			c0.26,2.728,0.037,3.788-2.609,7.17c-1.205,1.539-3.114,4.092-5.684,7.6c-1.68-0.804-3.334-1.361-4.994-1.685v-6.842
			c1.762-1.191,2.84-3.17,2.84-5.357c0-3.593-2.922-6.515-6.514-6.515s-6.515,2.922-6.515,6.515c0,2.187,1.079,4.164,2.841,5.357
			v6.843C85.157,95.8,83.504,96.357,81.824,97.161"/>
	</g>
</g>
<path style="fill:#00203F;" d="M213.428,50.46c-36.173,0-65.496,29.327-65.496,65.499s29.323,65.495,65.496,65.495
	c36.172,0,65.494-29.323,65.494-65.495S249.6,50.46,213.428,50.46"/>
<path style="fill:#00394B;" d="M213.428,61.798c-29.91,0-54.158,24.25-54.158,54.16c0,29.911,24.248,54.157,54.158,54.157
	c29.909,0,54.157-24.246,54.157-54.157C267.585,86.048,243.337,61.798,213.428,61.798"/>
<path style="fill:#FFFFFF;" d="M213.426,130.963c-8.273,0-15.007-6.732-15.007-15.006s6.733-15.006,15.007-15.006
	c8.279,0,15.012,6.732,15.012,15.006S221.705,130.963,213.426,130.963 M213.426,106.506c-5.212,0-9.453,4.24-9.453,9.451
	s4.241,9.45,9.453,9.45c5.217,0,9.457-4.239,9.457-9.45S218.643,106.506,213.426,106.506"/>
<path style="fill:#FFFFFF;" d="M213.426,172.323c-31.074,0-56.359-25.285-56.359-56.367c0-31.081,25.285-56.365,56.359-56.365
	c31.08,0,56.365,25.284,56.365,56.365C269.791,147.038,244.506,172.323,213.426,172.323 M213.426,63.974
	c-28.662,0-51.978,23.321-51.978,51.982c0,28.662,23.315,51.984,51.978,51.984c28.66,0,51.982-23.322,51.982-51.984
	C265.408,87.295,242.086,63.974,213.426,63.974"/>
<g>
	<g>
		<defs>
			<rect id="SVGID_3_" x="171.522" y="72.743" width="83.81" height="81.771"/>
		</defs>
		<clipPath id="SVGID_4_">
			<use xlink:href="#SVGID_3_"  style="overflow:visible;"/>
		</clipPath>
		<path style="clip-path:url(#SVGID_4_);fill:#EFEFEF;" d="M226.405,154.515c-4.347,0-6.632-1.051-6.972-1.435
			c-1.813-2.053-2.256-3.042-2.104-7.335c0.084-2.341,0.119-6.157,0.133-9.446c1.82-0.341,3.508-0.874,5.047-1.593l4.006,5.514
			c-0.726,2-0.437,4.235,0.85,6.004c1.223,1.683,3.193,2.687,5.273,2.687c1.383,0,2.705-0.432,3.826-1.244
			c1.407-1.023,2.333-2.532,2.605-4.251c0.271-1.718-0.141-3.44-1.164-4.849c-1.213-1.669-3.174-2.664-5.248-2.664
			c-0.066,0-0.131,0.001-0.198,0.003l-4.009-5.519c1.234-1.283,2.296-2.711,3.175-4.273c3.095,0.99,6.692,2.123,8.925,2.762
			c4.131,1.181,4.934,1.908,6.326,4.266c0.961,1.64-0.915,12.592-8.05,17.776C235.68,153.204,231.152,154.515,226.405,154.515
			 M200.449,154.515c-4.747,0-9.275-1.311-12.422-3.598c-7.137-5.185-9.012-16.136-8.051-17.776
			c1.392-2.357,2.195-3.084,6.326-4.266c2.233-0.639,5.83-1.771,8.926-2.762c0.879,1.563,1.939,2.99,3.174,4.273l-4.008,5.519
			c-0.066-0.002-0.133-0.003-0.199-0.003c-2.073,0-4.035,0.995-5.248,2.664c-1.022,1.408-1.436,3.131-1.164,4.849
			c0.273,1.719,1.199,3.228,2.605,4.251c1.121,0.813,2.443,1.244,3.826,1.244c2.08,0,4.053-1.004,5.273-2.687
			c1.285-1.769,1.576-4.004,0.851-6.004l4.007-5.514c1.537,0.719,3.225,1.252,5.047,1.593c0.017,4.321,0.061,7.494,0.131,9.447
			c0.154,4.292-0.289,5.281-2.104,7.335C207.08,153.464,204.796,154.515,200.449,154.515 M247.445,122.54
			c-1.059,0-2.358-0.317-4.482-1.091c-2.174-0.793-5.722-1.982-8.789-2.994c0.109-0.845,0.164-1.672,0.164-2.498
			c0-0.93-0.072-1.876-0.221-2.861l6.431-2.089c1.132,0.879,2.522,1.364,3.978,1.364c0.675,0,1.347-0.106,1.994-0.317
			c3.418-1.11,5.293-4.793,4.183-8.209c-0.875-2.692-3.363-4.502-6.192-4.502c-0.684,0-1.361,0.107-2.016,0.32
			c-2.08,0.675-3.628,2.313-4.217,4.356l-6.424,2.088c-0.828-1.481-1.899-2.9-3.198-4.243c2.519-3.499,4.346-6.091,5.438-7.712
			c2.399-3.563,3.34-4.103,6.014-4.698c0,0,0.045-0.01,0.146-0.01c2.983,0,11.804,5.557,14.272,13.158
			c2.725,8.388-2.194,18.353-3.936,19.113C249.223,122.308,248.341,122.54,247.445,122.54 M179.408,122.54
			c-0.895,0-1.777-0.232-3.145-0.824c-1.74-0.761-6.66-10.726-3.936-19.113c2.471-7.602,11.291-13.158,14.273-13.158
			c0.1,0,0.145,0.01,0.146,0.01c2.673,0.596,3.612,1.135,6.013,4.698c1.084,1.609,2.91,4.198,5.439,7.712
			c-1.301,1.345-2.37,2.763-3.2,4.243l-6.423-2.088c-0.588-2.044-2.137-3.681-4.217-4.356c-0.654-0.213-1.332-0.32-2.014-0.32
			c-2.83,0-5.32,1.81-6.195,4.502c-1.109,3.416,0.768,7.099,4.183,8.209c0.649,0.211,1.319,0.317,1.995,0.317
			c1.456,0,2.846-0.486,3.977-1.364l6.432,2.089c-0.148,0.986-0.221,1.933-0.221,2.861c0,0.824,0.055,1.65,0.164,2.498
			c-3.07,1.013-6.621,2.203-8.789,2.994C181.766,122.223,180.469,122.54,179.408,122.54 M204.76,97.161
			c-1.945-2.655-4.223-5.73-5.685-7.6c-2.647-3.382-2.87-4.442-2.61-7.17c0.188-1.89,8.143-9.648,16.963-9.648
			c8.818,0,16.773,7.758,16.961,9.648c0.26,2.728,0.036,3.788-2.611,7.17c-1.204,1.539-3.113,4.092-5.684,7.6
			c-1.679-0.804-3.332-1.361-4.994-1.685v-6.842c1.762-1.191,2.842-3.17,2.842-5.357c0-3.593-2.922-6.515-6.514-6.515
			c-3.593,0-6.516,2.922-6.516,6.515c0,2.187,1.079,4.164,2.841,5.357v6.843C208.092,95.8,206.438,96.357,204.76,97.161"/>
	</g>
</g>
<path style="fill:#00203F;" d="M336.361,50.46c-36.172,0-65.494,29.327-65.494,65.499s29.322,65.495,65.494,65.495
	s65.495-29.323,65.495-65.495S372.533,50.46,336.361,50.46"/>
<path style="fill:#00394B;" d="M336.361,61.798c-29.91,0-54.158,24.25-54.158,54.16c0,29.911,24.248,54.157,54.158,54.157
	s54.158-24.246,54.158-54.157C390.52,86.048,366.271,61.798,336.361,61.798"/>
<path style="fill:#FFFFFF;" d="M336.359,130.963c-8.273,0-15.007-6.732-15.007-15.006s6.733-15.006,15.007-15.006
	c8.279,0,15.012,6.732,15.012,15.006S344.639,130.963,336.359,130.963 M336.359,106.506c-5.212,0-9.451,4.24-9.451,9.451
	s4.239,9.45,9.451,9.45c5.217,0,9.459-4.239,9.459-9.45S341.576,106.506,336.359,106.506"/>
<path style="fill:#FFFFFF;" d="M336.359,172.323c-31.074,0-56.359-25.285-56.359-56.367c0-31.081,25.285-56.365,56.359-56.365
	c31.08,0,56.365,25.284,56.365,56.365C392.725,147.038,367.439,172.323,336.359,172.323 M336.359,63.974
	c-28.662,0-51.978,23.321-51.978,51.982c0,28.662,23.315,51.984,51.978,51.984c28.66,0,51.982-23.322,51.982-51.984
	C388.342,87.295,365.02,63.974,336.359,63.974"/>
<g>
	<g>
		<defs>
			<rect id="SVGID_5_" x="294.463" y="72.743" width="83.799" height="81.771"/>
		</defs>
		<clipPath id="SVGID_6_">
			<use xlink:href="#SVGID_5_"  style="overflow:visible;"/>
		</clipPath>
		<path style="clip-path:url(#SVGID_6_);fill:#EFEFEF;" d="M349.34,154.515c-4.346,0-6.631-1.051-6.971-1.434
			c-1.814-2.054-2.258-3.043-2.104-7.336c0.084-2.341,0.119-6.157,0.133-9.446c1.82-0.341,3.509-0.874,5.046-1.593l4.006,5.514
			c-0.725,2-0.436,4.235,0.851,6.004c1.223,1.683,3.194,2.687,5.274,2.687c1.383,0,2.705-0.432,3.825-1.244
			c1.407-1.023,2.333-2.532,2.606-4.251c0.271-1.718-0.143-3.44-1.165-4.849c-1.212-1.669-3.175-2.664-5.248-2.664
			c-0.066,0-0.132,0.001-0.198,0.003l-4.009-5.519c1.235-1.283,2.296-2.711,3.175-4.273c3.096,0.99,6.691,2.123,8.926,2.762
			c4.129,1.181,4.934,1.908,6.325,4.266c0.961,1.64-0.915,12.592-8.05,17.776C358.615,153.204,354.086,154.515,349.34,154.515
			 M323.384,154.515c-4.747,0-9.275-1.311-12.423-3.598c-7.135-5.185-9.012-16.136-8.049-17.776
			c1.391-2.357,2.194-3.084,6.326-4.266c2.232-0.639,5.829-1.771,8.924-2.762c0.879,1.563,1.94,2.99,3.176,4.273l-4.01,5.519
			c-0.065-0.002-0.131-0.003-0.197-0.003c-2.074,0-4.036,0.995-5.249,2.664c-1.022,1.408-1.435,3.131-1.164,4.849
			c0.272,1.719,1.198,3.228,2.606,4.251c1.121,0.813,2.442,1.244,3.825,1.244c2.08,0,4.052-1.004,5.272-2.687
			c1.287-1.769,1.576-4.004,0.852-6.004l4.006-5.514c1.538,0.719,3.227,1.252,5.047,1.593c0.018,4.321,0.062,7.494,0.133,9.447
			c0.152,4.292-0.291,5.281-2.104,7.335C330.015,153.464,327.73,154.515,323.384,154.515 M370.381,122.54
			c-1.061,0-2.359-0.317-4.483-1.091c-2.174-0.793-5.722-1.982-8.789-2.994c0.109-0.845,0.164-1.672,0.164-2.498
			c0-0.93-0.073-1.876-0.221-2.861l6.431-2.089c1.131,0.879,2.521,1.364,3.979,1.364c0.675,0,1.346-0.106,1.994-0.317
			c3.416-1.11,5.293-4.793,4.183-8.208c-0.875-2.693-3.364-4.503-6.194-4.503c-0.683,0-1.359,0.107-2.015,0.32
			c-2.08,0.675-3.628,2.313-4.218,4.356l-6.422,2.088c-0.83-1.481-1.9-2.9-3.199-4.243c2.519-3.499,4.346-6.089,5.439-7.712
			c2.398-3.563,3.338-4.103,6.012-4.698c0.002,0,0.047-0.01,0.146-0.01c2.982,0,11.803,5.557,14.273,13.158
			c2.724,8.388-2.195,18.353-3.937,19.113C372.158,122.308,371.275,122.54,370.381,122.54 M302.343,122.54
			c-0.896,0-1.777-0.232-3.144-0.824c-1.74-0.761-6.66-10.726-3.937-19.113c2.471-7.602,11.291-13.158,14.272-13.158
			c0.101,0,0.146,0.01,0.146,0.01c2.673,0.596,3.613,1.135,6.014,4.698c1.092,1.623,2.92,4.213,5.438,7.712
			c-1.3,1.345-2.37,2.763-3.2,4.243l-6.423-2.088c-0.589-2.044-2.136-3.681-4.218-4.356c-0.653-0.213-1.33-0.32-2.014-0.32
			c-2.83,0-5.318,1.81-6.193,4.502c-1.11,3.416,0.767,7.099,4.182,8.209c0.648,0.211,1.32,0.317,1.995,0.317
			c1.456,0,2.846-0.486,3.978-1.364l6.432,2.089c-0.148,0.985-0.221,1.932-0.221,2.861c0,0.825,0.053,1.652,0.164,2.498
			c-3.072,1.013-6.623,2.203-8.789,2.994C304.701,122.223,303.402,122.54,302.343,122.54 M327.693,97.161
			c-1.945-2.655-4.222-5.73-5.684-7.6c-2.646-3.382-2.87-4.442-2.61-7.17c0.187-1.89,8.144-9.648,16.962-9.648
			c8.819,0,16.774,7.758,16.961,9.648c0.26,2.728,0.037,3.788-2.609,7.17c-1.444,1.846-3.729,4.931-5.684,7.6
			c-1.68-0.804-3.334-1.361-4.994-1.685v-6.841c1.762-1.192,2.842-3.171,2.842-5.358c0-3.593-2.924-6.515-6.516-6.515
			s-6.515,2.922-6.515,6.515c0,2.188,1.08,4.164,2.842,5.357v6.842C331.027,95.8,329.373,96.357,327.693,97.161"/>
	</g>
</g>
<path style="fill:#00203F;" d="M90.492,224.598c-36.172,0-65.494,29.327-65.494,65.499s29.322,65.495,65.494,65.495
	s65.495-29.323,65.495-65.495S126.664,224.598,90.492,224.598"/>
<path style="fill:#79000C;" d="M90.492,235.936c-29.91,0-54.158,24.25-54.158,54.16s24.248,54.157,54.158,54.157
	s54.158-24.247,54.158-54.157S120.402,235.936,90.492,235.936"/>
<path style="fill:#FFFFFF;" d="M90.492,305.102c-8.275,0-15.007-6.733-15.007-15.006c0-8.28,6.731-15.013,15.007-15.013
	c8.279,0,15.012,6.732,15.012,15.013C105.504,298.368,98.771,305.102,90.492,305.102 M90.492,280.638
	c-5.213,0-9.453,4.239-9.453,9.458c0,5.212,4.24,9.452,9.453,9.452c5.217,0,9.457-4.24,9.457-9.452
	C99.949,284.877,95.709,280.638,90.492,280.638"/>
<path style="fill:#FFFFFF;" d="M90.492,346.455c-31.074,0-56.359-25.285-56.359-56.36c0-31.081,25.285-56.365,56.359-56.365
	c31.08,0,56.365,25.284,56.365,56.365C146.857,321.17,121.572,346.455,90.492,346.455 M90.492,238.112
	c-28.662,0-51.978,23.322-51.978,51.982c0,28.663,23.315,51.978,51.978,51.978c28.66,0,51.981-23.314,51.981-51.978
	C142.474,261.435,119.152,238.112,90.492,238.112"/>
<g>
	<g>
		<defs>
			<rect id="SVGID_7_" x="48.592" y="246.881" width="83.801" height="81.772"/>
		</defs>
		<clipPath id="SVGID_8_">
			<use xlink:href="#SVGID_7_"  style="overflow:visible;"/>
		</clipPath>
		<path style="clip-path:url(#SVGID_8_);fill:#EFEFEF;" d="M103.471,328.652c-4.346,0-6.631-1.051-6.973-1.435
			c-1.813-2.053-2.256-3.042-2.103-7.335c0.084-2.341,0.119-6.157,0.133-9.446c1.82-0.341,3.509-0.874,5.046-1.593l4.006,5.514
			c-0.725,2-0.436,4.235,0.851,6.004c1.223,1.683,3.194,2.687,5.274,2.687c1.383,0,2.705-0.432,3.825-1.244
			c1.407-1.023,2.333-2.532,2.606-4.251c0.271-1.719-0.143-3.441-1.166-4.85c-1.211-1.668-3.174-2.663-5.247-2.663
			c-0.066,0-0.132,0.001-0.198,0.003l-4.009-5.519c1.235-1.283,2.296-2.711,3.175-4.273c3.1,0.991,6.698,2.125,8.926,2.762
			c4.129,1.181,4.934,1.908,6.325,4.266c0.961,1.64-0.915,12.593-8.05,17.776C112.746,327.342,108.217,328.652,103.471,328.652
			 M77.515,328.652c-4.747,0-9.275-1.311-12.423-3.598c-7.135-5.184-9.012-16.136-8.049-17.776c1.391-2.357,2.194-3.084,6.326-4.266
			c2.232-0.639,5.829-1.771,8.924-2.762c0.879,1.563,1.94,2.99,3.176,4.273l-4.01,5.519c-0.065-0.002-0.131-0.003-0.197-0.003
			c-2.074,0-4.036,0.995-5.249,2.665c-1.022,1.406-1.435,3.129-1.164,4.848c0.272,1.719,1.198,3.228,2.606,4.251
			c1.119,0.813,2.442,1.244,3.824,1.244c2.081,0,4.053-1.004,5.273-2.687c1.287-1.769,1.576-4.004,0.852-6.004l4.006-5.514
			c1.538,0.719,3.227,1.252,5.047,1.593c0.018,4.341,0.063,7.514,0.133,9.447c0.152,4.292-0.291,5.281-2.104,7.335
			C84.146,327.602,81.861,328.652,77.515,328.652 M124.512,296.678c-1.061,0-2.359-0.317-4.483-1.091
			c-2.173-0.793-5.721-1.982-8.789-2.994c0.109-0.845,0.164-1.672,0.164-2.498c0-0.93-0.073-1.876-0.221-2.861l6.431-2.089
			c1.131,0.879,2.521,1.364,3.977,1.364c0.676,0,1.348-0.106,1.996-0.317c1.656-0.539,3.002-1.688,3.791-3.238
			c0.791-1.551,0.929-3.316,0.391-4.971c-0.875-2.692-3.363-4.502-6.193-4.502c-0.683,0-1.359,0.107-2.015,0.32
			c-2.08,0.675-3.628,2.313-4.218,4.356l-6.422,2.087c-0.83-1.48-1.9-2.899-3.199-4.242c2.52-3.5,4.346-6.09,5.439-7.712
			c2.398-3.563,3.338-4.103,6.012-4.698c0.002,0,0.047-0.01,0.146-0.01c2.982,0,11.803,5.557,14.273,13.158
			c2.724,8.388-2.195,18.353-3.937,19.113C126.27,296.453,125.418,296.678,124.512,296.678 M56.474,296.678
			c-0.896,0-1.777-0.232-3.144-0.824c-1.742-0.761-6.662-10.726-3.937-19.113c2.471-7.602,11.291-13.158,14.272-13.158
			c0.101,0,0.146,0.01,0.146,0.01c2.673,0.596,3.613,1.135,6.014,4.698c1.305,1.94,3.518,5.044,5.438,7.712
			c-1.3,1.345-2.37,2.764-3.2,4.242l-6.423-2.087c-0.589-2.044-2.136-3.681-4.218-4.356c-0.653-0.213-1.33-0.32-2.014-0.32
			c-2.83,0-5.318,1.81-6.193,4.502c-1.11,3.416,0.766,7.098,4.181,8.209c0.649,0.211,1.321,0.317,1.996,0.317
			c1.455,0,2.846-0.486,3.978-1.364l6.432,2.089c-0.149,0.986-0.223,1.933-0.223,2.861c0,0.824,0.055,1.651,0.166,2.498
			c-3.072,1.013-6.621,2.203-8.791,2.994C58.832,296.36,57.533,296.678,56.474,296.678 M81.824,271.299
			c-1.945-2.655-4.222-5.73-5.684-7.599c-2.646-3.383-2.87-4.443-2.61-7.171c0.187-1.89,8.144-9.648,16.962-9.648
			c8.819,0,16.774,7.758,16.961,9.648c0.26,2.728,0.037,3.788-2.609,7.17c-1.205,1.539-3.114,4.092-5.684,7.6
			c-1.68-0.805-3.334-1.361-4.994-1.685v-6.842c1.762-1.191,2.84-3.17,2.84-5.357c0-3.593-2.922-6.515-6.514-6.515
			s-6.515,2.922-6.515,6.515c0,2.187,1.079,4.165,2.841,5.357v6.843C85.157,269.938,83.504,270.494,81.824,271.299"/>
	</g>
</g>
<path style="fill:#00203F;" d="M213.428,224.598c-36.173,0-65.496,29.327-65.496,65.499s29.323,65.495,65.496,65.495
	c36.172,0,65.494-29.323,65.494-65.495S249.6,224.598,213.428,224.598"/>
<path style="fill:#79000C;" d="M213.428,235.936c-29.91,0-54.158,24.25-54.158,54.16s24.248,54.157,54.158,54.157
	c29.909,0,54.157-24.247,54.157-54.157S243.337,235.936,213.428,235.936"/>
<path style="fill:#FFFFFF;" d="M213.426,305.102c-8.273,0-15.007-6.733-15.007-15.006c0-8.28,6.733-15.013,15.007-15.013
	c8.279,0,15.012,6.732,15.012,15.013C228.438,298.368,221.705,305.102,213.426,305.102 M213.426,280.638
	c-5.212,0-9.453,4.239-9.453,9.458c0,5.212,4.241,9.452,9.453,9.452c5.217,0,9.457-4.24,9.457-9.452
	C222.883,284.877,218.643,280.638,213.426,280.638"/>
<path style="fill:#FFFFFF;" d="M213.426,346.455c-31.074,0-56.359-25.285-56.359-56.36c0-31.081,25.285-56.365,56.359-56.365
	c31.08,0,56.365,25.284,56.365,56.365C269.791,321.17,244.506,346.455,213.426,346.455 M213.426,238.112
	c-28.662,0-51.978,23.322-51.978,51.982c0,28.663,23.315,51.978,51.978,51.978c28.66,0,51.982-23.314,51.982-51.978
	C265.408,261.435,242.086,238.112,213.426,238.112"/>
<g>
	<g>
		<defs>
			<rect id="SVGID_9_" x="171.522" y="246.881" width="83.81" height="81.772"/>
		</defs>
		<clipPath id="SVGID_10_">
			<use xlink:href="#SVGID_9_"  style="overflow:visible;"/>
		</clipPath>
		<path style="clip-path:url(#SVGID_10_);fill:#EFEFEF;" d="M226.405,328.652c-4.347,0-6.632-1.051-6.972-1.435
			c-1.813-2.053-2.256-3.042-2.104-7.335c0.084-2.341,0.119-6.157,0.133-9.446c1.82-0.341,3.508-0.874,5.047-1.593l4.006,5.514
			c-0.726,2-0.437,4.235,0.85,6.004c1.223,1.683,3.193,2.687,5.273,2.687c1.383,0,2.705-0.432,3.826-1.244
			c1.407-1.023,2.333-2.532,2.605-4.251c0.271-1.719-0.141-3.441-1.165-4.85c-1.212-1.668-3.173-2.663-5.247-2.663
			c-0.066,0-0.131,0.001-0.198,0.003l-4.009-5.519c1.234-1.283,2.296-2.711,3.175-4.273c3.095,0.99,6.692,2.123,8.925,2.762
			c4.131,1.181,4.934,1.908,6.326,4.266c0.961,1.64-0.915,12.593-8.05,17.776C235.68,327.342,231.152,328.652,226.405,328.652
			 M200.449,328.652c-4.747,0-9.275-1.311-12.422-3.598c-7.137-5.184-9.012-16.136-8.051-17.776
			c1.392-2.357,2.195-3.084,6.326-4.266c2.233-0.639,5.83-1.771,8.926-2.762c0.879,1.563,1.939,2.99,3.174,4.273l-4.008,5.519
			c-0.066-0.002-0.133-0.003-0.199-0.003c-2.073,0-4.035,0.995-5.248,2.665c-1.022,1.406-1.436,3.129-1.164,4.848
			c0.273,1.719,1.199,3.228,2.605,4.251c1.121,0.813,2.443,1.244,3.826,1.244c2.08,0,4.053-1.004,5.273-2.687
			c1.285-1.769,1.576-4.004,0.851-6.004l4.007-5.514c1.537,0.719,3.225,1.252,5.047,1.593c0.017,4.321,0.061,7.494,0.131,9.447
			c0.154,4.292-0.289,5.281-2.104,7.335C207.08,327.602,204.796,328.652,200.449,328.652 M247.445,296.678
			c-1.059,0-2.358-0.317-4.482-1.091c-2.174-0.793-5.721-1.982-8.789-2.994c0.109-0.845,0.164-1.672,0.164-2.498
			c0-0.93-0.072-1.876-0.221-2.861l6.431-2.089c1.132,0.879,2.522,1.364,3.978,1.364c0.675,0,1.347-0.106,1.994-0.317
			c1.656-0.539,3.004-1.688,3.793-3.238c0.789-1.551,0.928-3.316,0.39-4.971c-0.875-2.692-3.363-4.502-6.192-4.502
			c-0.684,0-1.361,0.107-2.016,0.32c-2.08,0.675-3.628,2.313-4.217,4.356l-6.424,2.087c-0.828-1.48-1.899-2.899-3.198-4.242
			c2.52-3.5,4.346-6.09,5.438-7.712c2.399-3.563,3.34-4.103,6.014-4.698c0,0,0.045-0.01,0.146-0.01
			c2.983,0,11.804,5.557,14.272,13.158c2.725,8.388-2.194,18.353-3.936,19.113C249.223,296.445,248.341,296.678,247.445,296.678
			 M179.408,296.678c-0.895,0-1.777-0.232-3.145-0.824c-1.74-0.761-6.66-10.726-3.936-19.113
			c2.471-7.602,11.291-13.158,14.273-13.158c0.1,0,0.145,0.01,0.146,0.01c2.673,0.596,3.612,1.135,6.013,4.698
			c1.084,1.609,2.91,4.198,5.439,7.712c-1.301,1.345-2.37,2.763-3.2,4.242l-6.423-2.087c-0.588-2.044-2.137-3.681-4.217-4.356
			c-0.654-0.213-1.332-0.32-2.014-0.32c-2.83,0-5.32,1.81-6.195,4.502c-1.109,3.416,0.767,7.099,4.183,8.209
			c0.649,0.211,1.319,0.317,1.995,0.317c1.456,0,2.846-0.486,3.977-1.364l6.432,2.089c-0.148,0.986-0.221,1.933-0.221,2.861
			c0,0.824,0.055,1.651,0.164,2.498c-3.07,1.013-6.621,2.203-8.789,2.994C181.766,296.36,180.469,296.678,179.408,296.678
			 M204.76,271.299c-1.945-2.655-4.223-5.73-5.685-7.599c-2.647-3.383-2.87-4.443-2.61-7.171c0.188-1.89,8.143-9.648,16.963-9.648
			c8.818,0,16.773,7.758,16.961,9.648c0.26,2.728,0.036,3.788-2.611,7.17c-1.204,1.539-3.113,4.092-5.684,7.6
			c-1.679-0.805-3.332-1.361-4.994-1.685v-6.842c1.762-1.191,2.842-3.17,2.842-5.357c0-3.593-2.922-6.515-6.514-6.515
			c-3.593,0-6.516,2.922-6.516,6.515c0,2.187,1.079,4.165,2.841,5.357v6.843C208.092,269.938,206.438,270.494,204.76,271.299"/>
	</g>
</g>
<path style="fill:#00203F;" d="M336.361,224.598c-36.172,0-65.494,29.327-65.494,65.499s29.322,65.495,65.494,65.495
	s65.495-29.323,65.495-65.495S372.533,224.598,336.361,224.598"/>
<path style="fill:#79000C;" d="M336.361,235.936c-29.91,0-54.158,24.25-54.158,54.16s24.248,54.157,54.158,54.157
	s54.158-24.247,54.158-54.157S366.271,235.936,336.361,235.936"/>
<path style="fill:#FFFFFF;" d="M336.359,305.102c-8.273,0-15.007-6.733-15.007-15.006c0-8.28,6.733-15.013,15.007-15.013
	c8.279,0,15.012,6.732,15.012,15.013C351.371,298.368,344.639,305.102,336.359,305.102 M336.359,280.638
	c-5.212,0-9.451,4.239-9.451,9.458c0,5.212,4.239,9.452,9.451,9.452c5.217,0,9.459-4.24,9.459-9.452
	C345.818,284.877,341.576,280.638,336.359,280.638"/>
<path style="fill:#FFFFFF;" d="M336.359,346.455c-31.074,0-56.359-25.285-56.359-56.36c0-31.081,25.285-56.365,56.359-56.365
	c31.08,0,56.365,25.284,56.365,56.365C392.725,321.17,367.439,346.455,336.359,346.455 M336.359,238.112
	c-28.662,0-51.978,23.322-51.978,51.982c0,28.663,23.315,51.978,51.978,51.978c28.66,0,51.982-23.314,51.982-51.978
	C388.342,261.435,365.02,238.112,336.359,238.112"/>
<g>
	<g>
		<defs>
			<rect id="SVGID_11_" x="294.463" y="246.881" width="83.799" height="81.772"/>
		</defs>
		<clipPath id="SVGID_12_">
			<use xlink:href="#SVGID_11_"  style="overflow:visible;"/>
		</clipPath>
		<path style="clip-path:url(#SVGID_12_);fill:#EFEFEF;" d="M349.34,328.652c-4.346,0-6.631-1.051-6.971-1.434
			c-1.814-2.054-2.258-3.043-2.104-7.336c0.084-2.341,0.119-6.157,0.133-9.446c1.82-0.341,3.509-0.874,5.046-1.593l4.006,5.514
			c-0.725,2-0.436,4.235,0.851,6.004c1.223,1.683,3.194,2.687,5.274,2.687c1.383,0,2.705-0.432,3.825-1.244
			c1.407-1.023,2.333-2.532,2.606-4.251c0.271-1.719-0.143-3.441-1.166-4.85c-1.211-1.668-3.174-2.663-5.247-2.663
			c-0.066,0-0.132,0.001-0.198,0.003l-4.009-5.519c1.235-1.283,2.296-2.711,3.175-4.273c3.096,0.99,6.691,2.123,8.926,2.762
			c4.129,1.181,4.934,1.908,6.325,4.266c0.961,1.64-0.915,12.593-8.05,17.776C358.615,327.342,354.086,328.652,349.34,328.652
			 M323.384,328.652c-4.747,0-9.275-1.311-12.423-3.598c-7.135-5.184-9.012-16.136-8.049-17.776
			c1.391-2.357,2.194-3.084,6.326-4.266c2.232-0.639,5.829-1.771,8.924-2.762c0.879,1.563,1.94,2.99,3.176,4.273l-4.01,5.519
			c-0.065-0.002-0.131-0.003-0.197-0.003c-2.074,0-4.036,0.995-5.249,2.665c-1.022,1.406-1.435,3.129-1.164,4.848
			c0.272,1.719,1.198,3.228,2.606,4.251c1.121,0.813,2.442,1.244,3.825,1.244c2.08,0,4.052-1.004,5.272-2.687
			c1.287-1.769,1.576-4.004,0.852-6.004l4.006-5.514c1.538,0.719,3.227,1.252,5.047,1.593c0.018,4.321,0.062,7.494,0.133,9.447
			c0.152,4.292-0.291,5.281-2.104,7.335C330.015,327.602,327.73,328.652,323.384,328.652 M370.381,296.678
			c-1.061,0-2.359-0.317-4.483-1.091c-2.173-0.793-5.721-1.982-8.789-2.994c0.109-0.845,0.164-1.672,0.164-2.498
			c0-0.93-0.073-1.876-0.221-2.861l6.431-2.089c1.131,0.879,2.521,1.364,3.979,1.364c0.675,0,1.346-0.106,1.994-0.317
			c3.416-1.11,5.293-4.793,4.183-8.209c-0.875-2.692-3.364-4.502-6.194-4.502c-0.683,0-1.359,0.107-2.015,0.32
			c-2.08,0.675-3.628,2.313-4.218,4.356l-6.422,2.087c-0.83-1.48-1.9-2.899-3.199-4.242c2.52-3.5,4.346-6.09,5.439-7.712
			c2.398-3.563,3.338-4.103,6.012-4.698c0.002,0,0.047-0.01,0.146-0.01c2.982,0,11.803,5.557,14.273,13.158
			c2.724,8.388-2.195,18.353-3.937,19.113C372.158,296.445,371.275,296.678,370.381,296.678L370.381,296.678z M302.343,296.678
			c-0.896,0-1.777-0.232-3.144-0.824c-1.74-0.761-6.66-10.726-3.937-19.113c2.471-7.602,11.291-13.158,14.272-13.158
			c0.101,0,0.146,0.01,0.146,0.01c2.673,0.596,3.613,1.135,6.014,4.698c1.092,1.622,2.92,4.213,5.438,7.712
			c-1.3,1.345-2.37,2.763-3.2,4.242l-6.423-2.087c-0.589-2.044-2.136-3.681-4.218-4.356c-0.653-0.213-1.33-0.32-2.014-0.32
			c-2.83,0-5.318,1.81-6.193,4.502c-1.11,3.416,0.766,7.099,4.182,8.209c0.648,0.211,1.32,0.317,1.995,0.317
			c1.456,0,2.846-0.486,3.978-1.364l6.432,2.089c-0.148,0.985-0.221,1.932-0.221,2.861c0,0.825,0.053,1.652,0.164,2.498
			c-3.072,1.013-6.623,2.203-8.789,2.994C304.701,296.36,303.402,296.678,302.343,296.678 M327.693,271.299
			c-1.945-2.655-4.222-5.73-5.684-7.599c-2.646-3.383-2.87-4.443-2.61-7.171c0.187-1.89,8.144-9.648,16.962-9.648
			c8.819,0,16.774,7.758,16.961,9.648c0.26,2.728,0.037,3.788-2.609,7.17c-1.444,1.846-3.729,4.93-5.684,7.6
			c-1.68-0.805-3.334-1.361-4.994-1.685v-6.841c1.762-1.192,2.842-3.171,2.842-5.358c0-3.593-2.924-6.515-6.516-6.515
			s-6.515,2.922-6.515,6.515c0,2.188,1.08,4.165,2.842,5.357v6.842C331.027,269.938,329.373,270.494,327.693,271.299"/>
	</g>
</g>
<path style="fill:#00203F;" d="M90.492,398.735c-36.172,0-65.494,29.327-65.494,65.499s29.322,65.495,65.494,65.495
	s65.495-29.323,65.495-65.495S126.664,398.735,90.492,398.735"/>
<path style="fill:#00394B;" d="M90.492,410.073c-29.91,0-54.158,24.25-54.158,54.16s24.248,54.157,54.158,54.157
	s54.158-24.247,54.158-54.157S120.402,410.073,90.492,410.073"/>
<path style="fill:#FFFFFF;" d="M90.492,479.24c-8.275,0-15.007-6.732-15.007-15.006c0-8.28,6.731-15.013,15.007-15.013
	c8.279,0,15.012,6.732,15.012,15.013C105.504,472.508,98.771,479.24,90.492,479.24 M90.492,454.776
	c-5.213,0-9.453,4.239-9.453,9.458c0,5.212,4.24,9.452,9.453,9.452c5.217,0,9.457-4.24,9.457-9.452
	C99.949,459.016,95.709,454.776,90.492,454.776"/>
<path style="fill:#FFFFFF;" d="M90.492,520.594c-31.074,0-56.359-25.284-56.359-56.36c0-31.081,25.285-56.365,56.359-56.365
	c31.08,0,56.365,25.284,56.365,56.365C146.857,495.31,121.572,520.594,90.492,520.594 M90.492,412.252
	c-28.662,0-51.978,23.32-51.978,51.981c0,28.663,23.315,51.978,51.978,51.978c28.66,0,51.981-23.314,51.981-51.978
	C142.474,435.572,119.152,412.252,90.492,412.252"/>
<g>
	<g>
		<defs>
			<rect id="SVGID_13_" x="48.592" y="421.018" width="83.801" height="81.773"/>
		</defs>
		<clipPath id="SVGID_14_">
			<use xlink:href="#SVGID_13_"  style="overflow:visible;"/>
		</clipPath>
		<path style="clip-path:url(#SVGID_14_);fill:#EFEFEF;" d="M103.471,502.79c-4.346,0-6.631-1.051-6.973-1.435
			c-1.813-2.053-2.256-3.042-2.103-7.335c0.084-2.341,0.119-6.157,0.133-9.446c1.82-0.341,3.509-0.874,5.046-1.593l4.006,5.514
			c-0.725,2-0.436,4.235,0.851,6.004c1.223,1.683,3.194,2.687,5.274,2.687c1.383,0,2.705-0.432,3.825-1.244
			c1.407-1.023,2.333-2.532,2.606-4.251c0.271-1.719-0.143-3.441-1.166-4.849c-1.211-1.669-3.174-2.664-5.247-2.664
			c-0.066,0-0.132,0.001-0.198,0.003l-4.009-5.519c1.235-1.283,2.296-2.711,3.175-4.273c3.1,0.991,6.698,2.125,8.926,2.762
			c4.129,1.181,4.934,1.908,6.325,4.266c0.961,1.64-0.915,12.593-8.05,17.776C112.746,501.479,108.217,502.79,103.471,502.79
			 M77.515,502.79c-4.747,0-9.275-1.311-12.423-3.598c-7.135-5.184-9.012-16.136-8.049-17.776c1.391-2.357,2.194-3.084,6.326-4.266
			c2.232-0.639,5.829-1.771,8.924-2.762c0.879,1.563,1.94,2.99,3.176,4.273l-4.01,5.519c-0.065-0.002-0.131-0.003-0.197-0.003
			c-2.074,0-4.036,0.995-5.249,2.665c-1.022,1.406-1.435,3.129-1.164,4.848c0.272,1.719,1.198,3.228,2.606,4.251
			c1.119,0.813,2.442,1.244,3.824,1.244c2.081,0,4.053-1.004,5.273-2.687c1.287-1.769,1.576-4.004,0.852-6.004l4.006-5.514
			c1.538,0.719,3.227,1.252,5.047,1.593c0.018,4.341,0.063,7.514,0.133,9.447c0.152,4.292-0.291,5.281-2.104,7.335
			C84.146,501.739,81.861,502.79,77.515,502.79 M124.512,470.815c-1.061,0-2.359-0.317-4.483-1.091
			c-2.174-0.793-5.722-1.982-8.789-2.994c0.109-0.845,0.164-1.672,0.164-2.498c0-0.93-0.073-1.876-0.221-2.861l6.431-2.089
			c1.131,0.879,2.521,1.364,3.977,1.364c0.676,0,1.348-0.106,1.996-0.317c1.656-0.539,3.002-1.688,3.791-3.239
			c0.791-1.55,0.929-3.315,0.391-4.97c-0.875-2.692-3.363-4.502-6.193-4.502c-0.683,0-1.359,0.107-2.015,0.32
			c-2.08,0.675-3.628,2.313-4.218,4.356l-6.422,2.088c-0.83-1.481-1.9-2.9-3.199-4.243c2.519-3.499,4.346-6.089,5.439-7.712
			c2.398-3.563,3.338-4.103,6.012-4.698c0.002,0,0.047-0.01,0.146-0.01c2.982,0,11.803,5.557,14.273,13.158
			c2.724,8.388-2.195,18.353-3.937,19.113C126.27,470.592,125.418,470.815,124.512,470.815 M56.474,470.815
			c-0.896,0-1.777-0.232-3.144-0.824c-1.742-0.761-6.662-10.726-3.937-19.113c2.471-7.602,11.291-13.158,14.272-13.158
			c0.101,0,0.146,0.01,0.146,0.01c2.673,0.596,3.613,1.135,6.014,4.698c1.307,1.941,3.518,5.044,5.438,7.712
			c-1.3,1.345-2.37,2.764-3.2,4.243l-6.423-2.088c-0.589-2.044-2.136-3.681-4.218-4.356c-0.653-0.213-1.33-0.32-2.014-0.32
			c-2.83,0-5.318,1.81-6.193,4.502c-1.11,3.416,0.766,7.098,4.181,8.209c0.649,0.211,1.321,0.317,1.996,0.317
			c1.455,0,2.846-0.486,3.978-1.364l6.432,2.089c-0.149,0.986-0.223,1.933-0.223,2.861c0,0.824,0.055,1.651,0.166,2.498
			c-3.072,1.013-6.621,2.203-8.791,2.994C58.832,470.498,57.533,470.815,56.474,470.815 M81.824,445.437
			c-1.945-2.655-4.222-5.73-5.684-7.6c-2.646-3.382-2.87-4.442-2.61-7.17c0.187-1.89,8.144-9.648,16.962-9.648
			c8.819,0,16.774,7.758,16.961,9.648c0.26,2.728,0.037,3.788-2.609,7.17c-1.205,1.539-3.114,4.092-5.684,7.6
			c-1.68-0.804-3.334-1.361-4.994-1.685v-6.842c1.762-1.191,2.84-3.17,2.84-5.358c0-3.593-2.922-6.514-6.514-6.514
			s-6.515,2.921-6.515,6.514c0,2.188,1.079,4.166,2.841,5.358v6.843C85.157,444.075,83.504,444.633,81.824,445.437"/>
	</g>
</g>
<path style="fill:#00203F;" d="M213.428,398.735c-36.173,0-65.496,29.327-65.496,65.499s29.323,65.495,65.496,65.495
	c36.172,0,65.494-29.323,65.494-65.495S249.6,398.735,213.428,398.735"/>
<path style="fill:#00394B;" d="M213.428,410.073c-29.91,0-54.158,24.25-54.158,54.16s24.248,54.157,54.158,54.157
	c29.909,0,54.157-24.247,54.157-54.157S243.337,410.073,213.428,410.073"/>
<path style="fill:#FFFFFF;" d="M213.426,479.24c-8.273,0-15.007-6.732-15.007-15.006c0-8.28,6.733-15.013,15.007-15.013
	c8.279,0,15.012,6.732,15.012,15.013C228.438,472.508,221.705,479.24,213.426,479.24 M213.426,454.776
	c-5.212,0-9.453,4.239-9.453,9.458c0,5.212,4.241,9.452,9.453,9.452c5.217,0,9.457-4.24,9.457-9.452
	C222.883,459.016,218.643,454.776,213.426,454.776"/>
<path style="fill:#FFFFFF;" d="M213.426,520.594c-31.074,0-56.359-25.284-56.359-56.36c0-31.081,25.285-56.365,56.359-56.365
	c31.08,0,56.365,25.284,56.365,56.365C269.791,495.31,244.506,520.594,213.426,520.594 M213.426,412.252
	c-28.662,0-51.978,23.32-51.978,51.981c0,28.663,23.315,51.978,51.978,51.978c28.66,0,51.982-23.314,51.982-51.978
	C265.408,435.572,242.086,412.252,213.426,412.252"/>
<g>
	<g>
		<defs>
			<rect id="SVGID_15_" x="171.522" y="421.018" width="83.81" height="81.773"/>
		</defs>
		<clipPath id="SVGID_16_">
			<use xlink:href="#SVGID_15_"  style="overflow:visible;"/>
		</clipPath>
		<path style="clip-path:url(#SVGID_16_);fill:#EFEFEF;" d="M226.405,502.79c-4.347,0-6.632-1.051-6.972-1.435
			c-1.813-2.053-2.256-3.042-2.104-7.335c0.084-2.341,0.119-6.157,0.133-9.446c1.82-0.341,3.508-0.874,5.047-1.593l4.006,5.514
			c-0.726,2-0.437,4.235,0.85,6.004c1.223,1.683,3.193,2.687,5.273,2.687c1.383,0,2.705-0.432,3.826-1.244
			c1.407-1.023,2.333-2.532,2.605-4.251c0.271-1.719-0.141-3.441-1.165-4.849c-1.212-1.669-3.173-2.664-5.247-2.664
			c-0.066,0-0.131,0.001-0.198,0.003l-4.009-5.519c1.234-1.283,2.296-2.711,3.175-4.273c3.095,0.99,6.692,2.123,8.925,2.762
			c4.131,1.181,4.934,1.908,6.326,4.266c0.961,1.64-0.915,12.593-8.05,17.776C235.68,501.479,231.152,502.79,226.405,502.79
			 M200.449,502.79c-4.747,0-9.275-1.311-12.422-3.598c-7.137-5.184-9.012-16.136-8.051-17.776c1.392-2.357,2.195-3.084,6.326-4.266
			c2.233-0.639,5.83-1.771,8.926-2.762c0.879,1.563,1.939,2.99,3.174,4.273l-4.008,5.519c-0.066-0.002-0.133-0.003-0.199-0.003
			c-2.073,0-4.035,0.995-5.248,2.665c-1.022,1.406-1.436,3.129-1.164,4.848c0.273,1.719,1.199,3.228,2.605,4.251
			c1.121,0.813,2.443,1.244,3.826,1.244c2.08,0,4.053-1.004,5.273-2.687c1.285-1.769,1.576-4.004,0.851-6.004l4.007-5.514
			c1.537,0.719,3.225,1.252,5.047,1.593c0.017,4.321,0.061,7.495,0.131,9.447c0.154,4.292-0.289,5.281-2.104,7.335
			C207.08,501.739,204.796,502.79,200.449,502.79 M247.445,470.815c-1.059,0-2.358-0.317-4.482-1.091
			c-2.174-0.793-5.722-1.982-8.789-2.994c0.109-0.845,0.164-1.672,0.164-2.498c0-0.93-0.072-1.876-0.221-2.861l6.431-2.089
			c1.132,0.879,2.522,1.364,3.978,1.364c0.675,0,1.347-0.106,1.994-0.317c1.656-0.539,3.004-1.688,3.793-3.239
			c0.789-1.55,0.928-3.315,0.39-4.97c-0.875-2.692-3.363-4.502-6.192-4.502c-0.684,0-1.361,0.107-2.016,0.32
			c-2.08,0.675-3.628,2.313-4.217,4.356l-6.424,2.088c-0.828-1.481-1.899-2.9-3.198-4.243c2.519-3.499,4.346-6.091,5.438-7.712
			c2.399-3.563,3.34-4.103,6.014-4.698c0,0,0.045-0.01,0.146-0.01c2.983,0,11.804,5.557,14.272,13.158
			c2.725,8.388-2.194,18.353-3.936,19.113C249.223,470.583,248.341,470.815,247.445,470.815 M179.408,470.815
			c-0.895,0-1.777-0.232-3.145-0.824c-1.74-0.761-6.66-10.726-3.936-19.113c2.471-7.602,11.291-13.158,14.273-13.158
			c0.1,0,0.145,0.01,0.146,0.01c2.673,0.596,3.612,1.135,6.013,4.698c1.084,1.609,2.91,4.198,5.439,7.712
			c-1.301,1.345-2.37,2.763-3.2,4.243l-6.423-2.088c-0.588-2.044-2.137-3.681-4.217-4.356c-0.654-0.213-1.332-0.32-2.014-0.32
			c-2.83,0-5.32,1.81-6.195,4.502c-1.109,3.416,0.767,7.099,4.183,8.209c0.649,0.211,1.319,0.317,1.995,0.317
			c1.456,0,2.846-0.486,3.977-1.364l6.432,2.089c-0.148,0.986-0.221,1.933-0.221,2.861c0,0.824,0.055,1.651,0.164,2.498
			c-3.07,1.013-6.621,2.203-8.789,2.994C181.766,470.498,180.469,470.815,179.408,470.815 M204.76,445.437
			c-1.945-2.655-4.223-5.73-5.685-7.6c-2.647-3.382-2.87-4.442-2.61-7.17c0.188-1.89,8.143-9.648,16.963-9.648
			c8.818,0,16.773,7.758,16.961,9.648c0.26,2.728,0.036,3.788-2.611,7.17c-1.204,1.539-3.113,4.092-5.684,7.6
			c-1.679-0.804-3.332-1.361-4.994-1.685v-6.842c1.762-1.191,2.842-3.17,2.842-5.358c0-3.593-2.922-6.514-6.514-6.514
			c-3.593,0-6.516,2.921-6.516,6.514c0,2.188,1.079,4.166,2.841,5.358v6.843C208.092,444.075,206.438,444.633,204.76,445.437"/>
	</g>
</g>
<path style="fill:#00203F;" d="M336.361,398.735c-36.172,0-65.494,29.327-65.494,65.499s29.322,65.495,65.494,65.495
	s65.495-29.323,65.495-65.495S372.533,398.735,336.361,398.735"/>
<path style="fill:#00394B;" d="M336.361,410.073c-29.91,0-54.158,24.25-54.158,54.16s24.248,54.157,54.158,54.157
	s54.158-24.247,54.158-54.157S366.271,410.073,336.361,410.073"/>
<path style="fill:#FFFFFF;" d="M336.359,479.24c-8.273,0-15.007-6.732-15.007-15.006c0-8.28,6.733-15.013,15.007-15.013
	c8.279,0,15.012,6.732,15.012,15.013C351.371,472.508,344.639,479.24,336.359,479.24 M336.359,454.776
	c-5.212,0-9.451,4.239-9.451,9.458c0,5.212,4.239,9.452,9.451,9.452c5.217,0,9.459-4.24,9.459-9.452
	C345.818,459.016,341.576,454.776,336.359,454.776"/>
<path style="fill:#FFFFFF;" d="M336.359,520.594c-31.074,0-56.359-25.284-56.359-56.36c0-31.081,25.285-56.365,56.359-56.365
	c31.08,0,56.365,25.284,56.365,56.365C392.725,495.31,367.439,520.594,336.359,520.594 M336.359,412.252
	c-28.662,0-51.978,23.32-51.978,51.981c0,28.663,23.315,51.978,51.978,51.978c28.66,0,51.982-23.314,51.982-51.978
	C388.342,435.572,365.02,412.252,336.359,412.252"/>
<g>
	<g>
		<defs>
			<rect id="SVGID_17_" x="294.463" y="421.018" width="83.799" height="81.773"/>
		</defs>
		<clipPath id="SVGID_18_">
			<use xlink:href="#SVGID_17_"  style="overflow:visible;"/>
		</clipPath>
		<path style="clip-path:url(#SVGID_18_);fill:#EFEFEF;" d="M349.34,502.79c-4.346,0-6.631-1.051-6.971-1.434
			c-1.814-2.054-2.258-3.043-2.104-7.336c0.084-2.341,0.119-6.157,0.133-9.446c1.82-0.341,3.509-0.874,5.046-1.593l4.006,5.514
			c-0.725,2-0.436,4.235,0.851,6.004c1.223,1.683,3.194,2.687,5.274,2.687c1.383,0,2.705-0.432,3.825-1.244
			c1.407-1.023,2.333-2.532,2.606-4.251c0.271-1.719-0.143-3.441-1.166-4.849c-1.211-1.669-3.174-2.664-5.247-2.664
			c-0.066,0-0.132,0.001-0.198,0.003l-4.009-5.519c1.235-1.283,2.296-2.711,3.175-4.273c3.096,0.99,6.691,2.123,8.926,2.762
			c4.129,1.181,4.934,1.908,6.325,4.266c0.961,1.64-0.915,12.593-8.05,17.776C358.615,501.479,354.086,502.79,349.34,502.79
			 M323.384,502.79c-4.747,0-9.275-1.311-12.423-3.598c-7.135-5.184-9.012-16.136-8.049-17.776c1.391-2.357,2.194-3.084,6.326-4.266
			c2.232-0.639,5.829-1.771,8.924-2.762c0.879,1.563,1.94,2.99,3.176,4.273l-4.01,5.519c-0.065-0.002-0.131-0.003-0.197-0.003
			c-2.074,0-4.036,0.995-5.249,2.665c-1.022,1.406-1.435,3.129-1.164,4.848c0.272,1.719,1.198,3.228,2.606,4.251
			c1.121,0.813,2.442,1.244,3.825,1.244c2.08,0,4.052-1.004,5.272-2.687c1.287-1.769,1.576-4.004,0.852-6.004l4.006-5.514
			c1.538,0.719,3.227,1.252,5.047,1.593c0.018,4.321,0.062,7.495,0.133,9.447c0.152,4.292-0.291,5.281-2.104,7.335
			C330.015,501.739,327.73,502.79,323.384,502.79 M370.381,470.815c-1.061,0-2.359-0.317-4.483-1.091
			c-2.174-0.793-5.722-1.982-8.789-2.994c0.109-0.845,0.164-1.672,0.164-2.498c0-0.93-0.073-1.876-0.221-2.861l6.431-2.089
			c1.131,0.879,2.521,1.364,3.979,1.364c0.675,0,1.346-0.106,1.994-0.317c3.416-1.11,5.293-4.793,4.183-8.209
			c-0.875-2.692-3.364-4.502-6.194-4.502c-0.683,0-1.359,0.107-2.015,0.32c-2.08,0.675-3.628,2.313-4.218,4.356l-6.422,2.088
			c-0.83-1.481-1.9-2.9-3.199-4.243c2.519-3.499,4.346-6.089,5.439-7.712c2.398-3.563,3.338-4.103,6.012-4.698
			c0.002,0,0.047-0.01,0.146-0.01c2.982,0,11.803,5.557,14.273,13.158c2.724,8.388-2.195,18.353-3.937,19.113
			C372.158,470.583,371.275,470.815,370.381,470.815 M302.343,470.815c-0.896,0-1.777-0.232-3.144-0.824
			c-1.74-0.761-6.66-10.726-3.937-19.113c2.471-7.602,11.291-13.158,14.272-13.158c0.101,0,0.146,0.01,0.146,0.01
			c2.673,0.596,3.613,1.135,6.014,4.698c1.092,1.623,2.92,4.213,5.438,7.712c-1.3,1.345-2.37,2.763-3.2,4.243l-6.423-2.088
			c-0.589-2.044-2.136-3.681-4.218-4.356c-0.653-0.213-1.33-0.32-2.014-0.32c-2.83,0-5.318,1.81-6.193,4.502
			c-1.11,3.416,0.766,7.099,4.182,8.209c0.648,0.211,1.32,0.317,1.995,0.317c1.456,0,2.846-0.486,3.978-1.364l6.432,2.089
			c-0.148,0.985-0.221,1.932-0.221,2.861c0,0.825,0.053,1.652,0.164,2.498c-3.072,1.013-6.623,2.203-8.789,2.994
			C304.701,470.498,303.402,470.815,302.343,470.815 M327.693,445.437c-1.945-2.655-4.222-5.73-5.684-7.6
			c-2.646-3.382-2.87-4.442-2.61-7.17c0.187-1.89,8.144-9.648,16.962-9.648c8.819,0,16.774,7.758,16.961,9.648
			c0.26,2.728,0.037,3.788-2.609,7.17c-1.444,1.846-3.729,4.931-5.684,7.6c-1.68-0.804-3.334-1.361-4.994-1.685v-6.841
			c1.762-1.192,2.842-3.171,2.842-5.359c0-3.593-2.924-6.514-6.516-6.514s-6.515,2.921-6.515,6.514c0,2.188,1.08,4.166,2.842,5.358
			v6.842C331.027,444.075,329.373,444.633,327.693,445.437"/>
	</g>
</g>
<g>
</g>
<g>
</g>
<g>
</g>
<g>
</g>
<g>
</g>
<g>
</g>
</svg>
