<?xml version="1.0" encoding="iso-8859-1"?>
<!-- Generator: Adobe Illustrator 16.0.0, SVG Export Plug-In . SVG Version: 6.00 Build 0)  -->
<!DOCTYPE svg PUBLIC "-//W3C//DTD SVG 1.1//EN" "http://www.w3.org/Graphics/SVG/1.1/DTD/svg11.dtd">
<svg version="1.1" id="&#x30EC;&#x30A4;&#x30E4;&#x30FC;_1"
	 xmlns="http://www.w3.org/2000/svg" xmlns:xlink="http://www.w3.org/1999/xlink" x="0px" y="0px" width="426.854px"
	 height="580.189px" viewBox="0 0 426.854 580.189" style="enable-background:new 0 0 426.854 580.189;" xml:space="preserve">
<path d="M388.779,414.875c-5.541-9.779-13.83-15.137-24.3-18.811c-8.915-3.129-18.061-4.576-26.684-8.613
	c-6.738-3.152-12.808-7.245-19.896-9.644c-7.211-2.44-14.902-3.125-22.136-5.467c-11.346-3.676-19.835-10.948-28.323-18.991
	c-12.266-11.621-24.353-23.438-36.468-35.219c19.593,0.787,44.331-0.506,35.265-19.186c13.565-10.465,24.776-23.999,34.463-38.832
	c6.162-9.44,20.32-24.776,18.254-37.025c-1.768-10.461-17.615-22.962-24.971-29.307c-5.727-4.939-9.539-7.141-17.021-5.161
	c-8.976,2.376-16.726,7.502-26.179,9.304c-8.448,1.61-17.088,2.315-25.596,3.586c-4.896,0.731-9.773,1.554-14.637,2.447
	c-0.204-5.933-0.32-11.865-0.579-17.797c6.853-3.203,13.589-6.746,20.863-9.2c9.341-3.151,29.681,0.393,35.632-8.421
	c7.135-10.567-10.831-23.979-20.48-23.044c-4.894,0.475-9.808,4.095-13.942,6.188c-7.486,3.788-15.099,7.301-22.866,10.463
	c1.266-9.764,2.928-20.001,7.995-28.422c5.558-9.238,13.541-12.061,21.472-17.865c5.444-3.984,10.229-10.191,7.223-17.36
	c-3.773-8.999-20.242-12.646-27.885-15.849c-18.376-7.703-37.103-14.43-56.103-20.423c-0.936-0.295-1.725-0.163-2.403,0.148
	c-1.929,0.258-3.673,2.171-3.307,4.583c2.514,16.604,13.373,27.97,21.788,41.895c10.485,17.349,9.116,40.275,9.127,60.729
	c-15.334,3.793-30.925,4.914-46.933,2.124c-2.885-0.503-4.734,2.077-4.572,4.272c-0.091,0.292-0.246,0.532-0.283,0.864
	c-2.052,18.675,35.205,18.32,50.143,16.809c0.181,5.165,0.317,10.331,0.487,15.496c-22.753,5.295-45.225,11.838-67.597,18.58
	c-7.537-5.948-17.519-7.839-26.732-9.45c-0.171-0.03-0.313,0.002-0.476-0.009c-2.924-1.599-7.232,1.525-4.983,4.884
	c19.922,29.768,38.086,62.692,60.59,90.534c0.019,0.023,0.049,0.041,0.068,0.064c-1.288,4.703,1.614,8.525,6.186,9.733
	c0.274,0.073,0.583,0.075,0.87,0.124c-12.361,25.379-69.864,69.059-114.032,88.242c-0.97,0.421-1.484,1.082-1.725,1.809
	c-0.69,0.33-1.352,0.703-2.045,1.028c-3.248,1.525-1.692,7.089,1.845,6.811c31.868-2.516,48.776-11.354,71.158-24.539
	c22.383-13.186,16.178-9.904,23.91-14.48c18.498,21.278,34.059,44.487,46.711,69.542c-1.683,3.268-2.53,7.307-2.329,11.275
	c0.643,12.678,10.334,47.738,23.901,52.871c16.488,6.236,20.72-15.561,20.227-26.35c-0.93-20.326-6.604-39.229-9.338-58.859
	c-0.291-26.858-0.989-53.705-2.009-80.542c0.392-9.804,0.811-19.607,1.057-29.412c16.417,14.401,31.377,30.294,44.192,48.095
	c11.876,16.496,19.477,40.1,34.784,53.534c10.399,9.127,22.064,9.407,33.453,2.206c16.774-10.605,25.112-19.811,46.828-8.816
	c6.586,3.334,8.45,6.153,16.151,4.221C388.917,419.66,389.919,416.885,388.779,414.875 M254.609,272.852
	c-5.26,6.155-10.638,12.276-15.188,18.877c-2.761,0.357-5.431,0.719-7.783,0.868c-6.706,0.423-13.385,1.039-20.052,1.75
	c0.096-8.383,0.185-16.764,0.176-25.147c15.643-1.114,39.581-4.162,43.176-15.807c0.043-0.14,0.016-0.293,0.053-0.434
	c0.735,1.284,1.28,2.462,1.554,3.325C258.57,262.714,257.008,267.626,254.609,272.852 M160.266,269.581
	c9.095,0.468,18.267,0.597,27.425,0.509c0.225,9.105,0.429,18.212,0.621,27.318c-4.86,0.746-9.712,1.552-14.554,2.426
	c-2.564-3.938-5.917-7.705-7.784-11.082c-3.567-6.455-6.731-13.118-10.62-19.314C156.973,269.48,158.619,269.496,160.266,269.581
	 M176.216,337.567c4.371-6.78,2.905-10.743,3.724-18.636c2.938-0.359,5.884-0.645,8.84-0.851
	c0.734,40.002,1.112,80.011,1.21,120.022c-10.522-15.097-18.25-31.152-27.486-47.26c-4.149-7.235-9.195-13.141-14.914-18.376
	C158.644,363.738,171.775,349.985,176.216,337.567 M187.256,251.34c-15.365,1.504-30.772,2.292-46.208,2.567
	c-2.829-2.081-5.679-4.132-8.053-6.622c-2.977-3.124-4.965-6.85-7.116-10.454c19.987-4.878,40.186-9.45,60.5-13.372
	C186.667,232.753,187.003,242.045,187.256,251.34 M250.072,213.799c18.236-1.876,31.772,11.11,25.412,29.386
	c-0.207,0.593-0.551,1.116-0.785,1.696c-3.086,3.925-6.699,7.852-8.862,7.638c-0.065-0.007-0.327-0.32-0.654-0.737
	c-0.442-1.119-1.007-2.219-1.758-3.286c-0.767-1.084-1.683-1.994-2.644-2.852c-0.235-0.342-0.412-0.596-0.412-0.597
	c-2.248-2.688-5.121-6.132-8.282-8.937c-0.507-1.097-1.168-2.107-2.72-2.884c-0.844-0.423-1.641-0.641-2.409-0.764
	c-0.675-0.343-1.353-0.646-2.034-0.866c-4.564-1.478-7.711-0.096-9.545,2.529c-7.061,2.872-9.34,9.792-17.913,13.003
	c-1.886,0.706-3.862,1.214-5.883,1.612c-0.114-9.892-0.277-19.784-0.539-29.675C224.035,216.952,237.052,215.138,250.072,213.799
	 M210.904,212.132c-0.028,0.006-0.058,0.012-0.086,0.017v-0.005L210.904,212.132z"/>
<g>
</g>
<g>
</g>
<g>
</g>
<g>
</g>
<g>
</g>
<g>
</g>
</svg>
