<?xml version="1.0" encoding="iso-8859-1"?>
<!-- Generator: Adobe Illustrator 16.0.0, SVG Export Plug-In . SVG Version: 6.00 Build 0)  -->
<!DOCTYPE svg PUBLIC "-//W3C//DTD SVG 1.1//EN" "http://www.w3.org/Graphics/SVG/1.1/DTD/svg11.dtd">
<svg version="1.1" id="&#x30EC;&#x30A4;&#x30E4;&#x30FC;_1"
	 xmlns="http://www.w3.org/2000/svg" xmlns:xlink="http://www.w3.org/1999/xlink" x="0px" y="0px" width="426.854px"
	 height="580.189px" viewBox="0 0 426.854 580.189" style="enable-background:new 0 0 426.854 580.189;" xml:space="preserve">
<path d="M348.278,395.142c9.943-19.185,22.307-42.767,13.771-63.14c-1.488-3.551-3.64-6.534-6.013-9.336
	c-7.964-17.798-19.578-41.298-35.776-48.842c-9.472-4.412-21.226-4.793-32.646-3.082c1.528-5.145,3.015-9.759,6.427-14.527
	c9.065-12.665,6.973-28.761-10.546-32.334c-2.524-0.516-4.202,1.384-4.481,3.354c-0.058,0.029-0.109,0.027-0.168,0.059
	c-18.854,10.44-42.457,19.314-54.985,37.748c-2.257,3.32,2.004,6.379,5.001,5.001c10.333-4.749,19.92-9.025,28.87-14.156
	c0.057,0.845,0.118,1.689,0.163,2.533c-1.145,1.104-2.194,2.301-2.957,3.802c-2.301,4.52-3.022,10.24-3.334,16.011
	c-20.784,4.292-41.441,9.315-61.556,16.069c3.746-6.766,9.173-12.055,12.15-19.318c2.488-6.073,3.786-13.01,4.99-19.851
	c3.976-8.629,7.664-17.356,10.933-26.222c6.769-2.22,13.517-4.543,20.241-6.99c16.505-6.004,44.768-11.618,37.029-34.941
	c-8.138-24.52-27.492-9.52-41.614,0.981c-1.369,1.018-2.722,2.019-4.077,3.021c3.018-12.153,5.436-24.49,7.219-37.018
	c9.98,1.714,23.002,1.281,25.143-11.067c1.224-7.056-3.801-12.042-7.414-17.294c-0.807-1.174-1.486-2.315-2.256-3.475
	c-0.438-0.867-0.916-1.737-1.43-2.611c-5.154-8.764-9.25-17.671-13.652-26.627c-1.155-3.296-2.234-6.661-3.119-10.278
	c-0.598-2.442-3.325-3.174-5.369-2.184c-0.291,0.141-0.518,0.321-0.803,0.466c-0.696-0.108-1.414,0.042-2.117,0.416
	c-0.725,0.215-1.473,0.531-2.266,1.092c-0.953,0.672-1.729,1.651-2.449,2.711c-2.443,1.818-4.572,3.912-6.506,6.2
	c-7.594,6.947-15.188,13.895-22.78,20.843c-0.49,0.448-0.76,1.018-0.91,1.62c-2.218,3.038-1.177,7.766,5.134,20.311
	c0.51,1.014,1.264,1.548,2.078,1.749c1.22,8.097,2.91,16.1,2.991,22.57c0.224,17.832-1.106,35.902-3.014,53.953
	c-19.268,11.187-39.602,18.404-65.256,17.534c-1.509-0.051-3.212,1.163-3.525,2.684c-0.124,0.609-0.25,1.219-0.375,1.829
	c-0.245,1.188-0.093,2.727,0.939,3.555c0.036,0.03,0.077,0.042,0.113,0.071c0.301,2.753,2.053,5.316,4.573,6.445
	c0.585,0.698,1.472,1.153,2.694,1.089c19.747-1.052,38.894-4.694,57.729-9.76c-1.708,9.69-3.416,19.382-5.124,29.072
	c-0.112,0.63-0.21,1.283-0.316,1.921c-5.509,11.199-11.033,22.391-16.49,33.615c-1.433,0.57-2.846,1.188-4.27,1.78
	c-6.467-9.453-14.129-18.032-23.83-24.921c-9.153-6.502-60.321-28.271-56.724-0.873c0.265,2.023,1.462,3.569,3.655,3.655
	c0.187,0.007,0.355,0.051,0.542,0.06c0.585,0.733,1.478,1.231,2.725,1.193c20.493-0.626,37.586,17.791,51.619,31.193
	c-0.948,0.505-1.939,0.924-2.878,1.442c-7.737,4.265-27.927,22.779-41.015,23.39c-13.159-15.954-32.543-34.397-44.874-25.854
	c-2.336-1.078-6.007,0.855-5.32,4.258c4.005,19.869,15.036,38.695,23.637,56.868c10.238,21.637,20.782,43.13,31.63,64.467
	c5.63,11.072,11.832,32.026,26.456,34.384c8.304,1.34,14.093-3.295,15.977-11.313c3.57-15.194-6.903-37.683-11.345-51.938
	c-5.82-18.681-13.008-37.109-23.48-53.716c-0.634-1.005-1.531-2.338-2.537-3.794c13.828-11.122,29.121-19.731,45.325-26.425
	c8.437,9.351,15.669,19.529,20.763,31.127c-11.298,2.371-22.19,5.592-32.069,12.583c-2.277,1.612-1.864,4.497-0.361,5.998
	c0.223,2.109,1.644,4.439,4.639,7.023c7.783,6.72,22.086,4.664,34.194,1.087c0.389,5.012,1.537,9.942,2.735,14.886
	c-11.104,3.03-21.51,7.158-31.451,13.486c-1.627,1.037-1.922,2.701-1.479,4.144c0.165,1.481,1.182,2.963,2.621,3.498
	c11.917,4.428,21.799-0.027,33.19-4.317c0.602,12.635-2.186,25.816,0.018,38.299c0.07,0.396,0.19,0.74,0.271,1.125
	c-6.387-3.127-12.717-6.231-18.952-8.955c-4.311-1.883-7.525,3.505-3.69,6.313c15.646,11.452,31.292,22.903,46.938,34.356
	c11.813,8.646,24.125,20.059,38.055,25.07c22.965,8.261,34.931-5.718,45.77-23.967c10.365-17.45,20.173-35.231,29.561-53.231
	C336.384,420.689,342.989,408.125,348.278,395.142 M216.067,464.49c0.121-18.939-0.85-38.996,0.326-58.649
	c8.272-1.9,16.722-2.962,25.929-2.793c13.012,0.239,34.637-2.823,24.731-21.901c-3.691-7.111-7.381-8.717-11.127-7.714
	c-1.057-0.92-2.531-1.28-3.992-0.306c-10.654,7.117-22.1,12.068-33.955,16.091c1.084-7.796,2.721-15.438,5.037-22.854
	c7.597-3.063,15.49-5.066,25.069-4.229c5.841,0.511,11.536,2.343,17.245-0.257c7.061-3.213,11.842-12.702,5.385-19.168
	c-3.13-3.135-6.431-2.225-10.308-2.55c-6.813-0.569-4.946,2.759-14.438,0.18c-0.312-0.085-0.566-0.261-0.847-0.396
	c1.776-3.274,3.435-6.593,5.054-9.745c2.44-4.744,12.332-14.011,15.856-22.25c3.655-2.754,7.587-4.99,12.022-6.799
	c8.974,1.146,15.554,5.93,20.924,15.108c5.283,9.025,12.048,18.194,16.242,27.751c8.442,19.234-4.928,36.738-16,52.486
	c-9.623,13.687-20.369,26.54-30.414,39.91c-5.304,7.059-10.478,14.23-15.158,21.721c-6.573,10.515-10.952,14.775-23.723,11.183
	C225.298,468.005,220.675,466.347,216.067,464.49 M177.888,317.14c9.163-2.868,18.522-5.244,27.996-7.199
	c11.201-2.312,22.503-4.047,33.841-5.515c-1.237,1.917-2.27,3.893-3.047,5.628c-3.858,8.619-6.188,17.948-11.488,25.877
	c-2.256,3.374-4.852,6.417-7.406,9.483c-6.084,2.701-12.248,4.868-19.204,6.266c-2.041,0.41-4.079,0.791-6.112,1.169
	C188.329,340.711,183.74,328.526,177.888,317.14"/>
<g>
</g>
<g>
</g>
<g>
</g>
<g>
</g>
<g>
</g>
<g>
</g>
</svg>
