<?xml version="1.0" encoding="iso-8859-1"?>
<!-- Generator: Adobe Illustrator 16.0.0, SVG Export Plug-In . SVG Version: 6.00 Build 0)  -->
<!DOCTYPE svg PUBLIC "-//W3C//DTD SVG 1.1//EN" "http://www.w3.org/Graphics/SVG/1.1/DTD/svg11.dtd">
<svg version="1.1" id="&#x30EC;&#x30A4;&#x30E4;&#x30FC;_1"
	 xmlns="http://www.w3.org/2000/svg" xmlns:xlink="http://www.w3.org/1999/xlink" x="0px" y="0px" width="426.854px"
	 height="580.189px" viewBox="0 0 426.854 580.189" style="enable-background:new 0 0 426.854 580.189;" xml:space="preserve">
<path d="M321.972,142.222c-7.062-4.74-15.964-13.333-25.427-12.258c-4.477,0.509-8.678,3.979-12.673,5.764
	c-9.169,4.094-18.366,6.963-28.167,8.998c-31.108,6.457-62.88,6.366-93.929,13.758c-25.207,6-50.364,12.194-75.552,18.268
	c-1.583,0.199-3.177,0.335-4.756,0.559c-8.08,1.14-18.189,1.885-25.038,6.572c-0.294,0.068-0.587,0.144-0.881,0.211
	c-0.662,0.153-1.152,0.454-1.553,0.813c-0.491,0.151-0.979,0.25-1.47,0.405c-2.426,0.767-3.181,3.525-1.968,5.453
	c-0.104,0.227-0.266,0.394-0.362,0.631c-0.798,1.967,0.896,3.842,2.553,4.496c4.101,1.623,8.449,2.195,12.873,2.173
	c16.874,4.529,62.943-14.608,85.33-20.354c48.782-12.521,65.301-7.324,74.013-7.671c6.925-0.276,10.841,3.118,15.616,9.662
	c0.141,1.809,0.584,3.521,1.325,5.136c0.953,0.818,1.78,1.521,2.543,2.145c-1.151,0.498-2.209,1.081-3.289,1.641
	c-3.612,1.578-6.851,3.469-8.793,5.687c-17.617,13.983-25.688,37.087-42.629,55.048c-4.008,4.249-8.423,7.908-13.067,11.236
	c-1.323-18.193-5.978-35.52-20.269-46.498c-1.542-1.186-3.039-0.756-4.04,0.311c-1.887-0.079-3.758,1.065-3.614,3.491
	c1.127,19.033,2.254,38.065,3.381,57.098c-15.723,8.063-31.794,15.658-44.557,28.12c-1.151-2.047-2.229-4.136-3.432-6.154
	c-6.285-10.539-12.697-21.659-24.119-25.196c-1.522-1.272-3.228-2.275-5.249-2.758c-0.723-0.172-1.349-0.09-1.926,0.089
	c-2.231-0.786-5.083,0.372-4.926,3.276c0.961,17.891,11.778,32.83,18.604,48.953c9.058,21.394,15.677,43.715,24.532,65.188
	c3.175,7.697,6.982,15.084,10.265,22.724c3.086,7.178,3.938,15.31,6.08,22.779c-5.841,0.923-11.673,1.955-17.484,3.227
	c-2.51,0.549-3.02,2.883-2.261,4.741c-0.005,0.248-0.021,0.495,0.019,0.75c3.373,21.662,26.262,20.507,43.291,19.005
	c33.946-2.996,67.762-2.02,101.524,2.5c2.104,0.282,3.463-1.914,3.655-3.654c0.511-4.629,2.794-7.703,4.145-10.797
	c1.425-0.151,2.485-1.379,2.985-2.617c9.645-23.817,21.684-46.463,36.437-67.519c12.628-18.023,31.179-33.023,42.454-51.743
	c8.223-13.654,3.785-18.09-6.238-29.293c-14.16-15.829-29.832-30-46.521-43.042c-1.471-1.551-2.993-3.024-4.647-4.31
	c-3.61-2.809-7.211-4.156-10.765-4.09c-2.944-0.845-6.311-0.666-9.235,0.178c-3.294,0.949-5.144,3.364-8,4.848
	c-6.219,3.232-12.599,5.265-19.724,6.416c-1.483,0.24-2.979,0.397-4.473,0.567c0.407-1.786,0.768-3.595,1.213-5.364
	c3.252-12.915,4.496-13.244,19.867-19.437c2.072-0.835,4.749-0.007,6.764-1.188c5.316-3.122,10.957-6.542,9.053-13.896
	c-1.188-4.586-6.049-7.195-9.872-9.469c-2.05-1.218-8.731-3.087-10.56-4.839c-6.486-0.201-7.199-3.053-2.137-8.558
	c3.471-1.189,6.94-2.377,10.409-3.567c1.069-0.039,2.245-0.099,3.589-0.174c17.516-0.98,34.547-2.323,52.041,0.285
	c13.029,1.942,45.434,12.534,50.76-7.092C368.88,164.765,333.406,149.896,321.972,142.222 M152.729,414.721
	c-1.529-10.189-4.414-20.053-7.931-29.716c-0.225-0.681-0.401-1.364-0.634-2.046c-1.908-5.575-3.725-11.406-6.287-16.728
	c-0.579-1.2-1.333-2.331-2.09-3.461c-0.913-2.118-1.83-4.233-2.742-6.343c-6.397-14.793-12.877-29.615-20.311-43.936
	c13.34-5.795,26.874-11.397,40.648-16.312c0.765,12.905,1.53,25.812,2.293,38.716c0.018,0.295,0.033,0.591,0.049,0.886
	c-0.357,8.617-0.468,17.2-0.139,25.704c0.754,19.506,4.32,39.213,7.774,58.699c0.372,2.65,0.76,5.299,1.059,7.956
	c-3.307,0.19-6.614,0.378-9.914,0.644C154.13,423.296,153.215,417.959,152.729,414.721 M196.92,427.233
	c-5.98,0.002-11.952,0.106-17.919,0.277c-3.286-40.993-2.267-82.071-2.373-123.181c-0.013-4.914,0.146-10.19,0.293-15.636
	c9.322-2.643,18.745-4.832,28.278-6.473C201.595,330.508,198.83,378.848,196.92,427.233 M277.826,285.633
	c2.05,4.388,3.906,8.884,5.727,13.396c3.682,24.159-4.818,47.318-18.913,70.121c-0.163,0.263-0.341,0.531-0.506,0.795
	c-0.007,0.009-0.015,0.02-0.022,0.029c-13.848,18.435-32.729,34.028-32.42,57.831c-1.296-0.02-2.56-0.036-3.766-0.071
	c-2.198-0.064-4.395-0.105-6.593-0.16c-1.118-0.596-2.177-0.525-3.063-0.075c-0.354-0.008-0.71-0.017-1.063-0.024
	c0.679-26.613,2.055-53.196,4.365-79.728c1.944-22.316,3.41-45.647,6.816-68.287c1.467-0.094,2.915-0.301,4.389-0.363
	c9.021-0.381,26.639,2.853,37.095-1.266C273.023,279.663,275.957,281.629,277.826,285.633 M207.193,256.304
	c-0.11,1.372-0.207,2.745-0.315,4.117c-2.997,0.61-5.992,1.23-8.947,1.976C201.063,260.452,204.145,258.413,207.193,256.304"/>
<g>
</g>
<g>
</g>
<g>
</g>
<g>
</g>
<g>
</g>
<g>
</g>
</svg>
