<?xml version="1.0" encoding="iso-8859-1"?>
<!-- Generator: Adobe Illustrator 16.0.0, SVG Export Plug-In . SVG Version: 6.00 Build 0)  -->
<!DOCTYPE svg PUBLIC "-//W3C//DTD SVG 1.1//EN" "http://www.w3.org/Graphics/SVG/1.1/DTD/svg11.dtd">
<svg version="1.1" id="&#x30EC;&#x30A4;&#x30E4;&#x30FC;_1"
	 xmlns="http://www.w3.org/2000/svg" xmlns:xlink="http://www.w3.org/1999/xlink" x="0px" y="0px" width="426.854px"
	 height="580.189px" viewBox="0 0 426.854 580.189" style="enable-background:new 0 0 426.854 580.189;" xml:space="preserve">
<path d="M363.704,399.979c-10.866,3.04-16.706,14.164-29.153,16.498c-13.396,2.512-40.17,3.662-52.243-2.533
	c-20.691-10.616-17.138-41.885-16.497-61.818c0.393-12.237,1.285-24.447,2.006-36.668c11.238-6.884,22.715-13.222,34.514-18.191
	c14.09-5.935,27.188-4.551,41.549-7.498c6.011-1.233,15.565-4.455,17.002-11.745c1.199-6.085-4.729-11.617-8.118-15.721
	c-7.162-8.665-16.429-22.282-27.966-25.918c-16.99-5.354-20.572,10.327-22.658,23.046c-2.678,16.331-10.857,23.129-23.467,32.453
	c-3.342,2.472-6.727,4.886-10.097,7.319c0.763-33.122-3.899-66.416,5.751-98.691c1.846-1.657,3.544-3.36,4.838-4.409
	c4.746-3.849,10.469-7.463,12.603-13.452c4.386-12.315-10.657-29.128-16.247-38.933c-4.567-8.007-10.086-22.351-21.895-16.536
	c-10.265,5.055-23.399,19.886-28.434,30.387c-4.782,9.975-3.083,19.884,4.271,27.698c0.222,0.759,0.65,1.481,1.481,2.022
	c9.832,6.407,5.274,32.134,5.294,42.186c0.033,15.532,0.064,31.066,0.096,46.6c0.031,15.478,0.064,30.954,0.097,46.431
	c-7.937,5.752-15.869,11.504-23.806,17.257c-1.063,0.771-2.127,1.543-3.191,2.314c-0.928-7.806-1.939-15.599-2.35-23.328
	c-0.873-16.397-0.627-32.817-0.145-49.227c1.035-6.357,2.071-12.715,3.106-19.072c1.391-8.537,4.358-14.311,7.006-22.433
	c1.261-3.864,1.762-6.454,0.203-10.435c-7.252-18.521-39.116-34.314-55.626-42.334c-1.367-0.665-3.342-0.715-4.429,0.571
	c-14.244,16.855-3.66,34.581,8.537,49.038c0.031,0.137,0,0.251,0.048,0.392c6.816,20.4,8.266,41.152,9.733,62.452
	c1.244,18.067,4.301,36.183,1.557,54.227c-1.365,8.981-2.74,17.688-3.89,26.427c-17.569,12.734-35.136,25.47-52.704,38.205
	c-0.494,0.356-0.847,0.779-1.103,1.231c-1.083,0.309-2.135,0.487-3.108,0.442c-6.392-0.294-10.423-7.469-10.328-13.317
	c0.148-9.066,8.033-23.452,10.656-32.313c5.079-17.159,9.189-34.539,12.626-52.081c5.063-4.432,9.589-6.602,15.881-9.089
	c2.423-0.959,4.346-1.116,6.447-2.981c3.108-2.76,4.658-7.093,4.343-11.155c-0.505-6.496-5.271-9.089-9.704-13.064
	c-9.006-8.076-15.644-18.226-22.209-28.28c-1.285-1.966-4.202-2.126-5.768-0.755c-1.848-0.029-3.654,1.133-3.536,3.512
	c0.225,4.543-0.084,9.087-0.051,13.615c-8.316-5.654-17.678-8.828-27.93-8.846c-1.851-0.003-2.947,1.134-3.342,2.507
	c-0.465,0.798-0.745,1.74-0.589,2.807c2.881,19.699,25.694,29.63,29.837,47.645c-4.913,19.372-10.844,38.451-18.837,56.818
	c-4.9,11.261-10.436,22.227-16.909,32.67c-3.833,6.182-9.129,11.903-13.821,17.824c-0.236,0.157-0.482,0.261-0.705,0.497
	c-11.443,12.171-27.937,32.369-13.326,48.808c11.411,12.839,31.283,8.209,43.128-1.098c20.552-16.146,35.347-40.492,54.712-58.383
	c7.967-7.361,16.279-14.313,24.723-21.103c-0.418,4.423-0.752,8.891-0.962,13.446c-0.372,8.033-2.564,17.319,6.617,20.384
	c19.906,6.645,31.985-26.214,33.493-40.038c0.824-7.547,0.568-15.151-0.084-22.766c4.058-2.794,8.097-5.619,12.194-8.347
	c4.504-2.999,9.056-6.085,13.632-9.187c0.023,11.104,0.047,22.205,0.068,33.31c0.031,14.338,0,28.678,0.089,43.016
	c0.056,9.037-0.382,19.192,3.71,27.565c7.668,15.691,25.657,17.406,41.195,16.995c24.935-0.66,103.469,3.715,104.939-36.353
	C386.891,408.752,375.854,396.58,363.704,399.979 M111.96,290.187c-0.005,0.011-0.005,0.021-0.01,0.032
	c-0.008-0.01-0.016-0.02-0.024-0.029C111.939,290.189,111.947,290.187,111.96,290.187"/>
<g>
</g>
<g>
</g>
<g>
</g>
<g>
</g>
<g>
</g>
<g>
</g>
</svg>
