<?xml version="1.0" encoding="iso-8859-1"?>
<!-- Generator: Adobe Illustrator 16.0.0, SVG Export Plug-In . SVG Version: 6.00 Build 0)  -->
<!DOCTYPE svg PUBLIC "-//W3C//DTD SVG 1.1//EN" "http://www.w3.org/Graphics/SVG/1.1/DTD/svg11.dtd">
<svg version="1.1" id="&#x30EC;&#x30A4;&#x30E4;&#x30FC;_1"
	 xmlns="http://www.w3.org/2000/svg" xmlns:xlink="http://www.w3.org/1999/xlink" x="0px" y="0px" width="426.854px"
	 height="580.189px" viewBox="0 0 426.854 580.189" style="enable-background:new 0 0 426.854 580.189;" xml:space="preserve">
<path style="fill:#00340E;" d="M365.188,353.688c-16.48-19.356-35.72-36.312-52.235-55.743c-15.271-17.97-29.426-36.789-42.6-56.266
	c7.682-6.236,15.938-11.605,24.97-15.706c4.532-2.058,12.368-3.365,14.09-9.198c1.466-4.967-3.392-11.739-5.718-15.474
	c-5.172-8.313-11.079-16.242-16.605-24.322c-1.731-2.532-5.787-2.3-6.681,0.873c-2.824,10.034-5.144,20.406-10.62,29.399
	c-3.432,5.636-7.316,11.033-11.206,16.408c-4.18-6.633-8.259-13.33-12.208-20.107c9.211-19.77,24.098-35.663,34.838-54.628
	c1.647-2.483,3.098-5.046,4.096-7.848c0.137-0.288,0.306-0.55,0.438-0.84c4.142-9.007,2.313-17.812-2.332-25.532
	c-4.003-10.725-11.356-20.246-21.444-18.911c-3.523,0.466-4.356,4.85-2.466,6.605c-2.227,27.057-11.767,51.906-28.422,73.442
	c-1.646-3.148-3.293-6.297-4.891-9.472c1.164-3.828,1.869-7.592,1.971-11.21c2.748-13.342-7.323-22.703-19.116-30.202
	c-1.811-1.152-3.84-0.211-5,1.312c-11.012,14.448-19.049,30.23-31.926,43.379c-12.7,12.97-27.54,23.165-43.717,31.26
	c-0.315,0.155-0.646,0.279-0.959,0.439c-0.125,0.063-0.18,0.16-0.291,0.231c-0.057,0.028-0.109,0.061-0.165,0.088
	c-1.216,0.597-1.719,1.549-1.797,2.548c-1.499,2.266-0.621,5.967,2.762,5.635c22.84-2.24,43.611-10.695,61.121-24.861
	c-11.144,25.395-24.301,48.544-40.12,70.53c-2.624-6.969-8.27-13.055-13.611-18.847c-11.183-12.124-23.105-22.399-38.478-28.707
	c-2.011-0.825-3.598,0.482-4.205,2.195c-1.337,1.288-1.957,3.537-0.493,5.399c7.303,9.289,15.236,18.551,22.201,28.361
	c5.323,9.672,10.133,19.685,15.417,29.405c0.53,1.655,1.017,3.329,1.433,5.035c-1.819,2.181-3.584,4.378-5.464,6.546
	c-12.941,14.92-25.426,30.476-39.557,44.3c-14.552,14.237-30.919,26.48-45.838,40.321c-0.604,0.56-0.869,1.179-1.001,1.802
	c-0.032,0.009-0.063,0.021-0.094,0.026c-4.596,0.994-2.65,8.043,1.943,7.049c5.237-1.132,10.133-2.997,14.766-5.405
	c9.819-2.974,17.98-9.112,25.937-16.356c24.201-14.755,44.818-34.271,62.692-56.356c5.285-0.027,10.619-0.192,15.806-0.775
	c-1.067,8.697-3.826,16.925-8.348,24.387c-7.449,3.423-14.938,6.751-22.348,10.161c-7.142,3.287-48.827,15.914-29.392,29.623
	c18.26,12.88,36.098-6.784,47.676-18.086c2.002-1.954,4.162-3.703,6.28-5.509c5.388,4.905,8.298,12.022,9.401,19.945
	c-12.409,2.818-29.143,13.392-34.812,16.03c-12.595,5.863-26.1,15.361-39.815,18.062c-12.151,2.395-27.364-3.49-40.183-2.703
	c-0.408,0.025-0.735,0.162-1.073,0.285c-2.652,0.44-4.272,4.742-1.339,6.914c12.049,8.916,12.379,24.746,23.148,33.301
	c6.298,5.003,13.379,3.447,19.748-0.52c1.573-0.979,3.106-2.033,4.623-3.12c8.28,10.468,13.018,20.773,20.058,32.188
	c3.199,5.186,6.79,9.122,12.917,10.561c15.117,3.55,26.846-11.768,34.104-22.711c11.369-17.149,22.153-40.175,26.082-60.663
	c11.213-1.467,22.344-2.438,33.443-3.002c-6.173,21.81-18.244,41.35-35.95,55.648c-1.553,1.018-3.026,2.119-4.655,3.049
	c-1.315,0.75-2.312,1.657-3.116,2.635c-6.508,4.307-13.574,8.045-21.345,10.934c-4.211,1.564-2.584,8.104,1.492,7.117
	c0.618,0.869,1.6,1.512,2.875,1.588c14.942,0.902,26.504,3.324,40.18-3.944c11.256-5.983,24.115-14.375,31.437-25.017
	c8.384-12.184,9.062-27.668,10.892-41.912c0.013-0.098,0.025-0.197,0.039-0.297c0.852-3.423,1.533-6.905,2.062-10.437
	c16.003-0.06,32.042,0.521,48.302,1.521c14.187,0.873,24.883-4.494,14.137-19.539c-15.734-22.032-36.127-6.826-58.362-7.121
	c-0.536-0.008-1.035,0.01-1.566,0.005c1.068-8.304,2.136-16.606,3.202-24.91c10.954-2.801,19.115-9.257,17.095-22.689
	c-1.166-7.757-6.762-14.771-14.944-10.905c-6.016,2.842-10.824,9.018-16.529,12.603c-4.863,3.056-9.979,5.49-15.298,7.481
	c5.397-10.648,9.212-22.252,11.895-33.022c1.147-4.6,2.116-9.439,2.899-14.326c0.674-2.636,1.26-5.293,1.738-7.974
	c1.27-7.101,1.924-14.47,0.621-21.622c-0.277-1.516-0.652-2.97-1.101-4.377c-0.944-9.847-4.573-19.223-12.397-27.474
	c-0.736-0.777-1.573-1.066-2.39-1.076c-0.886-0.553-1.927-0.72-2.913-0.524c-1.822,0.055-3.623,1.276-3.596,3.521
	c0.294,24.454,1.323,49.037-1.888,73.254c-11.561,10.325-24.513,18.524-38.093,25.7c3.17-9.265,5.534-19.109,13.611-24.677
	c0.44-0.303,0.756-0.664,1.012-1.044c4.834-4.24,8.729-9.348,9.268-14.583c0.681-6.614-3.672-13.098-10.673-11.755
	c-6.309,1.21-9.171,9.44-13.591,12.988c-2.877,2.307-10.029,5.198-12.858,3.41c0.331-0.479,0.686-0.94,1.013-1.421
	c10.967-16.11,21.098-32.86,30.725-49.846c3.994-6.224,7.869-12.529,11.504-18.995c3.479-6.19,8.652-14.141,13.212-22.627
	c5.085,19.15,16.782,37.311,26.019,54.25c11.529,21.141,24.021,41.708,37.044,61.949c1.12,5.111,2.034,10.427,2.927,16.135
	c1.278,8.177,2.705,14.688,8.158,21.288c9.383,11.356,23.842,20.413,35.196,29.807c14.746,12.199,29.493,24.397,44.239,36.597
	c2.13,1.763,5.22,1.167,6.107-1.613C384.053,384.125,377.178,367.772,365.188,353.688 M192.774,343.632
	c-1.577,2.976,1.83,7.267,5.001,5.001c5.624-4.018,10.386-9.155,14.563-14.858c0.183,0.062,0.31,0.171,0.519,0.209
	c3.218,0.582,7.305,1.153,11.791,1.507c0.852,8.209,1.034,16.411,0.4,24.479c-13.188,1.656-25.171,5.684-36.909,14.371
	c-0.779-16.625-9.189-31.6-18.349-45.663c7.152-4.392,14.722-8.111,22.688-11.017c5.732-2.091,10.776-3.39,15.225-6.047
	C203.512,322.285,198.455,332.91,192.774,343.632 M71.891,408.854c-0.006,0.054-0.021,0.102-0.024,0.156
	c-0.062-0.067-0.121-0.137-0.183-0.203C71.752,408.822,71.821,408.838,71.891,408.854 M127.665,400.602
	c11.31-7.773,23.155-14.55,35.424-20.577c-2.055,11.617-6.698,22.592-12.344,29.041c-12.071,13.792-31.899,39.128-49.917,14.963
	c-0.181-0.243-0.411-0.376-0.62-0.559C109.387,415.947,117.955,407.274,127.665,400.602 M316.592,419.889
	c-15.528-11.491-34.88-13.509-52.99-7.795c-2.443,0.771-2.732,3.462-1.674,5.137c0.139,0.795,0.521,1.566,1.291,2.159
	c0.324,0.251,0.687,0.422,1.025,0.646c6.33,9.979,12.65,20.014,17.77,30.7c2.771,5.782,4.7,14.747,10.32,18.718
	c6.113,4.32,12.189,1.225,17.622-2.623c6.819-4.83,17.622-12.714,21.878-20.066C337.62,436.767,323.977,425.354,316.592,419.889"/>
<g>
</g>
<g>
</g>
<g>
</g>
<g>
</g>
<g>
</g>
<g>
</g>
</svg>
