<?xml version="1.0" encoding="iso-8859-1"?>
<!-- Generator: Adobe Illustrator 16.0.0, SVG Export Plug-In . SVG Version: 6.00 Build 0)  -->
<!DOCTYPE svg PUBLIC "-//W3C//DTD SVG 1.1//EN" "http://www.w3.org/Graphics/SVG/1.1/DTD/svg11.dtd">
<svg version="1.1" id="&#x30EC;&#x30A4;&#x30E4;&#x30FC;_1"
	 xmlns="http://www.w3.org/2000/svg" xmlns:xlink="http://www.w3.org/1999/xlink" x="0px" y="0px" width="426.854px"
	 height="580.188px" viewBox="0 0 426.854 580.188" style="enable-background:new 0 0 426.854 580.188;" xml:space="preserve">
<path d="M46.455,249.366c3.092-2.31,6.053-4.823,9.295-6.897c30.526-19.536,54.065-45.912,73.699-75.932
	c15.635-23.905,23.526-50.87,29.039-78.578c1.358-6.825,1.164-13.822-2.365-20.259c14.903-4.153,32.811,6.741,35.409,21.478
	c0.416,2.355-0.468,5.12-1.341,7.478c-1.148,3.099-3.034,5.914-4.336,8.965c-6.592,15.451-13.162,30.913-19.576,46.439
	c-1.145,2.772-2.044,5.84-2.165,8.808c-0.743,18.212-0.709,36.473-2.018,54.639c-0.681,9.44-3.089,18.86-5.646,28.03
	c-2.01,7.213-10.43,12.195-17.962,12.048c-4.226-0.083-7.192-2.545-7.272-7.384c-0.081-4.876,0.417-9.897,1.574-14.632
	c3.629-14.835,7.775-29.541,11.508-44.351c0.768-3.049,0.605-6.331,0.979-10.774c-1.937,1.76-2.952,2.567-3.833,3.499
	c-8.172,8.649-16.408,17.236-24.456,25.998c-17.086,18.606-38.281,31.013-61.229,40.76c-2.929,1.245-6.195,1.7-9.304,2.521V249.366z
	"/>
<path d="M159.503,151.678c6.944-3.071,36.607-5.094,42.641-8.144c1.881-0.951,3.313-6.525,3.887-8.492
	c3.06-10.484,5.687-21.092,8.583-32.119c-7.756,1.234-14.386,9.168-23.444,2.479c-17.698-10.281-2.491-19.446,7.929-13.327
	c27.084-13.65,36.734-13.905,61.525-31.349c1.893-1.332,20.277-9.968,22.229-11.217c7.135-4.564,10.41-6.158,19.737-5.46
	c7.528,0.563,15.284-1.662,22.915-2.807c12.685-1.904,23.484,2.07,32.668,10.615c2.059,1.917,3.65,4.66,4.658,7.325
	c3.148,8.335,0.102,14.531-8.473,16.742c-10.845,2.795-21.613,2.759-32.176-1.874c-5.635-2.47-10.569-0.365-16.48-2.078
	c-11.803-3.419-19.592-8.03-30.595-0.608c-10.593,7.145-26.563,13.05-37.565,19.615c-1.828,1.091-3.461,3.482-4.012,5.579
	c-2.54,9.7-4.681,19.506-6.924,29.283c-0.334,1.456-0.45,2.961-0.827,5.536c10.229-4.841,19.7-9.232,29.052-13.867
	c1.149-0.57,1.785-2.377,2.436-3.72c3.566-7.363,8.911-11,17.571-10.902c14.05,0.16,25.282,6.078,35.37,15.011
	c3.444,3.051,3.259,4.81-0.846,6.997c-4.209,2.245-8.783,3.81-12.982,6.07c-1.473,0.792-3.29,2.775-3.282,4.203
	c0.093,14.819,0.444,29.639,1.021,44.448c0.047,1.194,2.082,2.786,3.527,3.38c15.703,6.448,31.602,12.439,47.186,19.158
	c12.588,5.426,23.002,13.847,30.261,25.698c4.785,7.815,6.828,16.218,4.061,25.252c-2.301,7.518-5.907,10.117-13.765,9.351
	c-12.836-1.253-23.876-7.133-34.104-14.533c-16.295-11.791-33.143-22.558-51.281-31.394c-14.108-6.872-27.883-9.322-43.141-3.562
	c-10.265,3.876-20.589,7.209-29.97,13.165c-9.805,6.224-20.867,7.194-32.153,5.521c-3.968-0.589-7.24-2.568-8.849-6.61
	c-1.183-2.974-0.821-4.95,2.712-5.861c5.229-1.347,10.455-2.779,15.52-4.624c1.662-0.604,3.672-2.391,4.068-3.998
	c3.6-14.529,7.854-29.968,11.339-44.525c0.933-3.891-31.591,0.171-35.53-2.026C159.625,161.571,164.074,155.195,159.503,151.678
	 M210.324,207.237c0.431,0.39,0.859,0.78,1.289,1.17c12.568-5.832,25.162-11.609,37.655-17.599c1.053-0.505,1.871-2.375,2.04-3.707
	c1.357-10.72,2.546-21.463,3.755-32.201c0.72-6.402,1.382-12.811,2.106-19.548c-13.797,3.222-25.15,9.886-35.506,18.391
	c-1.032,0.848-1.489,2.64-1.799,4.083c-1.585,7.392-3.092,14.804-4.515,22.229C213.617,189.105,211.994,198.175,210.324,207.237"/>
<path style="fill:#79000C;" d="M353.993,492.87c-2.403-27.327-52.336-25.575-70.101-24.823c-4.842-0.207-9.686-0.193-14.53,0.027
	c0-0.005,0.001-0.009,0.001-0.014c0.004-0.103-0.037-0.168-0.039-0.266c-0.15-10.52-1.148-20.511-0.074-30.25
	c1.854-16.771,4.407-33.559,10.709-49.319c1.672-4.183,0.877-7.604-2.49-9.757c-5.543-3.543-11.142-7.185-17.114-9.711
	c-11.166-4.719-11.285-4.398-19.067,5.229c-0.574,0.711-1.033,1.64-1.748,2.094c-3.85,2.442-7.763,4.765-11.652,7.13
	c-0.321-0.482-0.642-0.964-0.961-1.447c2.078-3.896,4.303-7.715,6.188-11.717c1.59-3.375,3.913-5.121,7.313-5.892
	c10.928-2.478,21.752-5.582,32.73-7.688c12.981-2.488,34.893-5.553,47.909-7.82c8.788-1.531,6.896-5.212,11.354-13.506
	c1.267-2.356,1.66-6.344,0.655-8.648c-0.71-1.631-4.477-2.466-6.827-2.328c-14.524,0.848-28.798,3.521-42.541,9.002
	c-12.265,4.893-24.464,9.982-36.697,14.971c-1.238,0.504-2.513,0.908-4.504,1.621c0.974-2.041,1.504-3.141,2.025-4.244
	c6.003-12.727,12.188-25.36,17.934-38.219c3.015-6.746,5.416-14.259,0.657-20.941c-6.848-9.615-16.222-15.758-26.995-19.119
	c-4.203-1.311-6.196,0.442-7.182,5.071c-0.324,1.521-0.804,3.197-0.521,4.637c2.242,11.461-3.459,18.513-11.429,24.46
	c-1.787,1.334-3.237,3.207-5.04,4.509c-1.078,0.78-2.531,0.976-3.833,1.36c-2.853,0.844-6.525,0.708-8.424,2.635
	c-5.455,5.534-10.639,11.543-15.071,18.044c-3.459,5.071-3.356,11.078-0.591,16.937c2.384,5.045,4.257,10.375,6.57,16.113
	c-2.7,0.469-4.668,0.866-6.65,1.144c-22.909,3.204-45.854,4.683-68.902,2.997c-2.005-0.146-4.116,1.168-6.177,1.803
	c1.058,2.414,2.033,4.877,3.224,7.211c0.38,0.749,1.349,1.128,2.013,1.723c9.663,8.648,21.48,9.442,32.956,8.102
	c15.362-1.795,30.556-5.532,45.796-8.598c7.621-1.533,15.186-3.424,24.168-5.471c-2.982,6.438-5.32,11.758-7.945,16.905
	c-0.514,1.008-2.082,1.669-3.271,1.961c-9.756,2.399-19.513,4.826-29.334,6.86c-1.999,0.414-4.52-0.283-6.365-1.344
	c-5.829-3.348-11.908-3.939-18.896-3.227c0.377,5.63,0.718,10.744,1.061,15.857c0.931,13.875,1.783,27.756,2.816,41.619
	c0.851,11.439,2.75,22.592,8.974,32.729c-3.834,0.521-7.668,1.053-11.489,1.524c-0.984-6.123-1.743-12.306-2.193-18.58
	c-1.272-17.703-0.298-24.483-19.042-28.705c-1.204-0.271-2.211,0.031-2.982,0.621c-0.023,0.011-0.044,0.029-0.068,0.041
	c-1.518,0.289-2.816,1.383-2.733,3.397c0.636,15.218,2.672,30.147,6.927,44.802c-8.758,0.182-17.492-0.566-26.212-2.935
	c-0.131-0.035-0.251-0.104-0.382-0.138c-3.005-0.76-11.074-1.907-13.949-0.508c-5.482,2.668,8.116,17.375,12.184,22.465
	c8.07,10.103,12.457,10.07,24.263,6.438c4.073-1.253,8.204-2.185,12.354-2.997c1.361,3.073,2.736,6.141,4.279,9.129
	c1.451,4.877,2.499,9.823,3.148,14.84c0.737,1.252,1.416,2.324,2.112,3.254c1.833,3.748,5.032,6.691,10.983,8.213
	c2.534,0.648,4.887-1.537,4.496-4.08c1.756-0.868,2.813-2.301,4.083-3.877c1.073,0.55,2.249,0.973,3.62,1.191
	c9.385,1.5,25.926-4.572,35.346-6.548c2.036-0.427,4.205-0.765,6.359-1.113c59.64,22.302,76.533,24.98,106.923,6.111
	C347.377,518.121,356.215,518.121,353.993,492.87 M216.892,356.124c-2.302,1.205-4.902,1.732-6.679,2.314
	c-0.471-12.644-0.925-24.868-1.382-37.093c-0.041-1.092-0.091-2.183-0.173-3.271c-0.432-5.731,1.2-9.964,6.712-12.035
	c3.905-1.468,7.623-3.538,12.521-5.855c-0.266,3.543-0.27,5.952-0.648,8.294c-2.367,14.635-4.754,29.267-7.346,43.857
	C219.643,353.779,218.183,355.448,216.892,356.124 M212.681,402.557c0.116-0.944,1.112-2.26,1.946-2.547
	c7.586-2.608,15.223-5.039,22.855-7.473c0.513-0.164,1.127,0.057,2.215,0.139c-0.736,5.113-1.386,10.158-2.263,15.16
	c-0.142,0.808-1.207,1.861-1.995,2.053c-7.732,1.889-15.495,3.617-23.799,5.518C211.998,410.592,212.188,406.555,212.681,402.557
	 M209.926,430.396c0.101-0.9,1.236-2.143,2.105-2.419c7.735-2.45,15.516-4.72,24.366-7.364c-0.954,6.631-1.662,12.168-2.626,17.654
	c-0.164,0.923-1.333,2.123-2.219,2.359c-7.405,1.981-14.852,3.767-22.908,5.766C209.082,440.502,209.363,435.432,209.926,430.396
	 M209.397,458.219c7.469-1.607,14.964-3.056,22.987-4.655c-0.379,5.091-0.704,9.761-1.117,14.362
	c-0.617,1.367-1.098,2.782-1.396,4.242c-7.885,1.143-15.773,2.243-23.664,3.346c0.395-5.414,0.721-10.406,1.229-15.324
	C207.514,459.448,208.633,458.383,209.397,458.219 M195.092,404.934c-0.306,4.098-0.449,7.768-0.94,11.387
	c-0.121,0.891-1.254,2.102-2.111,2.342c-5.277,1.483-10.609,2.73-16.372,4.169c-0.076-5.123-0.142-9.438-0.213-14.222
	C181.954,407.393,188.271,406.211,195.092,404.934 M174.604,436.774c0.102-0.882,1.217-2.179,2.022-2.347
	c5.09-1.054,10.224-1.845,15.689-2.781c-0.395,5.309-0.673,10.381-1.258,15.416c-0.086,0.732-1.585,1.709-2.518,1.852
	c-4.855,0.741-9.74,1.25-15.069,1.895C173.849,445.749,174.083,441.244,174.604,436.774 M171.479,464.204
	c0.192-0.747,1.733-1.468,2.7-1.565c5.005-0.506,10.023-0.806,16.046-1.25c-0.416,5.58-0.653,10.381-1.231,15.138
	c-0.056,0.458-0.397,1.013-0.833,1.487c-6.825,0.93-13.648,1.865-20.476,2.779C168.982,474.909,170.115,469.502,171.479,464.204
	 M162.017,518.036c-0.599-0.143-1.144-0.135-1.644-0.032c-1.215-4.578-2.367-9.16-3.451-13.754
	c11.111-1.258,22.332-2.005,33.445-3.578c0.426,3.303,0.966,6.599,1.649,9.888C177.321,514.825,165.035,518.754,162.017,518.036
	 M231.4,498.653c-0.538,0.894-0.596,1.753-0.416,2.531c-8.665,0.661-15.434,2.965-25.7,5.674c-0.022-1.774-0.028-3.548-0.017-5.321
	c0.087-1.188,0.19-2.376,0.253-3.564c10.11-2.096,16.263-4.478,26.187-6.523C232.555,493.943,232.77,496.383,231.4,498.653
	 M309.418,509.396c-5.513,7.018-15.035,13.042-22.629,14.29c-19.602,3.223-30.936,3.763-49.996,0.437
	c2.627-0.563,5.193-1.181,7.563-1.972c4.891-1.633,9.08-1.779,10.374-7.717c1.477-1.132,2.876-2.354,4.146-3.708
	c3.963-1.516,7.571-3.729,8.774-7.667c1.235-4.043,0.576-9.257,0.76-13.436c0.039-0.896,0.079-1.791,0.118-2.686
	c6.459-0.349,12.932-0.664,19.402-0.587c10.615,0.127,10.203-2.456,19.009,5.098C313.586,497.153,316.271,500.672,309.418,509.396"
	/>
<g>
</g>
<g>
</g>
<g>
</g>
<g>
</g>
<g>
</g>
<g>
</g>
</svg>
