<?xml version="1.0" encoding="iso-8859-1"?>
<!-- Generator: Adobe Illustrator 16.0.0, SVG Export Plug-In . SVG Version: 6.00 Build 0)  -->
<!DOCTYPE svg PUBLIC "-//W3C//DTD SVG 1.1//EN" "http://www.w3.org/Graphics/SVG/1.1/DTD/svg11.dtd">
<svg version="1.1" id="&#x30EC;&#x30A4;&#x30E4;&#x30FC;_1"
	 xmlns="http://www.w3.org/2000/svg" xmlns:xlink="http://www.w3.org/1999/xlink" x="0px" y="0px" width="426.854px"
	 height="580.188px" viewBox="0 0 426.854 580.188" style="enable-background:new 0 0 426.854 580.188;" xml:space="preserve">
<path d="M177.825,184.92c-15.387,9.581-30.558,19.008-45.703,28.474c-3.789,2.368-7.627,4.686-11.219,7.334
	c-7.72,5.693-15.706,5.688-23.25,0.409c-7.143-5-13.803-10.737-20.354-16.51c-2.14-1.885-3.597-4.763-4.795-7.442
	c-2.024-4.522-0.857-5.965,4.15-5.572c2.667,0.209,5.313,0.691,7.968,1.049c32.993,4.457,62.135-11.408,89.487-29.611
	c1.338-0.891,2.396-3.38,2.312-5.062c-1.851-37.044-3.273-66.79-5.094-103.836c-0.112-2.299,0.956-6.031,2.519-6.714
	c2.28-0.998,6.397-0.906,8.179,0.583c8.896,7.434,17.854,14.95,25.686,23.453c7.48,8.12,7.354,15.784,1.887,25.3
	c-6.964,12.121-6.991,19.756-9.425,33.884c-1.476,8.557-0.352,10.343-1.443,19.591c1.733-0.434,2.219-0.415,2.501-0.646
	c13.72-11.224,17.713-11.365,29.173-25.08c8.111-9.708,16.688-19.031,25.172-28.42c3.304-3.657,7.482-5.505,12.556-5.945
	c19.874-1.722,39.714-3.843,59.593-5.491c3.752-0.312,7.735,0.451,11.426,1.426c10.763,2.842,14.989,12.754,8.884,22.154
	c-2.604,4.011-6.921,7.422-11.203,9.716c-7.318,3.919-15.563,4.484-23.879,4.552c-15.776,0.129-31.553,0.675-47.321,1.238
	c-2.122,0.076-4.555,0.768-6.255,1.991c-21.134,15.203-37.928,26.962-57.069,44.95c-5.105,4.797-4.124,11.153,2.541,13.879
	c1.491,0.611,3.158,0.973,4.768,1.081c19.903,1.332,33.366,3.647,53.354,0.329c8.045-1.335,16.626-0.1,24.878,0.77
	c3.489,0.368,7.104,2.321,10.062,4.407c7.055,4.976,10.073,13.229,8.064,20.243c-2.729,9.531-8.895,15.801-18.167,15.863
	c-10.349,0.068-20.818-0.871-31.041-2.547c-18.203-2.986-36.228-7.041-54.39-10.295c-14.114-2.529-20.855-11.478-23.071-24.842
	c-0.196-1.173-0.414-2.343-0.67-3.503C178.574,185.818,178.311,185.603,177.825,184.92"/>
<path style="fill:#79000C;" d="M354.964,492.87c-2.404-27.327-52.336-25.575-70.101-24.823c-4.843-0.207-9.687-0.193-14.53,0.027
	v-0.014c0.005-0.103-0.037-0.168-0.039-0.266c-0.15-10.52-1.148-20.511-0.073-30.25c1.853-16.771,4.407-33.559,10.708-49.319
	c1.672-4.183,0.877-7.604-2.49-9.757c-5.543-3.543-11.141-7.185-17.113-9.711c-11.166-4.719-11.286-4.398-19.068,5.229
	c-0.574,0.711-1.033,1.64-1.747,2.094c-3.85,2.442-7.763,4.765-11.653,7.13c-0.32-0.482-0.641-0.964-0.961-1.447
	c2.078-3.896,4.304-7.715,6.188-11.717c1.591-3.375,3.913-5.121,7.313-5.892c10.928-2.478,21.752-5.582,32.731-7.688
	c12.981-2.488,34.892-5.553,47.909-7.82c8.788-1.531,6.895-5.212,11.354-13.506c1.268-2.356,1.66-6.344,0.656-8.648
	c-0.71-1.631-4.477-2.466-6.828-2.328c-14.524,0.848-28.797,3.521-42.54,9.002c-12.265,4.893-24.465,9.982-36.698,14.971
	c-1.237,0.504-2.512,0.908-4.504,1.621c0.975-2.041,1.506-3.141,2.026-4.244c6.003-12.727,12.187-25.36,17.933-38.219
	c3.016-6.746,5.418-14.259,0.658-20.941c-6.849-9.615-16.223-15.758-26.997-19.119c-4.202-1.311-6.195,0.442-7.181,5.071
	c-0.323,1.521-0.803,3.197-0.521,4.637c2.243,11.461-3.459,18.513-11.429,24.46c-1.787,1.334-3.237,3.207-5.039,4.509
	c-1.08,0.78-2.53,0.976-3.834,1.36c-2.852,0.844-6.524,0.708-8.424,2.635c-5.455,5.534-10.638,11.543-15.072,18.044
	c-3.456,5.071-3.354,11.078-0.589,16.937c2.383,5.045,4.256,10.375,6.57,16.113c-2.7,0.469-4.668,0.866-6.651,1.144
	c-22.907,3.204-45.854,4.683-68.903,2.997c-2.004-0.146-4.114,1.168-6.177,1.803c1.06,2.414,2.034,4.877,3.225,7.211
	c0.381,0.749,1.35,1.128,2.014,1.723c9.662,8.648,21.479,9.442,32.955,8.102c15.363-1.795,30.557-5.532,45.797-8.598
	c7.62-1.533,15.185-3.424,24.167-5.471c-2.982,6.438-5.318,11.758-7.945,16.905c-0.513,1.008-2.082,1.669-3.271,1.961
	c-9.757,2.399-19.513,4.826-29.335,6.86c-1.999,0.414-4.52-0.283-6.364-1.344c-5.829-3.348-11.907-3.939-18.896-3.227
	c0.377,5.63,0.718,10.744,1.062,15.857c0.93,13.875,1.783,27.756,2.815,41.619c0.852,11.439,2.751,22.592,8.974,32.729
	c-3.834,0.521-7.668,1.053-11.489,1.524c-0.984-6.123-1.743-12.306-2.192-18.58c-1.273-17.703-0.299-24.483-19.042-28.705
	c-1.205-0.271-2.211,0.031-2.982,0.621c-0.024,0.011-0.045,0.029-0.069,0.041c-1.517,0.289-2.815,1.383-2.732,3.397
	c0.635,15.218,2.672,30.147,6.927,44.802c-8.758,0.182-17.493-0.566-26.213-2.935c-0.13-0.035-0.251-0.104-0.381-0.138
	c-3.006-0.76-11.074-1.907-13.949-0.508c-5.481,2.668,8.116,17.375,12.183,22.465c8.071,10.103,12.457,10.07,24.264,6.438
	c4.072-1.253,8.203-2.185,12.354-2.997c1.361,3.073,2.736,6.141,4.278,9.129c1.452,4.877,2.5,9.823,3.148,14.84
	c0.737,1.252,1.416,2.324,2.112,3.254c1.833,3.748,5.032,6.691,10.984,8.213c2.533,0.648,4.887-1.537,4.495-4.08
	c1.757-0.868,2.813-2.301,4.083-3.877c1.073,0.55,2.249,0.973,3.62,1.191c9.386,1.5,25.927-4.572,35.346-6.548
	c2.037-0.427,4.206-0.765,6.359-1.113c59.64,22.302,76.535,24.98,106.923,6.111C348.349,518.121,357.187,518.121,354.964,492.87
	 M217.862,356.124c-2.303,1.205-4.902,1.732-6.68,2.314c-0.471-12.644-0.924-24.868-1.382-37.093
	c-0.041-1.092-0.091-2.183-0.173-3.271c-0.431-5.731,1.2-9.964,6.712-12.035c3.905-1.468,7.624-3.538,12.521-5.855
	c-0.265,3.543-0.269,5.952-0.648,8.294c-2.367,14.635-4.753,29.267-7.345,43.857C220.612,353.779,219.153,355.448,217.862,356.124
	 M213.651,402.557c0.115-0.944,1.111-2.26,1.947-2.547c7.584-2.608,15.221-5.039,22.854-7.473c0.514-0.164,1.128,0.057,2.216,0.139
	c-0.737,5.113-1.387,10.158-2.264,15.16c-0.143,0.808-1.207,1.861-1.995,2.053c-7.731,1.889-15.495,3.617-23.799,5.518
	C212.968,410.592,213.158,406.555,213.651,402.557 M210.896,430.396c0.101-0.9,1.236-2.143,2.106-2.419
	c7.734-2.45,15.515-4.72,24.365-7.364c-0.954,6.631-1.661,12.168-2.626,17.654c-0.163,0.923-1.332,2.123-2.219,2.359
	c-7.404,1.981-14.851,3.767-22.908,5.766C210.053,440.502,210.334,435.432,210.896,430.396 M210.368,458.219
	c7.468-1.607,14.964-3.056,22.986-4.655c-0.379,5.091-0.703,9.761-1.116,14.362c-0.617,1.367-1.097,2.782-1.396,4.242
	c-7.885,1.143-15.774,2.243-23.665,3.346c0.396-5.414,0.72-10.406,1.229-15.324C208.484,459.448,209.603,458.383,210.368,458.219
	 M196.063,404.934c-0.307,4.098-0.451,7.768-0.941,11.387c-0.121,0.891-1.255,2.102-2.112,2.342
	c-5.276,1.483-10.608,2.73-16.37,4.169c-0.078-5.123-0.143-9.438-0.215-14.222C182.925,407.393,189.241,406.211,196.063,404.934
	 M175.575,436.774c0.102-0.882,1.216-2.179,2.021-2.347c5.091-1.054,10.226-1.845,15.691-2.781
	c-0.396,5.309-0.673,10.381-1.259,15.416c-0.085,0.732-1.585,1.709-2.517,1.852c-4.855,0.741-9.739,1.25-15.069,1.895
	C174.819,445.749,175.053,441.244,175.575,436.774 M172.45,464.204c0.191-0.747,1.734-1.468,2.699-1.565
	c5.005-0.506,10.024-0.806,16.047-1.25c-0.416,5.58-0.653,10.381-1.232,15.138c-0.055,0.458-0.397,1.013-0.832,1.487
	c-6.824,0.93-13.648,1.865-20.477,2.779C169.952,474.909,171.085,469.502,172.45,464.204 M162.987,518.036
	c-0.598-0.143-1.145-0.135-1.644-0.032c-1.216-4.578-2.368-9.16-3.452-13.754c11.111-1.258,22.332-2.005,33.446-3.578
	c0.425,3.303,0.965,6.599,1.648,9.888C178.291,514.825,166.005,518.754,162.987,518.036 M232.371,498.653
	c-0.539,0.894-0.596,1.753-0.416,2.531c-8.666,0.661-15.435,2.965-25.701,5.674c-0.021-1.774-0.026-3.548-0.017-5.321
	c0.088-1.188,0.191-2.376,0.254-3.564c10.109-2.096,16.262-4.478,26.187-6.523C233.524,493.943,233.739,496.383,232.371,498.653
	 M310.388,509.396c-5.513,7.018-15.035,13.042-22.628,14.29c-19.603,3.223-30.937,3.763-49.995,0.437
	c2.625-0.563,5.191-1.181,7.562-1.972c4.89-1.633,9.079-1.779,10.374-7.717c1.477-1.132,2.876-2.354,4.145-3.708
	c3.963-1.516,7.572-3.729,8.775-7.667c1.236-4.043,0.575-9.257,0.759-13.436c0.04-0.896,0.079-1.791,0.119-2.686
	c6.458-0.349,12.933-0.664,19.401-0.587c10.617,0.127,10.203-2.456,19.009,5.098C314.556,497.153,317.242,500.672,310.388,509.396"
	/>
<g>
</g>
<g>
</g>
<g>
</g>
<g>
</g>
<g>
</g>
<g>
</g>
</svg>
