<?xml version="1.0" encoding="iso-8859-1"?>
<!-- Generator: Adobe Illustrator 16.0.0, SVG Export Plug-In . SVG Version: 6.00 Build 0)  -->
<!DOCTYPE svg PUBLIC "-//W3C//DTD SVG 1.1//EN" "http://www.w3.org/Graphics/SVG/1.1/DTD/svg11.dtd">
<svg version="1.1" id="&#x30EC;&#x30A4;&#x30E4;&#x30FC;_1"
	 xmlns="http://www.w3.org/2000/svg" xmlns:xlink="http://www.w3.org/1999/xlink" x="0px" y="0px" width="426.853px"
	 height="580.188px" viewBox="0 0 426.853 580.188" style="enable-background:new 0 0 426.853 580.188;" xml:space="preserve">
<path d="M356.948,196.322c-24.492,1.077-48.498-1.149-72.019-8.344c-17.183-5.256-31.923-14.267-43.425-27.993
	c-8.098-9.662-15.828-19.717-22.836-30.189c-10.017-14.975-19.121-30.556-28.842-45.733c-2.556-3.989-5.818-7.556-8.992-11.107
	c-2.201-2.463-2.233-4.461,0.389-6.411c0.904-0.671,1.9-1.332,2.958-1.66c11.233-3.482,22.397-7.239,33.769-10.202
	c7.11-1.853,9.424,0.898,10.452,8.063c0.919,6.401,2.062,13.173,4.981,18.806c7.363,14.199,15.033,28.354,23.955,41.6
	c14.064,20.885,34.795,33.445,57.839,42.465c15.993,6.259,32.054,12.345,48.04,18.623c3.686,1.448,7.232,3.284,10.738,5.141
	c0.854,0.452,1.787,1.713,1.754,2.567c-0.025,0.648-1.455,1.628-2.379,1.793C367.889,194.71,362.413,195.482,356.948,196.322"/>
<path d="M51.142,214.508c1.891-0.874,3.73-1.882,5.678-2.599c10.719-3.944,21.574-7.544,32.174-11.784
	c14.514-5.805,27.478-14.21,37.713-26.106c5.066-5.888,9.185-12.649,13.294-19.285c3.688-5.958,6.575-12.409,10.187-18.417
	c3.295-5.481,5.898-6.121,11.772-3.587c2.14,0.922,4.231,2.042,6.164,3.341c8.116,5.455,16.282,10.848,24.153,16.637
	c2.172,1.597,3.977,4.27,4.924,6.828c1.791,4.835-0.951,9.586-6.047,10.023c-6.975,0.595-12.168,4.086-17.721,7.881
	c-28.107,19.212-57.863,34.821-92.427,38.508c-8.452,0.903-17.036,0.607-25.56,0.77c-1.297,0.025-2.604-0.446-3.906-0.689
	C51.407,215.522,51.274,215.015,51.142,214.508"/>
<path style="fill:#79000C;" d="M346.859,478.25c-2.403-27.327-52.336-25.575-70.101-24.821c-4.842-0.209-9.687-0.195-14.53,0.025
	v-0.014c0.005-0.103-0.037-0.167-0.039-0.266c-0.149-10.52-1.147-20.511-0.073-30.25c1.854-16.771,4.407-33.559,10.708-49.319
	c1.673-4.183,0.878-7.604-2.489-9.757c-5.543-3.543-11.142-7.185-17.115-9.709c-11.165-4.721-11.285-4.399-19.067,5.228
	c-0.573,0.712-1.032,1.642-1.747,2.094c-3.85,2.442-7.763,4.765-11.654,7.13c-0.319-0.481-0.64-0.964-0.959-1.447
	c2.078-3.896,4.303-7.715,6.187-11.717c1.591-3.375,3.913-5.119,7.313-5.891c10.926-2.479,21.75-5.583,32.73-7.689
	c12.98-2.488,34.893-5.553,47.909-7.82c8.788-1.531,6.896-5.211,11.354-13.506c1.266-2.356,1.66-6.342,0.655-8.647
	c-0.71-1.632-4.478-2.467-6.828-2.329c-14.524,0.848-28.797,3.521-42.54,9.002c-12.265,4.893-24.465,9.982-36.697,14.971
	c-1.238,0.504-2.513,0.908-4.504,1.621c0.973-2.041,1.504-3.14,2.025-4.244c6.003-12.727,12.188-25.36,17.934-38.219
	c3.014-6.747,5.416-14.259,0.657-20.941c-6.849-9.614-16.222-15.757-26.997-19.119c-4.203-1.311-6.195,0.442-7.181,5.071
	c-0.323,1.521-0.804,3.198-0.522,4.637c2.244,11.461-3.457,18.513-11.427,24.46c-1.788,1.334-3.237,3.207-5.04,4.51
	c-1.078,0.779-2.531,0.975-3.834,1.359c-2.852,0.844-6.525,0.709-8.423,2.635c-5.456,5.534-10.64,11.543-15.071,18.044
	c-3.459,5.071-3.357,11.078-0.591,16.937c2.382,5.045,4.257,10.375,6.57,16.115c-2.7,0.467-4.668,0.864-6.651,1.142
	c-22.908,3.204-45.855,4.683-68.902,2.997c-2.004-0.146-4.115,1.168-6.178,1.804c1.059,2.413,2.034,4.876,3.225,7.211
	c0.381,0.748,1.35,1.128,2.014,1.722c9.662,8.648,21.48,9.442,32.955,8.102c15.363-1.795,30.557-5.531,45.797-8.598
	c7.62-1.531,15.184-3.423,24.167-5.471c-2.981,6.438-5.319,11.758-7.944,16.906c-0.514,1.007-2.084,1.668-3.271,1.961
	c-9.758,2.398-19.514,4.825-29.335,6.859c-1.998,0.414-4.521-0.283-6.364-1.344c-5.829-3.348-11.908-3.938-18.896-3.227
	c0.377,5.631,0.718,10.745,1.062,15.859c0.931,13.873,1.783,27.754,2.815,41.617c0.852,11.44,2.75,22.594,8.975,32.729
	c-3.835,0.521-7.669,1.053-11.49,1.526c-0.984-6.125-1.742-12.308-2.193-18.58c-1.272-17.705-0.297-24.485-19.041-28.707
	c-1.205-0.271-2.211,0.033-2.982,0.621c-0.025,0.012-0.044,0.029-0.068,0.041c-1.518,0.289-2.816,1.385-2.733,3.397
	c0.635,15.219,2.672,30.147,6.927,44.802c-8.758,0.182-17.493-0.566-26.213-2.935c-0.13-0.035-0.251-0.104-0.381-0.138
	c-3.006-0.76-11.074-1.907-13.949-0.508c-5.482,2.668,8.116,17.375,12.184,22.465c8.07,10.104,12.457,10.07,24.262,6.438
	c4.074-1.253,8.205-2.185,12.355-2.997c1.361,3.074,2.736,6.141,4.279,9.13c1.451,4.876,2.499,9.823,3.146,14.839
	c0.738,1.252,1.418,2.324,2.114,3.254c1.832,3.75,5.032,6.692,10.983,8.213c2.533,0.648,4.887-1.535,4.494-4.08
	c1.758-0.868,2.814-2.301,4.084-3.877c1.074,0.55,2.25,0.973,3.621,1.191c9.385,1.501,25.926-4.572,35.345-6.547
	c2.036-0.428,4.206-0.766,6.36-1.114c59.639,22.304,76.533,24.981,106.922,6.111C340.243,503.502,349.081,503.502,346.859,478.25
	 M209.757,341.505c-2.301,1.205-4.901,1.731-6.678,2.313c-0.472-12.644-0.925-24.868-1.383-37.093
	c-0.041-1.092-0.09-2.182-0.173-3.27c-0.431-5.732,1.2-9.965,6.713-12.035c3.905-1.468,7.623-3.538,12.519-5.856
	c-0.264,3.543-0.268,5.952-0.647,8.294c-2.367,14.635-4.753,29.268-7.345,43.859C212.507,339.159,211.048,340.828,209.757,341.505
	 M205.546,387.937c0.117-0.944,1.113-2.26,1.947-2.547c7.586-2.608,15.221-5.039,22.855-7.473c0.513-0.164,1.127,0.059,2.215,0.139
	c-0.736,5.113-1.387,10.158-2.264,15.16c-0.143,0.809-1.207,1.862-1.994,2.055c-7.732,1.887-15.496,3.615-23.801,5.516
	C204.864,395.972,205.054,391.935,205.546,387.937 M202.792,415.777c0.1-0.901,1.235-2.144,2.105-2.419
	c7.734-2.451,15.516-4.719,24.365-7.365c-0.954,6.632-1.661,12.168-2.627,17.654c-0.162,0.924-1.331,2.124-2.219,2.359
	c-7.403,1.981-14.85,3.767-22.908,5.766C201.948,425.882,202.229,420.812,202.792,415.777 M202.264,443.599
	c7.468-1.607,14.964-3.055,22.987-4.655c-0.379,5.091-0.705,9.762-1.117,14.364c-0.617,1.365-1.098,2.78-1.396,4.24
	c-7.885,1.143-15.774,2.243-23.665,3.346c0.395-5.413,0.721-10.406,1.23-15.324C200.38,444.828,201.497,443.765,202.264,443.599
	 M187.958,390.313c-0.306,4.099-0.451,7.768-0.94,11.387c-0.121,0.891-1.254,2.102-2.112,2.343
	c-5.277,1.482-10.609,2.73-16.371,4.168c-0.076-5.123-0.142-9.438-0.214-14.222C174.82,392.772,181.136,391.591,187.958,390.313
	 M167.47,422.154c0.103-0.882,1.217-2.179,2.021-2.347c5.09-1.054,10.225-1.845,15.691-2.781c-0.395,5.309-0.674,10.381-1.26,15.416
	c-0.084,0.732-1.584,1.709-2.516,1.852c-4.855,0.742-9.74,1.25-15.07,1.895C166.714,431.129,166.948,426.624,167.47,422.154
	 M164.345,449.584c0.193-0.747,1.734-1.467,2.701-1.565c5.004-0.506,10.023-0.806,16.045-1.25
	c-0.416,5.58-0.652,10.382-1.231,15.138c-0.055,0.458-0.397,1.014-0.832,1.489c-6.825,0.928-13.649,1.865-20.478,2.777
	C161.848,460.289,162.98,454.882,164.345,449.584 M154.882,503.416c-0.598-0.143-1.144-0.135-1.643-0.032
	c-1.215-4.578-2.367-9.16-3.451-13.754c11.111-1.257,22.332-2.005,33.445-3.578c0.426,3.303,0.965,6.599,1.648,9.888
	C170.187,500.206,157.9,504.136,154.882,503.416 M224.267,484.033c-0.539,0.894-0.596,1.753-0.416,2.532
	c-8.665,0.66-15.436,2.964-25.7,5.673c-0.022-1.774-0.028-3.548-0.019-5.32c0.088-1.188,0.192-2.377,0.254-3.565
	c10.111-2.096,16.263-4.477,26.188-6.523C225.419,479.323,225.634,481.763,224.267,484.033 M302.284,494.776
	c-5.513,7.019-15.035,13.042-22.629,14.29c-19.604,3.224-30.938,3.763-49.996,0.437c2.625-0.563,5.192-1.181,7.563-1.972
	c4.89-1.632,9.078-1.779,10.373-7.717c1.478-1.13,2.877-2.354,4.146-3.708c3.963-1.516,7.571-3.729,8.774-7.667
	c1.235-4.043,0.575-9.257,0.759-13.436c0.04-0.896,0.079-1.791,0.119-2.686c6.459-0.347,12.932-0.664,19.4-0.587
	c10.617,0.127,10.205-2.455,19.01,5.098C306.452,482.533,309.138,486.052,302.284,494.776"/>
<g>
</g>
<g>
</g>
<g>
</g>
<g>
</g>
<g>
</g>
<g>
</g>
</svg>
