<?xml version="1.0" encoding="iso-8859-1"?>
<!-- Generator: Adobe Illustrator 16.0.0, SVG Export Plug-In . SVG Version: 6.00 Build 0)  -->
<!DOCTYPE svg PUBLIC "-//W3C//DTD SVG 1.1//EN" "http://www.w3.org/Graphics/SVG/1.1/DTD/svg11.dtd">
<svg version="1.1" id="&#x30EC;&#x30A4;&#x30E4;&#x30FC;_1"
	 xmlns="http://www.w3.org/2000/svg" xmlns:xlink="http://www.w3.org/1999/xlink" x="0px" y="0px" width="426.854px"
	 height="580.188px" viewBox="0 0 426.854 580.188" style="enable-background:new 0 0 426.854 580.188;" xml:space="preserve">
<path style="fill:#79000C;" d="M343.501,492.87c-2.403-27.327-52.336-25.575-70.101-24.823c-4.842-0.207-9.686-0.193-14.53,0.027
	v-0.014c0.005-0.103-0.037-0.168-0.038-0.266c-0.15-10.52-1.148-20.511-0.074-30.25c1.854-16.771,4.407-33.559,10.709-49.319
	c1.672-4.183,0.877-7.604-2.49-9.757c-5.543-3.543-11.142-7.185-17.115-9.711c-11.165-4.719-11.284-4.398-19.067,5.229
	c-0.573,0.711-1.032,1.64-1.747,2.094c-3.85,2.442-7.763,4.765-11.654,7.13c-0.319-0.482-0.64-0.964-0.959-1.447
	c2.078-3.896,4.303-7.715,6.188-11.717c1.59-3.375,3.912-5.121,7.313-5.892c10.926-2.478,21.752-5.582,32.73-7.688
	c12.98-2.488,34.893-5.553,47.909-7.82c8.788-1.531,6.896-5.212,11.354-13.506c1.266-2.356,1.66-6.344,0.655-8.648
	c-0.71-1.631-4.478-2.466-6.828-2.328c-14.524,0.848-28.797,3.521-42.54,9.002c-12.265,4.893-24.464,9.982-36.697,14.971
	c-1.238,0.504-2.513,0.908-4.504,1.621c0.973-2.041,1.504-3.141,2.025-4.244c6.003-12.727,12.188-25.36,17.934-38.219
	c3.014-6.746,5.416-14.259,0.657-20.941c-6.848-9.615-16.222-15.758-26.997-19.119c-4.201-1.311-6.195,0.442-7.181,5.071
	c-0.323,1.521-0.804,3.197-0.522,4.637c2.244,11.461-3.457,18.513-11.427,24.46c-1.788,1.334-3.237,3.207-5.04,4.509
	c-1.078,0.78-2.531,0.976-3.834,1.36c-2.852,0.844-6.525,0.708-8.423,2.635c-5.455,5.534-10.64,11.543-15.071,18.044
	c-3.459,5.071-3.357,11.078-0.591,16.937c2.382,5.045,4.257,10.375,6.57,16.113c-2.7,0.469-4.668,0.866-6.65,1.144
	c-22.909,3.204-45.856,4.683-68.903,2.997c-2.004-0.146-4.115,1.168-6.178,1.803c1.059,2.414,2.034,4.877,3.225,7.211
	c0.381,0.749,1.35,1.128,2.014,1.723c9.663,8.648,21.48,9.442,32.955,8.102c15.363-1.795,30.557-5.532,45.797-8.598
	c7.621-1.533,15.184-3.424,24.167-5.471c-2.981,6.438-5.319,11.758-7.944,16.905c-0.514,1.008-2.084,1.669-3.271,1.961
	c-9.758,2.399-19.514,4.826-29.335,6.86c-1.998,0.414-4.521-0.283-6.364-1.344c-5.829-3.348-11.908-3.939-18.896-3.227
	c0.377,5.63,0.719,10.744,1.062,15.857c0.931,13.875,1.783,27.756,2.815,41.619c0.852,11.439,2.75,22.592,8.975,32.729
	c-3.835,0.521-7.669,1.053-11.49,1.524c-0.984-6.123-1.742-12.306-2.193-18.58c-1.272-17.703-0.297-24.483-19.041-28.705
	c-1.205-0.271-2.211,0.031-2.982,0.621c-0.025,0.011-0.044,0.029-0.068,0.041c-1.518,0.289-2.816,1.383-2.733,3.397
	c0.635,15.218,2.672,30.147,6.927,44.802c-8.758,0.182-17.492-0.566-26.212-2.935c-0.131-0.035-0.252-0.104-0.382-0.138
	c-3.006-0.76-11.074-1.907-13.949-0.508c-5.482,2.668,8.116,17.375,12.184,22.465c8.07,10.103,12.457,10.07,24.262,6.438
	c4.074-1.253,8.205-2.185,12.355-2.997c1.361,3.073,2.736,6.141,4.279,9.129c1.451,4.877,2.499,9.823,3.146,14.84
	c0.739,1.252,1.418,2.324,2.114,3.254c1.832,3.748,5.032,6.691,10.983,8.213c2.533,0.648,4.887-1.537,4.494-4.08
	c1.758-0.868,2.814-2.301,4.084-3.877c1.074,0.55,2.25,0.973,3.621,1.191c9.385,1.5,25.926-4.572,35.345-6.548
	c2.036-0.427,4.206-0.765,6.36-1.113c59.64,22.302,76.533,24.98,106.922,6.111C336.885,518.121,345.723,518.121,343.501,492.87
	 M206.398,356.124c-2.301,1.205-4.901,1.732-6.678,2.314c-0.472-12.644-0.925-24.868-1.383-37.093
	c-0.041-1.092-0.09-2.183-0.172-3.271c-0.432-5.731,1.2-9.964,6.712-12.035c3.905-1.468,7.623-3.538,12.521-5.855
	c-0.266,3.543-0.27,5.952-0.648,8.294c-2.368,14.635-4.754,29.267-7.346,43.857C209.148,353.779,207.689,355.448,206.398,356.124
	 M202.188,402.557c0.117-0.944,1.113-2.26,1.947-2.547c7.586-2.608,15.223-5.039,22.855-7.473c0.513-0.164,1.127,0.057,2.215,0.139
	c-0.736,5.113-1.387,10.158-2.264,15.16c-0.141,0.808-1.207,1.861-1.994,2.053c-7.732,1.889-15.495,3.617-23.801,5.518
	C201.506,410.592,201.695,406.555,202.188,402.557 M199.434,430.396c0.1-0.9,1.236-2.143,2.105-2.419
	c7.734-2.45,15.516-4.72,24.366-7.364c-0.955,6.631-1.662,12.168-2.626,17.654c-0.164,0.923-1.333,2.123-2.219,2.359
	c-7.405,1.981-14.852,3.767-22.908,5.766C198.59,440.502,198.871,435.432,199.434,430.396 M198.905,458.219
	c7.469-1.607,14.964-3.056,22.987-4.655c-0.379,5.091-0.705,9.761-1.117,14.362c-0.617,1.367-1.098,2.782-1.396,4.242
	c-7.885,1.143-15.774,2.243-23.665,3.346c0.395-5.414,0.721-10.406,1.23-15.324C197.021,459.448,198.141,458.383,198.905,458.219
	 M184.6,404.934c-0.306,4.098-0.449,7.768-0.94,11.387c-0.121,0.891-1.254,2.102-2.111,2.342c-5.278,1.483-10.61,2.73-16.372,4.169
	c-0.076-5.123-0.142-9.438-0.214-14.222C171.462,407.393,177.777,406.211,184.6,404.934 M164.111,436.774
	c0.103-0.882,1.217-2.179,2.023-2.347c5.09-1.054,10.223-1.845,15.689-2.781c-0.395,5.309-0.674,10.381-1.258,15.416
	c-0.086,0.732-1.586,1.709-2.518,1.852c-4.855,0.741-9.74,1.25-15.07,1.895C163.355,445.749,163.59,441.244,164.111,436.774
	 M160.986,464.204c0.193-0.747,1.734-1.468,2.701-1.565c5.004-0.506,10.023-0.806,16.045-1.25c-0.416,5.58-0.652,10.381-1.23,15.138
	c-0.056,0.458-0.398,1.013-0.833,1.487c-6.825,0.93-13.649,1.865-20.478,2.779C158.49,474.909,159.623,469.502,160.986,464.204
	 M151.523,518.036c-0.598-0.143-1.144-0.135-1.643-0.032c-1.215-4.578-2.367-9.16-3.451-13.754
	c11.111-1.258,22.332-2.005,33.445-3.578c0.426,3.303,0.965,6.599,1.648,9.888C166.828,514.825,154.543,518.754,151.523,518.036
	 M220.908,498.653c-0.539,0.894-0.596,1.753-0.416,2.531c-8.665,0.661-15.436,2.965-25.7,5.674
	c-0.022-1.774-0.028-3.548-0.019-5.321c0.088-1.188,0.192-2.376,0.254-3.564c10.111-2.096,16.264-4.478,26.188-6.523
	C222.061,493.943,222.277,496.383,220.908,498.653 M298.926,509.396c-5.513,7.018-15.035,13.042-22.629,14.29
	c-19.602,3.223-30.938,3.763-49.996,0.437c2.625-0.563,5.192-1.181,7.563-1.972c4.891-1.633,9.08-1.779,10.373-7.717
	c1.478-1.132,2.877-2.354,4.146-3.708c3.963-1.516,7.571-3.729,8.774-7.667c1.235-4.043,0.575-9.257,0.76-13.436
	c0.039-0.896,0.078-1.791,0.118-2.686c6.459-0.349,12.932-0.664,19.402-0.587c10.615,0.127,10.203-2.456,19.008,5.098
	C303.094,497.153,305.779,500.672,298.926,509.396"/>
<path d="M145.719,141.377c-6.914-1.998-13.291-3.403-19.312-5.729c-4.323-1.668-8.347-4.323-12.14-7.043
	c-1.47-1.053-1.941-3.498-2.867-5.308c1.834-0.855,3.594-2.149,5.519-2.481c6.546-1.126,13.378-1.132,19.692-2.97
	c19.461-5.665,15.875-3.289,16.9-21.448c0.338-5.963-1.717-12.125-3.074-18.106c-1.291-5.694-3.537-11.192-4.58-16.92
	c-1.615-8.86,2.187-12.786,11.018-11.742c19.322,2.283,35.941,18.383,33.378,36.946c-0.108,0.789-0.015,1.606-0.015,3.62
	c8.275-3.886,16.1-7.204,23.479-11.32c1.534-0.856,1.708-4.635,2.008-7.127c0.862-7.169,2.146-8.306,9.409-7.571
	c0.648,0.065,1.326,0.056,1.935,0.257c15.627,5.141,27.214-3.588,38.601-11.817c4.55-3.288,8.961-5.376,13.886-3.169
	c6.889,3.088,13.721,6.645,19.825,11.043c5.472,3.942,4.761,11.399-1.252,14.554c-4.483,2.353-9.718,3.731-14.772,4.459
	c-15.453,2.222-27.344,3.948-42.849,5.802c-3.739,0.447-5.333,2.183-6.016,6.116c-5.216,30.062-8.478,60.311-9.114,90.816
	c-0.261,12.505,3.514,17.665,15.07,22.202c16.697,6.554,30.437,6.519,47.879,5.023c6.771-0.581,8.999-3.558,9.081-10.921
	c0.139-12.381,0.032-24.765,0.051-37.147c0.024-16.619,0.047-33.237,0.138-49.854c0.01-1.796,0.463-3.59,0.711-5.385
	c0.541-0.04,1.084-0.08,1.627-0.12c0.56,2.676,1.186,5.339,1.668,8.029c3.906,21.781,7.965,43.537,11.601,65.363
	c1.885,11.318,8.379,16.634,19.491,17.145c6.176,0.284,12.357,0.577,18.51,1.153c7.395,0.692,13.01,4.218,15.634,11.42
	c2.779,7.628,2.755,14.907-3.014,21.509c-11.083,12.685-24.974,20.181-41.513,22.749c-28.18,4.376-56.22,3.398-83.858-3.616
	c-21.972-5.574-36.298-23.086-36.363-45.725c-0.044-15.574,1.882-31.186,3.502-46.721c2.076-19.918,3.988-30.052,6.365-49.939
	c0.151-1.263,0.021-2.561,0.021-4.667c-7.627,3.414-14.904,6.519-22,9.992c-1.281,0.628-2.235,2.667-2.64,4.235
	c-7.431,28.874-17.761,46.617-32.71,72.324c-6.492,11.166-14.457,21.743-23.173,31.292c-18.269,20.016-42.612,25.788-68.625,26.497
	c-1.335,0.036-2.681-0.419-4.614-0.745C106.896,227.065,132.529,189.656,145.719,141.377"/>
<g>
</g>
<g>
</g>
<g>
</g>
<g>
</g>
<g>
</g>
<g>
</g>
</svg>
