<?xml version="1.0" encoding="iso-8859-1"?>
<!-- Generator: Adobe Illustrator 16.0.0, SVG Export Plug-In . SVG Version: 6.00 Build 0)  -->
<!DOCTYPE svg PUBLIC "-//W3C//DTD SVG 1.1//EN" "http://www.w3.org/Graphics/SVG/1.1/DTD/svg11.dtd">
<svg version="1.1" id="&#x30EC;&#x30A4;&#x30E4;&#x30FC;_1"
	 xmlns="http://www.w3.org/2000/svg" xmlns:xlink="http://www.w3.org/1999/xlink" x="0px" y="0px" width="426.854px"
	 height="580.188px" viewBox="0 0 426.854 580.188" style="enable-background:new 0 0 426.854 580.188;" xml:space="preserve">
<path style="fill:#FFFFFF;" d="M74.51,465.611c-8.245,0-17.161-0.479-27.258-1.456l-1.846-0.136
	c-3.569-0.235-11.875-0.778-12.471-3.861c-0.243-1.25,1.235-3.834,2.113-5.376c0.375-0.656,0.711-1.249,0.939-1.729
	c1.524-3.189,3.098-6.339,4.726-9.472c6.796-13.035,16.268-29.697,29.35-42.867c12.614-12.708,29.318-21.815,45.473-30.632
	l5.561-3.048l-1.346-2.678c-3.437-6.853-3.152-15.976-2.309-22.43c1.985-15.127,15.508-26.105,32.159-26.105
	c3.619,0,7.185,0.543,10.594,1.613c8.427,2.627,15.551,7.774,19.542,14.119c0.885,1.407,1.417,2.843,1.977,4.369
	c0.664,1.792,1.342,3.626,2.606,5.34c4.472,6.068,9.416,11.979,14.199,17.69l0.535,0.642c2.241,2.692,4.479,5.369,6.671,8.067
	l11.828,14.591c0.668,0.828,1.336,1.771,2.018,2.734c1.621,2.284,3.23,4.555,5.175,6.103c1.265,1.015,2.556,1.521,3.841,1.521
	c1.629,0,3.109-0.851,4.07-2.342c1.005-1.534,1.663-4.197,0.427-7.024c-0.839-1.927-2.312-3.777-3.608-5.41
	c-0.596-0.757-1.17-1.486-1.67-2.185c-6.357-9.009-12.771-17.989-19.182-26.963l-3.444-4.825c-1.475-2.064-3.006-4.106-4.548-6.154
	c-3.166-4.226-6.335-8.445-9.002-12.792c-1.67-2.72-1.556-6.996-1.459-10.765c0.042-1.57,0.082-3.049,0.018-4.404l-1.799-39.699
	c-0.025-0.578-0.14-1.349-0.282-2.219c-0.457-2.855-1.154-7.167,0.696-8.038c0.311-0.144,0.596-0.222,0.85-0.222
	c0.213,0,0.538,0.05,0.923,0.441c2.867,2.928,2.599,15.906,2.485,21.453c-0.029,1.363-0.046,2.405-0.026,2.948l0.901,20.515
	c0.031,0.651,0.003,1.7-0.03,2.949c-0.242,10.215,0.494,12.928,1.935,14.356l1.307,1.299l1.766-0.528
	c0.043-0.007,4.816-1.606,6.154-2.449c2.359-1.577,2.266-3.775,2.181-5.903l-0.043-1.506c0.033-5.476-0.182-11.043-0.392-16.618
	l-0.414-10.13c-0.358-7.952-0.722-16.104-0.319-23.993c0.104-2.034,0.843-4.24,1.861-4.24c0.341,0,0.806,0.214,1.309,0.593
	c2.12,1.591,1.745,6.824,1.495,10.293c-0.092,1.335-0.16,2.32-0.148,3.091l0.707,39.049c0.06,2.904,0.191,3.927,0.616,4.783
	l2.128,4.246l2.694-3.232c0.375-0.15,0.847-0.286,1.081-0.357c0.464-0.143,1.115-0.279,1.832-0.428
	c3.152-0.664,4.369-1.085,5.218-1.792c1.827-1.699,2.11-4.569,1.288-11.901c-0.135-1.191-0.256-2.233-0.268-2.969
	c-0.092-4.226-0.442-8.381-0.795-12.557c-0.254-2.934-0.496-5.811-0.653-8.725c-0.033-0.663-0.15-1.584-0.29-2.654
	c-0.51-3.912-1.406-10.765,1.003-11.914c0.632-0.308,1.067-0.371,1.321-0.371c0.777,0,1.83,0.628,1.949,6.018
	c0.035,1.171,0.015,2.12-0.016,3.254c-0.263,10.737,0.686,13.493,2.528,14.821c1.749,0.842,2.827,1.106,3.769,1.106
	c4.555,0,4.829-5.519,5.012-9.174l0.063-1.178c0.047-0.749,0.028-1.863,0-3.169c-0.092-3.962-0.256-10.93,1.799-12.194
	c0.558-0.341,1.074-0.534,1.453-0.534c0.293,0,0.521,0.107,0.743,0.327c0.746,0.766,1.056,2.614,1.031,4.006
	c-0.047,2.635-0.236,5.282-0.426,7.917l-0.203,2.954c-0.031,0.5-0.149,1.265-0.281,2.15c-0.65,4.311-0.717,5.975-0.297,7.174
	l0.264,0.756l0.598,0.536c1.358,1.22,5.713,2.327,9.133,2.327c2.05,0,3.545-0.378,4.44-1.135l0.546-0.457l0.293-0.656
	c0.678-1.536,0.488-3.813-0.195-8.338c-0.168-1.1-0.315-2.071-0.361-2.778c-0.189-2.897-0.417-5.781-0.682-8.666
	c-0.176-1.77-0.5-5.018,0.39-5.995c0.127-0.144,0.306-0.286,0.709-0.286c0.375,0,0.813,0.113,1.342,0.336
	c2.681,1.135,2.62,7.853,2.581,11.871c-0.01,1.271-0.018,2.292,0.033,3.041c0.063,0.948,0.023,2.185-0.02,3.548
	c-0.16,5.375-0.105,9.63,2.058,11.715c1.395,1.349,3.997,1.948,5.952,1.948c1.186,0,2.816-0.207,3.865-1.191l0.396-0.379
	l0.247-0.486c0.495-0.977,0.739-2.397,0.789-7.858c0.01-0.887,0.014-1.499,0.043-1.892c0.267-4.02,0.25-7.083-0.065-9.944
	c-0.06-0.557-0.214-1.199-0.386-1.879c-0.367-1.455-0.753-2.997-0.249-3.854c0.378-0.65,0.967-1.428,1.648-1.428
	c1.182,0,2.531,2.034,2.855,3.712c1.203,6.146,0.557,12.614-0.066,18.875c-0.104,1.063-0.215,1.69-0.332,2.354
	c-0.504,2.82-0.793,5.112,0.424,6.789l0.225,0.308l0.296,0.25c1.101,0.921,5.322,2.599,6.986,2.634
	c5.521-0.242,5.596-7.367,5.643-11.621c0.007-0.914,0.015-1.729,0.071-2.342c0.3-3.355,0.564-6.625,0.46-9.865
	c-0.01-0.443-0.089-1-0.185-1.607c-0.219-1.421-0.529-3.455,0.25-4.11c0.392-0.336,0.971-0.729,1.52-0.729
	c1.364,0,2.492,2.584,2.666,4.362c0.447,4.533-0.053,9.223-0.539,13.756c-0.188,1.728-0.367,3.426-0.503,5.126l-0.146,1.656
	c-0.457,5.04-0.854,9.4,4.443,12.971l0.617,0.428c2.584,1.75,5.482,3.713,8.584,3.713c1.646,0,3.199-0.551,4.611-1.649
	c2.742-2.113,5.002-5.511,7.182-8.795c1.139-1.713,2.239-3.369,3.355-4.739c8.742-10.738,17.076-18.369,26.23-24.029
	c4.78-2.948,10.092-5.675,16.23-8.316c0.431-0.187,1.035-0.479,1.752-0.835c1.441-0.714,3.295-1.628,5.115-2.37
	c-1.492,0.75-2.67,1.355-2.699,1.371c-2.805,1.477-5.568,3.189-8.455,5.261c-5.326,3.813-10.477,8.424-16.208,14.527
	c-7.867,8.381-18.868,21.064-23.587,34.485c-1.084,3.07-0.202,7.062,2.363,10.681c2.688,3.798,6.644,6.253,10.08,6.253
	c1.846,0,4.489-0.671,6.613-3.897c7.507-11.422,13.975-21.266,24.382-29.396c3.205-2.499,7.222-4.849,11.779-6.903
	c-8.396,4.897-15.629,11.635-21.565,20.088c-3.267,4.641-6.16,9.873-8.602,15.541l-0.947,2.105
	c-1.959,4.29-4.408,9.658-3.472,13.749c0.61,2.691,3.151,5.282,5.393,7.566c0.767,0.778,1.481,1.507,2.046,2.17
	c2.108,2.478,4.176,4.97,6.202,7.489c3.951,4.918,7.478,9.593,10.783,14.291c13.171,18.682,21.123,34.63,25.024,50.191
	c0.225,0.886,0,1.3-0.186,1.542c-0.496,0.636-1.917,1.393-5.872,1.393c-3.38,0-7.385-0.572-9.776-0.914
	c-1.152-0.164-2.02-0.293-2.565-0.335c-9.459-0.757-18.914-1.457-28.38-1.978c-6.532-0.364-12.924-0.686-19.313-0.686
	c-1.617,0-3.238,0.021-4.852,0.064c-3.865,0.114-7.723,0.335-11.575,0.557c0,0-2.213,0.121-2.315,0.121
	c-0.726,0-3.616,0.014-3.912,0.036l-2.436,0.157l-0.695,4.153c-0.527,2.143-1.271,4.177-2.291,6.219
	c-6.043,12.064-18.979,17.932-39.541,17.932c-2.135,0-4.254-0.064-6.332-0.164c-4.508-0.221-9.002-0.635-13.5-1.057
	c-4.949-0.472-10.558-0.999-16.121-1.17c-1.09-0.029-2.163-0.043-3.242-0.043c-9.102,0-18.149,1.099-26.898,2.162l-4.532,0.55
	c-6.811,0.827-13.85,1.692-20.756,1.692c-3.865,0-7.353-0.265-10.658-0.813c-5.015-0.821-9.419-2.242-13.095-4.212
	c-0.739-0.4-1.421-0.907-2.106-1.399c-0.789-0.578-1.542-1.121-2.342-1.557c-0.4-0.222-0.628-0.399-0.803-0.542l-0.96-0.758
	l-1.214,0.101c-1.067,0.086-2.084,0.578-3.033,1.078c-0.447,0.243-0.8,0.429-1.125,0.563c-2.552,1.049-5.179,2.206-7.852,3.376
	l-0.996,0.437c-11.711,5.161-23.818,10.494-35.886,11.429C84.233,465.434,79.465,465.611,74.51,465.611"/>
<path style="fill:#40220F;" d="M364.055,190.538c-2.367-0.031-4.771-1.306-6.957-2.067c-1.752-0.609-4.66-1.297-5.744-2.795
	c-2.94-4.062,8.133-6.794,10.664-7.152c1.188-0.166,3.185-1.272,1.049-2.111c-0.963-0.378-2.604,0.265-3.624,0.279
	c-1.822,0.027-3.689-0.232-5.505-0.356c-3.211-0.219-6.422-0.438-9.631-0.657c-2.404-0.164-4.069-0.273-3.209-3.464
	c1.323-4.907,7.832-5.851,12.084-7.115c0.869-0.259,5.73-1.055,6.045-1.79c0.918-2.146-3.5-1.196-4.543-1.21
	c-2.813-0.035-5.676-0.438-8.481-0.655c-2.521-0.193-4.665-0.136-6.491-2.135c-2.708-2.963-0.136-5.593,2.694-7.052
	c2.129-1.097,4.63-1.251,6.993-1.671c0.904-0.16,6.966-0.643,4.367-2.457c-0.857-0.599-4.557-0.237-5.521-0.29
	c-4.068-0.227-14.055,1.164-12.555-5.163c0.777-3.275,2.658-3.938,5.609-5.283c0.762-0.347,1.914-0.431,2.575-0.771
	c1.795-0.926,1.108-1.907-0.635-2.021c-2.038-0.134-4.134-0.125-6.2-0.29c-2.376-0.188-5.369-0.934-7.695-0.233
	c-2.342,0.705-4.441,2.205-6.74,3.038c-3.318,1.204-5.295-1.266-4.93-4.343c0.264-2.236,0.728-3.8,2.387-5.356
	c2.205-2.068,4.408-4.138,6.613-6.207c1.652-1.55,3.246-3.381,5.064-4.752c0.746-0.563,1.795-0.741,2.492-1.292
	c1.556-1.228,0.391-2.16-1.187-1.761c-2.167,0.549-4.091,0.86-6.399,1.072c-1.827,0.168-6.215,1.382-7.783,0.012
	c-3.108-2.716,5.682-9.141,7.889-10.483c0.635-0.387,2.503-1.036,2.819-1.816c0.962-2.376-1.966-0.896-2.726-0.662
	c-2.291,0.707-5.084,0.913-7.467,1.216c-2.716,0.344-4.458-1.538-2.475-3.771c1.813-2.045,4.193-3.792,6.227-5.629
	c1.407-1.272,2.758-2.64,4.311-3.743c0.822-0.585,2.895-1.329,2.525-2.572c-0.512-1.713-2.64,0.185-3.367,0.618
	c-1.807,1.081-3.832,1.757-5.791,2.554c-2.312,0.938-4.705,2.23-7.121,2.891c-3.518,0.961-4.86-2.27-3.229-4.771
	c1.499-2.297,3.035-4.675,4.722-6.845c0.455-0.585,1.358-1.187,1.651-1.799c0.358-0.75,0.501-1.757-0.704-1.798
	c-0.77-0.026-1.208,0.834-1.734,1.247c-1.64,1.287-3.481,2.371-5.236,3.519c-2.355,1.537-11.453,9.196-13.385,3.646
	c-0.773-2.224-0.159-4.785,1.002-6.697c0.744-1.225,1.439-2.497,2.242-3.688c0.379-0.563,1.424-1.494,1.606-2.066
	c0.779-2.436-1.867-0.899-2.737-0.153c-0.554,0.475-1.121,0.826-1.757,1.212c-2.528,1.541-5.032,3.131-7.593,4.624
	c-5.775,3.365-6.016-4.76-4.1-8.22c1.467-2.646,2.933-5.292,4.398-7.938c0.68-1.227,2.525-3.178,2.837-4.4
	c0.541-2.112-1.194-1.575-2.163-0.629c-0.854,0.835-1.467,1.43-2.552,1.954c-1.342,0.649-2.72,1.236-4.08,1.854
	c-0.642,0.292-2.233,1.4-2.961,1.344c-4.303-0.326,0.233-9.732,1.552-11.623c0.582-0.836,1.221-2.836-0.722-2.285
	c-0.998,0.283-1.397,1.979-2.166,2.55c-0.741,0.552-1.94,0.87-2.776,1.245c-0.947,0.424-2.892,1.789-3.935,1.764
	c-2.405-0.06-1.133-2.896-0.724-4.355c0.392-1.398,0.677-2.886,1.189-4.246c0.264-0.695,1.266-1.789,1.313-2.379
	c0.242-3.029-4.48,1.444-5.209,2.017c-2.194,1.725-4.2,2.757-4.028,5.759c0.087,1.53,0.532,3.123-0.781,4.312
	c-1.419,1.286-3.911,0.863-5.233-0.31c-2.063-1.827-2.293-3.984-2.106-6.473c0.179-2.352,0.187-4.778,0.537-7.11
	c0.116-0.771,0.989-2.922-0.897-2.504c-0.563,0.124-1.775,2.144-2.226,2.642c-1.681,1.859-2.437,4.371-3.832,6.423
	c-1.628,2.397-4.454,1.995-5.054-0.897c-0.481-2.312-0.647-4.842-0.831-7.196c-0.072-0.904-0.457-3.225-1.907-1.584
	c-0.374,0.425-0.551,2.2-0.846,2.833c-0.986,2.12-2.1,3.994-2.506,6.295c-0.465,2.625-0.482,5.178-2.946,6.828
	c-5.136,3.442-6.14-7.802-6.708-10.697c-0.271-1.374-1.521-2.34-2.162-0.488c-0.186,0.534,0.042,1.387,0.011,1.999
	c-0.114,2.371-0.468,4.756-0.7,7.119c-0.455,4.609-0.91,9.222-1.365,13.833c-2.016-1.157-3.069-2.209-4.491-3.985
	c-1.429-1.782-3.437-3.628-4.463-5.67c-0.927-1.841-1.183-4.215-1.702-6.18c-0.563-2.122-0.783-5.167-1.88-7.091
	c-0.563-0.984-1.533-1.678-2.14-0.2c-0.205,0.501-0.06,1.603-0.139,2.2c-0.307,2.353-0.745,4.444-0.745,6.822
	c0,2.757-1.3,5.937-4.694,4.217c-1.817-0.921-3.778-2.45-4.823-4.15c-1.207-1.964-2.605-4.051-3.511-6.162
	c-0.335-0.781-0.921-3.126-2.281-1.751c-0.689,0.696,0.183,2.058,0.363,2.81c0.532,2.226,1.065,4.784,1.186,7.063
	c0.16,2.977-2.23,6.065-5.41,3.979c-1.659-1.088-2.836-3.069-4.053-4.565c-1.752-2.152-3.644-4.249-5.28-6.486
	c-0.356-0.489-0.638-1.233-1.056-1.624c-1.536-1.434-2.18,0.016-1.609,1.445c0.875,2.184,1.64,4.381,2.336,6.664
	c0.561,1.841,1.962,4.483,1.202,6.322c-1.816,4.395-5.674-0.025-7.409-1.695c-2.924-2.818-6.378-5.43-9.535-7.975
	c-1.093-0.881-2.689-0.839-1.975,0.963c0.26,0.653,1.225,1.509,1.629,2.175c1.254,2.065,2.151,4.064,2.913,6.343
	c0.976,2.913,0.108,6.174-3.708,5.717c-2.462-0.295-4.658-1.425-6.62-2.87c-0.612-0.45-1.26-1.509-1.878-1.777
	c-2.419-1.048-1.204,1.529-0.678,2.438c1.135,1.962,2.009,4.116,2.992,6.157c1.452,3.013,6.175,11.234,0.851,12.834
	c-2.549,0.766-4.567-0.864-6.523-2.14c-2.08-1.357-4.596-2.582-6.457-4.212c-0.653-0.572-1.421-2.246-2.546-1.378
	c-1.119,0.865,0.413,2.063,0.887,2.786c1.185,1.807,2.667,4.273,3.143,6.387c0.848,3.755-2.339,4.794-5.127,3.265
	c-1.214-0.666-2.604-1.244-3.728-2.044c-0.808-0.575-1.355-1.6-2.173-2.1c-1.345-0.822-2.26-0.012-1.605,1.372
	c0.371,0.785,1.373,1.456,1.928,2.16c1.407,1.787,2.651,3.725,3.968,5.574c2.709,3.806,6.632,7.577,6.601,12.46
	c-0.013,2.078-1.767,4.7-4.317,3.801c-1.69-0.597-3.551-2.701-4.955-3.768l-7.375-5.607c-0.774-0.589-2.871-2.858-3.739-2.94
	c-2.989-0.284,0.73,3.485,1.219,4.437c1.045,2.03,1.853,4.379,3.274,6.196c1.44,1.842,3.328,3.473,4.95,5.164
	c1.356,1.415,4.373,3.555,4.375,5.685c0.002,3.477-4.195,3.255-6.653,2.611c-2.247-0.591-4.265-2.577-6.109-3.882
	c-1.779-1.261-3.552-2.847-5.556-3.763c-2.115-0.966-4.673-1.188-6.715-2.285c-0.671-0.36-1.352-1.484-2.211-1.363
	c-2.324,0.326-0.095,2.234,0.599,2.82c1.24,1.046,2.243,2.138,3.311,3.349l6.158,6.984c1.213,1.376,2.93,2.805,3.799,4.436
	c1.943,3.644-0.833,5.797-4.446,5.536c-1.912-0.138-3.367-1.044-5.07-1.876c-2.816-1.376-5.631-2.753-8.447-4.129
	c-1.521-0.743-3.225-2.033-4.771-2.628c-1.475-0.566-2.434,0.263-1.38,1.604c0.439,0.558,1.446,0.954,2.013,1.485
	c1.992,1.864,3.692,4.098,5.543,6.095c1.305,1.408,2.657,2.774,3.993,4.154c1.437,1.485,4.042,3.299,3.406,5.657
	c-1.286,4.761-12.248,0.093-15.041-0.66c-1.25-0.338-3.973-2.225-4.981-1.594c-1.74,1.09,0.888,2.11,1.584,2.555
	c1.01,0.644,1.74,1.53,2.554,2.387c2.97,3.128,5.383,6.62,8.211,9.858c1.218,1.394,9.301,8.124,7.321,10.194
	c-0.454,0.475-2.854,0.692-3.55,0.783c-1.154,0.15-2.191-0.021-3.339-0.165c-1.847-0.231-3.692-0.477-5.545-0.657
	c-4.373-0.425-8.686-0.926-13.079-0.89c-3.035,0.025-6.071,0.06-9.107,0.076c-1.067,0.005-5.488-0.392-3.823,1.588
	c0.607,0.722,4.834,1.106,6.011,1.453c2.61,0.768,5.357,1.374,7.901,2.327c2.54,0.951,4.641,2.638,4.362,5.473
	c-0.32,3.246-3.21,3.203-5.904,3.462c-2.694,0.258-5.43,0.301-8.113,0.654c-2.137,0.282-3.85,1.401-5.751,2.379
	c-0.834,0.429-5.439,2.083-5.53,2.851c-0.189,1.606,4.726,0.881,6.033,1.096c2.351,0.386,4.956,0.518,7.238,1.188
	c1.956,0.573,5.329,2.684,5.196,4.852c-0.206,3.348-4.726,2.964-7.178,3.197c-1.153,0.11-5.305-0.287-6.094,0.235
	c-2.039,1.349,0.757,1.878,1.667,2.035c0.957,0.165,1.646,0.464,2.566,0.876c2.009,0.898,3.998,2.129,6.227,2.259
	c5.005,0.292,10.89-1.706,14.578,2.38c2.171,2.405,0.771,5.362-2.119,6.186c-2.167,0.617-4.408,1.228-6.62,1.645
	c-0.488,0.091-1.385-0.099-1.797,0.266c-0.851,0.752-0.342,1.601,0.604,1.894c0.931,0.29,2.254-0.313,3.233-0.22
	c1.854,0.176,4.182,0.853,6.146,1.175c1.907,0.313,5.134,0.896,6.274,2.489c2.095,2.928-2.982,4.145-5.04,4.334
	c-0.869,0.08-2.788-0.419-3.329,0.514c-1.095,1.888,2.224,1.52,3.049,1.56c2.336,0.115,4.654,0.854,6.927,1.366
	c2.508,0.564,5.417,0.686,5.592,3.783c0.086,1.545-0.643,2.836-1.984,3.63c-0.691,0.41-1.819,0.442-2.38,0.855
	c-1.612,1.189,0.155,1.877,1.384,1.81c1.256-0.07,2.445-0.491,3.714-0.465c2.302,0.048,4.82,0.344,6.825,1.446
	c2.842,1.563,4.165,5.762,0.519,7.385c-0.852,0.379-1.677,0.438-2.563,0.63c-1.265,0.271-3.357,1.616-0.736,2.193
	c1.331,0.294,3.688-0.444,5.195-0.467c3.037-0.042,6.074-0.085,9.112-0.128c4.279-0.06,8.559-0.225,12.839-0.255
	c2.138-0.015,3.486,0.755,4.902,2.295c1.013,1.102,1.569,2.2,3.006,2.856c0.899,0.41,1.986,0.605,2.932,0.894
	c4.283,1.309,8.762,2.792,13.294,3.021c2.121,0.106,4.382-0.646,6.444-1.102c2.318-0.51,5.151-0.76,7.227-1.924
	c3.647-2.045,7.16-4.776,10.59-7.165c2.249-1.565,4.335-2.981,6.725-0.726c0.971,0.916,1.567,2.124,2.631,2.968
	c0.986,0.782,2.209,1.381,3.279,2.049c3.269,2.043,7.506,4.617,11.35,5.193c4.22,0.632,9.945,1.542,14.203,0.642
	c4.195-0.887,7.672-3.517,11.783-4.511c2.252-0.544,4.532-1.127,6.816-1.54c2.529-0.457,4.682,0.729,7.035,1.586
	c4.425,1.61,8.439,3.694,12.631,5.828c3.77,1.919,8.15,2.596,12.244,3.653c8.697,2.246,17.705,4.414,26.654,5.397
	c4.193,0.461,8.545-0.916,12.721-0.464c0.795,0.087,2.037,0.967,2.813,0.375c1.728-1.316-1.018-1.863-1.705-2.23
	c-1.729-0.925-4.338-3.27-5.25-5.002c-1.4-2.651-0.69-5.78,2.858-5.902c2.362-0.082,5.287,0.095,7.606,0.535
	c0.759,0.144,1.813,0.931,2.584,0.61c2.363-0.979-0.703-2.088-1.504-2.478c-1.815-0.884-3.857-2.453-5.334-3.812
	c-2.57-2.364-1.146-4.344,1.75-5.221c1.084-0.328,2.116-0.697,3.246-0.812c0.92-0.095,4.115-0.431,2.076-1.963
	c-0.619-0.465-2.051-0.049-2.771-0.12c-1.238-0.125-2.635-0.47-3.829-0.812c-2.429-0.697-5.534-1.634-5.618-4.46
	c-0.064-2.137,2.264-5.187,4.313-6.061c2.145-0.915,5.57-0.273,7.848-0.273c0.893,0,1.686,0.037,2.537,0.151
	c0.564,0.074,0.988,0.522,1.574,0.274c1.151-0.488,0.763-1.319,0.047-1.922c-0.797-0.673-1.447-0.617-2.233-1.506
	c-1.169-1.322-2.304-2.78-1.113-4.547c1.485-2.201,4.927-1.56,7.218-1.56c1.309,0,2.638-0.067,3.943,0
	c0.73,0.038,1.891,0.496,2.54,0.293c2.345-0.73,0.384-1.821-0.714-2.188c-0.947-0.316-1.866-0.798-2.781-1.189
	c-2.601-1.113-5.845-1.721-6.141-4.873c-0.271-2.882,1.361-4.275,4.191-4.233c2.984,0.044,5.973,0.188,8.957,0.283
	c0.914,0.028,4.733,0.752,5.364,0.222c1.458-1.226-0.675-1.732-1.437-2.047c-1.239-0.514-2.422-1.275-3.605-1.899
	c-2.156-1.135-5.57-2.718-3.713-5.691c1.204-1.925,3.561-2.222,5.62-2.384c2.752-0.217,5.515-0.533,8.272-0.653
	c0.754-0.033,1.461,0.053,2.215,0.04c0.463-0.008,0.839,0.176,1.265-0.064C365.123,192.023,365.355,190.645,364.055,190.538"/>
<path style="fill:#1F0000;" d="M243.402,55.796c1.18,0.581,2.508,0.898,3.921,0.898c1.192,0,2.366-0.242,3.463-0.697
	c0.633,1.521,1.649,3.089,3.269,4.522c1.957,1.735,4.631,2.729,7.338,2.729c2.516,0,4.867-0.875,6.623-2.465
	c0.084-0.076,0.166-0.154,0.246-0.231c1.035,0.492,2.203,0.77,3.436,0.799h0.006c0.031,1.357,0.293,2.677,0.89,3.875
	c1.103,2.214,3.151,3.759,5.616,4.286c-1.58,3.7-1.964,9.06,0.367,12.83c1.646,2.667,4.39,4.196,7.525,4.196
	c1.004,0,2.021-0.161,3.043-0.481c0.109,0.759,0.289,1.5,0.537,2.216c1.336,3.84,4.705,6.226,8.793,6.226
	c1.793,0,3.563-0.446,5.303-1.169c0.185,0.575,0.43,1.135,0.734,1.669c1.159,2.039,3.049,3.481,5.295,4.118
	c-0.375,1.687-0.199,3.415,0.561,5.016c0.693,1.462,1.808,2.653,3.201,3.493c-0.946,1.482-1.611,3.071-1.758,4.708
	c-0.23,2.578,0.771,5.048,2.746,6.773c0.92,0.802,2.004,1.392,3.242,1.765l-2.21,2.074c-3.19,2.995-3.964,6.289-4.299,9.116
	c-0.381,3.228,0.554,6.332,2.567,8.518c1.82,1.978,4.349,3.068,7.117,3.068c1.284,0,2.592-0.238,3.883-0.707
	c1.438-0.521,2.703-1.174,3.82-1.748c0.303-0.156,0.603-0.311,0.889-0.453c-0.049,0.177-0.094,0.356-0.139,0.542
	c-0.75,3.164-0.129,6.167,1.752,8.453c0.707,0.86,1.522,1.549,2.401,2.1c-0.64,1.036-1.076,2.138-1.29,3.287
	c-0.545,2.923,0.382,5.874,2.609,8.31c0.857,0.94,1.76,1.659,2.67,2.211c-1.191,1.334-2.143,2.972-2.688,4.997
	c-0.829,3.075-0.468,5.689,1.076,7.772c2.289,3.09,5.792,3.329,7.896,3.473l0.945,0.064c-0.688,2.193-0.4,4.513,0.816,6.57
	c-1.529,0.78-3.018,1.968-4.157,3.793c-1.49,2.384-1.622,4.562-1.356,6.178c-3.451,0.284-5.592,1.803-6.813,3.098
	c-1.341,1.423-2.861,3.944-2.493,7.878c0.082,0.877,0.257,1.673,0.503,2.398c-1.445,0.739-2.632,1.792-3.548,3.149
	c-0.813,1.207-1.499,2.748-1.563,4.559c-1.643,0.113-3.035,0.43-4.309,0.973c-4.053,1.73-8.294,6.94-8.143,11.936
	c0.041,1.371,0.146,4.849,4.435,7.709c-0.171,0.404-0.309,0.822-0.413,1.255c-0.188,0.784-0.389,2.243,0.078,3.98
	c-1.881,0.773-3.434,2.07-4.479,3.791c-1.541,2.54-1.776,5.695-0.707,8.709c-0.092,0.002-0.186,0.003-0.277,0.003
	c-0.419,0-0.79-0.019-1.133-0.057c-8.809-0.968-17.897-3.206-25.725-5.229c-1.053-0.271-2.123-0.52-3.197-0.769
	c-2.867-0.664-5.575-1.291-7.713-2.379l-0.696-0.356c-3.987-2.03-8.11-4.132-12.665-5.79c-0.38-0.137-0.753-0.286-1.124-0.433
	c-1.856-0.736-4.166-1.652-7.033-1.652c-0.776,0-1.554,0.071-2.313,0.207c-2.125,0.385-4.172,0.885-6.153,1.368l-1.042,0.253
	c-2.625,0.634-4.891,1.696-6.893,2.633c-1.683,0.788-3.272,1.533-4.703,1.836c-0.737,0.156-1.676,0.234-2.791,0.234
	c-2.758,0-6.027-0.491-8.654-0.886l-0.407-0.062c-2.646-0.396-6.68-2.918-8.848-4.271c-0.418-0.262-0.856-0.516-1.298-0.771
	c-0.51-0.294-1.036-0.596-1.336-0.82c-0.104-0.114-0.309-0.38-0.459-0.577c-0.455-0.59-1.021-1.325-1.817-2.077
	c-2.575-2.43-5.262-2.941-7.064-2.941c-3.483,0-6.137,1.849-7.893,3.071c-0.941,0.655-1.888,1.335-2.841,2.02
	c-2.39,1.717-4.86,3.49-7.219,4.813c-0.6,0.337-2.196,0.627-3.361,0.839c-0.712,0.129-1.41,0.257-2.071,0.402
	c-0.536,0.118-1.084,0.254-1.638,0.392c-1.064,0.265-2.269,0.563-3.041,0.563h-0.007c-3.326-0.167-6.858-1.253-10.597-2.403
	l-1.101-0.337c-0.397-0.121-0.813-0.232-1.234-0.341c-0.186-0.049-0.429-0.111-0.618-0.164c-0.071-0.088-0.141-0.179-0.214-0.271
	c-0.313-0.386-0.639-0.782-1.006-1.182c-1.729-1.879-4.608-4.376-9.743-4.376h-0.001c-2.451,0.016-4.901,0.077-7.352,0.137
	c-1.845,0.046-3.69,0.093-5.535,0.119l-2.306,0.032c-0.319-3.549-2.597-6.989-5.954-8.836c-1.297-0.713-2.713-1.249-4.301-1.62
	c0-0.194-0.006-0.388-0.016-0.583c-0.093-1.636-0.35-6.222-6.812-8.543c0.388-2.092-0.132-4.278-1.522-6.221
	c-1.149-1.604-2.745-2.686-4.396-3.432c0.191-0.41,0.352-0.835,0.484-1.272c0.972-3.234,0.151-6.617-2.252-9.28
	c-3.425-3.794-7.848-4.554-10.463-4.705c0.152-0.613,0.237-1.223,0.273-1.813c0.183-2.988-1.215-5.475-3.173-7.366
	c6.126-0.804,9.485-3.791,9.986-8.894c0.158-1.605-0.026-3.135-0.525-4.547l1.223,0.121c1.481,0.145,2.956,0.332,4.432,0.52
	l0.929,0.116l0.346,0.044c0.834,0.109,1.779,0.231,2.889,0.231c0.614,0,1.199-0.037,1.787-0.114l0.263-0.031
	c2.816-0.328,5.297-0.759,7.143-2.688c1.427-1.492,4.182-5.664-1.034-12.158c-1.62-2.017-3.725-4.021-5.118-5.347
	c-0.444-0.422-0.81-0.762-0.977-0.939c-0.062-0.07-0.124-0.141-0.185-0.212c6.9-0.359,8.756-5.213,9.168-6.739
	c0.587-2.176,0.297-4.089-0.374-5.704c3.879-0.15,7.222-1.9,9.012-4.748c1.297-2.062,1.67-4.486,1.12-6.938
	c0.809,0.131,1.737,0.225,2.723,0.225c2.403,0,4.493-0.559,6.212-1.663c2.577-1.656,4.054-4.409,4.052-7.556
	c0-1.124-0.223-2.158-0.587-3.106c4.449-1.254,7.13-5.677,7.155-9.818c0.03-4.779-2.139-8.537-4.412-11.653
	c1.024-0.537,1.931-1.26,2.669-2.146c0.676-0.815,1.186-1.729,1.524-2.718c1.206,0.454,2.576,0.768,4.114,0.768
	c1.083,0,2.165-0.16,3.216-0.476c2.826-0.85,5.003-2.702,6.13-5.22c1.654-3.696,0.64-7.856-0.764-11.309
	c2.705-0.306,5.077-1.61,6.632-3.682c0.483-0.644,0.878-1.353,1.181-2.107c1.667,1.194,3.721,2.178,6.151,2.178
	c3.128,0,5.837-1.634,7.479-4.443c1.633,0.971,3.42,1.48,5.199,1.48c2.537,0,4.928-1.015,6.735-2.856
	c0.385-0.394,0.738-0.821,1.058-1.276c0.675,0.427,1.26,0.744,1.672,0.953c1.566,0.793,3.162,1.195,4.742,1.195
	c1.911,0,3.639-0.572,5.073-1.591c0.834,1.177,1.756,2.208,2.604,3.16c0.435,0.487,0.865,0.962,1.243,1.436
	c1.794,2.24,3.398,3.862,6.294,5.524l8.708,4.998l0.962-9.76l0.565-5.724c0.664,0.154,1.383,0.237,2.156,0.237
	c1.889,0,3.727-0.589,5.463-1.752C241.396,58.987,242.618,57.391,243.402,55.796 M242.975,38.658c-0.242,0-0.537,0.163-0.897,0.572
	c-0.374,0.424-0.552,2.198-0.847,2.832c-0.985,2.119-2.101,3.993-2.506,6.295c-0.465,2.626-0.481,5.178-2.947,6.828
	c-0.67,0.45-1.271,0.649-1.807,0.649c-3.584,0-4.406-8.829-4.9-11.347c-0.163-0.831-0.686-1.512-1.213-1.512
	c-0.348,0-0.696,0.29-0.949,1.023c-0.186,0.534,0.042,1.387,0.011,1.999c-0.114,2.371-0.468,4.756-0.7,7.119
	c-0.455,4.61-0.91,9.222-1.365,13.833c-2.016-1.157-3.069-2.209-4.491-3.985c-1.429-1.783-3.437-3.628-4.464-5.67
	c-0.926-1.841-1.182-4.215-1.701-6.18c-0.563-2.122-0.783-5.167-1.881-7.091c-0.328-0.576-0.797-1.054-1.252-1.054
	c-0.32,0-0.635,0.24-0.887,0.854c-0.205,0.501-0.059,1.603-0.139,2.201c-0.307,2.352-0.745,4.443-0.745,6.82
	c0,2.216-0.839,4.705-2.93,4.705c-0.511,0-1.097-0.148-1.764-0.486c-1.817-0.921-3.778-2.451-4.823-4.151
	c-1.207-1.964-2.605-4.051-3.511-6.162c-0.262-0.611-0.677-2.175-1.494-2.175c-0.229,0-0.489,0.123-0.787,0.424
	c-0.689,0.696,0.183,2.057,0.363,2.81c0.532,2.226,1.065,4.784,1.187,7.063c0.123,2.298-1.273,4.663-3.378,4.663
	c-0.622,0-1.307-0.207-2.033-0.684c-1.659-1.089-2.836-3.069-4.053-4.565c-1.752-2.152-3.644-4.249-5.28-6.486
	c-0.356-0.489-0.638-1.233-1.056-1.624c-0.448-0.418-0.82-0.591-1.108-0.591c-0.701,0-0.906,1.023-0.501,2.036
	c0.875,2.183,1.64,4.381,2.336,6.664c0.561,1.841,1.962,4.484,1.202,6.322c-0.57,1.38-1.341,1.891-2.185,1.891
	c-1.844,0-4.034-2.441-5.224-3.586c-2.924-2.819-6.378-5.43-9.535-7.974c-0.441-0.355-0.964-0.561-1.384-0.561
	c-0.621,0-1.016,0.448-0.591,1.522c0.26,0.652,1.225,1.509,1.629,2.175c1.254,2.065,2.151,4.064,2.913,6.343
	c0.914,2.727,0.211,5.759-3.014,5.759c-0.22,0-0.45-0.013-0.694-0.042c-2.462-0.295-4.658-1.425-6.62-2.87
	c-0.612-0.45-1.26-1.509-1.878-1.777c-0.398-0.172-0.697-0.246-0.917-0.246c-1.122,0-0.2,1.925,0.239,2.684
	c1.135,1.961,2.009,4.116,2.992,6.157c1.452,3.012,6.175,11.235,0.851,12.834c-0.453,0.136-0.89,0.196-1.313,0.196
	c-1.953,0-3.603-1.288-5.21-2.336c-2.08-1.357-4.596-2.582-6.457-4.212c-0.523-0.458-1.12-1.623-1.914-1.623
	c-0.197,0-0.407,0.071-0.632,0.246c-1.119,0.864,0.413,2.063,0.887,2.784c1.185,1.808,2.666,4.274,3.143,6.388
	c0.598,2.646-0.809,3.942-2.667,3.942c-0.778,0-1.636-0.227-2.46-0.678c-1.214-0.666-2.604-1.244-3.728-2.044
	c-0.808-0.575-1.355-1.599-2.173-2.099c-0.372-0.228-0.711-0.331-0.994-0.331c-0.737,0-1.085,0.701-0.611,1.703
	c0.371,0.783,1.373,1.455,1.928,2.158c1.408,1.788,2.651,3.726,3.968,5.575c2.71,3.806,6.632,7.577,6.601,12.46
	c-0.011,1.79-1.313,3.982-3.303,3.982c-0.321,0-0.66-0.058-1.014-0.183c-1.69-0.596-3.551-2.699-4.955-3.767l-7.375-5.608
	c-0.774-0.587-2.871-2.857-3.739-2.939c-0.108-0.011-0.208-0.017-0.298-0.017c-2.427,0,1.046,3.536,1.517,4.453
	c1.045,2.03,1.853,4.378,3.274,6.196c1.44,1.842,3.328,3.472,4.95,5.164c1.356,1.415,4.373,3.555,4.375,5.684
	c0.001,2.32-1.867,2.994-3.84,2.994c-0.984,0-1.995-0.167-2.813-0.382c-2.247-0.591-4.265-2.577-6.108-3.882
	c-1.78-1.26-3.553-2.846-5.558-3.762c-2.114-0.967-4.672-1.189-6.714-2.286c-0.637-0.344-1.284-1.372-2.082-1.372
	c-0.043,0-0.086,0.003-0.129,0.009c-2.324,0.326-0.095,2.235,0.599,2.82c1.24,1.046,2.243,2.138,3.311,3.349l6.158,6.984
	c1.213,1.376,2.93,2.805,3.799,4.436c1.837,3.445-0.544,5.558-3.862,5.558c-0.192,0-0.386-0.008-0.583-0.021
	c-1.913-0.138-3.368-1.044-5.071-1.876c-2.816-1.376-5.631-2.753-8.447-4.129c-1.521-0.743-3.225-2.033-4.771-2.628
	c-0.322-0.123-0.619-0.182-0.876-0.182c-0.922,0-1.328,0.737-0.504,1.785c0.439,0.559,1.446,0.955,2.013,1.486
	c1.992,1.864,3.692,4.097,5.543,6.095c1.305,1.408,2.657,2.774,3.993,4.154c1.437,1.485,4.042,3.299,3.406,5.657
	c-0.423,1.565-1.895,2.111-3.778,2.111c-3.839,0-9.39-2.267-11.263-2.771c-1.073-0.29-3.232-1.721-4.459-1.721
	c-0.202,0-0.379,0.039-0.522,0.128c-1.74,1.089,0.888,2.109,1.584,2.554c1.01,0.644,1.74,1.53,2.554,2.387
	c2.97,3.127,5.383,6.62,8.211,9.858c1.218,1.394,9.302,8.124,7.321,10.194c-0.454,0.475-2.854,0.692-3.55,0.783
	c-0.318,0.041-0.626,0.059-0.93,0.059c-0.803,0-1.576-0.119-2.409-0.225c-1.847-0.23-3.691-0.476-5.545-0.656
	c-4.222-0.41-8.388-0.892-12.623-0.892c-0.152,0-0.304,0.001-0.456,0.002c-3.035,0.025-6.071,0.061-9.107,0.076h-0.022
	c-0.308,0-0.864-0.03-1.472-0.03c-1.585,0-3.525,0.198-2.329,1.619c0.608,0.721,4.834,1.105,6.011,1.452
	c2.61,0.769,5.357,1.374,7.901,2.327c2.54,0.951,4.641,2.638,4.362,5.473c-0.32,3.246-3.21,3.202-5.904,3.461
	c-2.694,0.26-5.43,0.303-8.112,0.655c-2.138,0.282-3.851,1.402-5.752,2.379c-0.834,0.428-5.439,2.083-5.53,2.851
	c-0.11,0.936,1.51,1.079,3.14,1.079c0.731,0,1.465-0.028,2.046-0.028c0.348,0,0.642,0.011,0.847,0.044
	c2.351,0.387,4.956,0.519,7.238,1.188c1.956,0.574,5.329,2.685,5.196,4.853c-0.205,3.348-4.726,2.964-7.178,3.197
	c-0.153,0.016-0.361,0.021-0.607,0.021c-0.817,0-2.059-0.063-3.167-0.063c-1.054,0-1.987,0.056-2.32,0.276
	c-2.039,1.349,0.757,1.878,1.667,2.035c0.957,0.165,1.646,0.464,2.567,0.876c2.008,0.899,3.997,2.129,6.226,2.259
	c0.368,0.021,0.741,0.031,1.118,0.031c2.046,0,4.196-0.269,6.255-0.269c2.711,0,5.262,0.465,7.205,2.616
	c2.171,2.406,0.771,5.363-2.119,6.187c-2.167,0.617-4.408,1.227-6.62,1.645c-0.134,0.025-0.299,0.029-0.477,0.029
	c-0.08,0-0.163-0.001-0.247-0.001c-0.404,0-0.826,0.018-1.073,0.237c-0.851,0.752-0.342,1.601,0.604,1.894
	c0.183,0.058,0.381,0.08,0.589,0.08c0.772,0,1.676-0.31,2.425-0.31c0.074,0,0.148,0.003,0.219,0.01
	c1.854,0.176,4.182,0.853,6.146,1.175c1.907,0.313,5.134,0.896,6.274,2.489c2.095,2.928-2.982,4.145-5.04,4.334
	c-0.069,0.007-0.146,0.009-0.228,0.009c-0.425,0-0.997-0.071-1.543-0.071c-0.662,0-1.285,0.105-1.558,0.576
	c-0.826,1.425,0.865,1.565,2.097,1.565c0.298,0,0.57-0.01,0.772-0.01c0.068,0,0.129,0.001,0.18,0.005
	c2.336,0.114,4.654,0.854,6.928,1.364c2.507,0.565,5.416,0.687,5.591,3.784c0.086,1.545-0.642,2.836-1.984,3.63
	c-0.691,0.41-1.819,0.442-2.38,0.855c-1.539,1.136,0.002,1.814,1.214,1.814c0.058,0,0.114-0.002,0.17-0.005
	c1.218-0.068,2.373-0.466,3.599-0.466c0.038,0,0.077,0,0.115,0.001c2.302,0.048,4.82,0.344,6.825,1.446
	c2.843,1.563,4.165,5.762,0.519,7.385c-0.852,0.379-1.677,0.438-2.563,0.63c-1.265,0.272-3.357,1.616-0.736,2.193
	c0.22,0.049,0.469,0.068,0.737,0.068c1.351,0,3.201-0.517,4.458-0.535c3.037-0.041,6.074-0.084,9.112-0.127
	c4.279-0.061,8.559-0.226,12.839-0.257h0.06c2.103,0,3.439,0.771,4.842,2.295c1.013,1.103,1.569,2.201,3.006,2.857
	c0.899,0.41,1.986,0.606,2.932,0.894c4.283,1.309,8.762,2.792,13.294,3.021c0.137,0.007,0.276,0.011,0.415,0.011
	c1.999,0,4.101-0.688,6.029-1.111c2.318-0.511,5.151-0.761,7.227-1.925c3.647-2.045,7.16-4.776,10.59-7.166
	c1.408-0.979,2.75-1.899,4.144-1.899c0.834,0,1.686,0.33,2.581,1.175c0.971,0.916,1.567,2.124,2.631,2.968
	c0.986,0.782,2.209,1.381,3.279,2.048c3.268,2.043,7.506,4.618,11.35,5.194c2.949,0.441,6.638,1.019,10.043,1.019
	c1.467,0,2.88-0.105,4.16-0.378c4.195-0.886,7.672-3.516,11.782-4.51c2.253-0.544,4.533-1.127,6.818-1.54
	c0.386-0.071,0.764-0.102,1.135-0.102c2.058,0,3.907,0.963,5.899,1.688c4.425,1.61,8.439,3.694,12.631,5.828
	c3.77,1.919,8.15,2.595,12.244,3.653c8.697,2.246,17.705,4.414,26.654,5.397c0.616,0.068,1.235,0.096,1.857,0.096
	c2.999,0,6.053-0.652,9.042-0.652c0.61,0,1.217,0.027,1.821,0.093c0.597,0.065,1.447,0.578,2.162,0.578
	c0.235,0,0.457-0.056,0.65-0.203c1.727-1.316-1.018-1.863-1.705-2.229c-1.729-0.925-4.338-3.271-5.251-5.002
	c-1.399-2.652-0.69-5.781,2.86-5.903c0.372-0.013,0.756-0.02,1.152-0.02c2.115,0,4.498,0.184,6.453,0.555
	c0.633,0.12,1.472,0.687,2.18,0.687c0.141,0,0.277-0.022,0.404-0.076c2.363-0.979-0.703-2.089-1.504-2.478
	c-1.815-0.884-3.857-2.452-5.334-3.811c-2.57-2.365-1.146-4.345,1.75-5.222c1.084-0.329,2.116-0.696,3.246-0.812
	c0.92-0.094,4.115-0.432,2.076-1.962c-0.229-0.173-0.57-0.224-0.945-0.224c-0.553,0-1.179,0.111-1.631,0.111
	c-0.068,0-0.135-0.003-0.195-0.009c-1.238-0.125-2.635-0.47-3.83-0.812c-2.428-0.697-5.532-1.634-5.617-4.46
	c-0.065-2.137,2.264-5.187,4.313-6.061c0.893-0.381,2.008-0.492,3.17-0.492c1.629,0,3.349,0.219,4.678,0.219
	c0.893,0,1.686,0.037,2.537,0.151c0.443,0.059,0.802,0.349,1.22,0.349c0.112,0,0.229-0.021,0.354-0.075
	c1.151-0.487,0.762-1.318,0.047-1.921c-0.797-0.673-1.447-0.616-2.233-1.506c-1.169-1.323-2.304-2.781-1.113-4.547
	c0.938-1.39,2.656-1.646,4.371-1.646c1.001,0,2.002,0.087,2.847,0.087c0.871,0,1.754-0.03,2.631-0.03
	c0.439,0,0.877,0.008,1.313,0.03c0.6,0.03,1.486,0.345,2.145,0.345c0.146,0,0.278-0.016,0.396-0.052
	c2.344-0.731,0.384-1.822-0.714-2.188c-0.947-0.316-1.866-0.798-2.781-1.189c-2.602-1.113-5.845-1.721-6.141-4.872
	c-0.268-2.841,1.313-4.235,4.068-4.235c0.041,0,0.082,0.001,0.123,0.001c2.984,0.044,5.973,0.188,8.956,0.283
	c0.671,0.021,2.902,0.415,4.294,0.415c0.508,0,0.903-0.053,1.071-0.193c1.458-1.226-0.675-1.731-1.437-2.047
	c-1.239-0.514-2.422-1.276-3.605-1.899c-2.157-1.135-5.57-2.718-3.713-5.691c1.204-1.925,3.561-2.222,5.62-2.384
	c2.752-0.218,5.515-0.533,8.272-0.653c0.123-0.006,0.244-0.008,0.365-0.008c0.569,0,1.118,0.049,1.691,0.049
	c0.052,0,0.104,0,0.158-0.001c0.01,0,0.019-0.001,0.028-0.001c0.267,0,0.505,0.06,0.741,0.06c0.163,0,0.325-0.027,0.495-0.124
	c0.798-0.448,1.03-1.827-0.271-1.934c-2.367-0.031-4.771-1.306-6.957-2.068c-1.752-0.608-4.66-1.297-5.744-2.794
	c-2.94-4.062,8.133-6.794,10.664-7.151c1.188-0.167,3.186-1.273,1.049-2.112c-0.219-0.086-0.471-0.119-0.744-0.119
	c-0.932,0-2.092,0.386-2.881,0.398c-0.088,0.002-0.178,0.002-0.268,0.002c-1.736,0-3.51-0.24-5.236-0.358
	c-3.211-0.219-6.422-0.438-9.631-0.657c-2.404-0.165-4.069-0.273-3.209-3.464c1.323-4.908,7.832-5.851,12.084-7.116
	c0.868-0.258,5.73-1.054,6.045-1.79c0.488-1.142-0.535-1.407-1.758-1.407c-1.057,0-2.262,0.198-2.763,0.198
	c-0.007,0-0.015,0-0.022-0.001c-2.813-0.033-5.676-0.437-8.48-0.653c-2.521-0.194-4.666-0.138-6.492-2.137
	c-2.708-2.962-0.137-5.592,2.694-7.051c2.129-1.097,4.631-1.251,6.993-1.671c0.904-0.16,6.966-0.643,4.367-2.457
	c-0.402-0.281-1.432-0.351-2.509-0.351c-1.05,0-2.146,0.066-2.758,0.066c-0.099,0-0.185-0.002-0.254-0.006
	c-0.397-0.021-0.849-0.028-1.341-0.028c-0.768,0-1.631,0.016-2.531,0.016c-4.459,0-9.811-0.398-8.684-5.15
	c0.777-3.275,2.658-3.938,5.609-5.283c0.762-0.347,1.914-0.431,2.575-0.771c1.795-0.926,1.108-1.907-0.635-2.022
	c-2.038-0.133-4.134-0.124-6.2-0.288c-1.645-0.132-3.586-0.528-5.396-0.528c-0.805,0-1.584,0.078-2.3,0.294
	c-2.341,0.705-4.44,2.205-6.739,3.038c-0.586,0.213-1.131,0.312-1.629,0.312c-2.314,0-3.602-2.122-3.302-4.654
	c0.265-2.236,0.728-3.801,2.388-5.356c2.205-2.069,4.408-4.138,6.613-6.207c1.652-1.55,3.246-3.381,5.064-4.752
	c0.746-0.563,1.795-0.741,2.492-1.292c1.307-1.03,0.693-1.855-0.472-1.855c-0.222,0-0.463,0.031-0.715,0.095
	c-2.167,0.549-4.091,0.859-6.399,1.073c-1.184,0.109-3.439,0.656-5.31,0.656c-1.019,0-1.922-0.162-2.474-0.646
	c-3.108-2.716,5.682-9.142,7.889-10.483c0.635-0.387,2.503-1.036,2.818-1.816c0.416-1.023,0.106-1.331-0.438-1.331
	c-0.72,0-1.854,0.535-2.287,0.67c-2.29,0.706-5.084,0.913-7.466,1.215c-0.216,0.026-0.427,0.04-0.631,0.04
	c-2.339,0-3.668-1.756-1.844-3.812c1.813-2.045,4.193-3.792,6.227-5.629c1.408-1.272,2.758-2.64,4.311-3.744
	c0.822-0.585,2.895-1.327,2.524-2.57c-0.153-0.516-0.454-0.704-0.817-0.704c-0.848,0-2.041,1.019-2.549,1.322
	c-1.807,1.08-3.832,1.756-5.791,2.553c-2.312,0.938-4.705,2.23-7.121,2.891c-0.435,0.119-0.836,0.174-1.203,0.174
	c-2.601,0-3.455-2.753-2.026-4.944c1.499-2.298,3.035-4.677,4.722-6.847c0.454-0.584,1.359-1.186,1.651-1.798
	c0.358-0.75,0.501-1.757-0.704-1.798c-0.011,0-0.023-0.001-0.034-0.001c-0.749,0-1.182,0.841-1.7,1.248
	c-1.64,1.287-3.481,2.371-5.236,3.518c-1.744,1.14-7.189,5.637-10.68,5.637c-1.223,0-2.203-0.552-2.705-1.99
	c-0.773-2.224-0.16-4.785,1.002-6.697c0.744-1.225,1.439-2.497,2.242-3.688c0.379-0.563,1.424-1.495,1.606-2.067
	c0.315-0.986,0.069-1.322-0.392-1.322c-0.681,0-1.828,0.726-2.346,1.168c-0.554,0.476-1.121,0.827-1.757,1.213
	c-2.528,1.54-5.033,3.132-7.593,4.623c-0.957,0.559-1.762,0.801-2.432,0.801c-3.363,0-3.267-6.134-1.668-9.02
	c1.467-2.646,2.933-5.292,4.398-7.938c0.68-1.227,2.525-3.179,2.837-4.4c0.274-1.072-0.037-1.462-0.537-1.462
	c-0.485,0-1.147,0.367-1.626,0.833c-0.854,0.835-1.467,1.43-2.552,1.954c-1.342,0.648-2.72,1.237-4.08,1.854
	c-0.627,0.285-2.157,1.349-2.906,1.349c-0.018,0-0.036-0.001-0.055-0.002c-4.304-0.328,0.233-9.734,1.551-11.624
	c0.515-0.737,1.072-2.382-0.136-2.382c-0.163,0-0.355,0.03-0.584,0.096c-0.999,0.283-1.398,1.979-2.166,2.55
	c-0.742,0.552-1.941,0.87-2.777,1.245c-0.938,0.42-2.857,1.764-3.906,1.764h-0.028c-2.405-0.06-1.134-2.896-0.724-4.355
	c0.393-1.398,0.676-2.886,1.189-4.246c0.264-0.695,1.266-1.789,1.313-2.379c0.06-0.754-0.188-1.043-0.604-1.043
	c-1.257-0.001-4.058,2.63-4.604,3.06c-2.194,1.726-4.201,2.757-4.028,5.759c0.088,1.53,0.532,3.123-0.781,4.313
	c-0.606,0.55-1.41,0.787-2.233,0.787c-1.104,0-2.242-0.426-3-1.099c-2.063-1.825-2.293-3.983-2.105-6.472
	c0.177-2.351,0.186-4.778,0.536-7.111c0.104-0.704,0.842-2.556-0.466-2.557c-0.125,0-0.269,0.017-0.433,0.054
	c-0.563,0.124-1.774,2.145-2.225,2.642c-1.681,1.859-2.437,4.372-3.831,6.423c-0.715,1.052-1.661,1.564-2.546,1.564
	c-1.134,0-2.173-0.839-2.509-2.462c-0.481-2.312-0.647-4.842-0.832-7.195C243.93,40.136,243.699,38.658,242.975,38.658"/>
<path style="fill:#FFFFFF;" d="M172.112,250.01c-6.607,0-12.836-2.511-17.542-7.067c-4.732-4.584-7.338-10.617-7.338-16.992
	c0-4.851,1.568-9.631,4.393-13.625c-1.239,0.192-2.498,0.289-3.768,0.289c-6.537,0-12.742-2.526-17.473-7.112
	c-4.591-4.443-7.119-10.453-7.119-16.919c0-6.368,2.557-12.349,7.199-16.846c4.697-4.553,10.874-7.061,17.393-7.061
	c6.66,0,12.878,2.467,17.507,6.948c4.514,4.37,7,10.392,7,16.958c0,4.993-1.5,9.705-4.285,13.627
	c1.329-0.213,2.677-0.322,4.033-0.322c2.998,0,5.908,0.559,8.663,1.646c-4.1-4.444-6.427-10.245-6.427-16.121
	c0-6.093,2.72-12.082,7.657-16.862c4.944-4.793,11.127-7.434,17.409-7.434c6.343,0,12.544,2.623,17.461,7.387
	c4.835,4.681,7.499,10.687,7.499,16.909c0,6.052-2.364,11.959-6.522,16.37c3.41-1.716,7.209-2.601,11.252-2.601
	c1.517,0,3.002,0.127,4.445,0.381c-3.777-4.201-5.844-9.806-5.844-15.949c0-6.54,2.482-12.548,6.991-16.917
	c4.603-4.458,10.805-6.913,17.467-6.913c6.656,0,12.858,2.459,17.464,6.921c3.67,3.555,6.11,7.801,7.113,12.277
	c0.73-5.082,3.252-9.896,7.281-13.803c0.729-0.706,1.498-1.362,2.301-1.972c-1.846,0.464-3.732,0.702-5.631,0.702
	c-6.537,0-12.955-2.587-17.611-7.096c-4.755-4.602-7.482-10.818-7.482-17.055c0-6.063,2.731-12.049,7.692-16.853
	c4.927-4.773,11.106-7.406,17.401-7.406c6.5,0,12.928,2.614,17.637,7.171c4.58,4.437,7.206,10.664,7.206,17.088
	c0,6.151-2.661,12.119-7.493,16.802c-0.896,0.867-1.837,1.665-2.811,2.386c2.011-0.504,4.104-0.766,6.236-0.766
	c6.51,0,12.497,2.465,17.313,7.13c4.708,4.558,7.195,10.354,7.195,16.764c0,6.736-2.437,12.806-6.858,17.09
	c-4.552,4.413-10.985,6.942-17.649,6.942c-1.184,0-2.361-0.079-3.519-0.233c3.793,4.218,5.866,9.802,5.866,15.895
	c0,6.464-2.508,12.451-7.061,16.857c-4.932,4.779-11.115,7.411-17.406,7.411c-6.424,0-12.644-2.597-17.509-7.311
	c-4.829-4.671-7.487-10.694-7.487-16.958c0-5.584,2.102-11.101,5.832-15.438c-2.569,0.943-5.262,1.425-8.021,1.425
	c-1.562,0-3.119-0.149-4.647-0.439c4.002,4.382,6.106,9.745,6.106,15.607c0,6.68-2.455,12.736-6.914,17.055
	c-4.61,4.464-11.028,7.023-17.604,7.023c-6.414,0-12.594-2.563-17.404-7.22c-4.805-4.656-7.449-10.643-7.449-16.858
	c0-5.858,2.428-11.554,6.855-16.14c-3.563,1.795-7.589,2.769-11.691,2.769c-3.249,0-6.455-0.617-9.422-1.772
	c4.554,4.663,6.955,10.237,6.955,16.17c0,6.472-2.611,12.712-7.163,17.118C185.227,247.479,178.785,250.01,172.112,250.01
	 M172.112,217.557c-2.29,0-4.527,0.894-6.135,2.451c-1.631,1.58-2.567,3.746-2.567,5.942c0,2.188,0.924,4.288,2.599,5.911
	c1.652,1.597,3.818,2.479,6.103,2.479c2.417,0,4.689-0.856,6.233-2.354c1.54-1.49,2.424-3.693,2.424-6.036
	c0-2.442-1.526-4.434-2.804-5.675C176.685,219.035,174.629,217.557,172.112,217.557 M229.104,216.852
	c-2.303,0-4.287,0.792-5.902,2.354c-1.264,1.227-2.771,3.216-2.771,5.718c0,2.604,1.474,4.578,2.709,5.776
	c1.24,1.201,3.282,2.632,5.965,2.632c2.318,0,4.565-0.888,6.166-2.438c1.402-1.356,2.175-3.479,2.175-5.971
	c0-2.198-0.813-4.056-2.486-5.678C233.293,217.636,231.378,216.852,229.104,216.852 M279.348,215.392
	c-2.361,0-4.617,0.871-6.186,2.388c-1.672,1.621-2.632,3.803-2.632,5.989c0,2.798,1.721,4.882,2.748,5.874
	c1.049,1.021,3.229,2.725,6.069,2.725c2.658,0,4.881-1.767,5.967-2.82c1.539-1.49,2.32-3.435,2.32-5.778
	c0-2.485-0.755-4.526-2.184-5.908C283.809,216.269,281.641,215.392,279.348,215.392 M277.002,188.805
	c-0.706,4.428-2.881,8.656-6.404,12.431c2.773-0.988,5.741-1.514,8.75-1.514c1.09,0,2.17,0.068,3.233,0.202
	C279.771,196.765,277.848,192.904,277.002,188.805 M147.857,180.346c-2.258,0-4.261,0.831-5.95,2.472
	c-1.636,1.582-2.464,3.522-2.464,5.766c0,2.344,0.802,4.309,2.382,5.839c1.68,1.627,3.821,2.523,6.032,2.523
	c2.155,0,4.282-0.91,5.989-2.563c1.552-1.504,2.339-3.456,2.339-5.8c0-2.415-0.781-4.443-2.258-5.874
	C152.353,181.185,150.198,180.346,147.857,180.346 M199.414,178.786c-2.639,0-4.871,1.78-5.967,2.843
	c-1.091,1.059-2.92,3.214-2.92,5.784c0,2.199,0.967,4.397,2.655,6.03c1.602,1.551,3.874,2.44,6.232,2.44
	c2.381,0,4.658-0.884,6.246-2.421c1.611-1.56,2.536-3.766,2.536-6.05c0-2.746-1.731-4.832-2.762-5.828
	C204.354,180.538,202.14,178.786,199.414,178.786 M252.163,177.453c-2.405,0-4.435,0.782-6.026,2.323
	c-1.473,1.429-2.252,3.448-2.252,5.838c0,1.767,0.37,4.229,2.143,5.945c1.658,1.604,3.896,2.526,6.136,2.526
	c2.474,0,4.56-1.516,5.872-2.787c1.387-1.344,3.041-3.423,3.041-5.685c0-2.637-1.811-4.784-2.889-5.827
	C256.589,178.237,254.563,177.453,252.163,177.453 M301.467,175.852c-2.332,0-4.351,0.81-6.004,2.41
	c-1.033,1.001-2.766,3.085-2.766,5.813c0,2.271,0.925,4.472,2.542,6.038c1.524,1.477,3.795,2.325,6.228,2.325
	c2.403,0,4.666-0.857,6.209-2.353c1.368-1.324,2.121-3.46,2.121-6.011c0-2.223-0.805-4.082-2.46-5.686
	C306.143,177.23,304.154,175.852,301.467,175.852 M280.691,133.172c-2.66,0-4.875,1.762-5.958,2.813
	c-1.106,1.071-2.957,3.244-2.957,5.774c0,2.108,1.001,4.285,2.743,5.974c1.646,1.594,3.895,2.507,6.172,2.507
	c2.525,0,4.607-1.5,5.908-2.761c1.258-1.217,2.758-3.198,2.758-5.72c0-2.297-0.9-4.484-2.469-6.004
	C285.193,134.113,282.934,133.172,280.691,133.172 M226.145,165.797c-6.561,0-12.774-2.518-17.494-7.092
	c-4.801-4.652-7.445-10.67-7.445-16.945c0-6.289,2.685-12.495,7.365-17.024c4.596-4.452,10.838-6.905,17.574-6.905
	c1.76,0,3.48,0.183,5.154,0.541c-3.652-4.166-5.643-9.759-5.643-15.94c0-6.364,2.552-12.347,7.189-16.841
	c4.657-4.508,10.832-6.987,17.389-6.987c6.861,0,13.119,2.401,17.621,6.763c4.591,4.444,7.224,10.664,7.224,17.065
	c0,6.502-2.604,12.752-7.144,17.146c-4.493,4.354-10.944,6.848-17.701,6.848c-2.051,0-4.069-0.224-6.01-0.655
	c4.191,4.418,6.4,9.925,6.4,15.991c0,6.427-2.521,12.407-7.097,16.84C238.737,163.24,232.563,165.797,226.145,165.797
	 M226.145,133.499c-2.412,0-4.592,0.823-6.137,2.318c-1.666,1.614-2.623,3.781-2.623,5.942c0,2.093,0.961,4.175,2.707,5.865
	c1.666,1.613,3.815,2.501,6.053,2.501c2.684,0,4.715-1.42,5.943-2.607c1.566-1.517,2.359-3.454,2.359-5.759
	c0-2.24-0.795-4.102-2.432-5.686C230.803,134.899,228.799,133.499,226.145,133.499 M250.234,94.271c-2.301,0-4.301,0.809-5.948,2.4
	c-1.627,1.577-2.453,3.515-2.453,5.759c0,2.633,0.744,4.802,2.093,6.108c1.453,1.408,3.754,2.215,6.309,2.215
	c2.498,0,4.779-0.821,6.261-2.257c1.528-1.48,2.405-3.692,2.405-6.066c0-2.275-0.906-4.456-2.484-5.985
	C254.969,95.042,252.773,94.271,250.234,94.271 M173.193,165.731c-6.655,0-12.882-2.483-17.535-6.989
	c-4.512-4.373-6.998-10.406-6.998-16.982c0-6.791,2.427-12.881,6.831-17.146c4.512-4.371,10.963-6.877,17.702-6.877
	c2.967,0,5.876,0.479,8.584,1.384c-0.333-0.291-0.66-0.59-0.977-0.897c-4.517-4.375-7.004-10.411-7.004-16.996
	c0-6.636,2.473-12.688,6.963-17.035c4.739-4.588,11.149-7.219,17.586-7.219c6.443,0,12.665,2.589,17.516,7.29
	c4.591,4.442,7.121,10.47,7.121,16.964c0,6.591-2.502,12.643-7.043,17.042c-4.582,4.435-10.993,6.978-17.594,6.978
	c-2.807,0-5.54-0.445-8.114-1.302c0.235,0.209,0.466,0.424,0.693,0.643c4.439,4.3,6.984,10.559,6.984,17.172
	c0,6.31-2.592,12.297-7.301,16.862C185.871,163.207,179.687,165.731,173.193,165.731 M173.193,133.406
	c-2.478,0-4.761,0.835-6.264,2.289c-1.348,1.304-2.09,3.46-2.09,6.064c0,2.395,0.803,4.489,2.261,5.902
	c1.599,1.547,3.762,2.4,6.093,2.4c2.236,0,4.246-0.85,5.972-2.521c1.701-1.65,2.566-3.597,2.566-5.782
	c0-2.487-0.821-4.709-2.25-6.096C177.999,134.231,175.706,133.406,173.193,133.406 M198.345,92.644c-2.18,0-4.419,0.96-6.147,2.633
	c-1.434,1.388-2.224,3.502-2.224,5.951c0,2.396,0.806,4.5,2.267,5.918c1.621,1.567,3.79,2.433,6.104,2.433
	c2.343,0,4.585-0.872,6.152-2.39c1.489-1.439,2.306-3.555,2.306-5.961c0-2.309-0.846-4.397-2.382-5.885
	C203.379,94.333,201.205,92.644,198.345,92.644"/>
<path style="fill:#1F0000;" d="M198.345,80.084c5.584,0,10.998,2.266,15.245,6.378c3.984,3.858,6.179,9.104,6.179,14.766
	c0,5.761-2.167,11.03-6.101,14.843c-3.982,3.854-9.567,6.067-15.323,6.067c-5.777,0-11.202-2.171-15.274-6.114
	c-3.91-3.788-6.063-9.044-6.063-14.796c0-5.806,2.139-11.074,6.023-14.835C187.172,82.383,192.754,80.084,198.345,80.084
	 M198.345,112.69c3.188,0,6.259-1.204,8.425-3.302c2.094-2.025,3.245-4.924,3.245-8.161c0-3.14-1.18-6.011-3.322-8.083
	c-1.393-1.352-4.329-3.612-8.348-3.612c-3.025,0-6.092,1.291-8.419,3.544c-2.039,1.975-3.164,4.87-3.164,8.151
	c0,3.229,1.139,6.11,3.206,8.114C192.198,111.5,195.173,112.69,198.345,112.69 M250.234,81.713c6.004,0,11.454,2.078,15.351,5.852
	c3.991,3.865,6.282,9.284,6.282,14.866c0,5.683-2.262,11.13-6.203,14.946c-3.895,3.771-9.52,5.936-15.43,5.936
	c-5.972,0-11.611-2.148-15.477-5.894c-3.798-3.676-5.891-9-5.891-14.988c0-5.533,2.22-10.732,6.25-14.64
	C239.167,83.872,244.533,81.713,250.234,81.713 M250.234,113.865c3.344,0,6.453-1.156,8.532-3.169
	c2.126-2.06,3.347-5.071,3.347-8.266c0-3.096-1.25-6.079-3.427-8.186c-2.053-1.989-5.054-3.085-8.452-3.085
	c-3.141,0-5.981,1.146-8.219,3.312c-2.22,2.15-3.395,4.903-3.395,7.959c0,3.464,1.078,6.414,3.033,8.308
	C243.705,112.727,246.832,113.865,250.234,113.865 M280.691,120.613c5.655,0,11.256,2.282,15.366,6.261
	c3.981,3.857,6.265,9.283,6.265,14.886c0,5.318-2.326,10.506-6.553,14.602c-4.29,4.151-9.644,6.438-15.078,6.438
	c-5.69,0-11.281-2.252-15.34-6.183c-4.158-4.026-6.543-9.442-6.543-14.856c0-5.231,2.398-10.437,6.753-14.652
	C269.883,122.919,275.258,120.613,280.691,120.613 M280.691,153.353c3.627,0,6.449-1.998,8.18-3.673
	c1.686-1.633,3.697-4.334,3.697-7.92c0-3.115-1.242-6.105-3.406-8.204c-2.295-2.221-5.383-3.496-8.471-3.496
	c-3.815,0-6.795,2.335-8.231,3.728c-1.454,1.409-3.897,4.32-3.897,7.973c0,2.928,1.346,5.907,3.688,8.175
	C274.492,152.107,277.568,153.353,280.691,153.353 M173.193,120.848c5.928,0,11.562,2.164,15.459,5.938
	c3.843,3.722,6.045,9.181,6.045,14.974c0,5.479-2.259,10.687-6.361,14.662c-4.13,3.998-9.507,6.199-15.143,6.199
	c-5.794,0-11.215-2.159-15.263-6.08c-3.906-3.785-6.057-9.033-6.057-14.781c0-5.961,2.092-11.269,5.89-14.947
	C161.677,123.021,167.301,120.848,173.193,120.848 M173.193,153.174c3.885,0,6.628-1.865,8.244-3.432
	c1.598-1.549,3.506-4.193,3.506-7.982c0-3.308-1.163-6.33-3.189-8.295c-2.08-2.013-5.201-3.171-8.561-3.171
	c-3.324,0-6.435,1.167-8.533,3.2c-1.956,1.893-3.033,4.829-3.033,8.266c0,3.225,1.137,6.104,3.202,8.103
	C167.033,151.997,170.004,153.174,173.193,153.174 M226.144,120.941c5.615,0,10.816,2.161,15.039,6.25
	c4.076,3.947,6.231,8.984,6.231,14.568c0,5.596-2.187,10.795-6.157,14.64c-4.185,4.054-9.554,6.286-15.113,6.286
	c-5.7,0-11.106-2.194-15.222-6.18c-4.195-4.065-6.503-9.303-6.503-14.746c0-5.47,2.339-10.873,6.422-14.825
	C214.832,123.07,220.266,120.941,226.144,120.941 M226.144,153.238c3.786,0,6.558-1.915,8.216-3.521
	c2.158-2.09,3.301-4.842,3.301-7.957c0-3.065-1.135-5.72-3.373-7.886c-1.643-1.59-4.389-3.485-8.144-3.485
	c-3.271,0-6.258,1.147-8.405,3.228c-2.267,2.194-3.565,5.163-3.565,8.144c0,2.922,1.295,5.785,3.647,8.064
	C220.092,152.024,223.05,153.238,226.144,153.238 M301.467,163.292c5.643,0,10.842,2.151,15.041,6.219
	c4.091,3.964,6.254,9,6.254,14.563c0,5.907-2.1,11.196-5.917,14.893c-3.958,3.832-9.562,6.029-15.378,6.029
	c-5.846,0-11.459-2.188-15.398-6.003c-4.029-3.906-6.338-9.341-6.338-14.919c0-5.373,2.33-10.59,6.564-14.693
	C290.35,165.453,295.738,163.292,301.467,163.292 M301.467,195.549c3.249,0,6.34-1.188,8.48-3.263
	c1.975-1.912,3.061-4.829,3.061-8.212c0-3.047-1.143-5.7-3.398-7.884c-1.625-1.575-4.354-3.45-8.143-3.45
	c-3.169,0-6.031,1.149-8.273,3.321c-1.385,1.34-3.709,4.168-3.709,8.013c0,3.091,1.271,6.093,3.481,8.238
	C295.09,194.368,298.188,195.549,301.467,195.549 M252.164,164.896c5.798,0,11.191,2.134,15.19,6.01
	c4.313,4.176,6.688,9.4,6.688,14.71c0,5.194-2.365,10.233-6.84,14.565c-4.367,4.23-9.568,6.465-15.039,6.465
	c-5.656,0-11.234-2.261-15.307-6.206c-3.83-3.709-5.939-8.975-5.939-14.824c0-5.711,2.148-10.938,6.05-14.719
	C240.964,167.025,246.359,164.896,252.164,164.896 M252.164,197.198c3.574,0,6.399-2.012,8.143-3.699
	c1.816-1.759,3.982-4.555,3.982-7.884c0-3.759-2.401-6.646-3.832-8.03c-2.189-2.122-5.057-3.243-8.293-3.243
	c-3.245,0-6.114,1.119-8.299,3.234c-2.088,2.025-3.193,4.803-3.193,8.039c0,2.352,0.535,5.675,3.084,8.143
	C246.012,195.944,249.076,197.198,252.164,197.198 M199.415,166.228c5.483,0,10.878,2.301,15.188,6.477
	c4.231,4.095,6.56,9.318,6.56,14.708c0,5.589-2.308,11.031-6.332,14.93c-4.002,3.878-9.621,6.101-15.416,6.101
	c-5.773,0-11.385-2.229-15.399-6.113c-4.103-3.974-6.456-9.41-6.456-14.917c0-5.261,2.385-10.468,6.717-14.663
	C188.617,168.543,193.994,166.228,199.415,166.228 M199.415,198.995c3.226,0,6.331-1.215,8.517-3.331
	c2.208-2.141,3.477-5.149,3.477-8.252c0-3.865-2.319-6.689-3.703-8.029c-1.43-1.384-4.407-3.709-8.291-3.709
	c-3.797,0-6.792,2.354-8.24,3.758c-1.443,1.396-3.861,4.288-3.861,7.98c0,3.019,1.313,6.021,3.599,8.233
	C193.111,197.773,196.21,198.995,199.415,198.995 M147.857,167.788c5.803,0,11.214,2.144,15.236,6.037
	c3.907,3.783,6.059,9.023,6.059,14.757c0,5.635-2.18,10.849-6.138,14.682c-4.156,4.025-9.539,6.238-15.157,6.238
	c-5.677,0-11.076-2.201-15.201-6.198c-3.984-3.857-6.178-9.087-6.178-14.722c0-5.535,2.222-10.735,6.258-14.645
	C136.827,169.972,142.198,167.788,147.857,167.788 M147.857,200.057c3.014,0,5.947-1.234,8.26-3.475
	c2.146-2.078,3.281-4.844,3.281-8c0-3.254-1.107-6.048-3.201-8.074c-2.179-2.109-5.142-3.272-8.34-3.272
	c-3.911,0-6.63,1.839-8.223,3.383c-2.226,2.154-3.402,4.908-3.402,7.964c0,3.156,1.149,5.937,3.322,8.04
	C141.84,198.836,144.787,200.057,147.857,200.057 M279.347,202.832c5.757,0,11.181,2.183,15.272,6.146
	c3.856,3.734,5.981,8.987,5.981,14.79c0,5.633-2.173,10.84-6.116,14.66c-4.328,4.19-9.703,6.496-15.138,6.496
	c-5.565,0-10.978-2.271-15.237-6.397c-4.222-4.086-6.546-9.329-6.546-14.759c0-5.493,2.343-10.913,6.431-14.87
	C267.976,205.042,273.572,202.832,279.347,202.832 M279.347,235.478c3.817,0,6.8-2.337,8.24-3.73c2.132-2.066,3.26-4.825,3.26-7.979
	c0-3.325-1.081-6.131-3.125-8.108c-2.25-2.181-5.224-3.38-8.375-3.38c-3.207,0-6.29,1.203-8.456,3.302
	c-2.27,2.198-3.572,5.183-3.572,8.187c0,3.922,2.313,6.744,3.689,8.077C272.408,233.203,275.353,235.478,279.347,235.478
	 M229.103,204.293c5.726,0,10.923,2.102,15.027,6.075c4.108,3.981,6.28,9.015,6.28,14.556c0,5.849-2.121,11.123-5.973,14.854
	c-4.013,3.885-9.603,6.113-15.335,6.113c-5.555,0-10.929-2.24-15.133-6.311c-4.196-4.065-6.507-9.271-6.507-14.657
	c0-5.308,2.333-10.492,6.57-14.597C218.109,206.381,223.32,204.293,229.103,204.293 M229.103,236.444c3.165,0,6.24-1.222,8.439-3.35
	c2.008-1.943,3.114-4.846,3.114-8.171c0-3.025-1.152-5.674-3.424-7.875c-2.267-2.194-5.003-3.308-8.13-3.308
	c-3.139,0-5.966,1.129-8.173,3.267c-1.693,1.642-3.714,4.348-3.714,7.916c0,3.67,1.985,6.361,3.651,7.977
	C222.537,234.517,225.322,236.444,229.103,236.444 M172.112,204.998c5.506,0,10.7,2.212,15.024,6.398
	c4.318,4.185,6.599,9.217,6.599,14.554c0,5.652-2.268,11.09-6.222,14.919c-3.959,3.831-9.572,6.029-15.401,6.029
	c-5.747,0-11.17-2.188-15.271-6.156c-4.125-3.995-6.396-9.248-6.396-14.792c0-5.502,2.319-10.906,6.363-14.823
	C160.83,207.232,166.408,204.998,172.112,204.998 M172.112,237.451c3.263,0,6.362-1.189,8.505-3.266
	c2.138-2.069,3.364-5.07,3.364-8.235c0-3.51-2.035-6.218-3.742-7.872c-1.711-1.658-4.51-3.633-8.127-3.633
	c-3.137,0-6.2,1.225-8.406,3.361c-2.228,2.16-3.507,5.127-3.507,8.144c0,3.021,1.257,5.901,3.539,8.111
	C165.996,236.246,168.969,237.451,172.112,237.451 M198.345,73.862c-7.283,0-14.521,2.964-19.856,8.13
	c-5.098,4.936-7.905,11.766-7.905,19.235c0,4.841,1.203,9.427,3.464,13.409c-0.285-0.009-0.57-0.013-0.855-0.013
	c-7.583,0-14.863,2.839-19.973,7.789c-5.011,4.854-7.771,11.724-7.771,19.347c0,7.409,2.819,14.222,7.938,19.182
	c0.548,0.53,1.114,1.035,1.699,1.516c-2.325-0.588-4.751-0.892-7.229-0.892c-7.376,0-14.36,2.832-19.665,7.974
	c-5.248,5.082-8.139,11.847-8.139,19.043c0,7.299,2.863,14.09,8.062,19.122c4.92,4.769,11.263,7.563,18.017,7.97
	c-1.376,3.248-2.111,6.744-2.111,10.276c0,7.206,2.94,14.022,8.278,19.192c5.314,5.146,12.351,7.979,19.813,7.979
	c7.519,0,14.787-2.861,19.942-7.851c5.152-4.988,8.106-12.029,8.106-19.32c0-3.979-0.942-7.808-2.766-11.356
	c0.671,0.047,1.345,0.071,2.021,0.071c1.339,0,2.673-0.093,3.987-0.273c-1.55,3.333-2.363,6.9-2.363,10.532
	c0,7.048,2.979,13.816,8.388,19.057c5.417,5.245,12.405,8.134,19.676,8.134c7.423,0,14.667-2.893,19.876-7.936
	c2.323-2.249,4.167-4.904,5.484-7.846c1.329,2.375,3.042,4.597,5.105,6.595c5.473,5.3,12.496,8.22,19.778,8.22
	c7.151,0,14.14-2.954,19.679-8.319c5.159-4.996,8-11.766,8-19.061c0-4.558-1.041-8.872-3.006-12.659
	c6.581-0.569,12.803-3.32,17.368-7.741c5.03-4.871,7.799-11.723,7.799-19.293c0-7.25-2.813-13.808-8.137-18.963
	c-4.927-4.775-10.961-7.506-17.554-7.97c3.412-4.586,5.252-9.912,5.252-15.382c0-7.24-2.969-14.27-8.146-19.284
	c-5.308-5.14-12.564-8.085-19.91-8.085c-1.83,0-3.649,0.192-5.438,0.57c1.97-3.815,3.037-8.125,3.037-12.53
	c0-7.223-2.977-14.244-8.164-19.268c-5.109-4.948-12.174-7.672-19.893-7.672c-7.416,0-14.396,2.804-19.658,7.898
	c-2.592,2.513-4.609,5.436-5.985,8.616c-1.353-3.726-3.538-7.115-6.459-9.943C212.674,76.775,205.646,73.862,198.345,73.862
	 M198.345,106.467c-1.477,0-2.803-0.526-3.835-1.525c-0.852-0.825-1.323-2.147-1.323-3.714c0-1.595,0.467-2.962,1.282-3.752
	c1.114-1.078,2.562-1.723,3.876-1.723c1.704,0,3.114,1.121,3.803,1.788c0.932,0.903,1.443,2.21,1.443,3.687
	c0,1.573-0.484,2.91-1.363,3.761C201.271,105.915,199.82,106.467,198.345,106.467 M250.234,107.644c-1.66,0-3.207-0.5-4.037-1.304
	c-0.557-0.541-1.15-1.85-1.15-3.909c0-1.409,0.494-2.573,1.511-3.559c1.035-1.002,2.238-1.489,3.677-1.489
	c1.656,0,3.082,0.459,3.908,1.262c0.969,0.937,1.545,2.352,1.545,3.786c0,1.531-0.548,2.979-1.465,3.866
	C253.354,107.14,251.861,107.644,250.234,107.644 M222.559,114.929c0.547-0.935,1.034-1.903,1.461-2.9
	c0.324,0.929,0.696,1.833,1.115,2.708C224.267,114.764,223.408,114.829,222.559,114.929 M198.345,128.359
	c1.171,0,2.337-0.071,3.492-0.21c-0.875,1.454-1.611,2.981-2.196,4.558c-0.512-1.514-1.152-2.972-1.913-4.354
	C197.934,128.357,198.139,128.359,198.345,128.359 M250.84,129.529c1.753-0.035,3.486-0.22,5.178-0.546
	c-1.285,2.16-2.244,4.432-2.854,6.764C252.664,133.574,251.884,131.493,250.84,129.529 M280.691,147.129
	c-1.41,0-2.867-0.595-3.898-1.594c-1.131-1.095-1.805-2.505-1.805-3.775c0-1.195,1.041-2.631,2.017-3.574
	c0.459-0.445,2.088-1.903,3.687-1.903c1.377,0,2.846,0.627,3.93,1.675c0.953,0.924,1.523,2.347,1.523,3.803
	c0,1.455-0.988,2.718-1.816,3.521C283.457,146.123,282.117,147.129,280.691,147.129 M173.193,146.952
	c-1.494,0-2.815-0.516-3.822-1.491c-0.851-0.822-1.32-2.138-1.32-3.701c0-2.029,0.594-3.327,1.151-3.865
	c0.89-0.862,2.383-1.378,3.991-1.378c1.644,0,3.147,0.505,4.02,1.35c0.629,0.611,1.305,1.956,1.305,3.894
	c0,0.496,0,2.009-1.625,3.584C175.234,146.952,173.698,146.952,173.193,146.952 M226.144,147.016c-1.379,0-2.722-0.565-3.782-1.592
	c-1.138-1.102-1.765-2.404-1.765-3.664c0-1.323,0.629-2.723,1.685-3.744c0.935-0.905,2.308-1.404,3.862-1.404
	c1.249,0,2.461,0.559,3.601,1.663c1.031,0.999,1.49,2.073,1.49,3.485c0,1.471-0.464,2.634-1.416,3.558
	C228.654,146.444,227.418,147.016,226.144,147.016 M247.457,159.043c2.796-3.239,4.729-7.058,5.687-11.184
	c1.065,4.26,3.218,8.306,6.274,11.711c-2.331-0.592-4.766-0.898-7.254-0.898C250.568,158.672,248.994,158.799,247.457,159.043
	 M192.857,160.842c0.007-0.006,0.014-0.011,0.02-0.018c3.055-2.962,5.321-6.456,6.696-10.247c1.398,3.797,3.701,7.319,6.804,10.327
	c0.014,0.012,0.028,0.026,0.042,0.04c-2.284-0.62-4.633-0.94-7.004-0.94C197.202,160.004,195.004,160.29,192.857,160.842
	 M225.631,177.71c-1.43-3.434-3.619-6.63-6.485-9.406c-0.126-0.122-0.253-0.242-0.38-0.361c2.38,0.637,4.857,0.965,7.378,0.965
	c1.474,0,2.935-0.117,4.372-0.35C228.283,171.249,226.633,174.352,225.631,177.71 M173.269,177.491
	c-1.336-3.009-3.231-5.741-5.634-8.067c-0.531-0.514-1.081-1.005-1.647-1.472c2.319,0.588,4.736,0.892,7.205,0.892
	c2.362,0,4.687-0.295,6.931-0.864c-0.131,0.122-0.262,0.247-0.391,0.372C176.906,171.088,174.726,174.19,173.269,177.491
	 M276.398,172.006c-0.865-1.366-1.863-2.683-2.988-3.932c1.609,0.423,3.258,0.709,4.924,0.848
	C277.615,169.918,276.969,170.948,276.398,172.006 M301.467,189.327c-1.563,0-3.043-0.53-3.959-1.416c-1-0.969-1.6-2.405-1.6-3.837
	c0-1.664,1.277-3.081,1.826-3.613c1.043-1.008,2.264-1.499,3.732-1.499c1.275,0,2.484,0.548,3.598,1.626
	c1.051,1.019,1.521,2.093,1.521,3.486c0,1.672-0.442,3.096-1.181,3.812C304.474,188.788,303.002,189.327,301.467,189.327
	 M252.164,190.976c-1.375,0-2.821-0.604-3.865-1.617c-0.995-0.962-1.203-2.567-1.203-3.743c0-1.571,0.443-2.796,1.314-3.642
	c0.979-0.946,2.207-1.408,3.754-1.408c1.537,0,2.763,0.464,3.748,1.418c0.463,0.447,1.953,2.015,1.953,3.632
	c0,0.908-0.785,2.21-2.102,3.484C255.041,189.799,253.609,190.976,252.164,190.976 M199.415,192.772
	c-1.491,0-2.972-0.571-3.961-1.527c-1.074-1.04-1.715-2.473-1.715-3.833c0-1.546,1.513-3.129,1.976-3.579
	c0.474-0.459,2.121-1.937,3.7-1.937c1.624,0,3.163,1.32,3.75,1.888c0.677,0.657,1.818,2.005,1.818,3.628
	c0,1.444-0.596,2.885-1.595,3.853C202.414,192.207,200.927,192.772,199.415,192.772 M147.857,193.833
	c-1.352,0-2.687-0.571-3.759-1.609c-0.971-0.94-1.442-2.13-1.442-3.642c0-1.408,0.497-2.572,1.519-3.562
	c1.612-1.563,3.17-1.563,3.682-1.563c1.482,0,2.831,0.516,3.798,1.452c0.875,0.847,1.318,2.082,1.318,3.673
	c0,1.512-0.457,2.688-1.398,3.601C150.475,193.247,149.155,193.833,147.857,193.833 M225.253,198.316
	c0.39-0.877,0.733-1.776,1.03-2.69c0.322,0.854,0.688,1.687,1.097,2.494C226.662,198.16,225.953,198.226,225.253,198.316
	 M173.575,198.814c0.03-0.073,0.059-0.146,0.09-0.219c0.036,0.076,0.072,0.153,0.109,0.23L173.575,198.814z M279.347,229.254
	c-1.742,0-3.233-1.263-3.796-1.807c-0.676-0.656-1.809-2.003-1.809-3.68c0-1.346,0.633-2.762,1.69-3.786
	c0.957-0.927,2.42-1.48,3.914-1.48c1.456,0,2.781,0.539,3.831,1.557c1.029,0.996,1.245,2.566,1.245,3.71
	c0,1.51-0.452,2.681-1.379,3.579C282.582,227.794,280.949,229.254,279.347,229.254 M229.103,230.222
	c-1.271,0-2.512-0.579-3.692-1.723c-1.174-1.136-1.77-2.34-1.77-3.575c0-1.438,0.997-2.707,1.833-3.517
	c1.002-0.971,2.19-1.444,3.629-1.444c1.419,0,2.526,0.459,3.587,1.487c1.066,1.032,1.543,2.104,1.543,3.474
	c0,1.638-0.449,3.012-1.232,3.771C232.011,229.65,230.554,230.222,229.103,230.222 M172.112,231.229
	c-1.446,0-2.772-0.542-3.833-1.569c-1.082-1.048-1.655-2.331-1.655-3.709c0-1.358,0.608-2.758,1.627-3.745
	c0.993-0.962,2.437-1.538,3.861-1.538c1.417,0,2.732,0.985,3.586,1.813c0.846,0.819,1.858,2.092,1.858,3.471
	c0,1.503-0.553,2.937-1.482,3.836C175.141,230.689,173.661,231.229,172.112,231.229"/>
<path style="fill:#00340E;" d="M74.51,468.717c-8.32,0-17.332-0.479-27.558-1.472l-1.771-0.128
	c-5.329-0.35-14.248-0.935-15.297-6.375c-0.461-2.369,1.163-5.218,2.466-7.503c0.335-0.584,0.635-1.112,0.839-1.534
	c1.534-3.213,3.123-6.396,4.768-9.558c6.9-13.242,16.533-30.161,29.9-43.624c12.921-13.014,29.832-22.244,46.19-31.167l2.927-1.606
	c-3.758-7.488-3.537-17.154-2.612-24.222c2.188-16.698,17.007-28.812,35.239-28.812c3.926,0,7.803,0.586,11.522,1.749
	c9.12,2.849,16.865,8.474,21.245,15.434c1.056,1.677,1.669,3.34,2.262,4.947c0.611,1.649,1.186,3.205,2.192,4.569
	c4.412,5.989,9.327,11.864,14.081,17.546c2.43,2.913,4.861,5.818,7.235,8.745l11.827,14.591c0.729,0.899,1.456,1.928,2.202,2.978
	c1.432,2.02,2.913,4.111,4.516,5.389c0.688,0.551,1.35,0.843,1.902,0.843c0.71,0,1.186-0.499,1.456-0.921
	c0.55-0.835,0.929-2.412,0.192-4.098c-0.666-1.527-1.951-3.156-3.194-4.718c-0.624-0.793-1.237-1.572-1.771-2.321
	c-6.642-9.408-13.338-18.781-20.029-28.154l-2.592-3.626c-1.491-2.093-3.048-4.162-4.608-6.239
	c-3.112-4.148-6.325-8.432-9.059-12.885c-2.155-3.514-2.028-8.288-1.916-12.493c0.039-1.449,0.078-2.862,0.017-4.161l-1.798-39.698
	c-0.026-0.55-0.154-1.299-0.29-2.148c-0.588-3.662-1.481-9.202,2.488-11.064c0.732-0.343,1.46-0.515,2.171-0.515
	c1.173,0,2.262,0.472,3.144,1.371c3.487,3.562,3.57,14.099,3.373,23.692c-0.029,1.278-0.051,2.249-0.029,2.749l0.899,20.516
	c0.033,0.692,0.008,1.813-0.024,3.154c-0.065,2.679-0.261,10.816,1.014,12.08c0.528-0.158,4.596-1.606,5.375-2.099
	c0.767-0.515,0.824-1.058,0.739-3.148l-0.043-1.549c0.028-5.612-0.19-11.215-0.403-16.819l-0.404-9.887
	c-0.357-7.974-0.728-16.219-0.317-24.279c0.167-3.311,1.566-7.188,4.964-7.188c1.039,0,2.109,0.407,3.18,1.214
	c3.47,2.605,3.041,8.609,2.729,12.999c-0.08,1.1-0.154,2.077-0.145,2.827l0.707,39.034c0.018,0.892,0.059,2.982,0.289,3.447
	c0.268-0.321,1.682-0.758,2.213-0.922c0.533-0.164,1.282-0.328,2.114-0.499c1.081-0.228,3.337-0.706,3.847-1.135
	c1.111-1.036,0.447-6.946,0.197-9.173c-0.147-1.307-0.272-2.448-0.286-3.255c-0.089-4.169-0.438-8.281-0.789-12.407
	c-0.25-2.906-0.496-5.818-0.657-8.759c-0.031-0.664-0.156-1.585-0.296-2.649c-0.703-5.389-1.667-12.771,2.774-14.897
	c0.938-0.449,1.835-0.671,2.662-0.671c4.854,0,4.996,6.346,5.058,9.052c0.036,1.206,0.015,2.206-0.015,3.397
	c-0.182,7.396,0.236,11.508,1.236,12.229c0.973,0.429,1.603,0.521,1.951,0.521c1.335,0,1.71-2.284,1.907-6.225l0.067-1.199
	c0.047-0.744,0.017-1.85-0.012-3.142c-0.16-6.839-0.025-12.656,3.284-14.691c1.067-0.657,2.103-0.993,3.08-0.993
	c1.128,0,2.153,0.437,2.959,1.258c1.856,1.892,1.942,5.254,1.924,6.238c-0.05,2.692-0.239,5.391-0.431,8.081l-0.205,2.949
	c-0.035,0.55-0.16,1.406-0.311,2.398c-0.218,1.448-0.731,4.84-0.436,5.689c0.447,0.399,3.798,1.534,7.061,1.534
	c1.597,0,2.303-0.292,2.438-0.406c0.429-0.964-0.131-4.654-0.432-6.639c-0.178-1.171-0.336-2.235-0.385-3.013
	c-0.186-2.87-0.414-5.726-0.676-8.581c-0.342-3.44-0.496-6.524,1.182-8.373c0.768-0.851,1.81-1.301,3.014-1.301
	c0.792,0,1.628,0.187,2.563,0.587c4.59,1.941,4.519,9.352,4.469,14.763c-0.012,1.12-0.022,2.091,0.024,2.805
	c0.068,1.021,0.032,2.363-0.014,3.848c-0.089,3.021-0.243,8.073,1.106,9.373c0.539,0.521,2.142,1.085,3.797,1.085
	c1.031,0,1.613-0.235,1.734-0.35c0.401-0.792,0.439-4.933,0.454-6.489c0.011-0.871,0.019-1.612,0.05-2.077
	c0.258-3.833,0.239-6.725-0.054-9.387c-0.049-0.464-0.192-1-0.335-1.557c-0.46-1.842-1.036-4.126,0.104-6.082
	c1.424-2.455,3.145-2.97,4.336-2.97c3.241,0,5.404,3.641,5.907,6.226c1.285,6.574,0.621,13.284-0.024,19.773
	c-0.114,1.171-0.236,1.862-0.367,2.599c-0.262,1.456-0.657,3.669-0.119,4.411c0.597,0.5,4.123,1.892,5.063,1.913
	c2.188-0.101,2.42-4.461,2.463-8.552c0.011-1.014,0.021-1.921,0.086-2.599c0.289-3.219,0.546-6.368,0.449-9.479
	c-0.012-0.357-0.086-0.808-0.164-1.3c-0.312-2.034-0.781-5.111,1.332-6.889c1.138-0.964,2.326-1.456,3.521-1.456
	c3.68,0,5.486,4.397,5.761,7.16c0.479,4.861-0.043,9.716-0.546,14.42c-0.182,1.677-0.359,3.347-0.492,5.011l-0.146,1.686
	c-0.479,5.254-0.539,7.681,3.084,10.122l0.641,0.441c2.296,1.558,4.673,3.171,6.821,3.171c0.947,0,1.832-0.321,2.707-1
	c2.34-1.806,4.454-4.982,6.499-8.059c1.196-1.799,2.358-3.541,3.534-4.984c8.962-11.007,17.543-18.858,27.005-24.705
	c4.911-3.034,10.354-5.825,16.636-8.531c0.432-0.187,1.049-0.492,1.788-0.856c3.146-1.556,7.899-3.905,11.272-3.905
	c1.328,0,2.42,0.357,3.24,1.05l-2.684,3.162l1.345-1.577l-0.103,2.049c-0.668,0.179-5.262,2.413-8.024,3.854
	c-2.674,1.407-5.321,3.057-8.088,5.034c-5.158,3.69-10.162,8.181-15.748,14.127c-7.673,8.173-18.399,20.53-22.922,33.388
	c-0.739,2.091,0.019,5.104,1.967,7.853c2.095,2.962,5.125,4.946,7.546,4.946c1.596,0,2.908-0.82,4.02-2.505
	c7.445-11.329,14.244-21.681,25.063-30.134c4.566-3.561,10.619-6.802,17.516-9.38c1.608-1.056,4.24-1.341,4.278-1.341h0.907
	l1.189,0.85c0.48,0.521,0.713,1.221,0.652,1.97c-0.179,2.163-2.57,3.034-4.676,3.798c-0.402,0.15-0.756,0.271-0.979,0.379
	c-9.551,4.747-17.699,11.864-24.221,21.145c-3.152,4.482-5.939,9.529-8.287,14.983l-0.965,2.148
	c-1.68,3.684-3.979,8.724-3.279,11.786c0.418,1.842,2.729,4.197,4.586,6.089c0.817,0.827,1.586,1.612,2.195,2.335
	c2.12,2.49,4.204,5.004,6.249,7.545c4.002,4.982,7.568,9.709,10.904,14.449c13.399,19.01,21.502,35.293,25.5,51.227
	c0.51,2.027-0.128,3.412-0.753,4.211c-1.378,1.763-4.023,2.585-8.321,2.585c-3.548,0-7.56-0.565-10.215-0.942
	c-1.035-0.15-1.867-0.271-2.384-0.314c-9.424-0.757-18.854-1.449-28.295-1.97c-6.795-0.38-12.924-0.686-19.142-0.686
	c-1.589,0-3.181,0.021-4.768,0.064c-3.827,0.114-7.657,0.335-11.479,0.557l-2.162,0.121c0,0-3.713,0.007-4.045,0.028
	c-0.121,0.686-0.229,1.478-0.269,1.757c-0.646,2.641-1.491,4.903-2.576,7.065c-6.621,13.222-20.463,19.646-42.317,19.646
	c-2.185,0-4.355-0.065-6.479-0.164c-4.559-0.222-9.102-0.643-13.645-1.071c-5.22-0.493-10.619-0.991-15.928-1.157
	c-1.049-0.027-2.095-0.041-3.144-0.041c-8.856,0-17.836,1.085-26.524,2.142l-4.533,0.549c-6.899,0.842-14.03,1.714-21.13,1.714
	c-4.04,0-7.692-0.279-11.161-0.85c-5.347-0.878-10.08-2.406-14.063-4.548c-0.885-0.478-1.703-1.07-2.516-1.655
	c-0.639-0.472-1.275-0.936-1.953-1.307c-0.614-0.336-0.967-0.614-1.239-0.828c-0.535,0.043-1.377,0.492-1.88,0.757
	c-0.464,0.25-0.911,0.478-1.317,0.648c-2.874,1.186-5.811,2.485-8.806,3.799c-11.946,5.261-24.3,10.699-36.896,11.679
	C84.376,468.537,79.525,468.717,74.51,468.717 M63.963,444.517c-2.73,0-5.461,0.043-8.177,0.106l-0.95,0.022
	c-3.962,0.078-5.785,0.214-7.481,2.627c-2.809,3.998-3.915,7.374-3.041,9.265c0.871,1.871,3.869,2.514,6.232,2.729
	c0.889,0.078,1.774,0.114,2.663,0.114c2.363,0,4.722-0.229,7.081-0.457c1.432-0.137,2.859-0.271,4.287-0.364l1.899-0.086
	c3.444-0.136,6.696-0.257,8.47-2.662c1.388-1.878,4.279-5.79,4.147-8.446c-0.103-2.12-0.838-2.491-5.243-2.662
	C70.441,444.573,67.201,444.517,63.963,444.517 M124.705,438.527c-4.372,0-9.654,0.914-13.509,1.578
	c-2.01,0.342-3.684,0.628-4.762,0.72c-1.146,0.102-2.423,0.122-3.748,0.144c-3.719,0.063-7.938,0.144-9.662,2.105
	c-3.248,3.728-6.949,9.452-6.849,11.244c0.035,0.67,0.15,2.698,5.6,2.698c6.364,0,14.909-2.841,17.136-3.826
	c2.595-1.143,5.111-2.435,7.628-3.733c1.806-0.936,3.616-1.863,5.45-2.741c0.81-0.386,1.974-0.785,3.266-1.206
	c2.149-0.714,6.614-2.192,6.678-3.6c0.054-1.048-0.289-1.533-0.553-1.812C130.823,439.513,129.217,438.527,124.705,438.527
	 M148.259,320.612c-0.689,0-1.381,0.021-2.066,0.071c-8.153,0.571-16.401,6.189-21.016,14.305
	c-3.224,5.662-3.919,14.457-1.86,23.516c1.613,7.089,9.205,15.119,16.918,17.903c0.757,0.271,1.61,0.493,2.466,0.714
	c2.688,0.7,5.74,1.492,6.982,3.983c0.718,1.435,0.679,3.134-0.11,5.054c-0.568,1.386-1.378,2.742-2.199,4.105
	c-0.657,1.1-1.324,2.191-1.824,3.318c-3.444,7.789-6.76,16.17-7.688,24.715c-1.453,13.371,0.639,22.516,6.217,27.177
	c5.358,4.483,13.26,6.66,24.161,6.66c2.128,0,4.215-0.078,6.221-0.207c6.246-0.386,12.593-1.179,18.732-1.948
	c6.821-0.85,13.874-1.728,20.894-2.078c2.011-0.1,4.013-0.143,6.009-0.143c6.842,0,13.688,0.521,20.313,1.021
	c6.492,0.493,13.203,1,19.773,1c7.135,0,13.406-0.614,19.174-1.871c10.309-2.241,18.457-12.914,18.168-23.786
	c-0.256-9.614-8.063-21.216-17.775-26.412c-5.007-2.684-11.714-3.983-20.502-3.983c-3.662,0-7.264,0.215-10.598,0.465
	c-12.403,0.941-23.588,4.933-33.832,9.102c-1.242,0.507-2.92,1.277-4.901,2.185c-8.391,3.861-22.44,10.314-32.916,10.314
	c-8.687,0-13.716-4.397-14.542-12.706c-0.749-7.61,1.003-18.525,4.266-26.55c1.228-3.012,3.023-5.524,4.765-7.951
	c1.335-1.863,2.595-3.619,3.588-5.562c1.684-3.298,2.629-7.438,2.894-12.671c0.503-10.029-1.703-16.426-7.367-21.395
	C164.646,323.732,156.294,320.612,148.259,320.612 M62.942,434.438c2.827,0,5.661-0.079,8.491-0.15
	c2.021-0.057,4.038-0.106,6.047-0.136c4.101-0.057,9.605-1.806,12.196-5.061c1.317-1.656,1.735-3.498,1.275-5.634
	c-0.443-2.069-1.996-4.439-10.12-4.439c-1.52,0-3.012,0.072-4.361,0.136c-0.971,0.05-3.626,0.122-3.626,0.122
	c-3.684,0.049-5.715,0.078-8.206,2.391c-3.338,3.092-5.547,7.159-6.814,10.023l-0.232,0.527l-0.471,0.336
	c-0.364,0.25-0.543,0.936-0.346,1.328c0.16,0.335,0.26,0.535,1.616,0.535l1.264-0.015L62.942,434.438z M113.458,421.073
	c-3.858,0-8.598,0.257-11.018,2.248c-4.69,3.856-5.418,6.134-5.147,6.805c0.207,0.514,1.056,0.771,2.524,0.771
	c0.978,0,1.998-0.115,2.923-0.207c0.796-0.086,1.531-0.164,2.142-0.179l3.512-0.085c3.662-0.094,7.32-0.18,10.979-0.357
	c0.649-0.036,1.395-0.043,2.195-0.05c2.891-0.022,6.853-0.057,8.32-1.642c0.585-0.629,1.121-2.149,1.017-3.848
	c-0.071-1.128-0.417-2.063-0.932-2.492c-0.763-0.649-2.459-0.978-5.032-0.978c-0.857,0-4.819,0.114-4.819,0.114
	S114.686,421.073,113.458,421.073 M365.086,410.08c-1.865,0-3.672,0.101-5.285,0.314c-3.486,0.45-5.119,2.827-5.186,4.982
	c-0.061,1.921,1.13,4.22,4.654,4.903c2.19,0.423,8.631,1.222,14.266,1.222c6.957,0,8.056-1.222,8.066-1.228
	c0.64-1.106,0.311-4.327-0.475-5.953c-0.746-1.55-2.841-2.32-4.79-2.877C373.282,410.58,369.182,410.08,365.086,410.08
	 M334.273,411.772c-4.334,0-9.088,1.341-13.281,2.52c-1.178,0.336-2.317,0.656-3.406,0.936c-0.677,0.178-1.538,0.349-2.49,0.55
	c-2.507,0.506-7.168,1.456-8.242,2.898c-0.164,0.221-0.424,0.628-0.324,0.863c0.238,0.564,1.559,1.327,3.076,1.527
	c0.524,0.071,1.06,0.101,1.603,0.101c1.763,0,3.603-0.294,5.422-0.571c1.845-0.278,3.673-0.557,5.407-0.593l1.635-0.021
	c3.674,0,7.34,0.265,11.004,0.536c0,0,2.616,0.178,2.627,0.178c3.33,0,5.93-1.941,6.446-3.684c0.339-1.143-0.263-2.22-1.788-3.205
	C339.859,412.437,337.346,411.772,334.273,411.772 M120.008,401.229c-3.055,0-5.229,1.05-7.049,3.398
	c-1.457,1.877-3.231,6.311-2.838,7.666c0.296,1.015,1.246,1.235,3.944,1.406c0.564,0.029,1.121,0.064,1.653,0.122l1.41,0.164
	c1.859,0.222,3.983,0.479,6.064,0.479c5.532,0,7.081-1.929,7.767-3.37c1.231-2.591,1.531-4.575,0.896-5.889
	c-0.629-1.307-2.327-2.293-5.054-2.927C124.545,401.75,122.16,401.229,120.008,401.229 M98.039,395.718
	c-0.985,0-1.87,0.043-2.57,0.093c-6.824,0.528-16.044,7.038-19.424,12.285c-0.339,0.527-0.35,0.764-0.35,0.764
	c0.207,0.165,1.332,0.735,5.947,0.928l1.017,0.058c2.195,0.157,4.433,0.714,6.596,1.249c2.452,0.613,4.765,1.186,6.896,1.186
	c0.303,0,0.607-0.007,0.906-0.037c4.07-0.362,9.563-8.016,10.858-12.634c0.243-0.871,0.05-1.286-0.168-1.578
	C106.68,396.623,102.872,395.718,98.039,395.718 M331.667,396.632c-1.267,0-2.756,0.507-4.19,0.999l-1.612,0.535
	c-1.206,0.371-2.455,0.714-3.716,1.057c-5.414,1.499-11.016,3.041-14.373,7.217c-0.229,0.286-0.479,0.686-0.348,0.957
	c0.219,0.457,1.129,0.964,2.081,0.964c1.91-0.021,4.134-0.886,6.282-1.714c1.463-0.564,2.906-1.114,4.277-1.463
	c2.255-0.565,6.662-1.514,10.824-1.514c0.664,0,1.271,0.05,1.902,0.093c0.589,0.05,1.206,0.1,1.803,0.1
	c1.803,0,1.932-0.471,2.049-0.885c0.254-1.057-1.752-4.94-2.98-5.768C333.077,396.817,332.439,396.632,331.667,396.632
	 M177.053,383.589c-0.222,0-0.8,0-1.571,1.085c-1.456,2.057,0.982,4.798,4.065,7.917c0.779,0.785,1.482,1.499,1.982,2.112
	c0.799,0.979,1.535,2.428,2.387,4.105c1.014,1.999,3.127,6.161,4.391,6.161c0.199,0,0.6-0.193,1.131-0.757
	c2.659-2.799-0.121-7.067-3.74-11.95c-0.579-0.785-1.118-1.515-1.564-2.17C180.879,385.303,178.341,383.589,177.053,383.589
	 M363.634,386.53c-3.872,0-8.209,1.377-11.942,2.727l-1.538,0.527c-4.286,1.429-6.019,2.35-5.63,4.355
	c0.36,1.878,2.363,6.804,3.334,7.574l0.414,0.207l0.197,0.314c0.316,0.414,1.163,0.634,2.381,0.634c1.844,0,4.086-0.491,6.063-0.927
	c1.174-0.264,2.231-0.493,3.038-0.593c1.734-0.214,3.469-0.406,5.214-0.406l0.769,0.014c1.108,0.035,2.272,0.314,3.396,0.586
	c1.007,0.241,2.046,0.499,2.813,0.499c0.939-0.136,1.203-0.343,1.406-0.8c1.071-2.455-1.063-8.779-2.627-11.271
	C369.473,387.657,367.089,386.53,363.634,386.53 M321.074,382.896c-0.475,0-0.95,0.079-1.417,0.229
	c-2.752,0.921-5.494,2.799-8.146,4.611c-1.003,0.686-1.988,1.356-2.959,1.971c-1.863,1.178-3.802,2.256-5.726,3.325
	c-1.609,0.894-3.211,1.786-4.74,2.721c-0.885,0.543-1.866,1.448-1.522,2.655c0.289,1.028,1.498,2.093,3.015,2.093
	c0.872,0,1.717-0.344,2.521-1.021c2.412-2.049,5.586-3.369,8.655-4.64c1.05-0.436,2.077-0.856,3.023-1.301
	c1.214-0.563,2.72-1.041,4.28-1.526c2.272-0.699,4.854-1.506,6.174-2.67c1.511-1.335,1.418-2.698,1.07-3.604
	C324.768,384.323,323.145,382.896,321.074,382.896 M184.255,371.589c-1.195,0-2.266,0.536-2.791,1.399
	c-0.675,1.106-0.253,2.419,0.218,3.334c0.914,1.763,2.477,3.248,4.13,4.818c0.828,0.785,1.652,1.57,2.402,2.391
	c2.063,2.249,3.697,4.705,5.276,7.075l2.087,3.148c1.278,1.998,3.209,5.025,5.054,5.025c1.096-0.037,1.596-0.271,1.706-0.472
	c0.2-0.343,0.147-1.521-0.824-3.333c-3.74-6.932-8.42-14.306-13.524-21.302C186.664,371.86,185.08,371.589,184.255,371.589
	 M137.059,385.131c-1.903,0-3.998,1.819-5.847,3.42c-0.921,0.792-1.788,1.534-2.588,2.063c-0.881,0.585-1.82,0.856-2.577,1.071
	c-1.331,0.385-1.338,0.435-1.417,0.956c-0.032,0.228-0.139,0.929,2.378,1.735c1.595,0.507,3.172,0.777,4.561,0.777
	c2.331,0,4.072-0.735,5.179-2.177c1.953-2.556,3.034-5.063,2.756-6.375c-0.068-0.314-0.225-0.686-0.871-1.035
	C138.101,385.273,137.587,385.131,137.059,385.131 M190.191,357.618c-0.803,0-1.588,0.414-2.391,1.265
	c-1.114,1.178,0.714,4.626,5.429,10.243l1.192,1.448c3.426,4.385,6.421,8.567,9.152,12.801l1.184,1.885
	c1.992,3.212,4.474,7.217,7.492,8.752c0.664,0.343,1.347,0.52,1.972,0.52c0.728,0,1.338-0.234,1.717-0.67
	c0.487-0.557,0.506-1.349,0.431-1.914c-0.914-7.03-6.821-13.819-12.032-19.809l-2.555-2.962c-0.589-0.7-1.292-1.664-2.088-2.756
	C197.305,363.13,193.307,357.618,190.191,357.618 M308.691,368.313c-8.599,2.934-16.118,8.045-21.74,14.784
	c-0.854,1.02-3.441,4.119-3.152,6.16c0.059,0.407,0.25,1.027,1.275,1.721c0.596,0.407,1.295,0.599,2.141,0.599
	c1.357,0,3.01-0.521,4.648-1.463c2.769-1.605,4.879-4.054,7.109-6.652c2.444-2.849,4.977-5.797,8.56-7.761
	c0.668-0.37,1.403-0.67,2.146-0.97c1.928-0.771,2.795-1.221,3.016-2.228c0.103-0.485-0.225-1.542-1.043-2.563
	c-0.811-1.007-1.865-1.685-2.627-1.685C308.903,368.256,308.795,368.277,308.691,368.313 M126.64,378.057
	c-0.339,0-0.871,0.185-1.435,0.392c-0.396,0.144-0.803,0.287-1.228,0.408c-1.349,0.392-2.912,0.742-4.565,1.12
	c-4.872,1.107-10.933,2.484-13.56,5.561c-0.514,0.601-0.417,0.808-0.385,0.879c0.835,1.813,7.417,3.641,10.047,3.641
	c2.338-0.035,3.213-0.785,4.669-3.005c1.324-2.021,2.752-3.17,4.133-4.283c0.635-0.515,1.303-1.05,2.006-1.714
	c0.939-0.885,1.338-1.741,1.31-2.163c-0.003-0.071-0.018-0.3-0.474-0.635L126.64,378.057z M290.285,363.395
	c-2.163,0-4.629,0.599-6.428,1.042l-5.112,1.285c-4.214,1.085-8.198,2.112-12.636,2.726c-0.631,0.086-1.324,0.15-2.047,0.223
	c-2.975,0.292-6.676,0.655-7.699,2.77c-0.897,1.848,0.207,8.516,1.74,10.493c1.613,2.085,5.769,2.206,8.804,2.299l1.229,2.099v-2.07
	c5.758,0,9.225-3.313,13.231-7.152c2.185-2.092,4.44-4.247,7.225-6.025l0.65-0.406c4.487-2.82,5.657-4.319,4.64-5.961
	C293.68,364.387,293.059,363.395,290.285,363.395 M236.196,377.757c0.007,0,0.118,0.293,0.763,0.771l0.457,0.335l0.625,1.499
	c1.359,3.297,1.799,4.004,3.355,4.004c0.485,0,1.07-0.077,1.742-0.228c2.822-0.643,4.482-1.479,5.067-2.548
	c0.507-0.929,0.397-2.429-0.332-4.462c-0.763-2.142-1.897-2.584-3.362-2.584c-1.565,0-3.473,0.585-5.3,1.221
	C237.37,376.407,236.271,377.406,236.196,377.757 M352.555,370.126c-0.55,0-1.135,0.034-1.767,0.113
	c-4.03,0.499-7.913,1.877-11.179,3.156c-0.668,0.263-1.502,0.513-2.406,0.785c-1.785,0.528-5.1,1.514-5.493,2.655
	c-0.325,0.957,1.081,2.627,2.11,3.848c0.398,0.472,0.777,0.921,1.089,1.342c1.505,2.035,2.233,2.199,2.965,2.199
	c0.896,0,2.206-0.364,3.866-0.821l3.734-1.071c2.791-0.827,5.679-1.684,8.687-2.141c0.438-0.064,1.06-0.101,1.785-0.143
	c1.067-0.059,4.315-0.229,4.837-0.914C358.434,372.902,357.17,370.126,352.555,370.126 M341.379,356.049
	c-2.515,0-5.691,1.049-8.245,1.884c-0.995,0.329-1.897,0.621-2.644,0.821c-5.733,1.542-11.547,3.677-11.19,7.796
	c0.235,2.712,1.281,2.712,2.041,2.712c2.429,0,6.157-2.084,8.624-3.469c0.732-0.407,1.379-0.771,1.905-1.035
	c0.543-0.278,1.79-0.692,3.377-1.207c6.507-2.091,10.083-3.712,10.63-4.818c-0.064-0.021-0.238-0.221-0.643-0.507l-0.41-0.285
	l-0.232-0.442C344.239,356.825,343.553,356.049,341.379,356.049 M238.541,351.352c-5.443,0-13.992,3.134-15.105,4.74
	c-0.457,0.663-0.506,0.935,1.297,2.861c0.441,0.479,0.881,0.95,1.248,1.42c1.136,1.465,1.804,3.05,2.453,4.584
	c0.566,1.343,1.105,2.619,1.897,3.612c0.403,0.506,1.308,0.614,1.993,0.614c3.476,0,8.955-2.605,11.053-4.326
	c1.495-1.228,1.617-2.163,0.689-5.261c-1.117-3.72-2.783-7.312-3.715-8.01C240.348,351.587,239.926,351.352,238.541,351.352
	 M278.967,339.815c-2.441,0-6.359,1.47-9.224,2.548c-1.419,0.528-2.69,1.006-3.651,1.278c-1.749,0.5-3.693,0.906-5.664,1.313
	c-3.068,0.643-6.242,1.307-8.635,2.342c-1.883,0.819-1.902,1.74-1.156,5.311l0.314,1.578l0.218,1.356
	c0.519,3.483,1.054,5.275,2.548,5.411c0.315,0.028,0.621,0.041,0.932,0.041c2.773,0,5.482-1.063,8.353-2.19
	c1.081-0.421,2.157-0.842,3.228-1.206c3.769-1.278,7.52-1.742,11.149-2.199l3.363-0.435c1.252-0.187,4.586-0.672,5.179-1.728
	c0.292-0.521,0.096-1.678-0.539-3.164c-0.264-0.621-0.554-1.391-0.875-2.255c-0.924-2.484-2.648-7.103-4.439-7.845
	C279.889,339.901,279.553,339.815,278.967,339.815 M300.454,334.746c-4.58,0-8.608,1.843-8.877,2.771
	c-0.144,0.728,0.832,2.556,1.474,3.769c0.692,1.3,1.406,2.649,1.695,3.941c0.186,0.842,0.261,1.792,0.326,2.77
	c0.142,2.142,0.296,3.47,1.227,3.977c0.028,0.014,0.305,0.148,1.121,0.148c1.178,0,2.584-0.25,3.934-0.47
	c1.48-0.25,2.908-0.479,4.013-0.479c1.13,0.057,1.858,0.171,2.616,0.3c0.796,0.136,1.631,0.285,2.416,0.285
	c1.185,0,1.377-0.385,1.531-0.692c1.545-3.112-3.47-9.787-5.88-12.993l-1.167-1.576
	C304.477,335.496,303.309,334.746,300.454,334.746 M226.252,324.596c-6.574,0-15.012,2.663-16.604,6.489
	c-2.004,4.79,0.441,15.44,5.129,17.945c0.398,0.214,0.888,0.322,1.494,0.322c2.146,0,5.022-1.313,7.332-2.37
	c1.006-0.457,1.938-0.878,2.733-1.178l1.571-0.565c3.48-1.233,7.809-2.762,8.947-5.76c0.922-2.42,0.298-6.074-1.592-9.302
	c-1.772-3.033-4.262-5.062-6.656-5.425C227.911,324.646,227.116,324.596,226.252,324.596 M317.633,333.155
	c-1.445,0-2.381,0.563-3.029,1.827c-0.653,1.271,0.367,2.891,1.885,5.04c0.421,0.599,0.828,1.177,1.152,1.72
	c0.603,0.999,1.03,2.213,1.441,3.384c0.493,1.406,1.049,2.999,1.768,3.612c0.168,0.135,1.045,0.485,3.051,0.485
	c4.619,0,9.477-1.749,9.967-2.805c0.677-2.335-4.559-6.589-6.796-8.402c-0.615-0.5-1.164-0.949-1.597-1.328
	C323.473,334.933,320.139,333.155,317.633,333.155 M263.348,313.08c-2.563,0-5.914,1.115-8.877,2.1c-1.574,0.521-3.037,1-4.24,1.285
	l-1.789,0.379c-2.655,0.549-6.666,1.37-7.83,3.169c-0.618,0.957,0.898,5.39,1.47,7.06c0.418,1.213,0.786,2.307,0.976,3.126
	l0.363,1.722c0.893,4.412,1.561,6.347,4.223,6.347c3.213-0.136,6.403-1.607,9.487-3.028c1.335-0.612,2.638-1.212,3.901-1.706
	c1.988-0.763,3.808-1.462,5.671-2.005c0.815-0.243,1.832-0.393,2.892-0.542c1.295-0.179,2.909-0.4,3.569-0.85
	c1.614-1.101,1.021-3.056-0.821-6.754l-0.488-0.999l-0.689-1.549c-0.871-2.027-3.191-7.403-5.126-7.403h-0.349l-0.604-0.107
	C264.618,313.167,264.033,313.08,263.348,313.08 M282.783,309.727c-1.643,0-3.246,0.085-4.645,0.207
	c-0.757,0.071-0.867,0.292-0.902,0.371c-0.332,0.678-0.812,3.826,6.924,15.676c1.513,2.335,3.298,3.141,6.135,3.141
	c2.256,0,4.809-0.543,7.061-1.013l1.067-0.222c2.813-0.585,3.334-1.393,3.427-1.62c0.488-1.236-1.703-4.354-3.306-6.64l-1.813-2.648
	c-1.791-2.684-3.647-5.468-6.478-6.361C288.411,310.032,285.83,309.727,282.783,309.727 M240.223,294.635
	c-2.639,0-4.934,0.336-6.646,0.964c-1.282,0.164-1.471,0.313-1.471,0.321c-0.336,0.57,0.557,3.02,0.892,3.94
	c0.218,0.593,0.414,1.143,0.547,1.6c0.207,0.728,0.353,1.627,0.503,2.577c0.305,1.927,0.682,4.325,1.824,4.754h0.104
	c1.893,0,4.564-1.043,6.524-1.806c1.288-0.5,2.446-0.942,3.259-1.149c2.606-0.664,5.207-1.008,7.814-1.35
	c1.713-0.222,3.425-0.449,5.142-0.771c2.007-0.379,2.39-0.878,2.392-0.886c-0.116-0.978-4.098-4.226-7.717-5.739
	C249.834,295.599,244.665,294.635,240.223,294.635"/>
<path style="fill:#79000C;" d="M150.908,360.403c-6.264,0-11.365-4.97-11.365-11.072c0-6.104,5.101-11.065,11.365-11.065
	s11.364,4.962,11.364,11.065C162.271,355.434,157.172,360.403,150.908,360.403"/>
<path style="fill:#79000C;" d="M171.252,543.601l-0.367-2.677v-6.796l-12.49-1.249c-0.999-0.107-2.302-0.558-3.115-1.064
	l-2.906-1.806l-0.114-1.898c0.189-1.028,1.006-1.786,2.184-2.014l16.941-3.177c0.663-0.137,1.78-0.313,2.465-0.421l18.714-2.757h1.4
	l1.43,1.414c0.14,0.351,0.504,1.585-0.745,2.785l-19.992,19.396l-1.335,0.264H171.252z M248.877,540.744l-0.356-2.676v-11.529
	H237.31c-1.353,0-2.827-0.764-3.59-1.87l-0.625-0.899c-0.579-0.835-0.704-1.855-0.325-2.727c0.378-0.887,1.217-1.499,2.242-1.656
	l25.277-3.783c0.742-0.115,1.967-0.207,2.72-0.207h9.666l1.138,1.527c0.396,0.957,0.139,2.021-0.691,2.849l-20.828,20.701
	l-1.342,0.271H248.877z M171.55,517.658l-1.236-1.292l-0.603-1l0.596-1.727c0.732-1.377,1.66-2.412,2.481-2.97l10.49-7.188
	l0.089-37.206c0-1.792,1.475-3.248,3.287-3.248h5.937c1.812,0,3.287,1.456,3.287,3.248v9.051l8.092,2.206
	c1.509,0.479,2.605,1.956,2.605,3.521c0,2.027-1.475,3.482-3.287,3.482h-7.393l0.24,26.035c0.003,1.014-0.358,2.385-0.861,3.254
	c-0.985,1.707-2.413,2.585-3.779,2.679l-18.775,1.155H171.55z M243.367,513.676c-1.729,0-3.08-1.292-3.08-2.948
	c0-1.299,0.838-2.705,2.033-3.427l11.754-7.067l0.285-33.973c0.012-1.686,1.336-3.005,3.014-3.005l5.547,1.112
	c1.602,0.337,2.822,1.821,2.822,3.455v5.319l10.127,1.399c1.705,0.242,2.99,1.642,2.99,3.263c0,1.584-1.303,3.019-2.963,3.269
	l-10.154,1.614v24.792c0,1.67-1.313,3.17-2.983,3.397l-18.9,2.763L243.367,513.676z"/>
<path style="fill:#79000C;" d="M106.884,352.993l-0.792-0.25c-0.189-0.078-19.835-8.166-30.75-10.379
	c-11.146-2.256-17.136-3.155-17.168-3.163c-1.692-0.257-2.966-1.592-2.966-3.112c0-1.628,1.413-2.899,3.216-2.899
	c1.613,0.072,35.718,1.699,50.066,5.134l1.592,0.379v11.414c0,1.642-1.196,2.877-2.784,2.877H106.884z"/>
<path style="fill:#79000C;" d="M100.398,371.318c-0.41-0.079-10.158-1.992-18.432-4.861c-8.359-2.892-10.733-5.411-11.125-5.89
	l-0.832-1.015l0.353-1.72l0.561-1.185l1.596-0.122c0.278,0,0.564,0.036,0.87,0.122c4.348,1.171,16.387,4.231,19.878,4.347
	c4.547,0.144,13.417,1.25,13.792,1.3l1.352,0.17l0.964,1.65c0.286,0.985-0.075,2.013-0.964,2.748l-4.18,3.476
	c-0.777,0.65-1.948,1.05-3.055,1.05L100.398,371.318z"/>
<path style="fill:#1F0000;" d="M104.575,334.747c-0.882,0-1.738-0.357-2.345-0.985c-0.611-0.621-0.932-1.45-0.906-2.32
	c0.039-1.363,1.017-33.394,2.087-42.289c1.05-8.73,1.246-11.707,1.249-11.764l-15.047-10.837c-1.082-0.779-1.839-2.242-1.839-3.555
	c0-1.601,1.153-2.806,2.681-2.806h0.507l0.91,0.364c1.178,0.614,28.75,15.148,39.03,22.4c10.273,7.246,26.32,21.744,26.998,22.357
	l1.06,0.957l-0.246,1.893c-0.143,0.364-0.746,1.556-2.531,1.556h-6.406c-1.189,0-2.624-0.55-3.495-1.335
	c-2.859-2.57-8.184-6.967-10.276-7.817c-0.414-0.164-0.681-0.199-0.835-0.199c-0.621,0-0.95,1.25-1.064,1.785
	c-0.182,0.991,0.268,6.153,0.793,10.365c0.214,1.678-0.925,3.319-2.599,3.727l-2.948,0.721c-0.828,0.2-2.006,0.349-2.741,0.349
	c-0.846,0-1.631-0.342-2.209-0.963c-0.6-0.649-0.9-1.534-0.832-2.441l1.417-17.368c0.053-0.687,0.192-1.807,0.299-2.484
	c0.047-0.35,0.051-1.441-0.513-2.099c-0.904-1.049-4.451-4.161-6.615-5.996l-2.262,0.764l-1.435,5.218
	c-0.129,0.492-0.268,1.393-0.293,1.893l-1.938,37.769c-0.089,1.765-1.556,3.143-3.344,3.143H104.575z"/>
<g>
</g>
<g>
</g>
<g>
</g>
<g>
</g>
<g>
</g>
<g>
</g>
</svg>
